%TF.GenerationSoftware,KiCad,Pcbnew,7.0.7*%
%TF.CreationDate,2023-12-17T10:52:51+01:00*%
%TF.ProjectId,everstar,65766572-7374-4617-922e-6b696361645f,rev?*%
%TF.SameCoordinates,Original*%
%TF.FileFunction,Legend,Top*%
%TF.FilePolarity,Positive*%
%FSLAX46Y46*%
G04 Gerber Fmt 4.6, Leading zero omitted, Abs format (unit mm)*
G04 Created by KiCad (PCBNEW 7.0.7) date 2023-12-17 10:52:51*
%MOMM*%
%LPD*%
G01*
G04 APERTURE LIST*
%ADD10C,0.250000*%
%ADD11C,0.300000*%
%ADD12C,0.150000*%
%ADD13C,0.200000*%
%ADD14C,0.120000*%
G04 APERTURE END LIST*
D10*
X51908996Y-106622952D02*
X52342330Y-106622952D01*
X52528044Y-107303904D02*
X51908996Y-107303904D01*
X51908996Y-107303904D02*
X51908996Y-106003904D01*
X51908996Y-106003904D02*
X52528044Y-106003904D01*
X52961377Y-106437238D02*
X53270901Y-107303904D01*
X53270901Y-107303904D02*
X53580424Y-106437238D01*
X54570900Y-107242000D02*
X54447091Y-107303904D01*
X54447091Y-107303904D02*
X54199472Y-107303904D01*
X54199472Y-107303904D02*
X54075662Y-107242000D01*
X54075662Y-107242000D02*
X54013758Y-107118190D01*
X54013758Y-107118190D02*
X54013758Y-106622952D01*
X54013758Y-106622952D02*
X54075662Y-106499142D01*
X54075662Y-106499142D02*
X54199472Y-106437238D01*
X54199472Y-106437238D02*
X54447091Y-106437238D01*
X54447091Y-106437238D02*
X54570900Y-106499142D01*
X54570900Y-106499142D02*
X54632805Y-106622952D01*
X54632805Y-106622952D02*
X54632805Y-106746761D01*
X54632805Y-106746761D02*
X54013758Y-106870571D01*
X55189948Y-107303904D02*
X55189948Y-106437238D01*
X55189948Y-106684857D02*
X55251853Y-106561047D01*
X55251853Y-106561047D02*
X55313758Y-106499142D01*
X55313758Y-106499142D02*
X55437567Y-106437238D01*
X55437567Y-106437238D02*
X55561377Y-106437238D01*
X55932806Y-107242000D02*
X56056615Y-107303904D01*
X56056615Y-107303904D02*
X56304234Y-107303904D01*
X56304234Y-107303904D02*
X56428044Y-107242000D01*
X56428044Y-107242000D02*
X56489948Y-107118190D01*
X56489948Y-107118190D02*
X56489948Y-107056285D01*
X56489948Y-107056285D02*
X56428044Y-106932476D01*
X56428044Y-106932476D02*
X56304234Y-106870571D01*
X56304234Y-106870571D02*
X56118520Y-106870571D01*
X56118520Y-106870571D02*
X55994710Y-106808666D01*
X55994710Y-106808666D02*
X55932806Y-106684857D01*
X55932806Y-106684857D02*
X55932806Y-106622952D01*
X55932806Y-106622952D02*
X55994710Y-106499142D01*
X55994710Y-106499142D02*
X56118520Y-106437238D01*
X56118520Y-106437238D02*
X56304234Y-106437238D01*
X56304234Y-106437238D02*
X56428044Y-106499142D01*
X56861377Y-106437238D02*
X57356615Y-106437238D01*
X57047091Y-106003904D02*
X57047091Y-107118190D01*
X57047091Y-107118190D02*
X57108996Y-107242000D01*
X57108996Y-107242000D02*
X57232806Y-107303904D01*
X57232806Y-107303904D02*
X57356615Y-107303904D01*
X58347091Y-107303904D02*
X58347091Y-106622952D01*
X58347091Y-106622952D02*
X58285186Y-106499142D01*
X58285186Y-106499142D02*
X58161377Y-106437238D01*
X58161377Y-106437238D02*
X57913758Y-106437238D01*
X57913758Y-106437238D02*
X57789948Y-106499142D01*
X58347091Y-107242000D02*
X58223282Y-107303904D01*
X58223282Y-107303904D02*
X57913758Y-107303904D01*
X57913758Y-107303904D02*
X57789948Y-107242000D01*
X57789948Y-107242000D02*
X57728044Y-107118190D01*
X57728044Y-107118190D02*
X57728044Y-106994380D01*
X57728044Y-106994380D02*
X57789948Y-106870571D01*
X57789948Y-106870571D02*
X57913758Y-106808666D01*
X57913758Y-106808666D02*
X58223282Y-106808666D01*
X58223282Y-106808666D02*
X58347091Y-106746761D01*
X58966138Y-107303904D02*
X58966138Y-106437238D01*
X58966138Y-106684857D02*
X59028043Y-106561047D01*
X59028043Y-106561047D02*
X59089948Y-106499142D01*
X59089948Y-106499142D02*
X59213757Y-106437238D01*
X59213757Y-106437238D02*
X59337567Y-106437238D01*
X61689948Y-105942000D02*
X60575662Y-107613428D01*
X63113757Y-107303904D02*
X63113757Y-106003904D01*
X64413758Y-106065809D02*
X64289948Y-106003904D01*
X64289948Y-106003904D02*
X64104234Y-106003904D01*
X64104234Y-106003904D02*
X63918520Y-106065809D01*
X63918520Y-106065809D02*
X63794710Y-106189619D01*
X63794710Y-106189619D02*
X63732805Y-106313428D01*
X63732805Y-106313428D02*
X63670901Y-106561047D01*
X63670901Y-106561047D02*
X63670901Y-106746761D01*
X63670901Y-106746761D02*
X63732805Y-106994380D01*
X63732805Y-106994380D02*
X63794710Y-107118190D01*
X63794710Y-107118190D02*
X63918520Y-107242000D01*
X63918520Y-107242000D02*
X64104234Y-107303904D01*
X64104234Y-107303904D02*
X64228043Y-107303904D01*
X64228043Y-107303904D02*
X64413758Y-107242000D01*
X64413758Y-107242000D02*
X64475662Y-107180095D01*
X64475662Y-107180095D02*
X64475662Y-106746761D01*
X64475662Y-106746761D02*
X64228043Y-106746761D01*
X64970901Y-107242000D02*
X65156615Y-107303904D01*
X65156615Y-107303904D02*
X65466139Y-107303904D01*
X65466139Y-107303904D02*
X65589948Y-107242000D01*
X65589948Y-107242000D02*
X65651853Y-107180095D01*
X65651853Y-107180095D02*
X65713758Y-107056285D01*
X65713758Y-107056285D02*
X65713758Y-106932476D01*
X65713758Y-106932476D02*
X65651853Y-106808666D01*
X65651853Y-106808666D02*
X65589948Y-106746761D01*
X65589948Y-106746761D02*
X65466139Y-106684857D01*
X65466139Y-106684857D02*
X65218520Y-106622952D01*
X65218520Y-106622952D02*
X65094710Y-106561047D01*
X65094710Y-106561047D02*
X65032805Y-106499142D01*
X65032805Y-106499142D02*
X64970901Y-106375333D01*
X64970901Y-106375333D02*
X64970901Y-106251523D01*
X64970901Y-106251523D02*
X65032805Y-106127714D01*
X65032805Y-106127714D02*
X65094710Y-106065809D01*
X65094710Y-106065809D02*
X65218520Y-106003904D01*
X65218520Y-106003904D02*
X65528043Y-106003904D01*
X65528043Y-106003904D02*
X65713758Y-106065809D01*
X52651853Y-109396904D02*
X52218520Y-108777857D01*
X51908996Y-109396904D02*
X51908996Y-108096904D01*
X51908996Y-108096904D02*
X52404234Y-108096904D01*
X52404234Y-108096904D02*
X52528044Y-108158809D01*
X52528044Y-108158809D02*
X52589949Y-108220714D01*
X52589949Y-108220714D02*
X52651853Y-108344523D01*
X52651853Y-108344523D02*
X52651853Y-108530238D01*
X52651853Y-108530238D02*
X52589949Y-108654047D01*
X52589949Y-108654047D02*
X52528044Y-108715952D01*
X52528044Y-108715952D02*
X52404234Y-108777857D01*
X52404234Y-108777857D02*
X51908996Y-108777857D01*
X53456615Y-108096904D02*
X53704234Y-108096904D01*
X53704234Y-108096904D02*
X53828044Y-108158809D01*
X53828044Y-108158809D02*
X53951853Y-108282619D01*
X53951853Y-108282619D02*
X54013758Y-108530238D01*
X54013758Y-108530238D02*
X54013758Y-108963571D01*
X54013758Y-108963571D02*
X53951853Y-109211190D01*
X53951853Y-109211190D02*
X53828044Y-109335000D01*
X53828044Y-109335000D02*
X53704234Y-109396904D01*
X53704234Y-109396904D02*
X53456615Y-109396904D01*
X53456615Y-109396904D02*
X53332806Y-109335000D01*
X53332806Y-109335000D02*
X53208996Y-109211190D01*
X53208996Y-109211190D02*
X53147092Y-108963571D01*
X53147092Y-108963571D02*
X53147092Y-108530238D01*
X53147092Y-108530238D02*
X53208996Y-108282619D01*
X53208996Y-108282619D02*
X53332806Y-108158809D01*
X53332806Y-108158809D02*
X53456615Y-108096904D01*
X54570901Y-109396904D02*
X54570901Y-108096904D01*
X54570901Y-108096904D02*
X55004235Y-109025476D01*
X55004235Y-109025476D02*
X55437568Y-108096904D01*
X55437568Y-108096904D02*
X55437568Y-109396904D01*
X57604234Y-109396904D02*
X57604234Y-108715952D01*
X57604234Y-108715952D02*
X57542329Y-108592142D01*
X57542329Y-108592142D02*
X57418520Y-108530238D01*
X57418520Y-108530238D02*
X57170901Y-108530238D01*
X57170901Y-108530238D02*
X57047091Y-108592142D01*
X57604234Y-109335000D02*
X57480425Y-109396904D01*
X57480425Y-109396904D02*
X57170901Y-109396904D01*
X57170901Y-109396904D02*
X57047091Y-109335000D01*
X57047091Y-109335000D02*
X56985187Y-109211190D01*
X56985187Y-109211190D02*
X56985187Y-109087380D01*
X56985187Y-109087380D02*
X57047091Y-108963571D01*
X57047091Y-108963571D02*
X57170901Y-108901666D01*
X57170901Y-108901666D02*
X57480425Y-108901666D01*
X57480425Y-108901666D02*
X57604234Y-108839761D01*
X58780424Y-109396904D02*
X58780424Y-108096904D01*
X58780424Y-109335000D02*
X58656615Y-109396904D01*
X58656615Y-109396904D02*
X58408996Y-109396904D01*
X58408996Y-109396904D02*
X58285186Y-109335000D01*
X58285186Y-109335000D02*
X58223281Y-109273095D01*
X58223281Y-109273095D02*
X58161377Y-109149285D01*
X58161377Y-109149285D02*
X58161377Y-108777857D01*
X58161377Y-108777857D02*
X58223281Y-108654047D01*
X58223281Y-108654047D02*
X58285186Y-108592142D01*
X58285186Y-108592142D02*
X58408996Y-108530238D01*
X58408996Y-108530238D02*
X58656615Y-108530238D01*
X58656615Y-108530238D02*
X58780424Y-108592142D01*
X59956614Y-109396904D02*
X59956614Y-108715952D01*
X59956614Y-108715952D02*
X59894709Y-108592142D01*
X59894709Y-108592142D02*
X59770900Y-108530238D01*
X59770900Y-108530238D02*
X59523281Y-108530238D01*
X59523281Y-108530238D02*
X59399471Y-108592142D01*
X59956614Y-109335000D02*
X59832805Y-109396904D01*
X59832805Y-109396904D02*
X59523281Y-109396904D01*
X59523281Y-109396904D02*
X59399471Y-109335000D01*
X59399471Y-109335000D02*
X59337567Y-109211190D01*
X59337567Y-109211190D02*
X59337567Y-109087380D01*
X59337567Y-109087380D02*
X59399471Y-108963571D01*
X59399471Y-108963571D02*
X59523281Y-108901666D01*
X59523281Y-108901666D02*
X59832805Y-108901666D01*
X59832805Y-108901666D02*
X59956614Y-108839761D01*
X60575661Y-108530238D02*
X60575661Y-109830238D01*
X60575661Y-108592142D02*
X60699471Y-108530238D01*
X60699471Y-108530238D02*
X60947090Y-108530238D01*
X60947090Y-108530238D02*
X61070899Y-108592142D01*
X61070899Y-108592142D02*
X61132804Y-108654047D01*
X61132804Y-108654047D02*
X61194709Y-108777857D01*
X61194709Y-108777857D02*
X61194709Y-109149285D01*
X61194709Y-109149285D02*
X61132804Y-109273095D01*
X61132804Y-109273095D02*
X61070899Y-109335000D01*
X61070899Y-109335000D02*
X60947090Y-109396904D01*
X60947090Y-109396904D02*
X60699471Y-109396904D01*
X60699471Y-109396904D02*
X60575661Y-109335000D01*
X61566137Y-108530238D02*
X62061375Y-108530238D01*
X61751851Y-108096904D02*
X61751851Y-109211190D01*
X61751851Y-109211190D02*
X61813756Y-109335000D01*
X61813756Y-109335000D02*
X61937566Y-109396904D01*
X61937566Y-109396904D02*
X62061375Y-109396904D01*
X62989946Y-109335000D02*
X62866137Y-109396904D01*
X62866137Y-109396904D02*
X62618518Y-109396904D01*
X62618518Y-109396904D02*
X62494708Y-109335000D01*
X62494708Y-109335000D02*
X62432804Y-109211190D01*
X62432804Y-109211190D02*
X62432804Y-108715952D01*
X62432804Y-108715952D02*
X62494708Y-108592142D01*
X62494708Y-108592142D02*
X62618518Y-108530238D01*
X62618518Y-108530238D02*
X62866137Y-108530238D01*
X62866137Y-108530238D02*
X62989946Y-108592142D01*
X62989946Y-108592142D02*
X63051851Y-108715952D01*
X63051851Y-108715952D02*
X63051851Y-108839761D01*
X63051851Y-108839761D02*
X62432804Y-108963571D01*
X63608994Y-109396904D02*
X63608994Y-108530238D01*
X63608994Y-108777857D02*
X63670899Y-108654047D01*
X63670899Y-108654047D02*
X63732804Y-108592142D01*
X63732804Y-108592142D02*
X63856613Y-108530238D01*
X63856613Y-108530238D02*
X63980423Y-108530238D01*
X51908996Y-113582904D02*
X51908996Y-112282904D01*
X51908996Y-112778142D02*
X52032806Y-112716238D01*
X52032806Y-112716238D02*
X52280425Y-112716238D01*
X52280425Y-112716238D02*
X52404234Y-112778142D01*
X52404234Y-112778142D02*
X52466139Y-112840047D01*
X52466139Y-112840047D02*
X52528044Y-112963857D01*
X52528044Y-112963857D02*
X52528044Y-113335285D01*
X52528044Y-113335285D02*
X52466139Y-113459095D01*
X52466139Y-113459095D02*
X52404234Y-113521000D01*
X52404234Y-113521000D02*
X52280425Y-113582904D01*
X52280425Y-113582904D02*
X52032806Y-113582904D01*
X52032806Y-113582904D02*
X51908996Y-113521000D01*
X53642329Y-112716238D02*
X53642329Y-113582904D01*
X53085186Y-112716238D02*
X53085186Y-113397190D01*
X53085186Y-113397190D02*
X53147091Y-113521000D01*
X53147091Y-113521000D02*
X53270901Y-113582904D01*
X53270901Y-113582904D02*
X53456615Y-113582904D01*
X53456615Y-113582904D02*
X53580424Y-113521000D01*
X53580424Y-113521000D02*
X53642329Y-113459095D01*
X54075662Y-112716238D02*
X54570900Y-112716238D01*
X54261376Y-113582904D02*
X54261376Y-112468619D01*
X54261376Y-112468619D02*
X54323281Y-112344809D01*
X54323281Y-112344809D02*
X54447091Y-112282904D01*
X54447091Y-112282904D02*
X54570900Y-112282904D01*
X54818519Y-112716238D02*
X55313757Y-112716238D01*
X55004233Y-113582904D02*
X55004233Y-112468619D01*
X55004233Y-112468619D02*
X55066138Y-112344809D01*
X55066138Y-112344809D02*
X55189948Y-112282904D01*
X55189948Y-112282904D02*
X55313757Y-112282904D01*
X55747090Y-113582904D02*
X55747090Y-112716238D01*
X55747090Y-112282904D02*
X55685186Y-112344809D01*
X55685186Y-112344809D02*
X55747090Y-112406714D01*
X55747090Y-112406714D02*
X55808995Y-112344809D01*
X55808995Y-112344809D02*
X55747090Y-112282904D01*
X55747090Y-112282904D02*
X55747090Y-112406714D01*
X57356614Y-113087666D02*
X58347091Y-113087666D01*
X59894710Y-112406714D02*
X59956614Y-112344809D01*
X59956614Y-112344809D02*
X60080424Y-112282904D01*
X60080424Y-112282904D02*
X60389948Y-112282904D01*
X60389948Y-112282904D02*
X60513757Y-112344809D01*
X60513757Y-112344809D02*
X60575662Y-112406714D01*
X60575662Y-112406714D02*
X60637567Y-112530523D01*
X60637567Y-112530523D02*
X60637567Y-112654333D01*
X60637567Y-112654333D02*
X60575662Y-112840047D01*
X60575662Y-112840047D02*
X59832805Y-113582904D01*
X59832805Y-113582904D02*
X60637567Y-113582904D01*
X61442328Y-112282904D02*
X61566138Y-112282904D01*
X61566138Y-112282904D02*
X61689947Y-112344809D01*
X61689947Y-112344809D02*
X61751852Y-112406714D01*
X61751852Y-112406714D02*
X61813757Y-112530523D01*
X61813757Y-112530523D02*
X61875662Y-112778142D01*
X61875662Y-112778142D02*
X61875662Y-113087666D01*
X61875662Y-113087666D02*
X61813757Y-113335285D01*
X61813757Y-113335285D02*
X61751852Y-113459095D01*
X61751852Y-113459095D02*
X61689947Y-113521000D01*
X61689947Y-113521000D02*
X61566138Y-113582904D01*
X61566138Y-113582904D02*
X61442328Y-113582904D01*
X61442328Y-113582904D02*
X61318519Y-113521000D01*
X61318519Y-113521000D02*
X61256614Y-113459095D01*
X61256614Y-113459095D02*
X61194709Y-113335285D01*
X61194709Y-113335285D02*
X61132805Y-113087666D01*
X61132805Y-113087666D02*
X61132805Y-112778142D01*
X61132805Y-112778142D02*
X61194709Y-112530523D01*
X61194709Y-112530523D02*
X61256614Y-112406714D01*
X61256614Y-112406714D02*
X61318519Y-112344809D01*
X61318519Y-112344809D02*
X61442328Y-112282904D01*
X62370900Y-112406714D02*
X62432804Y-112344809D01*
X62432804Y-112344809D02*
X62556614Y-112282904D01*
X62556614Y-112282904D02*
X62866138Y-112282904D01*
X62866138Y-112282904D02*
X62989947Y-112344809D01*
X62989947Y-112344809D02*
X63051852Y-112406714D01*
X63051852Y-112406714D02*
X63113757Y-112530523D01*
X63113757Y-112530523D02*
X63113757Y-112654333D01*
X63113757Y-112654333D02*
X63051852Y-112840047D01*
X63051852Y-112840047D02*
X62308995Y-113582904D01*
X62308995Y-113582904D02*
X63113757Y-113582904D01*
X64228042Y-112716238D02*
X64228042Y-113582904D01*
X63918518Y-112221000D02*
X63608995Y-113149571D01*
X63608995Y-113149571D02*
X64413756Y-113149571D01*
D11*
X53133572Y-67353328D02*
X52276429Y-67353328D01*
X52705000Y-67353328D02*
X52705000Y-65853328D01*
X52705000Y-65853328D02*
X52562143Y-66067614D01*
X52562143Y-66067614D02*
X52419286Y-66210471D01*
X52419286Y-66210471D02*
X52276429Y-66281900D01*
X65333572Y-65853328D02*
X65476429Y-65853328D01*
X65476429Y-65853328D02*
X65619286Y-65924757D01*
X65619286Y-65924757D02*
X65690715Y-65996185D01*
X65690715Y-65996185D02*
X65762143Y-66139042D01*
X65762143Y-66139042D02*
X65833572Y-66424757D01*
X65833572Y-66424757D02*
X65833572Y-66781900D01*
X65833572Y-66781900D02*
X65762143Y-67067614D01*
X65762143Y-67067614D02*
X65690715Y-67210471D01*
X65690715Y-67210471D02*
X65619286Y-67281900D01*
X65619286Y-67281900D02*
X65476429Y-67353328D01*
X65476429Y-67353328D02*
X65333572Y-67353328D01*
X65333572Y-67353328D02*
X65190715Y-67281900D01*
X65190715Y-67281900D02*
X65119286Y-67210471D01*
X65119286Y-67210471D02*
X65047857Y-67067614D01*
X65047857Y-67067614D02*
X64976429Y-66781900D01*
X64976429Y-66781900D02*
X64976429Y-66424757D01*
X64976429Y-66424757D02*
X65047857Y-66139042D01*
X65047857Y-66139042D02*
X65119286Y-65996185D01*
X65119286Y-65996185D02*
X65190715Y-65924757D01*
X65190715Y-65924757D02*
X65333572Y-65853328D01*
D12*
X108200771Y-103517506D02*
X108153152Y-103565125D01*
X108153152Y-103565125D02*
X108010295Y-103660363D01*
X108010295Y-103660363D02*
X107915057Y-103707982D01*
X107915057Y-103707982D02*
X107772200Y-103755601D01*
X107772200Y-103755601D02*
X107534104Y-103803220D01*
X107534104Y-103803220D02*
X107343628Y-103803220D01*
X107343628Y-103803220D02*
X107105533Y-103755601D01*
X107105533Y-103755601D02*
X106962676Y-103707982D01*
X106962676Y-103707982D02*
X106867438Y-103660363D01*
X106867438Y-103660363D02*
X106724580Y-103565125D01*
X106724580Y-103565125D02*
X106676961Y-103517506D01*
X107772200Y-102707982D02*
X107819819Y-102803220D01*
X107819819Y-102803220D02*
X107819819Y-102993696D01*
X107819819Y-102993696D02*
X107772200Y-103088934D01*
X107772200Y-103088934D02*
X107724580Y-103136553D01*
X107724580Y-103136553D02*
X107629342Y-103184172D01*
X107629342Y-103184172D02*
X107343628Y-103184172D01*
X107343628Y-103184172D02*
X107248390Y-103136553D01*
X107248390Y-103136553D02*
X107200771Y-103088934D01*
X107200771Y-103088934D02*
X107153152Y-102993696D01*
X107153152Y-102993696D02*
X107153152Y-102803220D01*
X107153152Y-102803220D02*
X107200771Y-102707982D01*
X107819819Y-102136553D02*
X107772200Y-102231791D01*
X107772200Y-102231791D02*
X107724580Y-102279410D01*
X107724580Y-102279410D02*
X107629342Y-102327029D01*
X107629342Y-102327029D02*
X107343628Y-102327029D01*
X107343628Y-102327029D02*
X107248390Y-102279410D01*
X107248390Y-102279410D02*
X107200771Y-102231791D01*
X107200771Y-102231791D02*
X107153152Y-102136553D01*
X107153152Y-102136553D02*
X107153152Y-101993696D01*
X107153152Y-101993696D02*
X107200771Y-101898458D01*
X107200771Y-101898458D02*
X107248390Y-101850839D01*
X107248390Y-101850839D02*
X107343628Y-101803220D01*
X107343628Y-101803220D02*
X107629342Y-101803220D01*
X107629342Y-101803220D02*
X107724580Y-101850839D01*
X107724580Y-101850839D02*
X107772200Y-101898458D01*
X107772200Y-101898458D02*
X107819819Y-101993696D01*
X107819819Y-101993696D02*
X107819819Y-102136553D01*
X107153152Y-101374648D02*
X107819819Y-101374648D01*
X107248390Y-101374648D02*
X107200771Y-101327029D01*
X107200771Y-101327029D02*
X107153152Y-101231791D01*
X107153152Y-101231791D02*
X107153152Y-101088934D01*
X107153152Y-101088934D02*
X107200771Y-100993696D01*
X107200771Y-100993696D02*
X107296009Y-100946077D01*
X107296009Y-100946077D02*
X107819819Y-100946077D01*
X107153152Y-100469886D02*
X107819819Y-100469886D01*
X107248390Y-100469886D02*
X107200771Y-100422267D01*
X107200771Y-100422267D02*
X107153152Y-100327029D01*
X107153152Y-100327029D02*
X107153152Y-100184172D01*
X107153152Y-100184172D02*
X107200771Y-100088934D01*
X107200771Y-100088934D02*
X107296009Y-100041315D01*
X107296009Y-100041315D02*
X107819819Y-100041315D01*
X107772200Y-99184172D02*
X107819819Y-99279410D01*
X107819819Y-99279410D02*
X107819819Y-99469886D01*
X107819819Y-99469886D02*
X107772200Y-99565124D01*
X107772200Y-99565124D02*
X107676961Y-99612743D01*
X107676961Y-99612743D02*
X107296009Y-99612743D01*
X107296009Y-99612743D02*
X107200771Y-99565124D01*
X107200771Y-99565124D02*
X107153152Y-99469886D01*
X107153152Y-99469886D02*
X107153152Y-99279410D01*
X107153152Y-99279410D02*
X107200771Y-99184172D01*
X107200771Y-99184172D02*
X107296009Y-99136553D01*
X107296009Y-99136553D02*
X107391247Y-99136553D01*
X107391247Y-99136553D02*
X107486485Y-99612743D01*
X107772200Y-98279410D02*
X107819819Y-98374648D01*
X107819819Y-98374648D02*
X107819819Y-98565124D01*
X107819819Y-98565124D02*
X107772200Y-98660362D01*
X107772200Y-98660362D02*
X107724580Y-98707981D01*
X107724580Y-98707981D02*
X107629342Y-98755600D01*
X107629342Y-98755600D02*
X107343628Y-98755600D01*
X107343628Y-98755600D02*
X107248390Y-98707981D01*
X107248390Y-98707981D02*
X107200771Y-98660362D01*
X107200771Y-98660362D02*
X107153152Y-98565124D01*
X107153152Y-98565124D02*
X107153152Y-98374648D01*
X107153152Y-98374648D02*
X107200771Y-98279410D01*
X107153152Y-97993695D02*
X107153152Y-97612743D01*
X106819819Y-97850838D02*
X107676961Y-97850838D01*
X107676961Y-97850838D02*
X107772200Y-97803219D01*
X107772200Y-97803219D02*
X107819819Y-97707981D01*
X107819819Y-97707981D02*
X107819819Y-97612743D01*
X107153152Y-96660361D02*
X107153152Y-96279409D01*
X106819819Y-96517504D02*
X107676961Y-96517504D01*
X107676961Y-96517504D02*
X107772200Y-96469885D01*
X107772200Y-96469885D02*
X107819819Y-96374647D01*
X107819819Y-96374647D02*
X107819819Y-96279409D01*
X107819819Y-95803218D02*
X107772200Y-95898456D01*
X107772200Y-95898456D02*
X107724580Y-95946075D01*
X107724580Y-95946075D02*
X107629342Y-95993694D01*
X107629342Y-95993694D02*
X107343628Y-95993694D01*
X107343628Y-95993694D02*
X107248390Y-95946075D01*
X107248390Y-95946075D02*
X107200771Y-95898456D01*
X107200771Y-95898456D02*
X107153152Y-95803218D01*
X107153152Y-95803218D02*
X107153152Y-95660361D01*
X107153152Y-95660361D02*
X107200771Y-95565123D01*
X107200771Y-95565123D02*
X107248390Y-95517504D01*
X107248390Y-95517504D02*
X107343628Y-95469885D01*
X107343628Y-95469885D02*
X107629342Y-95469885D01*
X107629342Y-95469885D02*
X107724580Y-95517504D01*
X107724580Y-95517504D02*
X107772200Y-95565123D01*
X107772200Y-95565123D02*
X107819819Y-95660361D01*
X107819819Y-95660361D02*
X107819819Y-95803218D01*
X107153152Y-94279408D02*
X108153152Y-94279408D01*
X107200771Y-94279408D02*
X107153152Y-94184170D01*
X107153152Y-94184170D02*
X107153152Y-93993694D01*
X107153152Y-93993694D02*
X107200771Y-93898456D01*
X107200771Y-93898456D02*
X107248390Y-93850837D01*
X107248390Y-93850837D02*
X107343628Y-93803218D01*
X107343628Y-93803218D02*
X107629342Y-93803218D01*
X107629342Y-93803218D02*
X107724580Y-93850837D01*
X107724580Y-93850837D02*
X107772200Y-93898456D01*
X107772200Y-93898456D02*
X107819819Y-93993694D01*
X107819819Y-93993694D02*
X107819819Y-94184170D01*
X107819819Y-94184170D02*
X107772200Y-94279408D01*
X107819819Y-93374646D02*
X107153152Y-93374646D01*
X107343628Y-93374646D02*
X107248390Y-93327027D01*
X107248390Y-93327027D02*
X107200771Y-93279408D01*
X107200771Y-93279408D02*
X107153152Y-93184170D01*
X107153152Y-93184170D02*
X107153152Y-93088932D01*
X107819819Y-92612741D02*
X107772200Y-92707979D01*
X107772200Y-92707979D02*
X107724580Y-92755598D01*
X107724580Y-92755598D02*
X107629342Y-92803217D01*
X107629342Y-92803217D02*
X107343628Y-92803217D01*
X107343628Y-92803217D02*
X107248390Y-92755598D01*
X107248390Y-92755598D02*
X107200771Y-92707979D01*
X107200771Y-92707979D02*
X107153152Y-92612741D01*
X107153152Y-92612741D02*
X107153152Y-92469884D01*
X107153152Y-92469884D02*
X107200771Y-92374646D01*
X107200771Y-92374646D02*
X107248390Y-92327027D01*
X107248390Y-92327027D02*
X107343628Y-92279408D01*
X107343628Y-92279408D02*
X107629342Y-92279408D01*
X107629342Y-92279408D02*
X107724580Y-92327027D01*
X107724580Y-92327027D02*
X107772200Y-92374646D01*
X107772200Y-92374646D02*
X107819819Y-92469884D01*
X107819819Y-92469884D02*
X107819819Y-92612741D01*
X107153152Y-91422265D02*
X107962676Y-91422265D01*
X107962676Y-91422265D02*
X108057914Y-91469884D01*
X108057914Y-91469884D02*
X108105533Y-91517503D01*
X108105533Y-91517503D02*
X108153152Y-91612741D01*
X108153152Y-91612741D02*
X108153152Y-91755598D01*
X108153152Y-91755598D02*
X108105533Y-91850836D01*
X107772200Y-91422265D02*
X107819819Y-91517503D01*
X107819819Y-91517503D02*
X107819819Y-91707979D01*
X107819819Y-91707979D02*
X107772200Y-91803217D01*
X107772200Y-91803217D02*
X107724580Y-91850836D01*
X107724580Y-91850836D02*
X107629342Y-91898455D01*
X107629342Y-91898455D02*
X107343628Y-91898455D01*
X107343628Y-91898455D02*
X107248390Y-91850836D01*
X107248390Y-91850836D02*
X107200771Y-91803217D01*
X107200771Y-91803217D02*
X107153152Y-91707979D01*
X107153152Y-91707979D02*
X107153152Y-91517503D01*
X107153152Y-91517503D02*
X107200771Y-91422265D01*
X107819819Y-90946074D02*
X107153152Y-90946074D01*
X107343628Y-90946074D02*
X107248390Y-90898455D01*
X107248390Y-90898455D02*
X107200771Y-90850836D01*
X107200771Y-90850836D02*
X107153152Y-90755598D01*
X107153152Y-90755598D02*
X107153152Y-90660360D01*
X107819819Y-89898455D02*
X107296009Y-89898455D01*
X107296009Y-89898455D02*
X107200771Y-89946074D01*
X107200771Y-89946074D02*
X107153152Y-90041312D01*
X107153152Y-90041312D02*
X107153152Y-90231788D01*
X107153152Y-90231788D02*
X107200771Y-90327026D01*
X107772200Y-89898455D02*
X107819819Y-89993693D01*
X107819819Y-89993693D02*
X107819819Y-90231788D01*
X107819819Y-90231788D02*
X107772200Y-90327026D01*
X107772200Y-90327026D02*
X107676961Y-90374645D01*
X107676961Y-90374645D02*
X107581723Y-90374645D01*
X107581723Y-90374645D02*
X107486485Y-90327026D01*
X107486485Y-90327026D02*
X107438866Y-90231788D01*
X107438866Y-90231788D02*
X107438866Y-89993693D01*
X107438866Y-89993693D02*
X107391247Y-89898455D01*
X107819819Y-89422264D02*
X107153152Y-89422264D01*
X107248390Y-89422264D02*
X107200771Y-89374645D01*
X107200771Y-89374645D02*
X107153152Y-89279407D01*
X107153152Y-89279407D02*
X107153152Y-89136550D01*
X107153152Y-89136550D02*
X107200771Y-89041312D01*
X107200771Y-89041312D02*
X107296009Y-88993693D01*
X107296009Y-88993693D02*
X107819819Y-88993693D01*
X107296009Y-88993693D02*
X107200771Y-88946074D01*
X107200771Y-88946074D02*
X107153152Y-88850836D01*
X107153152Y-88850836D02*
X107153152Y-88707979D01*
X107153152Y-88707979D02*
X107200771Y-88612740D01*
X107200771Y-88612740D02*
X107296009Y-88565121D01*
X107296009Y-88565121D02*
X107819819Y-88565121D01*
X107819819Y-88088931D02*
X107153152Y-88088931D01*
X107248390Y-88088931D02*
X107200771Y-88041312D01*
X107200771Y-88041312D02*
X107153152Y-87946074D01*
X107153152Y-87946074D02*
X107153152Y-87803217D01*
X107153152Y-87803217D02*
X107200771Y-87707979D01*
X107200771Y-87707979D02*
X107296009Y-87660360D01*
X107296009Y-87660360D02*
X107819819Y-87660360D01*
X107296009Y-87660360D02*
X107200771Y-87612741D01*
X107200771Y-87612741D02*
X107153152Y-87517503D01*
X107153152Y-87517503D02*
X107153152Y-87374646D01*
X107153152Y-87374646D02*
X107200771Y-87279407D01*
X107200771Y-87279407D02*
X107296009Y-87231788D01*
X107296009Y-87231788D02*
X107819819Y-87231788D01*
X107772200Y-86374646D02*
X107819819Y-86469884D01*
X107819819Y-86469884D02*
X107819819Y-86660360D01*
X107819819Y-86660360D02*
X107772200Y-86755598D01*
X107772200Y-86755598D02*
X107676961Y-86803217D01*
X107676961Y-86803217D02*
X107296009Y-86803217D01*
X107296009Y-86803217D02*
X107200771Y-86755598D01*
X107200771Y-86755598D02*
X107153152Y-86660360D01*
X107153152Y-86660360D02*
X107153152Y-86469884D01*
X107153152Y-86469884D02*
X107200771Y-86374646D01*
X107200771Y-86374646D02*
X107296009Y-86327027D01*
X107296009Y-86327027D02*
X107391247Y-86327027D01*
X107391247Y-86327027D02*
X107486485Y-86803217D01*
X107819819Y-85898455D02*
X107153152Y-85898455D01*
X107343628Y-85898455D02*
X107248390Y-85850836D01*
X107248390Y-85850836D02*
X107200771Y-85803217D01*
X107200771Y-85803217D02*
X107153152Y-85707979D01*
X107153152Y-85707979D02*
X107153152Y-85612741D01*
X108200771Y-85374645D02*
X108153152Y-85327026D01*
X108153152Y-85327026D02*
X108010295Y-85231788D01*
X108010295Y-85231788D02*
X107915057Y-85184169D01*
X107915057Y-85184169D02*
X107772200Y-85136550D01*
X107772200Y-85136550D02*
X107534104Y-85088931D01*
X107534104Y-85088931D02*
X107343628Y-85088931D01*
X107343628Y-85088931D02*
X107105533Y-85136550D01*
X107105533Y-85136550D02*
X106962676Y-85184169D01*
X106962676Y-85184169D02*
X106867438Y-85231788D01*
X106867438Y-85231788D02*
X106724580Y-85327026D01*
X106724580Y-85327026D02*
X106676961Y-85374645D01*
X58126429Y-77559819D02*
X58364524Y-78559819D01*
X58364524Y-78559819D02*
X58555000Y-77845533D01*
X58555000Y-77845533D02*
X58745476Y-78559819D01*
X58745476Y-78559819D02*
X58983572Y-77559819D01*
X59364524Y-78559819D02*
X59364524Y-77559819D01*
X59364524Y-77559819D02*
X59745476Y-77559819D01*
X59745476Y-77559819D02*
X59840714Y-77607438D01*
X59840714Y-77607438D02*
X59888333Y-77655057D01*
X59888333Y-77655057D02*
X59935952Y-77750295D01*
X59935952Y-77750295D02*
X59935952Y-77893152D01*
X59935952Y-77893152D02*
X59888333Y-77988390D01*
X59888333Y-77988390D02*
X59840714Y-78036009D01*
X59840714Y-78036009D02*
X59745476Y-78083628D01*
X59745476Y-78083628D02*
X59364524Y-78083628D01*
X58507380Y-74114819D02*
X58174047Y-73638628D01*
X57935952Y-74114819D02*
X57935952Y-73114819D01*
X57935952Y-73114819D02*
X58316904Y-73114819D01*
X58316904Y-73114819D02*
X58412142Y-73162438D01*
X58412142Y-73162438D02*
X58459761Y-73210057D01*
X58459761Y-73210057D02*
X58507380Y-73305295D01*
X58507380Y-73305295D02*
X58507380Y-73448152D01*
X58507380Y-73448152D02*
X58459761Y-73543390D01*
X58459761Y-73543390D02*
X58412142Y-73591009D01*
X58412142Y-73591009D02*
X58316904Y-73638628D01*
X58316904Y-73638628D02*
X57935952Y-73638628D01*
X58888333Y-74067200D02*
X59031190Y-74114819D01*
X59031190Y-74114819D02*
X59269285Y-74114819D01*
X59269285Y-74114819D02*
X59364523Y-74067200D01*
X59364523Y-74067200D02*
X59412142Y-74019580D01*
X59412142Y-74019580D02*
X59459761Y-73924342D01*
X59459761Y-73924342D02*
X59459761Y-73829104D01*
X59459761Y-73829104D02*
X59412142Y-73733866D01*
X59412142Y-73733866D02*
X59364523Y-73686247D01*
X59364523Y-73686247D02*
X59269285Y-73638628D01*
X59269285Y-73638628D02*
X59078809Y-73591009D01*
X59078809Y-73591009D02*
X58983571Y-73543390D01*
X58983571Y-73543390D02*
X58935952Y-73495771D01*
X58935952Y-73495771D02*
X58888333Y-73400533D01*
X58888333Y-73400533D02*
X58888333Y-73305295D01*
X58888333Y-73305295D02*
X58935952Y-73210057D01*
X58935952Y-73210057D02*
X58983571Y-73162438D01*
X58983571Y-73162438D02*
X59078809Y-73114819D01*
X59078809Y-73114819D02*
X59316904Y-73114819D01*
X59316904Y-73114819D02*
X59459761Y-73162438D01*
X59745476Y-73114819D02*
X60316904Y-73114819D01*
X60031190Y-74114819D02*
X60031190Y-73114819D01*
X58174048Y-82004819D02*
X58412143Y-83004819D01*
X58412143Y-83004819D02*
X58602619Y-82290533D01*
X58602619Y-82290533D02*
X58793095Y-83004819D01*
X58793095Y-83004819D02*
X59031191Y-82004819D01*
X59412143Y-82481009D02*
X59745476Y-82481009D01*
X59888333Y-83004819D02*
X59412143Y-83004819D01*
X59412143Y-83004819D02*
X59412143Y-82004819D01*
X59412143Y-82004819D02*
X59888333Y-82004819D01*
D11*
X104877257Y-104043571D02*
X101877257Y-104043571D01*
X101877257Y-104043571D02*
X104020114Y-103043571D01*
X104020114Y-103043571D02*
X101877257Y-102043571D01*
X101877257Y-102043571D02*
X104877257Y-102043571D01*
X102162971Y-100757857D02*
X102020114Y-100615000D01*
X102020114Y-100615000D02*
X101877257Y-100329286D01*
X101877257Y-100329286D02*
X101877257Y-99615000D01*
X101877257Y-99615000D02*
X102020114Y-99329286D01*
X102020114Y-99329286D02*
X102162971Y-99186428D01*
X102162971Y-99186428D02*
X102448685Y-99043571D01*
X102448685Y-99043571D02*
X102734400Y-99043571D01*
X102734400Y-99043571D02*
X103162971Y-99186428D01*
X103162971Y-99186428D02*
X104877257Y-100900714D01*
X104877257Y-100900714D02*
X104877257Y-99043571D01*
X101877257Y-98043571D02*
X101877257Y-96043571D01*
X101877257Y-96043571D02*
X104877257Y-97329285D01*
X101877257Y-95329285D02*
X104877257Y-94329285D01*
X104877257Y-94329285D02*
X101877257Y-93329285D01*
X101877257Y-92614999D02*
X101877257Y-90757856D01*
X101877257Y-90757856D02*
X103020114Y-91757856D01*
X103020114Y-91757856D02*
X103020114Y-91329285D01*
X103020114Y-91329285D02*
X103162971Y-91043571D01*
X103162971Y-91043571D02*
X103305828Y-90900713D01*
X103305828Y-90900713D02*
X103591542Y-90757856D01*
X103591542Y-90757856D02*
X104305828Y-90757856D01*
X104305828Y-90757856D02*
X104591542Y-90900713D01*
X104591542Y-90900713D02*
X104734400Y-91043571D01*
X104734400Y-91043571D02*
X104877257Y-91329285D01*
X104877257Y-91329285D02*
X104877257Y-92186428D01*
X104877257Y-92186428D02*
X104734400Y-92472142D01*
X104734400Y-92472142D02*
X104591542Y-92614999D01*
X102162971Y-89614999D02*
X102020114Y-89472142D01*
X102020114Y-89472142D02*
X101877257Y-89186428D01*
X101877257Y-89186428D02*
X101877257Y-88472142D01*
X101877257Y-88472142D02*
X102020114Y-88186428D01*
X102020114Y-88186428D02*
X102162971Y-88043570D01*
X102162971Y-88043570D02*
X102448685Y-87900713D01*
X102448685Y-87900713D02*
X102734400Y-87900713D01*
X102734400Y-87900713D02*
X103162971Y-88043570D01*
X103162971Y-88043570D02*
X104877257Y-89757856D01*
X104877257Y-89757856D02*
X104877257Y-87900713D01*
X102162971Y-86757856D02*
X102020114Y-86614999D01*
X102020114Y-86614999D02*
X101877257Y-86329285D01*
X101877257Y-86329285D02*
X101877257Y-85614999D01*
X101877257Y-85614999D02*
X102020114Y-85329285D01*
X102020114Y-85329285D02*
X102162971Y-85186427D01*
X102162971Y-85186427D02*
X102448685Y-85043570D01*
X102448685Y-85043570D02*
X102734400Y-85043570D01*
X102734400Y-85043570D02*
X103162971Y-85186427D01*
X103162971Y-85186427D02*
X104877257Y-86900713D01*
X104877257Y-86900713D02*
X104877257Y-85043570D01*
D12*
X57864523Y-91371009D02*
X58007380Y-91418628D01*
X58007380Y-91418628D02*
X58054999Y-91466247D01*
X58054999Y-91466247D02*
X58102618Y-91561485D01*
X58102618Y-91561485D02*
X58102618Y-91704342D01*
X58102618Y-91704342D02*
X58054999Y-91799580D01*
X58054999Y-91799580D02*
X58007380Y-91847200D01*
X58007380Y-91847200D02*
X57912142Y-91894819D01*
X57912142Y-91894819D02*
X57531190Y-91894819D01*
X57531190Y-91894819D02*
X57531190Y-90894819D01*
X57531190Y-90894819D02*
X57864523Y-90894819D01*
X57864523Y-90894819D02*
X57959761Y-90942438D01*
X57959761Y-90942438D02*
X58007380Y-90990057D01*
X58007380Y-90990057D02*
X58054999Y-91085295D01*
X58054999Y-91085295D02*
X58054999Y-91180533D01*
X58054999Y-91180533D02*
X58007380Y-91275771D01*
X58007380Y-91275771D02*
X57959761Y-91323390D01*
X57959761Y-91323390D02*
X57864523Y-91371009D01*
X57864523Y-91371009D02*
X57531190Y-91371009D01*
X58721666Y-91418628D02*
X58721666Y-91894819D01*
X58388333Y-90894819D02*
X58721666Y-91418628D01*
X58721666Y-91418628D02*
X59054999Y-90894819D01*
X59245476Y-90894819D02*
X59816904Y-90894819D01*
X59531190Y-91894819D02*
X59531190Y-90894819D01*
X60150238Y-91371009D02*
X60483571Y-91371009D01*
X60626428Y-91894819D02*
X60150238Y-91894819D01*
X60150238Y-91894819D02*
X60150238Y-90894819D01*
X60150238Y-90894819D02*
X60626428Y-90894819D01*
X57483571Y-87449819D02*
X57150238Y-86973628D01*
X56912143Y-87449819D02*
X56912143Y-86449819D01*
X56912143Y-86449819D02*
X57293095Y-86449819D01*
X57293095Y-86449819D02*
X57388333Y-86497438D01*
X57388333Y-86497438D02*
X57435952Y-86545057D01*
X57435952Y-86545057D02*
X57483571Y-86640295D01*
X57483571Y-86640295D02*
X57483571Y-86783152D01*
X57483571Y-86783152D02*
X57435952Y-86878390D01*
X57435952Y-86878390D02*
X57388333Y-86926009D01*
X57388333Y-86926009D02*
X57293095Y-86973628D01*
X57293095Y-86973628D02*
X56912143Y-86973628D01*
X58102619Y-86973628D02*
X58102619Y-87449819D01*
X57769286Y-86449819D02*
X58102619Y-86973628D01*
X58102619Y-86973628D02*
X58435952Y-86449819D01*
X59483571Y-86402200D02*
X58626429Y-87687914D01*
X60150238Y-86926009D02*
X60293095Y-86973628D01*
X60293095Y-86973628D02*
X60340714Y-87021247D01*
X60340714Y-87021247D02*
X60388333Y-87116485D01*
X60388333Y-87116485D02*
X60388333Y-87259342D01*
X60388333Y-87259342D02*
X60340714Y-87354580D01*
X60340714Y-87354580D02*
X60293095Y-87402200D01*
X60293095Y-87402200D02*
X60197857Y-87449819D01*
X60197857Y-87449819D02*
X59816905Y-87449819D01*
X59816905Y-87449819D02*
X59816905Y-86449819D01*
X59816905Y-86449819D02*
X60150238Y-86449819D01*
X60150238Y-86449819D02*
X60245476Y-86497438D01*
X60245476Y-86497438D02*
X60293095Y-86545057D01*
X60293095Y-86545057D02*
X60340714Y-86640295D01*
X60340714Y-86640295D02*
X60340714Y-86735533D01*
X60340714Y-86735533D02*
X60293095Y-86830771D01*
X60293095Y-86830771D02*
X60245476Y-86878390D01*
X60245476Y-86878390D02*
X60150238Y-86926009D01*
X60150238Y-86926009D02*
X59816905Y-86926009D01*
X61007381Y-86973628D02*
X61007381Y-87449819D01*
X60674048Y-86449819D02*
X61007381Y-86973628D01*
X61007381Y-86973628D02*
X61340714Y-86449819D01*
D11*
X77270828Y-101741429D02*
X77270828Y-100741429D01*
X78842257Y-100312857D02*
X78842257Y-101741429D01*
X78842257Y-101741429D02*
X75842257Y-101741429D01*
X75842257Y-101741429D02*
X75842257Y-100312857D01*
X75842257Y-99455714D02*
X78842257Y-98455714D01*
X78842257Y-98455714D02*
X75842257Y-97455714D01*
X76127971Y-96598571D02*
X75985114Y-96455714D01*
X75985114Y-96455714D02*
X75842257Y-96170000D01*
X75842257Y-96170000D02*
X75842257Y-95455714D01*
X75842257Y-95455714D02*
X75985114Y-95170000D01*
X75985114Y-95170000D02*
X76127971Y-95027142D01*
X76127971Y-95027142D02*
X76413685Y-94884285D01*
X76413685Y-94884285D02*
X76699400Y-94884285D01*
X76699400Y-94884285D02*
X77127971Y-95027142D01*
X77127971Y-95027142D02*
X78842257Y-96741428D01*
X78842257Y-96741428D02*
X78842257Y-94884285D01*
X78842257Y-93455714D02*
X78842257Y-92884285D01*
X78842257Y-92884285D02*
X78699400Y-92598571D01*
X78699400Y-92598571D02*
X78556542Y-92455714D01*
X78556542Y-92455714D02*
X78127971Y-92169999D01*
X78127971Y-92169999D02*
X77556542Y-92027142D01*
X77556542Y-92027142D02*
X76413685Y-92027142D01*
X76413685Y-92027142D02*
X76127971Y-92169999D01*
X76127971Y-92169999D02*
X75985114Y-92312857D01*
X75985114Y-92312857D02*
X75842257Y-92598571D01*
X75842257Y-92598571D02*
X75842257Y-93169999D01*
X75842257Y-93169999D02*
X75985114Y-93455714D01*
X75985114Y-93455714D02*
X76127971Y-93598571D01*
X76127971Y-93598571D02*
X76413685Y-93741428D01*
X76413685Y-93741428D02*
X77127971Y-93741428D01*
X77127971Y-93741428D02*
X77413685Y-93598571D01*
X77413685Y-93598571D02*
X77556542Y-93455714D01*
X77556542Y-93455714D02*
X77699400Y-93169999D01*
X77699400Y-93169999D02*
X77699400Y-92598571D01*
X77699400Y-92598571D02*
X77556542Y-92312857D01*
X77556542Y-92312857D02*
X77413685Y-92169999D01*
X77413685Y-92169999D02*
X77127971Y-92027142D01*
X78842257Y-89312856D02*
X78842257Y-90741428D01*
X78842257Y-90741428D02*
X75842257Y-90741428D01*
X75842257Y-88741428D02*
X78842257Y-87741428D01*
X78842257Y-87741428D02*
X75842257Y-86741428D01*
X75842257Y-84455714D02*
X75842257Y-85027142D01*
X75842257Y-85027142D02*
X75985114Y-85312856D01*
X75985114Y-85312856D02*
X76127971Y-85455714D01*
X76127971Y-85455714D02*
X76556542Y-85741428D01*
X76556542Y-85741428D02*
X77127971Y-85884285D01*
X77127971Y-85884285D02*
X78270828Y-85884285D01*
X78270828Y-85884285D02*
X78556542Y-85741428D01*
X78556542Y-85741428D02*
X78699400Y-85598571D01*
X78699400Y-85598571D02*
X78842257Y-85312856D01*
X78842257Y-85312856D02*
X78842257Y-84741428D01*
X78842257Y-84741428D02*
X78699400Y-84455714D01*
X78699400Y-84455714D02*
X78556542Y-84312856D01*
X78556542Y-84312856D02*
X78270828Y-84169999D01*
X78270828Y-84169999D02*
X77556542Y-84169999D01*
X77556542Y-84169999D02*
X77270828Y-84312856D01*
X77270828Y-84312856D02*
X77127971Y-84455714D01*
X77127971Y-84455714D02*
X76985114Y-84741428D01*
X76985114Y-84741428D02*
X76985114Y-85312856D01*
X76985114Y-85312856D02*
X77127971Y-85598571D01*
X77127971Y-85598571D02*
X77270828Y-85741428D01*
X77270828Y-85741428D02*
X77556542Y-85884285D01*
X76842257Y-81598571D02*
X78842257Y-81598571D01*
X75699400Y-82312856D02*
X77842257Y-83027142D01*
X77842257Y-83027142D02*
X77842257Y-81169999D01*
X75842257Y-79455713D02*
X75842257Y-79169999D01*
X75842257Y-79169999D02*
X75985114Y-78884285D01*
X75985114Y-78884285D02*
X76127971Y-78741428D01*
X76127971Y-78741428D02*
X76413685Y-78598570D01*
X76413685Y-78598570D02*
X76985114Y-78455713D01*
X76985114Y-78455713D02*
X77699400Y-78455713D01*
X77699400Y-78455713D02*
X78270828Y-78598570D01*
X78270828Y-78598570D02*
X78556542Y-78741428D01*
X78556542Y-78741428D02*
X78699400Y-78884285D01*
X78699400Y-78884285D02*
X78842257Y-79169999D01*
X78842257Y-79169999D02*
X78842257Y-79455713D01*
X78842257Y-79455713D02*
X78699400Y-79741428D01*
X78699400Y-79741428D02*
X78556542Y-79884285D01*
X78556542Y-79884285D02*
X78270828Y-80027142D01*
X78270828Y-80027142D02*
X77699400Y-80169999D01*
X77699400Y-80169999D02*
X76985114Y-80169999D01*
X76985114Y-80169999D02*
X76413685Y-80027142D01*
X76413685Y-80027142D02*
X76127971Y-79884285D01*
X76127971Y-79884285D02*
X75985114Y-79741428D01*
X75985114Y-79741428D02*
X75842257Y-79455713D01*
D13*
X57388333Y-63737266D02*
X58055000Y-63737266D01*
X57255000Y-64137266D02*
X57721667Y-62737266D01*
X57721667Y-62737266D02*
X58188333Y-64137266D01*
X58588333Y-62870600D02*
X58655000Y-62803933D01*
X58655000Y-62803933D02*
X58788333Y-62737266D01*
X58788333Y-62737266D02*
X59121667Y-62737266D01*
X59121667Y-62737266D02*
X59255000Y-62803933D01*
X59255000Y-62803933D02*
X59321667Y-62870600D01*
X59321667Y-62870600D02*
X59388333Y-63003933D01*
X59388333Y-63003933D02*
X59388333Y-63137266D01*
X59388333Y-63137266D02*
X59321667Y-63337266D01*
X59321667Y-63337266D02*
X58521667Y-64137266D01*
X58521667Y-64137266D02*
X59388333Y-64137266D01*
X60721666Y-64137266D02*
X59921666Y-64137266D01*
X60321666Y-64137266D02*
X60321666Y-62737266D01*
X60321666Y-62737266D02*
X60188333Y-62937266D01*
X60188333Y-62937266D02*
X60055000Y-63070600D01*
X60055000Y-63070600D02*
X59921666Y-63137266D01*
D11*
X131245828Y-106821429D02*
X131245828Y-105821429D01*
X132817257Y-105392857D02*
X132817257Y-106821429D01*
X132817257Y-106821429D02*
X129817257Y-106821429D01*
X129817257Y-106821429D02*
X129817257Y-105392857D01*
X129817257Y-104535714D02*
X132817257Y-103535714D01*
X132817257Y-103535714D02*
X129817257Y-102535714D01*
X130102971Y-101678571D02*
X129960114Y-101535714D01*
X129960114Y-101535714D02*
X129817257Y-101250000D01*
X129817257Y-101250000D02*
X129817257Y-100535714D01*
X129817257Y-100535714D02*
X129960114Y-100250000D01*
X129960114Y-100250000D02*
X130102971Y-100107142D01*
X130102971Y-100107142D02*
X130388685Y-99964285D01*
X130388685Y-99964285D02*
X130674400Y-99964285D01*
X130674400Y-99964285D02*
X131102971Y-100107142D01*
X131102971Y-100107142D02*
X132817257Y-101821428D01*
X132817257Y-101821428D02*
X132817257Y-99964285D01*
X132817257Y-98535714D02*
X132817257Y-97964285D01*
X132817257Y-97964285D02*
X132674400Y-97678571D01*
X132674400Y-97678571D02*
X132531542Y-97535714D01*
X132531542Y-97535714D02*
X132102971Y-97249999D01*
X132102971Y-97249999D02*
X131531542Y-97107142D01*
X131531542Y-97107142D02*
X130388685Y-97107142D01*
X130388685Y-97107142D02*
X130102971Y-97249999D01*
X130102971Y-97249999D02*
X129960114Y-97392857D01*
X129960114Y-97392857D02*
X129817257Y-97678571D01*
X129817257Y-97678571D02*
X129817257Y-98249999D01*
X129817257Y-98249999D02*
X129960114Y-98535714D01*
X129960114Y-98535714D02*
X130102971Y-98678571D01*
X130102971Y-98678571D02*
X130388685Y-98821428D01*
X130388685Y-98821428D02*
X131102971Y-98821428D01*
X131102971Y-98821428D02*
X131388685Y-98678571D01*
X131388685Y-98678571D02*
X131531542Y-98535714D01*
X131531542Y-98535714D02*
X131674400Y-98249999D01*
X131674400Y-98249999D02*
X131674400Y-97678571D01*
X131674400Y-97678571D02*
X131531542Y-97392857D01*
X131531542Y-97392857D02*
X131388685Y-97249999D01*
X131388685Y-97249999D02*
X131102971Y-97107142D01*
X132817257Y-94392856D02*
X132817257Y-95821428D01*
X132817257Y-95821428D02*
X129817257Y-95821428D01*
X129817257Y-93821428D02*
X132817257Y-92821428D01*
X132817257Y-92821428D02*
X129817257Y-91821428D01*
X132817257Y-89249999D02*
X132817257Y-90964285D01*
X132817257Y-90107142D02*
X129817257Y-90107142D01*
X129817257Y-90107142D02*
X130245828Y-90392856D01*
X130245828Y-90392856D02*
X130531542Y-90678571D01*
X130531542Y-90678571D02*
X130674400Y-90964285D01*
X129817257Y-86678571D02*
X129817257Y-87249999D01*
X129817257Y-87249999D02*
X129960114Y-87535713D01*
X129960114Y-87535713D02*
X130102971Y-87678571D01*
X130102971Y-87678571D02*
X130531542Y-87964285D01*
X130531542Y-87964285D02*
X131102971Y-88107142D01*
X131102971Y-88107142D02*
X132245828Y-88107142D01*
X132245828Y-88107142D02*
X132531542Y-87964285D01*
X132531542Y-87964285D02*
X132674400Y-87821428D01*
X132674400Y-87821428D02*
X132817257Y-87535713D01*
X132817257Y-87535713D02*
X132817257Y-86964285D01*
X132817257Y-86964285D02*
X132674400Y-86678571D01*
X132674400Y-86678571D02*
X132531542Y-86535713D01*
X132531542Y-86535713D02*
X132245828Y-86392856D01*
X132245828Y-86392856D02*
X131531542Y-86392856D01*
X131531542Y-86392856D02*
X131245828Y-86535713D01*
X131245828Y-86535713D02*
X131102971Y-86678571D01*
X131102971Y-86678571D02*
X130960114Y-86964285D01*
X130960114Y-86964285D02*
X130960114Y-87535713D01*
X130960114Y-87535713D02*
X131102971Y-87821428D01*
X131102971Y-87821428D02*
X131245828Y-87964285D01*
X131245828Y-87964285D02*
X131531542Y-88107142D01*
X129817257Y-84535713D02*
X129817257Y-84249999D01*
X129817257Y-84249999D02*
X129960114Y-83964285D01*
X129960114Y-83964285D02*
X130102971Y-83821428D01*
X130102971Y-83821428D02*
X130388685Y-83678570D01*
X130388685Y-83678570D02*
X130960114Y-83535713D01*
X130960114Y-83535713D02*
X131674400Y-83535713D01*
X131674400Y-83535713D02*
X132245828Y-83678570D01*
X132245828Y-83678570D02*
X132531542Y-83821428D01*
X132531542Y-83821428D02*
X132674400Y-83964285D01*
X132674400Y-83964285D02*
X132817257Y-84249999D01*
X132817257Y-84249999D02*
X132817257Y-84535713D01*
X132817257Y-84535713D02*
X132674400Y-84821428D01*
X132674400Y-84821428D02*
X132531542Y-84964285D01*
X132531542Y-84964285D02*
X132245828Y-85107142D01*
X132245828Y-85107142D02*
X131674400Y-85249999D01*
X131674400Y-85249999D02*
X130960114Y-85249999D01*
X130960114Y-85249999D02*
X130388685Y-85107142D01*
X130388685Y-85107142D02*
X130102971Y-84964285D01*
X130102971Y-84964285D02*
X129960114Y-84821428D01*
X129960114Y-84821428D02*
X129817257Y-84535713D01*
D14*
%TO.C,R2*%
X63095000Y-78105000D02*
X62325000Y-78105000D01*
X62325000Y-79475000D02*
X62325000Y-76735000D01*
X62325000Y-76735000D02*
X55785000Y-76735000D01*
X55785000Y-79475000D02*
X62325000Y-79475000D01*
X55785000Y-76735000D02*
X55785000Y-79475000D01*
X55015000Y-78105000D02*
X55785000Y-78105000D01*
%TO.C,R1*%
X63095000Y-73660000D02*
X62325000Y-73660000D01*
X62325000Y-75030000D02*
X62325000Y-72290000D01*
X62325000Y-72290000D02*
X55785000Y-72290000D01*
X55785000Y-75030000D02*
X62325000Y-75030000D01*
X55785000Y-72290000D02*
X55785000Y-75030000D01*
X55015000Y-73660000D02*
X55785000Y-73660000D01*
%TO.C,R3*%
X63095000Y-82550000D02*
X62325000Y-82550000D01*
X62325000Y-83920000D02*
X62325000Y-81180000D01*
X62325000Y-81180000D02*
X55785000Y-81180000D01*
X55785000Y-83920000D02*
X62325000Y-83920000D01*
X55785000Y-81180000D02*
X55785000Y-83920000D01*
X55015000Y-82550000D02*
X55785000Y-82550000D01*
%TO.C,J3*%
X95190000Y-67190000D02*
X95190000Y-120770000D01*
X95190000Y-120770000D02*
X113090000Y-120770000D01*
X97680000Y-67250000D02*
X97680000Y-120710000D01*
X97680000Y-120710000D02*
X110600000Y-120710000D01*
X103140000Y-67250000D02*
X97680000Y-67250000D01*
X110600000Y-67250000D02*
X105140000Y-67250000D01*
X110600000Y-120710000D02*
X110600000Y-67250000D01*
X113090000Y-67190000D02*
X95190000Y-67190000D01*
X113090000Y-120770000D02*
X113090000Y-67190000D01*
X103140000Y-67250000D02*
G75*
G03*
X105140000Y-67250000I1000000J0D01*
G01*
%TO.C,R5*%
X63095000Y-91440000D02*
X62325000Y-91440000D01*
X62325000Y-92810000D02*
X62325000Y-90070000D01*
X62325000Y-90070000D02*
X55785000Y-90070000D01*
X55785000Y-92810000D02*
X62325000Y-92810000D01*
X55785000Y-90070000D02*
X55785000Y-92810000D01*
X55015000Y-91440000D02*
X55785000Y-91440000D01*
%TO.C,R4*%
X63095000Y-86995000D02*
X62325000Y-86995000D01*
X62325000Y-88365000D02*
X62325000Y-85625000D01*
X62325000Y-85625000D02*
X55785000Y-85625000D01*
X55785000Y-88365000D02*
X62325000Y-88365000D01*
X55785000Y-85625000D02*
X55785000Y-88365000D01*
X55015000Y-86995000D02*
X55785000Y-86995000D01*
%TO.C,J1*%
X68520000Y-59570000D02*
X68520000Y-120770000D01*
X68520000Y-120770000D02*
X86420000Y-120770000D01*
X71010000Y-59630000D02*
X71010000Y-120710000D01*
X71010000Y-120710000D02*
X83930000Y-120710000D01*
X76470000Y-59630000D02*
X71010000Y-59630000D01*
X83930000Y-59630000D02*
X78470000Y-59630000D01*
X83930000Y-120710000D02*
X83930000Y-59630000D01*
X86420000Y-59570000D02*
X68520000Y-59570000D01*
X86420000Y-120770000D02*
X86420000Y-59570000D01*
X76470000Y-59630000D02*
G75*
G03*
X78470000Y-59630000I1000000J0D01*
G01*
%TO.C,J4*%
X62925000Y-65345000D02*
X62925000Y-66675000D01*
X61595000Y-65345000D02*
X62925000Y-65345000D01*
X60325000Y-65345000D02*
X55185000Y-65345000D01*
X60325000Y-65345000D02*
X60325000Y-68005000D01*
X55185000Y-65345000D02*
X55185000Y-68005000D01*
X60325000Y-68005000D02*
X55185000Y-68005000D01*
%TO.C,J2*%
X121860000Y-67190000D02*
X121860000Y-120770000D01*
X121860000Y-120770000D02*
X139760000Y-120770000D01*
X124350000Y-67250000D02*
X124350000Y-120710000D01*
X124350000Y-120710000D02*
X137270000Y-120710000D01*
X129810000Y-67250000D02*
X124350000Y-67250000D01*
X137270000Y-67250000D02*
X131810000Y-67250000D01*
X137270000Y-120710000D02*
X137270000Y-67250000D01*
X139760000Y-67190000D02*
X121860000Y-67190000D01*
X139760000Y-120770000D02*
X139760000Y-67190000D01*
X129810000Y-67250000D02*
G75*
G03*
X131810000Y-67250000I1000000J0D01*
G01*
%TD*%
M02*
