%TF.GenerationSoftware,KiCad,Pcbnew,7.0.7*%
%TF.CreationDate,2023-12-17T19:56:50+01:00*%
%TF.ProjectId,everstar,65766572-7374-4617-922e-6b696361645f,rev?*%
%TF.SameCoordinates,Original*%
%TF.FileFunction,Soldermask,Top*%
%TF.FilePolarity,Negative*%
%FSLAX46Y46*%
G04 Gerber Fmt 4.6, Leading zero omitted, Abs format (unit mm)*
G04 Created by KiCad (PCBNEW 7.0.7) date 2023-12-17 19:56:50*
%MOMM*%
%LPD*%
G01*
G04 APERTURE LIST*
%ADD10C,1.600000*%
%ADD11O,1.600000X1.600000*%
%ADD12R,1.600000X1.600000*%
%ADD13R,1.700000X1.700000*%
%ADD14O,1.700000X1.700000*%
G04 APERTURE END LIST*
D10*
%TO.C,R2*%
X64135000Y-78105000D03*
D11*
X53975000Y-78105000D03*
%TD*%
D10*
%TO.C,R1*%
X64135000Y-73660000D03*
D11*
X53975000Y-73660000D03*
%TD*%
D10*
%TO.C,R3*%
X64135000Y-82550000D03*
D11*
X53975000Y-82550000D03*
%TD*%
D12*
%TO.C,J3*%
X96520000Y-68580000D03*
D11*
X96520000Y-71120000D03*
X96520000Y-73660000D03*
X96520000Y-76200000D03*
X96520000Y-78740000D03*
X96520000Y-81280000D03*
X96520000Y-83820000D03*
X96520000Y-86360000D03*
X96520000Y-88900000D03*
X96520000Y-91440000D03*
X96520000Y-93980000D03*
X96520000Y-96520000D03*
X96520000Y-99060000D03*
X96520000Y-101600000D03*
X96520000Y-104140000D03*
X96520000Y-106680000D03*
X96520000Y-109220000D03*
X96520000Y-111760000D03*
X96520000Y-114300000D03*
X96520000Y-116840000D03*
X96520000Y-119380000D03*
X111760000Y-119380000D03*
X111760000Y-116840000D03*
X111760000Y-114300000D03*
X111760000Y-111760000D03*
X111760000Y-109220000D03*
X111760000Y-106680000D03*
X111760000Y-104140000D03*
X111760000Y-101600000D03*
X111760000Y-99060000D03*
X111760000Y-96520000D03*
X111760000Y-93980000D03*
X111760000Y-91440000D03*
X111760000Y-88900000D03*
X111760000Y-86360000D03*
X111760000Y-83820000D03*
X111760000Y-81280000D03*
X111760000Y-78740000D03*
X111760000Y-76200000D03*
X111760000Y-73660000D03*
X111760000Y-71120000D03*
X111760000Y-68580000D03*
%TD*%
D10*
%TO.C,R5*%
X64135000Y-91440000D03*
D11*
X53975000Y-91440000D03*
%TD*%
D10*
%TO.C,R4*%
X64135000Y-86995000D03*
D11*
X53975000Y-86995000D03*
%TD*%
D12*
%TO.C,J1*%
X69850000Y-60960000D03*
D11*
X69850000Y-63500000D03*
X69850000Y-66040000D03*
X69850000Y-68580000D03*
X69850000Y-71120000D03*
X69850000Y-73660000D03*
X69850000Y-76200000D03*
X69850000Y-78740000D03*
X69850000Y-81280000D03*
X69850000Y-83820000D03*
X69850000Y-86360000D03*
X69850000Y-88900000D03*
X69850000Y-91440000D03*
X69850000Y-93980000D03*
X69850000Y-96520000D03*
X69850000Y-99060000D03*
X69850000Y-101600000D03*
X69850000Y-104140000D03*
X69850000Y-106680000D03*
X69850000Y-109220000D03*
X69850000Y-111760000D03*
X69850000Y-114300000D03*
X69850000Y-116840000D03*
X69850000Y-119380000D03*
X85090000Y-119380000D03*
X85090000Y-116840000D03*
X85090000Y-114300000D03*
X85090000Y-111760000D03*
X85090000Y-109220000D03*
X85090000Y-106680000D03*
X85090000Y-104140000D03*
X85090000Y-101600000D03*
X85090000Y-99060000D03*
X85090000Y-96520000D03*
X85090000Y-93980000D03*
X85090000Y-91440000D03*
X85090000Y-88900000D03*
X85090000Y-86360000D03*
X85090000Y-83820000D03*
X85090000Y-81280000D03*
X85090000Y-78740000D03*
X85090000Y-76200000D03*
X85090000Y-73660000D03*
X85090000Y-71120000D03*
X85090000Y-68580000D03*
X85090000Y-66040000D03*
X85090000Y-63500000D03*
X85090000Y-60960000D03*
%TD*%
D13*
%TO.C,J4*%
X61595000Y-66675000D03*
D14*
X59055000Y-66675000D03*
X56515000Y-66675000D03*
%TD*%
D12*
%TO.C,J2*%
X123190000Y-68580000D03*
D11*
X123190000Y-71120000D03*
X123190000Y-73660000D03*
X123190000Y-76200000D03*
X123190000Y-78740000D03*
X123190000Y-81280000D03*
X123190000Y-83820000D03*
X123190000Y-86360000D03*
X123190000Y-88900000D03*
X123190000Y-91440000D03*
X123190000Y-93980000D03*
X123190000Y-96520000D03*
X123190000Y-99060000D03*
X123190000Y-101600000D03*
X123190000Y-104140000D03*
X123190000Y-106680000D03*
X123190000Y-109220000D03*
X123190000Y-111760000D03*
X123190000Y-114300000D03*
X123190000Y-116840000D03*
X123190000Y-119380000D03*
X138430000Y-119380000D03*
X138430000Y-116840000D03*
X138430000Y-114300000D03*
X138430000Y-111760000D03*
X138430000Y-109220000D03*
X138430000Y-106680000D03*
X138430000Y-104140000D03*
X138430000Y-101600000D03*
X138430000Y-99060000D03*
X138430000Y-96520000D03*
X138430000Y-93980000D03*
X138430000Y-91440000D03*
X138430000Y-88900000D03*
X138430000Y-86360000D03*
X138430000Y-83820000D03*
X138430000Y-81280000D03*
X138430000Y-78740000D03*
X138430000Y-76200000D03*
X138430000Y-73660000D03*
X138430000Y-71120000D03*
X138430000Y-68580000D03*
%TD*%
M02*
