%TF.GenerationSoftware,KiCad,Pcbnew,7.0.7*%
%TF.CreationDate,2023-12-17T19:56:50+01:00*%
%TF.ProjectId,everstar,65766572-7374-4617-922e-6b696361645f,rev?*%
%TF.SameCoordinates,Original*%
%TF.FileFunction,Copper,L1,Top*%
%TF.FilePolarity,Positive*%
%FSLAX46Y46*%
G04 Gerber Fmt 4.6, Leading zero omitted, Abs format (unit mm)*
G04 Created by KiCad (PCBNEW 7.0.7) date 2023-12-17 19:56:50*
%MOMM*%
%LPD*%
G01*
G04 APERTURE LIST*
%TA.AperFunction,ComponentPad*%
%ADD10C,1.600000*%
%TD*%
%TA.AperFunction,ComponentPad*%
%ADD11O,1.600000X1.600000*%
%TD*%
%TA.AperFunction,ComponentPad*%
%ADD12R,1.600000X1.600000*%
%TD*%
%TA.AperFunction,ComponentPad*%
%ADD13R,1.700000X1.700000*%
%TD*%
%TA.AperFunction,ComponentPad*%
%ADD14O,1.700000X1.700000*%
%TD*%
%TA.AperFunction,Conductor*%
%ADD15C,0.250000*%
%TD*%
%TA.AperFunction,Conductor*%
%ADD16C,1.000000*%
%TD*%
%TA.AperFunction,Conductor*%
%ADD17C,0.500000*%
%TD*%
G04 APERTURE END LIST*
D10*
%TO.P,R2,1*%
%TO.N,WP#{slash}ACC*%
X64135000Y-78105000D03*
D11*
%TO.P,R2,2*%
%TO.N,VCC*%
X53975000Y-78105000D03*
%TD*%
D10*
%TO.P,R1,1*%
%TO.N,RESET#*%
X64135000Y-73660000D03*
D11*
%TO.P,R1,2*%
%TO.N,VCC*%
X53975000Y-73660000D03*
%TD*%
D10*
%TO.P,R3,1*%
%TO.N,WE#*%
X64135000Y-82550000D03*
D11*
%TO.P,R3,2*%
%TO.N,VCC*%
X53975000Y-82550000D03*
%TD*%
D12*
%TO.P,J3,1,Pin_1*%
%TO.N,A18*%
X96520000Y-68580000D03*
D11*
%TO.P,J3,2,Pin_2*%
%TO.N,A17*%
X96520000Y-71120000D03*
%TO.P,J3,3,Pin_3*%
%TO.N,A7*%
X96520000Y-73660000D03*
%TO.P,J3,4,Pin_4*%
%TO.N,A6*%
X96520000Y-76200000D03*
%TO.P,J3,5,Pin_5*%
%TO.N,A5*%
X96520000Y-78740000D03*
%TO.P,J3,6,Pin_6*%
%TO.N,A4*%
X96520000Y-81280000D03*
%TO.P,J3,7,Pin_7*%
%TO.N,A3*%
X96520000Y-83820000D03*
%TO.P,J3,8,Pin_8*%
%TO.N,A2*%
X96520000Y-86360000D03*
%TO.P,J3,9,Pin_9*%
%TO.N,A1*%
X96520000Y-88900000D03*
%TO.P,J3,10,Pin_10*%
%TO.N,A0*%
X96520000Y-91440000D03*
%TO.P,J3,11,Pin_11*%
%TO.N,CE#*%
X96520000Y-93980000D03*
%TO.P,J3,12,Pin_12*%
%TO.N,GND*%
X96520000Y-96520000D03*
%TO.P,J3,13,Pin_13*%
%TO.N,OE#*%
X96520000Y-99060000D03*
%TO.P,J3,14,Pin_14*%
%TO.N,Q0*%
X96520000Y-101600000D03*
%TO.P,J3,15,Pin_15*%
%TO.N,Q8*%
X96520000Y-104140000D03*
%TO.P,J3,16,Pin_16*%
%TO.N,Q1*%
X96520000Y-106680000D03*
%TO.P,J3,17,Pin_17*%
%TO.N,Q9*%
X96520000Y-109220000D03*
%TO.P,J3,18,Pin_18*%
%TO.N,Q2*%
X96520000Y-111760000D03*
%TO.P,J3,19,Pin_19*%
%TO.N,Q10*%
X96520000Y-114300000D03*
%TO.P,J3,20,Pin_20*%
%TO.N,Q3*%
X96520000Y-116840000D03*
%TO.P,J3,21,Pin_21*%
%TO.N,Q11*%
X96520000Y-119380000D03*
%TO.P,J3,22,Pin_22*%
%TO.N,VCC*%
X111760000Y-119380000D03*
%TO.P,J3,23,Pin_23*%
%TO.N,Q4*%
X111760000Y-116840000D03*
%TO.P,J3,24,Pin_24*%
%TO.N,Q12*%
X111760000Y-114300000D03*
%TO.P,J3,25,Pin_25*%
%TO.N,Q5*%
X111760000Y-111760000D03*
%TO.P,J3,26,Pin_26*%
%TO.N,Q13*%
X111760000Y-109220000D03*
%TO.P,J3,27,Pin_27*%
%TO.N,Q6*%
X111760000Y-106680000D03*
%TO.P,J3,28,Pin_28*%
%TO.N,Q14*%
X111760000Y-104140000D03*
%TO.P,J3,29,Pin_29*%
%TO.N,Q7*%
X111760000Y-101600000D03*
%TO.P,J3,30,Pin_30*%
%TO.N,Q15*%
X111760000Y-99060000D03*
%TO.P,J3,31,Pin_31*%
%TO.N,GND*%
X111760000Y-96520000D03*
%TO.P,J3,32,Pin_32*%
%TO.N,A20*%
X111760000Y-93980000D03*
%TO.P,J3,33,Pin_33*%
%TO.N,A16*%
X111760000Y-91440000D03*
%TO.P,J3,34,Pin_34*%
%TO.N,A15*%
X111760000Y-88900000D03*
%TO.P,J3,35,Pin_35*%
%TO.N,A14*%
X111760000Y-86360000D03*
%TO.P,J3,36,Pin_36*%
%TO.N,A13*%
X111760000Y-83820000D03*
%TO.P,J3,37,Pin_37*%
%TO.N,A12*%
X111760000Y-81280000D03*
%TO.P,J3,38,Pin_38*%
%TO.N,A11*%
X111760000Y-78740000D03*
%TO.P,J3,39,Pin_39*%
%TO.N,A10*%
X111760000Y-76200000D03*
%TO.P,J3,40,Pin_40*%
%TO.N,A9*%
X111760000Y-73660000D03*
%TO.P,J3,41,Pin_41*%
%TO.N,A8*%
X111760000Y-71120000D03*
%TO.P,J3,42,Pin_42*%
%TO.N,A19*%
X111760000Y-68580000D03*
%TD*%
D10*
%TO.P,R5,1*%
%TO.N,BYTE#*%
X64135000Y-91440000D03*
D11*
%TO.P,R5,2*%
%TO.N,VCC*%
X53975000Y-91440000D03*
%TD*%
D10*
%TO.P,R4,1*%
%TO.N,RY{slash}BY#*%
X64135000Y-86995000D03*
D11*
%TO.P,R4,2*%
%TO.N,VCC*%
X53975000Y-86995000D03*
%TD*%
D12*
%TO.P,J1,1,Pin_1*%
%TO.N,A21*%
X69850000Y-60960000D03*
D11*
%TO.P,J1,2,Pin_2*%
%TO.N,WP#{slash}ACC*%
X69850000Y-63500000D03*
%TO.P,J1,3,Pin_3*%
%TO.N,RY{slash}BY#*%
X69850000Y-66040000D03*
%TO.P,J1,4,Pin_4*%
%TO.N,A18*%
X69850000Y-68580000D03*
%TO.P,J1,5,Pin_5*%
%TO.N,A17*%
X69850000Y-71120000D03*
%TO.P,J1,6,Pin_6*%
%TO.N,A7*%
X69850000Y-73660000D03*
%TO.P,J1,7,Pin_7*%
%TO.N,A6*%
X69850000Y-76200000D03*
%TO.P,J1,8,Pin_8*%
%TO.N,A5*%
X69850000Y-78740000D03*
%TO.P,J1,9,Pin_9*%
%TO.N,A4*%
X69850000Y-81280000D03*
%TO.P,J1,10,Pin_10*%
%TO.N,A3*%
X69850000Y-83820000D03*
%TO.P,J1,11,Pin_11*%
%TO.N,A2*%
X69850000Y-86360000D03*
%TO.P,J1,12,Pin_12*%
%TO.N,A1*%
X69850000Y-88900000D03*
%TO.P,J1,13,Pin_13*%
%TO.N,A0*%
X69850000Y-91440000D03*
%TO.P,J1,14,Pin_14*%
%TO.N,CE#*%
X69850000Y-93980000D03*
%TO.P,J1,15,Pin_15*%
%TO.N,GND*%
X69850000Y-96520000D03*
%TO.P,J1,16,Pin_16*%
%TO.N,OE#*%
X69850000Y-99060000D03*
%TO.P,J1,17,Pin_17*%
%TO.N,Q0*%
X69850000Y-101600000D03*
%TO.P,J1,18,Pin_18*%
%TO.N,Q8*%
X69850000Y-104140000D03*
%TO.P,J1,19,Pin_19*%
%TO.N,Q1*%
X69850000Y-106680000D03*
%TO.P,J1,20,Pin_20*%
%TO.N,Q9*%
X69850000Y-109220000D03*
%TO.P,J1,21,Pin_21*%
%TO.N,Q2*%
X69850000Y-111760000D03*
%TO.P,J1,22,Pin_22*%
%TO.N,Q10*%
X69850000Y-114300000D03*
%TO.P,J1,23,Pin_23*%
%TO.N,Q3*%
X69850000Y-116840000D03*
%TO.P,J1,24,Pin_24*%
%TO.N,Q11*%
X69850000Y-119380000D03*
%TO.P,J1,25,Pin_25*%
%TO.N,VCC*%
X85090000Y-119380000D03*
%TO.P,J1,26,Pin_26*%
%TO.N,Q4*%
X85090000Y-116840000D03*
%TO.P,J1,27,Pin_27*%
%TO.N,Q12*%
X85090000Y-114300000D03*
%TO.P,J1,28,Pin_28*%
%TO.N,Q5*%
X85090000Y-111760000D03*
%TO.P,J1,29,Pin_29*%
%TO.N,Q13*%
X85090000Y-109220000D03*
%TO.P,J1,30,Pin_30*%
%TO.N,Q6*%
X85090000Y-106680000D03*
%TO.P,J1,31,Pin_31*%
%TO.N,Q14*%
X85090000Y-104140000D03*
%TO.P,J1,32,Pin_32*%
%TO.N,Q7*%
X85090000Y-101600000D03*
%TO.P,J1,33,Pin_33*%
%TO.N,Q15*%
X85090000Y-99060000D03*
%TO.P,J1,34,Pin_34*%
%TO.N,GND*%
X85090000Y-96520000D03*
%TO.P,J1,35,Pin_35*%
%TO.N,BYTE#*%
X85090000Y-93980000D03*
%TO.P,J1,36,Pin_36*%
%TO.N,A16*%
X85090000Y-91440000D03*
%TO.P,J1,37,Pin_37*%
%TO.N,A15*%
X85090000Y-88900000D03*
%TO.P,J1,38,Pin_38*%
%TO.N,A14*%
X85090000Y-86360000D03*
%TO.P,J1,39,Pin_39*%
%TO.N,A13*%
X85090000Y-83820000D03*
%TO.P,J1,40,Pin_40*%
%TO.N,A12*%
X85090000Y-81280000D03*
%TO.P,J1,41,Pin_41*%
%TO.N,A11*%
X85090000Y-78740000D03*
%TO.P,J1,42,Pin_42*%
%TO.N,A10*%
X85090000Y-76200000D03*
%TO.P,J1,43,Pin_43*%
%TO.N,A9*%
X85090000Y-73660000D03*
%TO.P,J1,44,Pin_44*%
%TO.N,A8*%
X85090000Y-71120000D03*
%TO.P,J1,45,Pin_45*%
%TO.N,A19*%
X85090000Y-68580000D03*
%TO.P,J1,46,Pin_46*%
%TO.N,A20*%
X85090000Y-66040000D03*
%TO.P,J1,47,Pin_47*%
%TO.N,WE#*%
X85090000Y-63500000D03*
%TO.P,J1,48,Pin_48*%
%TO.N,RESET#*%
X85090000Y-60960000D03*
%TD*%
D13*
%TO.P,J4,1,Pin_1*%
%TO.N,GND*%
X61595000Y-66675000D03*
D14*
%TO.P,J4,2,Pin_2*%
%TO.N,A21*%
X59055000Y-66675000D03*
%TO.P,J4,3,Pin_3*%
%TO.N,VCC*%
X56515000Y-66675000D03*
%TD*%
D12*
%TO.P,J2,1,Pin_1*%
%TO.N,A18*%
X123190000Y-68580000D03*
D11*
%TO.P,J2,2,Pin_2*%
%TO.N,A17*%
X123190000Y-71120000D03*
%TO.P,J2,3,Pin_3*%
%TO.N,A7*%
X123190000Y-73660000D03*
%TO.P,J2,4,Pin_4*%
%TO.N,A6*%
X123190000Y-76200000D03*
%TO.P,J2,5,Pin_5*%
%TO.N,A5*%
X123190000Y-78740000D03*
%TO.P,J2,6,Pin_6*%
%TO.N,A4*%
X123190000Y-81280000D03*
%TO.P,J2,7,Pin_7*%
%TO.N,A3*%
X123190000Y-83820000D03*
%TO.P,J2,8,Pin_8*%
%TO.N,A2*%
X123190000Y-86360000D03*
%TO.P,J2,9,Pin_9*%
%TO.N,A1*%
X123190000Y-88900000D03*
%TO.P,J2,10,Pin_10*%
%TO.N,CE#*%
X123190000Y-91440000D03*
%TO.P,J2,11,Pin_11*%
%TO.N,A0*%
X123190000Y-93980000D03*
%TO.P,J2,12,Pin_12*%
%TO.N,GND*%
X123190000Y-96520000D03*
%TO.P,J2,13,Pin_13*%
%TO.N,OE#*%
X123190000Y-99060000D03*
%TO.P,J2,14,Pin_14*%
%TO.N,Q0*%
X123190000Y-101600000D03*
%TO.P,J2,15,Pin_15*%
%TO.N,Q8*%
X123190000Y-104140000D03*
%TO.P,J2,16,Pin_16*%
%TO.N,Q1*%
X123190000Y-106680000D03*
%TO.P,J2,17,Pin_17*%
%TO.N,Q9*%
X123190000Y-109220000D03*
%TO.P,J2,18,Pin_18*%
%TO.N,Q2*%
X123190000Y-111760000D03*
%TO.P,J2,19,Pin_19*%
%TO.N,Q10*%
X123190000Y-114300000D03*
%TO.P,J2,20,Pin_20*%
%TO.N,Q3*%
X123190000Y-116840000D03*
%TO.P,J2,21,Pin_21*%
%TO.N,Q11*%
X123190000Y-119380000D03*
%TO.P,J2,22,Pin_22*%
%TO.N,VCC*%
X138430000Y-119380000D03*
%TO.P,J2,23,Pin_23*%
%TO.N,Q4*%
X138430000Y-116840000D03*
%TO.P,J2,24,Pin_24*%
%TO.N,Q12*%
X138430000Y-114300000D03*
%TO.P,J2,25,Pin_25*%
%TO.N,Q5*%
X138430000Y-111760000D03*
%TO.P,J2,26,Pin_26*%
%TO.N,Q13*%
X138430000Y-109220000D03*
%TO.P,J2,27,Pin_27*%
%TO.N,Q6*%
X138430000Y-106680000D03*
%TO.P,J2,28,Pin_28*%
%TO.N,Q14*%
X138430000Y-104140000D03*
%TO.P,J2,29,Pin_29*%
%TO.N,Q7*%
X138430000Y-101600000D03*
%TO.P,J2,30,Pin_30*%
%TO.N,Q15*%
X138430000Y-99060000D03*
%TO.P,J2,31,Pin_31*%
%TO.N,GND*%
X138430000Y-96520000D03*
%TO.P,J2,32,Pin_32*%
%TO.N,A16*%
X138430000Y-93980000D03*
%TO.P,J2,33,Pin_33*%
%TO.N,A15*%
X138430000Y-91440000D03*
%TO.P,J2,34,Pin_34*%
%TO.N,A14*%
X138430000Y-88900000D03*
%TO.P,J2,35,Pin_35*%
%TO.N,A13*%
X138430000Y-86360000D03*
%TO.P,J2,36,Pin_36*%
%TO.N,A12*%
X138430000Y-83820000D03*
%TO.P,J2,37,Pin_37*%
%TO.N,A11*%
X138430000Y-81280000D03*
%TO.P,J2,38,Pin_38*%
%TO.N,A10*%
X138430000Y-78740000D03*
%TO.P,J2,39,Pin_39*%
%TO.N,A9*%
X138430000Y-76200000D03*
%TO.P,J2,40,Pin_40*%
%TO.N,A8*%
X138430000Y-73660000D03*
%TO.P,J2,41,Pin_41*%
%TO.N,A19*%
X138430000Y-71120000D03*
%TO.P,J2,42,Pin_42*%
%TO.N,WE#*%
X138430000Y-68580000D03*
%TD*%
D15*
%TO.N,A21*%
X60325000Y-60960000D02*
X69850000Y-60960000D01*
X59055000Y-66675000D02*
X59055000Y-62230000D01*
X59055000Y-62230000D02*
X60325000Y-60960000D01*
%TO.N,WP#{slash}ACC*%
X64135000Y-78105000D02*
X65405000Y-76835000D01*
X65405000Y-66040000D02*
X67945000Y-63500000D01*
X65405000Y-76835000D02*
X65405000Y-66040000D01*
X67945000Y-63500000D02*
X69850000Y-63500000D01*
%TO.N,RY{slash}BY#*%
X67945000Y-67945000D02*
X69850000Y-66040000D01*
X67945000Y-83185000D02*
X67945000Y-67945000D01*
X64135000Y-86995000D02*
X67945000Y-83185000D01*
%TO.N,A18*%
X92710000Y-68580000D02*
X91440000Y-67310000D01*
X118110000Y-68580000D02*
X116840000Y-67310000D01*
X97790000Y-67310000D02*
X96520000Y-68580000D01*
X123190000Y-68580000D02*
X118110000Y-68580000D01*
X91440000Y-67310000D02*
X71120000Y-67310000D01*
X116840000Y-67310000D02*
X97790000Y-67310000D01*
X71120000Y-67310000D02*
X69850000Y-68580000D01*
X96520000Y-68580000D02*
X92710000Y-68580000D01*
%TO.N,A17*%
X117475000Y-71120000D02*
X116205000Y-69850000D01*
X116205000Y-69850000D02*
X100330000Y-69850000D01*
X69850000Y-71120000D02*
X70975000Y-69995000D01*
X70975000Y-69995000D02*
X91585000Y-69995000D01*
X91585000Y-69995000D02*
X92710000Y-71120000D01*
X100330000Y-69850000D02*
X99060000Y-71120000D01*
X99060000Y-71120000D02*
X96520000Y-71120000D01*
X123190000Y-71120000D02*
X117475000Y-71120000D01*
X92710000Y-71120000D02*
X96520000Y-71120000D01*
%TO.N,A7*%
X76200000Y-72390000D02*
X74930000Y-73660000D01*
X92710000Y-73660000D02*
X91440000Y-72390000D01*
X74930000Y-73660000D02*
X69850000Y-73660000D01*
X100330000Y-72390000D02*
X99060000Y-73660000D01*
X99060000Y-73660000D02*
X96520000Y-73660000D01*
X115570000Y-72390000D02*
X100330000Y-72390000D01*
X96520000Y-73660000D02*
X92710000Y-73660000D01*
X91440000Y-72390000D02*
X76200000Y-72390000D01*
X123190000Y-73660000D02*
X116840000Y-73660000D01*
X116840000Y-73660000D02*
X115570000Y-72390000D01*
%TO.N,A6*%
X114935000Y-74930000D02*
X100330000Y-74930000D01*
X77470000Y-74930000D02*
X76200000Y-76200000D01*
X123190000Y-76200000D02*
X116205000Y-76200000D01*
X100330000Y-74930000D02*
X99060000Y-76200000D01*
X91440000Y-74930000D02*
X77470000Y-74930000D01*
X76200000Y-76200000D02*
X69850000Y-76200000D01*
X92710000Y-76200000D02*
X91440000Y-74930000D01*
X116205000Y-76200000D02*
X114935000Y-74930000D01*
X99060000Y-76200000D02*
X96520000Y-76200000D01*
X96520000Y-76200000D02*
X92710000Y-76200000D01*
%TO.N,A5*%
X99060000Y-78740000D02*
X96520000Y-78740000D01*
X96520000Y-78740000D02*
X95885000Y-78105000D01*
X114300000Y-77470000D02*
X100330000Y-77470000D01*
X90805000Y-78105000D02*
X90170000Y-77470000D01*
X123190000Y-78740000D02*
X115570000Y-78740000D01*
X95885000Y-78105000D02*
X90805000Y-78105000D01*
X115570000Y-78740000D02*
X114300000Y-77470000D01*
X90170000Y-77470000D02*
X71120000Y-77470000D01*
X100330000Y-77470000D02*
X99060000Y-78740000D01*
X71120000Y-77470000D02*
X69850000Y-78740000D01*
%TO.N,A4*%
X117475000Y-81280000D02*
X116205000Y-80010000D01*
X92075000Y-80010000D02*
X74930000Y-80010000D01*
X100330000Y-80645000D02*
X97155000Y-80645000D01*
X100965000Y-80010000D02*
X100330000Y-80645000D01*
X74930000Y-80010000D02*
X73660000Y-81280000D01*
X123190000Y-81280000D02*
X117475000Y-81280000D01*
X93345000Y-81280000D02*
X92075000Y-80010000D01*
X73660000Y-81280000D02*
X69850000Y-81280000D01*
X96520000Y-81280000D02*
X93345000Y-81280000D01*
X97155000Y-80645000D02*
X96520000Y-81280000D01*
X116205000Y-80010000D02*
X100965000Y-80010000D01*
%TO.N,A3*%
X123190000Y-83820000D02*
X119380000Y-83820000D01*
X91440000Y-82550000D02*
X77470000Y-82550000D01*
X77470000Y-82550000D02*
X76200000Y-83820000D01*
X118110000Y-82550000D02*
X99060000Y-82550000D01*
X99060000Y-82550000D02*
X97790000Y-83820000D01*
X92710000Y-83820000D02*
X91440000Y-82550000D01*
X76200000Y-83820000D02*
X69850000Y-83820000D01*
X96520000Y-83820000D02*
X92710000Y-83820000D01*
X119380000Y-83820000D02*
X118110000Y-82550000D01*
X97790000Y-83820000D02*
X96520000Y-83820000D01*
%TO.N,A2*%
X76200000Y-86360000D02*
X69850000Y-86360000D01*
X117475000Y-86360000D02*
X116205000Y-85090000D01*
X102870000Y-85725000D02*
X97155000Y-85725000D01*
X123190000Y-86360000D02*
X117475000Y-86360000D01*
X92710000Y-86360000D02*
X91440000Y-85090000D01*
X91440000Y-85090000D02*
X77470000Y-85090000D01*
X116205000Y-85090000D02*
X103505000Y-85090000D01*
X97155000Y-85725000D02*
X96520000Y-86360000D01*
X96520000Y-86360000D02*
X92710000Y-86360000D01*
X77470000Y-85090000D02*
X76200000Y-86360000D01*
X103505000Y-85090000D02*
X102870000Y-85725000D01*
%TO.N,A1*%
X97155000Y-88265000D02*
X96520000Y-88900000D01*
X92710000Y-88900000D02*
X91440000Y-87630000D01*
X78740000Y-88900000D02*
X69850000Y-88900000D01*
X123190000Y-88900000D02*
X117475000Y-88900000D01*
X116205000Y-87630000D02*
X100965000Y-87630000D01*
X91440000Y-87630000D02*
X80010000Y-87630000D01*
X100965000Y-87630000D02*
X100330000Y-88265000D01*
X96520000Y-88900000D02*
X92710000Y-88900000D01*
X80010000Y-87630000D02*
X78740000Y-88900000D01*
X100330000Y-88265000D02*
X97155000Y-88265000D01*
X117475000Y-88900000D02*
X116205000Y-87630000D01*
%TO.N,A0*%
X90170000Y-90170000D02*
X78740000Y-90170000D01*
X78740000Y-90170000D02*
X77470000Y-91440000D01*
X77470000Y-91440000D02*
X69850000Y-91440000D01*
X91440000Y-91440000D02*
X90170000Y-90170000D01*
X96520000Y-91440000D02*
X91440000Y-91440000D01*
%TO.N,CE#*%
X90170000Y-93980000D02*
X88900000Y-92710000D01*
X77470000Y-93980000D02*
X69850000Y-93980000D01*
X78740000Y-92710000D02*
X77470000Y-93980000D01*
X96520000Y-93980000D02*
X90170000Y-93980000D01*
X100330000Y-92710000D02*
X99060000Y-93980000D01*
X114300000Y-92710000D02*
X100330000Y-92710000D01*
X99060000Y-93980000D02*
X96520000Y-93980000D01*
X115570000Y-91440000D02*
X114300000Y-92710000D01*
X123190000Y-91440000D02*
X115570000Y-91440000D01*
X88900000Y-92710000D02*
X78740000Y-92710000D01*
%TO.N,GND*%
X61595000Y-66675000D02*
X61595000Y-93980000D01*
X66675000Y-96520000D02*
X69850000Y-96520000D01*
X62865000Y-95250000D02*
X65405000Y-95250000D01*
D16*
X69850000Y-96520000D02*
X138430000Y-96520000D01*
D15*
X61595000Y-93980000D02*
X62865000Y-95250000D01*
X65405000Y-95250000D02*
X66675000Y-96520000D01*
%TO.N,OE#*%
X74930000Y-99060000D02*
X69850000Y-99060000D01*
X76200000Y-97790000D02*
X74930000Y-99060000D01*
X114935000Y-97790000D02*
X97790000Y-97790000D01*
X116205000Y-99060000D02*
X114935000Y-97790000D01*
X90170000Y-99060000D02*
X88900000Y-97790000D01*
X96520000Y-99060000D02*
X90170000Y-99060000D01*
X123190000Y-99060000D02*
X116205000Y-99060000D01*
X97790000Y-97790000D02*
X96520000Y-99060000D01*
X88900000Y-97790000D02*
X76200000Y-97790000D01*
%TO.N,Q0*%
X88900000Y-100330000D02*
X77470000Y-100330000D01*
X90170000Y-101600000D02*
X88900000Y-100330000D01*
X96520000Y-101600000D02*
X90170000Y-101600000D01*
X99060000Y-101600000D02*
X96520000Y-101600000D01*
X123190000Y-101600000D02*
X114935000Y-101600000D01*
X114935000Y-101600000D02*
X113665000Y-100330000D01*
X100330000Y-100330000D02*
X99060000Y-101600000D01*
X77470000Y-100330000D02*
X76200000Y-101600000D01*
X76200000Y-101600000D02*
X69850000Y-101600000D01*
X113665000Y-100330000D02*
X100330000Y-100330000D01*
%TO.N,Q8*%
X88900000Y-104140000D02*
X87630000Y-102870000D01*
X77470000Y-104140000D02*
X69850000Y-104140000D01*
X96520000Y-104140000D02*
X88900000Y-104140000D01*
X113665000Y-102870000D02*
X100330000Y-102870000D01*
X100330000Y-102870000D02*
X99060000Y-104140000D01*
X123190000Y-104140000D02*
X114935000Y-104140000D01*
X78740000Y-102870000D02*
X77470000Y-104140000D01*
X114935000Y-104140000D02*
X113665000Y-102870000D01*
X99060000Y-104140000D02*
X96520000Y-104140000D01*
X87630000Y-102870000D02*
X78740000Y-102870000D01*
%TO.N,Q1*%
X87630000Y-105410000D02*
X74930000Y-105410000D01*
X99695000Y-106680000D02*
X96520000Y-106680000D01*
X113665000Y-105410000D02*
X100965000Y-105410000D01*
X123190000Y-106680000D02*
X114935000Y-106680000D01*
X114935000Y-106680000D02*
X113665000Y-105410000D01*
X73660000Y-106680000D02*
X69850000Y-106680000D01*
X100965000Y-105410000D02*
X99695000Y-106680000D01*
X88900000Y-106680000D02*
X87630000Y-105410000D01*
X74930000Y-105410000D02*
X73660000Y-106680000D01*
X96520000Y-106680000D02*
X88900000Y-106680000D01*
%TO.N,Q9*%
X96520000Y-109220000D02*
X88900000Y-109220000D01*
X87630000Y-107950000D02*
X74930000Y-107950000D01*
X114935000Y-109220000D02*
X113665000Y-107950000D01*
X88900000Y-109220000D02*
X87630000Y-107950000D01*
X97155000Y-108585000D02*
X96520000Y-109220000D01*
X74930000Y-107950000D02*
X73660000Y-109220000D01*
X113665000Y-107950000D02*
X101600000Y-107950000D01*
X73660000Y-109220000D02*
X69850000Y-109220000D01*
X101600000Y-107950000D02*
X100965000Y-108585000D01*
X100965000Y-108585000D02*
X97155000Y-108585000D01*
X123190000Y-109220000D02*
X114935000Y-109220000D01*
%TO.N,Q2*%
X90170000Y-111760000D02*
X88900000Y-110490000D01*
X77470000Y-110490000D02*
X76200000Y-111760000D01*
X114935000Y-111760000D02*
X113665000Y-110490000D01*
X99060000Y-111760000D02*
X96520000Y-111760000D01*
X123190000Y-111760000D02*
X114935000Y-111760000D01*
X88900000Y-110490000D02*
X77470000Y-110490000D01*
X113665000Y-110490000D02*
X100330000Y-110490000D01*
X76200000Y-111760000D02*
X69850000Y-111760000D01*
X96520000Y-111760000D02*
X90170000Y-111760000D01*
X100330000Y-110490000D02*
X99060000Y-111760000D01*
%TO.N,Q10*%
X96520000Y-114300000D02*
X90170000Y-114300000D01*
X90170000Y-114300000D02*
X88900000Y-113030000D01*
X99060000Y-114300000D02*
X96520000Y-114300000D01*
X88900000Y-113030000D02*
X78740000Y-113030000D01*
X100330000Y-113030000D02*
X99060000Y-114300000D01*
X114935000Y-114300000D02*
X113665000Y-113030000D01*
X77470000Y-114300000D02*
X69850000Y-114300000D01*
X113665000Y-113030000D02*
X100330000Y-113030000D01*
X123190000Y-114300000D02*
X114935000Y-114300000D01*
X78740000Y-113030000D02*
X77470000Y-114300000D01*
%TO.N,Q3*%
X113665000Y-115570000D02*
X100012500Y-115570000D01*
X100012500Y-115570000D02*
X98742500Y-116840000D01*
X123190000Y-116840000D02*
X114935000Y-116840000D01*
X114935000Y-116840000D02*
X113665000Y-115570000D01*
X96520000Y-116840000D02*
X90170000Y-116840000D01*
X90170000Y-116840000D02*
X88900000Y-115570000D01*
X76200000Y-116840000D02*
X69850000Y-116840000D01*
X77470000Y-115570000D02*
X76200000Y-116840000D01*
X98742500Y-116840000D02*
X96520000Y-116840000D01*
X88900000Y-115570000D02*
X77470000Y-115570000D01*
%TO.N,Q11*%
X98425000Y-119380000D02*
X96520000Y-119380000D01*
X96520000Y-119380000D02*
X90170000Y-119380000D01*
X88900000Y-118110000D02*
X78740000Y-118110000D01*
X77470000Y-119380000D02*
X69850000Y-119380000D01*
X123190000Y-119380000D02*
X114935000Y-119380000D01*
X90170000Y-119380000D02*
X88900000Y-118110000D01*
X78740000Y-118110000D02*
X77470000Y-119380000D01*
X114935000Y-119380000D02*
X113665000Y-118110000D01*
X99695000Y-118110000D02*
X98425000Y-119380000D01*
X113665000Y-118110000D02*
X99695000Y-118110000D01*
D17*
%TO.N,VCC*%
X77470000Y-120650000D02*
X68580000Y-120650000D01*
D15*
X53975000Y-69215000D02*
X53975000Y-73660000D01*
D17*
X85090000Y-119380000D02*
X78740000Y-119380000D01*
X111760000Y-119380000D02*
X100330000Y-119380000D01*
X88265000Y-119380000D02*
X85090000Y-119380000D01*
X65405000Y-97155000D02*
X57150000Y-97155000D01*
X99060000Y-120650000D02*
X89535000Y-120650000D01*
X89535000Y-120650000D02*
X88265000Y-119380000D01*
X53975000Y-93980000D02*
X53975000Y-91440000D01*
X124460000Y-120650000D02*
X114300000Y-120650000D01*
X57150000Y-97155000D02*
X53975000Y-93980000D01*
D15*
X56515000Y-66675000D02*
X53975000Y-69215000D01*
D17*
X67310000Y-99060000D02*
X65405000Y-97155000D01*
X113030000Y-119380000D02*
X111760000Y-119380000D01*
X67310000Y-119380000D02*
X67310000Y-99060000D01*
X100330000Y-119380000D02*
X99060000Y-120650000D01*
X68580000Y-120650000D02*
X67310000Y-119380000D01*
X125730000Y-119380000D02*
X124460000Y-120650000D01*
X78740000Y-119380000D02*
X77470000Y-120650000D01*
X53975000Y-91440000D02*
X53975000Y-73660000D01*
X114300000Y-120650000D02*
X113030000Y-119380000D01*
X138430000Y-119380000D02*
X125730000Y-119380000D01*
D15*
%TO.N,Q4*%
X88900000Y-116840000D02*
X85090000Y-116840000D01*
X111760000Y-116840000D02*
X99695000Y-116840000D01*
X114935000Y-118110000D02*
X113665000Y-116840000D01*
X125730000Y-116840000D02*
X124460000Y-118110000D01*
X138430000Y-116840000D02*
X125730000Y-116840000D01*
X90170000Y-118110000D02*
X88900000Y-116840000D01*
X113665000Y-116840000D02*
X111760000Y-116840000D01*
X98425000Y-118110000D02*
X90170000Y-118110000D01*
X99695000Y-116840000D02*
X98425000Y-118110000D01*
X124460000Y-118110000D02*
X114935000Y-118110000D01*
%TO.N,Q12*%
X99060000Y-115570000D02*
X90170000Y-115570000D01*
X114935000Y-115570000D02*
X113665000Y-114300000D01*
X113665000Y-114300000D02*
X111760000Y-114300000D01*
X111760000Y-114300000D02*
X100330000Y-114300000D01*
X125730000Y-114300000D02*
X124460000Y-115570000D01*
X100330000Y-114300000D02*
X99060000Y-115570000D01*
X88900000Y-114300000D02*
X85090000Y-114300000D01*
X138430000Y-114300000D02*
X125730000Y-114300000D01*
X124460000Y-115570000D02*
X114935000Y-115570000D01*
X90170000Y-115570000D02*
X88900000Y-114300000D01*
%TO.N,Q5*%
X90170000Y-113030000D02*
X88900000Y-111760000D01*
X88900000Y-111760000D02*
X85090000Y-111760000D01*
X99060000Y-113030000D02*
X90170000Y-113030000D01*
X114935000Y-113030000D02*
X113665000Y-111760000D01*
X125095000Y-113030000D02*
X114935000Y-113030000D01*
X138430000Y-111760000D02*
X126365000Y-111760000D01*
X100330000Y-111760000D02*
X99060000Y-113030000D01*
X126365000Y-111760000D02*
X125095000Y-113030000D01*
X111760000Y-111760000D02*
X100330000Y-111760000D01*
X113665000Y-111760000D02*
X111760000Y-111760000D01*
%TO.N,Q13*%
X90805000Y-110490000D02*
X90170000Y-109855000D01*
X111760000Y-109220000D02*
X99060000Y-109220000D01*
X97790000Y-110490000D02*
X90805000Y-110490000D01*
X138430000Y-109220000D02*
X126365000Y-109220000D01*
X87630000Y-109220000D02*
X85090000Y-109220000D01*
X114935000Y-110490000D02*
X113665000Y-109220000D01*
X126365000Y-109220000D02*
X125095000Y-110490000D01*
X99060000Y-109220000D02*
X97790000Y-110490000D01*
X113665000Y-109220000D02*
X111760000Y-109220000D01*
X88265000Y-109855000D02*
X87630000Y-109220000D01*
X90170000Y-109855000D02*
X88265000Y-109855000D01*
X125095000Y-110490000D02*
X114935000Y-110490000D01*
%TO.N,Q6*%
X111760000Y-106680000D02*
X100965000Y-106680000D01*
X113665000Y-106680000D02*
X111760000Y-106680000D01*
X125095000Y-107950000D02*
X114935000Y-107950000D01*
X100965000Y-106680000D02*
X99695000Y-107950000D01*
X99695000Y-107950000D02*
X88900000Y-107950000D01*
X138430000Y-106680000D02*
X126365000Y-106680000D01*
X87630000Y-106680000D02*
X85090000Y-106680000D01*
X88900000Y-107950000D02*
X87630000Y-106680000D01*
X126365000Y-106680000D02*
X125095000Y-107950000D01*
X114935000Y-107950000D02*
X113665000Y-106680000D01*
%TO.N,Q14*%
X126365000Y-104140000D02*
X125095000Y-105410000D01*
X87630000Y-104140000D02*
X85090000Y-104140000D01*
X111760000Y-104140000D02*
X100965000Y-104140000D01*
X125095000Y-105410000D02*
X114935000Y-105410000D01*
X138430000Y-104140000D02*
X126365000Y-104140000D01*
X99695000Y-105410000D02*
X88900000Y-105410000D01*
X113665000Y-104140000D02*
X111760000Y-104140000D01*
X100965000Y-104140000D02*
X99695000Y-105410000D01*
X88900000Y-105410000D02*
X87630000Y-104140000D01*
X114935000Y-105410000D02*
X113665000Y-104140000D01*
%TO.N,Q7*%
X113665000Y-101600000D02*
X111760000Y-101600000D01*
X114935000Y-102870000D02*
X113665000Y-101600000D01*
X111760000Y-101600000D02*
X100330000Y-101600000D01*
X100330000Y-101600000D02*
X99060000Y-102870000D01*
X99060000Y-102870000D02*
X89535000Y-102870000D01*
X126365000Y-101600000D02*
X125095000Y-102870000D01*
X138430000Y-101600000D02*
X126365000Y-101600000D01*
X89535000Y-102870000D02*
X88265000Y-101600000D01*
X88265000Y-101600000D02*
X85090000Y-101600000D01*
X125095000Y-102870000D02*
X114935000Y-102870000D01*
%TO.N,Q15*%
X127000000Y-99060000D02*
X125730000Y-100330000D01*
X125730000Y-100330000D02*
X115570000Y-100330000D01*
X114300000Y-99060000D02*
X111760000Y-99060000D01*
X90170000Y-100330000D02*
X88900000Y-99060000D01*
X99060000Y-100330000D02*
X90170000Y-100330000D01*
X115570000Y-100330000D02*
X114300000Y-99060000D01*
X138430000Y-99060000D02*
X127000000Y-99060000D01*
X111760000Y-99060000D02*
X100330000Y-99060000D01*
X88900000Y-99060000D02*
X85090000Y-99060000D01*
X100330000Y-99060000D02*
X99060000Y-100330000D01*
%TO.N,BYTE#*%
X67800000Y-95105000D02*
X81425000Y-95105000D01*
X64135000Y-91440000D02*
X67800000Y-95105000D01*
X81425000Y-95105000D02*
X82550000Y-93980000D01*
X82550000Y-93980000D02*
X85090000Y-93980000D01*
%TO.N,A16*%
X111760000Y-91440000D02*
X100330000Y-91440000D01*
X89535000Y-91440000D02*
X85090000Y-91440000D01*
X100330000Y-91440000D02*
X99060000Y-92710000D01*
X90805000Y-92710000D02*
X89535000Y-91440000D01*
X99060000Y-92710000D02*
X90805000Y-92710000D01*
%TO.N,A15*%
X113030000Y-90170000D02*
X111760000Y-88900000D01*
X130175000Y-91440000D02*
X128905000Y-90170000D01*
X138430000Y-91440000D02*
X130175000Y-91440000D01*
X97790000Y-90170000D02*
X92075000Y-90170000D01*
X90805000Y-88900000D02*
X85090000Y-88900000D01*
X92075000Y-90170000D02*
X90805000Y-88900000D01*
X111760000Y-88900000D02*
X99060000Y-88900000D01*
X128905000Y-90170000D02*
X113030000Y-90170000D01*
X99060000Y-88900000D02*
X97790000Y-90170000D01*
%TO.N,A14*%
X116205000Y-86360000D02*
X111760000Y-86360000D01*
X99695000Y-86360000D02*
X98425000Y-87630000D01*
X98425000Y-87630000D02*
X92710000Y-87630000D01*
X127000000Y-88900000D02*
X125730000Y-87630000D01*
X92710000Y-87630000D02*
X91440000Y-86360000D01*
X138430000Y-88900000D02*
X127000000Y-88900000D01*
X117475000Y-87630000D02*
X116205000Y-86360000D01*
X125730000Y-87630000D02*
X117475000Y-87630000D01*
X91440000Y-86360000D02*
X85090000Y-86360000D01*
X111760000Y-86360000D02*
X99695000Y-86360000D01*
%TO.N,A13*%
X128905000Y-86360000D02*
X127635000Y-85090000D01*
X100965000Y-83820000D02*
X99695000Y-85090000D01*
X99695000Y-85090000D02*
X92710000Y-85090000D01*
X111760000Y-83820000D02*
X100965000Y-83820000D01*
X127635000Y-85090000D02*
X117475000Y-85090000D01*
X92710000Y-85090000D02*
X91440000Y-83820000D01*
X117475000Y-85090000D02*
X116205000Y-83820000D01*
X116205000Y-83820000D02*
X111760000Y-83820000D01*
X91440000Y-83820000D02*
X85090000Y-83820000D01*
X138430000Y-86360000D02*
X128905000Y-86360000D01*
%TO.N,A12*%
X97300000Y-82405000D02*
X92565000Y-82405000D01*
X119380000Y-82550000D02*
X118745000Y-81915000D01*
X91440000Y-81280000D02*
X85090000Y-81280000D01*
X118745000Y-81915000D02*
X112395000Y-81915000D01*
X98425000Y-81280000D02*
X97300000Y-82405000D01*
X111760000Y-81280000D02*
X98425000Y-81280000D01*
X127000000Y-83820000D02*
X125730000Y-82550000D01*
X92565000Y-82405000D02*
X91440000Y-81280000D01*
X112395000Y-81915000D02*
X111760000Y-81280000D01*
X125730000Y-82550000D02*
X119380000Y-82550000D01*
X138430000Y-83820000D02*
X127000000Y-83820000D01*
%TO.N,A11*%
X117475000Y-79375000D02*
X112395000Y-79375000D01*
X118110000Y-80010000D02*
X117475000Y-79375000D01*
X127635000Y-81280000D02*
X126365000Y-80010000D01*
X99060000Y-80010000D02*
X93345000Y-80010000D01*
X138430000Y-81280000D02*
X127635000Y-81280000D01*
X126365000Y-80010000D02*
X118110000Y-80010000D01*
X111760000Y-78740000D02*
X100330000Y-78740000D01*
X100330000Y-78740000D02*
X99060000Y-80010000D01*
X112395000Y-79375000D02*
X111760000Y-78740000D01*
X93345000Y-80010000D02*
X92075000Y-78740000D01*
X92075000Y-78740000D02*
X85090000Y-78740000D01*
%TO.N,A10*%
X91440000Y-76200000D02*
X85090000Y-76200000D01*
X111760000Y-76200000D02*
X100330000Y-76200000D01*
X138430000Y-78740000D02*
X127000000Y-78740000D01*
X114935000Y-76200000D02*
X111760000Y-76200000D01*
X92710000Y-77470000D02*
X91440000Y-76200000D01*
X116205000Y-77470000D02*
X114935000Y-76200000D01*
X125730000Y-77470000D02*
X116205000Y-77470000D01*
X100330000Y-76200000D02*
X99060000Y-77470000D01*
X127000000Y-78740000D02*
X125730000Y-77470000D01*
X99060000Y-77470000D02*
X92710000Y-77470000D01*
%TO.N,A9*%
X116205000Y-74930000D02*
X114935000Y-73660000D01*
X114935000Y-73660000D02*
X111760000Y-73660000D01*
X92710000Y-74930000D02*
X91440000Y-73660000D01*
X138430000Y-76200000D02*
X127635000Y-76200000D01*
X111760000Y-73660000D02*
X100330000Y-73660000D01*
X127635000Y-76200000D02*
X126365000Y-74930000D01*
X91440000Y-73660000D02*
X85090000Y-73660000D01*
X99060000Y-74930000D02*
X92710000Y-74930000D01*
X100330000Y-73660000D02*
X99060000Y-74930000D01*
X126365000Y-74930000D02*
X116205000Y-74930000D01*
%TO.N,A8*%
X111760000Y-71120000D02*
X100330000Y-71120000D01*
X99060000Y-72390000D02*
X92710000Y-72390000D01*
X100330000Y-71120000D02*
X99060000Y-72390000D01*
X125095000Y-72390000D02*
X117475000Y-72390000D01*
X117475000Y-72390000D02*
X116205000Y-71120000D01*
X138430000Y-73660000D02*
X126365000Y-73660000D01*
X91440000Y-71120000D02*
X85090000Y-71120000D01*
X126365000Y-73660000D02*
X125095000Y-72390000D01*
X92710000Y-72390000D02*
X91440000Y-71120000D01*
X116205000Y-71120000D02*
X111760000Y-71120000D01*
%TO.N,A19*%
X116205000Y-68580000D02*
X111760000Y-68580000D01*
X99060000Y-69850000D02*
X92710000Y-69850000D01*
X111760000Y-68580000D02*
X100330000Y-68580000D01*
X127000000Y-71120000D02*
X125730000Y-69850000D01*
X100330000Y-68580000D02*
X99060000Y-69850000D01*
X138430000Y-71120000D02*
X127000000Y-71120000D01*
X92710000Y-69850000D02*
X91440000Y-68580000D01*
X125730000Y-69850000D02*
X117475000Y-69850000D01*
X117475000Y-69850000D02*
X116205000Y-68580000D01*
X91440000Y-68580000D02*
X85090000Y-68580000D01*
%TO.N,WE#*%
X73660000Y-64770000D02*
X74930000Y-63500000D01*
X74930000Y-63500000D02*
X85090000Y-63500000D01*
X67310000Y-66040000D02*
X68580000Y-64770000D01*
X68580000Y-64770000D02*
X73660000Y-64770000D01*
X64135000Y-82550000D02*
X67310000Y-79375000D01*
X67310000Y-79375000D02*
X67310000Y-66040000D01*
%TO.N,RESET#*%
X64135000Y-73660000D02*
X64135000Y-65405000D01*
X79520000Y-62085000D02*
X80645000Y-60960000D01*
X67455000Y-62085000D02*
X79520000Y-62085000D01*
X64135000Y-65405000D02*
X67455000Y-62085000D01*
X80645000Y-60960000D02*
X85090000Y-60960000D01*
%TD*%
%TA.AperFunction,Conductor*%
%TO.N,GND*%
G36*
X140277539Y-66695185D02*
G01*
X140323294Y-66747989D01*
X140334500Y-66799500D01*
X140334500Y-121160500D01*
X140314815Y-121227539D01*
X140262011Y-121273294D01*
X140210500Y-121284500D01*
X125186230Y-121284500D01*
X125119191Y-121264815D01*
X125073436Y-121212011D01*
X125063492Y-121142853D01*
X125092517Y-121079297D01*
X125098549Y-121072819D01*
X126004548Y-120166819D01*
X126065871Y-120133334D01*
X126092229Y-120130500D01*
X137303337Y-120130500D01*
X137370376Y-120150185D01*
X137404912Y-120183377D01*
X137429954Y-120219141D01*
X137590858Y-120380045D01*
X137590861Y-120380047D01*
X137777266Y-120510568D01*
X137983504Y-120606739D01*
X138203308Y-120665635D01*
X138365230Y-120679801D01*
X138429998Y-120685468D01*
X138430000Y-120685468D01*
X138430002Y-120685468D01*
X138486672Y-120680509D01*
X138656692Y-120665635D01*
X138876496Y-120606739D01*
X139082734Y-120510568D01*
X139269139Y-120380047D01*
X139430047Y-120219139D01*
X139560568Y-120032734D01*
X139656739Y-119826496D01*
X139715635Y-119606692D01*
X139735468Y-119380000D01*
X139733545Y-119358025D01*
X139715635Y-119153313D01*
X139715635Y-119153312D01*
X139715635Y-119153308D01*
X139656739Y-118933504D01*
X139560568Y-118727266D01*
X139430047Y-118540861D01*
X139430045Y-118540858D01*
X139269141Y-118379954D01*
X139082734Y-118249432D01*
X139082728Y-118249429D01*
X139024725Y-118222382D01*
X138972285Y-118176210D01*
X138953133Y-118109017D01*
X138973348Y-118042135D01*
X139024725Y-117997618D01*
X139082734Y-117970568D01*
X139269139Y-117840047D01*
X139430047Y-117679139D01*
X139560568Y-117492734D01*
X139656739Y-117286496D01*
X139715635Y-117066692D01*
X139735468Y-116840000D01*
X139715635Y-116613308D01*
X139656739Y-116393504D01*
X139560568Y-116187266D01*
X139430047Y-116000861D01*
X139430045Y-116000858D01*
X139269141Y-115839954D01*
X139082734Y-115709432D01*
X139082728Y-115709429D01*
X139024725Y-115682382D01*
X138972285Y-115636210D01*
X138953133Y-115569017D01*
X138973348Y-115502135D01*
X139024725Y-115457618D01*
X139082734Y-115430568D01*
X139269139Y-115300047D01*
X139430047Y-115139139D01*
X139560568Y-114952734D01*
X139656739Y-114746496D01*
X139715635Y-114526692D01*
X139735468Y-114300000D01*
X139715635Y-114073308D01*
X139657388Y-113855926D01*
X139656741Y-113853511D01*
X139656738Y-113853502D01*
X139646667Y-113831905D01*
X139560568Y-113647266D01*
X139430047Y-113460861D01*
X139430045Y-113460858D01*
X139269141Y-113299954D01*
X139082734Y-113169432D01*
X139082728Y-113169429D01*
X139024725Y-113142382D01*
X138972285Y-113096210D01*
X138953133Y-113029017D01*
X138973348Y-112962135D01*
X139024725Y-112917618D01*
X139082734Y-112890568D01*
X139269139Y-112760047D01*
X139430047Y-112599139D01*
X139560568Y-112412734D01*
X139656739Y-112206496D01*
X139715635Y-111986692D01*
X139735468Y-111760000D01*
X139715635Y-111533308D01*
X139656739Y-111313504D01*
X139560568Y-111107266D01*
X139430047Y-110920861D01*
X139430045Y-110920858D01*
X139269141Y-110759954D01*
X139082734Y-110629432D01*
X139082728Y-110629429D01*
X139024725Y-110602382D01*
X138972285Y-110556210D01*
X138953133Y-110489017D01*
X138973348Y-110422135D01*
X139024725Y-110377618D01*
X139082734Y-110350568D01*
X139269139Y-110220047D01*
X139430047Y-110059139D01*
X139560568Y-109872734D01*
X139656739Y-109666496D01*
X139715635Y-109446692D01*
X139735468Y-109220000D01*
X139715635Y-108993308D01*
X139656739Y-108773504D01*
X139560568Y-108567266D01*
X139430047Y-108380861D01*
X139430045Y-108380858D01*
X139269141Y-108219954D01*
X139082735Y-108089433D01*
X139082736Y-108089433D01*
X139082734Y-108089432D01*
X139024722Y-108062380D01*
X138972284Y-108016208D01*
X138953133Y-107949014D01*
X138973349Y-107882133D01*
X139024721Y-107837619D01*
X139082734Y-107810568D01*
X139269139Y-107680047D01*
X139430047Y-107519139D01*
X139560568Y-107332734D01*
X139656739Y-107126496D01*
X139715635Y-106906692D01*
X139735468Y-106680000D01*
X139715635Y-106453308D01*
X139656739Y-106233504D01*
X139560568Y-106027266D01*
X139430047Y-105840861D01*
X139430045Y-105840858D01*
X139269141Y-105679954D01*
X139082735Y-105549433D01*
X139082736Y-105549433D01*
X139082734Y-105549432D01*
X139024722Y-105522380D01*
X138972284Y-105476208D01*
X138953133Y-105409014D01*
X138973349Y-105342133D01*
X139024721Y-105297619D01*
X139082734Y-105270568D01*
X139269139Y-105140047D01*
X139430047Y-104979139D01*
X139560568Y-104792734D01*
X139656739Y-104586496D01*
X139715635Y-104366692D01*
X139735468Y-104140000D01*
X139715635Y-103913308D01*
X139656739Y-103693504D01*
X139560568Y-103487266D01*
X139430047Y-103300861D01*
X139430045Y-103300858D01*
X139269141Y-103139954D01*
X139082735Y-103009433D01*
X139082736Y-103009433D01*
X139082734Y-103009432D01*
X139024722Y-102982380D01*
X138972284Y-102936208D01*
X138953133Y-102869014D01*
X138973349Y-102802133D01*
X139024721Y-102757619D01*
X139082734Y-102730568D01*
X139269139Y-102600047D01*
X139430047Y-102439139D01*
X139560568Y-102252734D01*
X139656739Y-102046496D01*
X139715635Y-101826692D01*
X139735468Y-101600000D01*
X139715635Y-101373308D01*
X139657388Y-101155926D01*
X139656741Y-101153511D01*
X139656738Y-101153502D01*
X139560568Y-100947266D01*
X139430047Y-100760861D01*
X139430045Y-100760858D01*
X139269141Y-100599954D01*
X139082735Y-100469433D01*
X139082736Y-100469433D01*
X139082734Y-100469432D01*
X139024722Y-100442380D01*
X138972284Y-100396208D01*
X138953133Y-100329014D01*
X138973349Y-100262133D01*
X139024721Y-100217619D01*
X139082734Y-100190568D01*
X139269139Y-100060047D01*
X139430047Y-99899139D01*
X139560568Y-99712734D01*
X139656739Y-99506496D01*
X139715635Y-99286692D01*
X139735468Y-99060000D01*
X139732601Y-99027235D01*
X139720836Y-98892757D01*
X139715635Y-98833308D01*
X139656739Y-98613504D01*
X139560568Y-98407266D01*
X139430047Y-98220861D01*
X139430045Y-98220858D01*
X139269141Y-98059954D01*
X139082734Y-97929432D01*
X139082732Y-97929431D01*
X139071275Y-97924088D01*
X139024132Y-97902105D01*
X138971694Y-97855934D01*
X138952542Y-97788740D01*
X138972758Y-97721859D01*
X139024134Y-97677341D01*
X139082484Y-97650132D01*
X139268820Y-97519657D01*
X139429657Y-97358820D01*
X139560134Y-97172482D01*
X139656265Y-96966326D01*
X139656269Y-96966317D01*
X139708872Y-96770000D01*
X138940576Y-96770000D01*
X138873537Y-96750315D01*
X138827782Y-96697511D01*
X138817838Y-96628353D01*
X138818103Y-96626603D01*
X138834986Y-96520003D01*
X138834986Y-96519996D01*
X138818103Y-96413397D01*
X138827058Y-96344104D01*
X138872054Y-96290652D01*
X138938806Y-96270013D01*
X138940576Y-96270000D01*
X139708872Y-96270000D01*
X139708872Y-96269999D01*
X139656269Y-96073682D01*
X139656265Y-96073673D01*
X139560134Y-95867517D01*
X139429657Y-95681179D01*
X139268820Y-95520342D01*
X139082482Y-95389865D01*
X139024133Y-95362657D01*
X138971694Y-95316484D01*
X138952542Y-95249291D01*
X138972758Y-95182410D01*
X139024129Y-95137895D01*
X139082734Y-95110568D01*
X139269139Y-94980047D01*
X139430047Y-94819139D01*
X139560568Y-94632734D01*
X139656739Y-94426496D01*
X139715635Y-94206692D01*
X139735468Y-93980000D01*
X139733545Y-93958025D01*
X139715635Y-93753313D01*
X139715635Y-93753308D01*
X139656739Y-93533504D01*
X139560568Y-93327266D01*
X139430047Y-93140861D01*
X139430045Y-93140858D01*
X139269141Y-92979954D01*
X139082734Y-92849432D01*
X139082728Y-92849429D01*
X139024725Y-92822382D01*
X138972285Y-92776210D01*
X138953133Y-92709017D01*
X138973348Y-92642135D01*
X139024725Y-92597618D01*
X139082734Y-92570568D01*
X139269139Y-92440047D01*
X139430047Y-92279139D01*
X139560568Y-92092734D01*
X139656739Y-91886496D01*
X139715635Y-91666692D01*
X139735468Y-91440000D01*
X139715635Y-91213308D01*
X139656739Y-90993504D01*
X139560568Y-90787266D01*
X139430047Y-90600861D01*
X139430045Y-90600858D01*
X139269141Y-90439954D01*
X139082734Y-90309432D01*
X139082728Y-90309429D01*
X139024725Y-90282382D01*
X138972285Y-90236210D01*
X138953133Y-90169017D01*
X138973348Y-90102135D01*
X139024725Y-90057618D01*
X139082734Y-90030568D01*
X139269139Y-89900047D01*
X139430047Y-89739139D01*
X139560568Y-89552734D01*
X139656739Y-89346496D01*
X139715635Y-89126692D01*
X139735468Y-88900000D01*
X139715635Y-88673308D01*
X139656739Y-88453504D01*
X139560568Y-88247266D01*
X139462839Y-88107693D01*
X139430045Y-88060858D01*
X139269141Y-87899954D01*
X139082734Y-87769432D01*
X139082728Y-87769429D01*
X139024725Y-87742382D01*
X138972285Y-87696210D01*
X138953133Y-87629017D01*
X138973348Y-87562135D01*
X139024725Y-87517618D01*
X139082734Y-87490568D01*
X139269139Y-87360047D01*
X139430047Y-87199139D01*
X139560568Y-87012734D01*
X139656739Y-86806496D01*
X139715635Y-86586692D01*
X139735468Y-86360000D01*
X139733916Y-86342266D01*
X139717608Y-86155861D01*
X139715635Y-86133308D01*
X139656739Y-85913504D01*
X139560568Y-85707266D01*
X139430047Y-85520861D01*
X139430045Y-85520858D01*
X139269141Y-85359954D01*
X139082734Y-85229432D01*
X139082728Y-85229429D01*
X139024725Y-85202382D01*
X138972285Y-85156210D01*
X138953133Y-85089017D01*
X138973348Y-85022135D01*
X139024725Y-84977618D01*
X139082734Y-84950568D01*
X139269139Y-84820047D01*
X139430047Y-84659139D01*
X139560568Y-84472734D01*
X139656739Y-84266496D01*
X139715635Y-84046692D01*
X139735468Y-83820000D01*
X139715635Y-83593308D01*
X139656739Y-83373504D01*
X139560568Y-83167266D01*
X139434124Y-82986684D01*
X139430045Y-82980858D01*
X139269141Y-82819954D01*
X139082734Y-82689432D01*
X139082728Y-82689429D01*
X139024725Y-82662382D01*
X138972285Y-82616210D01*
X138953133Y-82549017D01*
X138973348Y-82482135D01*
X139024725Y-82437618D01*
X139082734Y-82410568D01*
X139269139Y-82280047D01*
X139430047Y-82119139D01*
X139560568Y-81932734D01*
X139656739Y-81726496D01*
X139715635Y-81506692D01*
X139735468Y-81280000D01*
X139715635Y-81053308D01*
X139656739Y-80833504D01*
X139560568Y-80627266D01*
X139430047Y-80440861D01*
X139430045Y-80440858D01*
X139269141Y-80279954D01*
X139082734Y-80149432D01*
X139082728Y-80149429D01*
X139024725Y-80122382D01*
X138972285Y-80076210D01*
X138953133Y-80009017D01*
X138973348Y-79942135D01*
X139024725Y-79897618D01*
X139082734Y-79870568D01*
X139269139Y-79740047D01*
X139430047Y-79579139D01*
X139560568Y-79392734D01*
X139656739Y-79186496D01*
X139715635Y-78966692D01*
X139732634Y-78772384D01*
X139735468Y-78740001D01*
X139735468Y-78739998D01*
X139726396Y-78636307D01*
X139715635Y-78513308D01*
X139656739Y-78293504D01*
X139560568Y-78087266D01*
X139430047Y-77900861D01*
X139430045Y-77900858D01*
X139269141Y-77739954D01*
X139082734Y-77609432D01*
X139082728Y-77609429D01*
X139024725Y-77582382D01*
X138972285Y-77536210D01*
X138953133Y-77469017D01*
X138973348Y-77402135D01*
X139024725Y-77357618D01*
X139082734Y-77330568D01*
X139269139Y-77200047D01*
X139430047Y-77039139D01*
X139560568Y-76852734D01*
X139656739Y-76646496D01*
X139715635Y-76426692D01*
X139735468Y-76200000D01*
X139715635Y-75973308D01*
X139656739Y-75753504D01*
X139560568Y-75547266D01*
X139430047Y-75360861D01*
X139430045Y-75360858D01*
X139269141Y-75199954D01*
X139082734Y-75069432D01*
X139082728Y-75069429D01*
X139024725Y-75042382D01*
X138972285Y-74996210D01*
X138953133Y-74929017D01*
X138973348Y-74862135D01*
X139024725Y-74817618D01*
X139082734Y-74790568D01*
X139269139Y-74660047D01*
X139430047Y-74499139D01*
X139560568Y-74312734D01*
X139656739Y-74106496D01*
X139715635Y-73886692D01*
X139735468Y-73660000D01*
X139715635Y-73433308D01*
X139656739Y-73213504D01*
X139560568Y-73007266D01*
X139430047Y-72820861D01*
X139430045Y-72820858D01*
X139269141Y-72659954D01*
X139082734Y-72529432D01*
X139082728Y-72529429D01*
X139024725Y-72502382D01*
X138972285Y-72456210D01*
X138953133Y-72389017D01*
X138973348Y-72322135D01*
X139024725Y-72277618D01*
X139082734Y-72250568D01*
X139269139Y-72120047D01*
X139430047Y-71959139D01*
X139560568Y-71772734D01*
X139656739Y-71566496D01*
X139715635Y-71346692D01*
X139735468Y-71120000D01*
X139715635Y-70893308D01*
X139656739Y-70673504D01*
X139560568Y-70467266D01*
X139430047Y-70280861D01*
X139430045Y-70280858D01*
X139269141Y-70119954D01*
X139082734Y-69989432D01*
X139082728Y-69989429D01*
X139024725Y-69962382D01*
X138972285Y-69916210D01*
X138953133Y-69849017D01*
X138973348Y-69782135D01*
X139024725Y-69737618D01*
X139082734Y-69710568D01*
X139269139Y-69580047D01*
X139430047Y-69419139D01*
X139560568Y-69232734D01*
X139656739Y-69026496D01*
X139715635Y-68806692D01*
X139735468Y-68580000D01*
X139715635Y-68353308D01*
X139656739Y-68133504D01*
X139560568Y-67927266D01*
X139430047Y-67740861D01*
X139430045Y-67740858D01*
X139269141Y-67579954D01*
X139082734Y-67449432D01*
X139082732Y-67449431D01*
X138876497Y-67353261D01*
X138876488Y-67353258D01*
X138656697Y-67294366D01*
X138656693Y-67294365D01*
X138656692Y-67294365D01*
X138656691Y-67294364D01*
X138656686Y-67294364D01*
X138430002Y-67274532D01*
X138429998Y-67274532D01*
X138203313Y-67294364D01*
X138203302Y-67294366D01*
X137983511Y-67353258D01*
X137983502Y-67353261D01*
X137777267Y-67449431D01*
X137777265Y-67449432D01*
X137590858Y-67579954D01*
X137429954Y-67740858D01*
X137299432Y-67927265D01*
X137299431Y-67927267D01*
X137203261Y-68133502D01*
X137203258Y-68133511D01*
X137144366Y-68353302D01*
X137144364Y-68353313D01*
X137124532Y-68579998D01*
X137124532Y-68580001D01*
X137144364Y-68806686D01*
X137144366Y-68806697D01*
X137203258Y-69026488D01*
X137203261Y-69026497D01*
X137299431Y-69232732D01*
X137299432Y-69232734D01*
X137429954Y-69419141D01*
X137590858Y-69580045D01*
X137590861Y-69580047D01*
X137777266Y-69710568D01*
X137835275Y-69737618D01*
X137887714Y-69783791D01*
X137906866Y-69850984D01*
X137886650Y-69917865D01*
X137835275Y-69962382D01*
X137777267Y-69989431D01*
X137777265Y-69989432D01*
X137590858Y-70119954D01*
X137429954Y-70280858D01*
X137317387Y-70441623D01*
X137262811Y-70485248D01*
X137215812Y-70494500D01*
X127310453Y-70494500D01*
X127243414Y-70474815D01*
X127222772Y-70458181D01*
X126230803Y-69466212D01*
X126220980Y-69453950D01*
X126220759Y-69454134D01*
X126215786Y-69448123D01*
X126204761Y-69437770D01*
X126165364Y-69400773D01*
X126154919Y-69390328D01*
X126144475Y-69379883D01*
X126138986Y-69375625D01*
X126134561Y-69371847D01*
X126100582Y-69339938D01*
X126100580Y-69339936D01*
X126100577Y-69339935D01*
X126083029Y-69330288D01*
X126066763Y-69319604D01*
X126050936Y-69307327D01*
X126050935Y-69307326D01*
X126050933Y-69307325D01*
X126008168Y-69288818D01*
X126002922Y-69286248D01*
X125962093Y-69263803D01*
X125962092Y-69263802D01*
X125942693Y-69258822D01*
X125924281Y-69252518D01*
X125905898Y-69244562D01*
X125905892Y-69244560D01*
X125859874Y-69237272D01*
X125854152Y-69236087D01*
X125809021Y-69224500D01*
X125809019Y-69224500D01*
X125788984Y-69224500D01*
X125769586Y-69222973D01*
X125761333Y-69221666D01*
X125749805Y-69219840D01*
X125749804Y-69219840D01*
X125703416Y-69224225D01*
X125697578Y-69224500D01*
X124614500Y-69224500D01*
X124547461Y-69204815D01*
X124501706Y-69152011D01*
X124490500Y-69100500D01*
X124490499Y-67732129D01*
X124490498Y-67732123D01*
X124490497Y-67732116D01*
X124484091Y-67672517D01*
X124458741Y-67604551D01*
X124433797Y-67537671D01*
X124433793Y-67537664D01*
X124347547Y-67422455D01*
X124347544Y-67422452D01*
X124232335Y-67336206D01*
X124232328Y-67336202D01*
X124097482Y-67285908D01*
X124097483Y-67285908D01*
X124037883Y-67279501D01*
X124037881Y-67279500D01*
X124037873Y-67279500D01*
X124037864Y-67279500D01*
X122342129Y-67279500D01*
X122342123Y-67279501D01*
X122282516Y-67285908D01*
X122147671Y-67336202D01*
X122147664Y-67336206D01*
X122032455Y-67422452D01*
X122032452Y-67422455D01*
X121946206Y-67537664D01*
X121946202Y-67537671D01*
X121895908Y-67672517D01*
X121889501Y-67732116D01*
X121889501Y-67732123D01*
X121889500Y-67732135D01*
X121889500Y-67830500D01*
X121869815Y-67897539D01*
X121817011Y-67943294D01*
X121765500Y-67954500D01*
X118420453Y-67954500D01*
X118353414Y-67934815D01*
X118332772Y-67918181D01*
X117340803Y-66926212D01*
X117330980Y-66913950D01*
X117330759Y-66914134D01*
X117325786Y-66908123D01*
X117306373Y-66889893D01*
X117270978Y-66829652D01*
X117273770Y-66759838D01*
X117313863Y-66702617D01*
X117378528Y-66676155D01*
X117391256Y-66675500D01*
X140210500Y-66675500D01*
X140277539Y-66695185D01*
G37*
%TD.AperFunction*%
%TA.AperFunction,Conductor*%
G36*
X66837586Y-61605185D02*
G01*
X66883341Y-61657989D01*
X66893285Y-61727147D01*
X66864260Y-61790703D01*
X66858228Y-61797181D01*
X63751208Y-64904199D01*
X63738951Y-64914020D01*
X63739134Y-64914241D01*
X63733123Y-64919213D01*
X63685772Y-64969636D01*
X63664889Y-64990519D01*
X63664877Y-64990532D01*
X63660621Y-64996017D01*
X63656837Y-65000447D01*
X63624937Y-65034418D01*
X63624936Y-65034420D01*
X63615284Y-65051976D01*
X63604610Y-65068226D01*
X63592329Y-65084061D01*
X63592324Y-65084068D01*
X63573815Y-65126838D01*
X63571245Y-65132084D01*
X63548803Y-65172906D01*
X63543822Y-65192307D01*
X63537521Y-65210710D01*
X63529562Y-65229102D01*
X63529561Y-65229106D01*
X63522271Y-65275127D01*
X63521087Y-65280846D01*
X63509499Y-65325983D01*
X63509499Y-65346019D01*
X63507973Y-65365407D01*
X63504840Y-65385192D01*
X63504839Y-65385198D01*
X63509224Y-65431584D01*
X63509499Y-65437421D01*
X63509499Y-72445812D01*
X63489814Y-72512851D01*
X63456622Y-72547387D01*
X63295859Y-72659953D01*
X63134954Y-72820858D01*
X63004432Y-73007265D01*
X63004431Y-73007267D01*
X62908261Y-73213502D01*
X62908258Y-73213511D01*
X62849366Y-73433302D01*
X62849364Y-73433313D01*
X62829532Y-73659998D01*
X62829532Y-73660001D01*
X62849364Y-73886686D01*
X62849366Y-73886697D01*
X62908258Y-74106488D01*
X62908261Y-74106497D01*
X63004431Y-74312732D01*
X63004432Y-74312734D01*
X63134954Y-74499141D01*
X63295858Y-74660045D01*
X63295861Y-74660047D01*
X63482266Y-74790568D01*
X63688504Y-74886739D01*
X63908308Y-74945635D01*
X64070230Y-74959801D01*
X64134998Y-74965468D01*
X64135000Y-74965468D01*
X64135002Y-74965468D01*
X64191673Y-74960509D01*
X64361692Y-74945635D01*
X64581496Y-74886739D01*
X64603093Y-74876667D01*
X64672169Y-74866173D01*
X64735954Y-74894691D01*
X64774195Y-74953167D01*
X64779500Y-74989048D01*
X64779500Y-76524546D01*
X64759815Y-76591585D01*
X64743181Y-76612227D01*
X64549821Y-76805586D01*
X64488498Y-76839071D01*
X64430048Y-76837680D01*
X64361697Y-76819366D01*
X64361693Y-76819365D01*
X64361692Y-76819365D01*
X64236533Y-76808415D01*
X64135001Y-76799532D01*
X64134998Y-76799532D01*
X63908313Y-76819364D01*
X63908302Y-76819366D01*
X63688511Y-76878258D01*
X63688502Y-76878261D01*
X63482267Y-76974431D01*
X63482265Y-76974432D01*
X63295858Y-77104954D01*
X63134954Y-77265858D01*
X63004432Y-77452265D01*
X63004431Y-77452267D01*
X62908261Y-77658502D01*
X62908258Y-77658511D01*
X62849366Y-77878302D01*
X62849364Y-77878313D01*
X62829532Y-78104998D01*
X62829532Y-78105001D01*
X62849364Y-78331686D01*
X62849366Y-78331697D01*
X62908258Y-78551488D01*
X62908261Y-78551497D01*
X63004431Y-78757732D01*
X63004432Y-78757734D01*
X63134954Y-78944141D01*
X63295858Y-79105045D01*
X63295861Y-79105047D01*
X63482266Y-79235568D01*
X63688504Y-79331739D01*
X63688509Y-79331740D01*
X63688511Y-79331741D01*
X63722906Y-79340957D01*
X63908308Y-79390635D01*
X64067494Y-79404562D01*
X64134998Y-79410468D01*
X64135000Y-79410468D01*
X64135002Y-79410468D01*
X64191672Y-79405509D01*
X64361692Y-79390635D01*
X64581496Y-79331739D01*
X64787734Y-79235568D01*
X64974139Y-79105047D01*
X65135047Y-78944139D01*
X65265568Y-78757734D01*
X65361739Y-78551496D01*
X65420635Y-78331692D01*
X65440468Y-78105000D01*
X65438916Y-78087266D01*
X65429340Y-77977807D01*
X65420635Y-77878308D01*
X65402318Y-77809948D01*
X65403981Y-77740103D01*
X65434410Y-77690179D01*
X65788788Y-77335801D01*
X65801042Y-77325986D01*
X65800859Y-77325764D01*
X65806866Y-77320792D01*
X65806877Y-77320786D01*
X65837775Y-77287882D01*
X65854227Y-77270364D01*
X65864671Y-77259918D01*
X65875120Y-77249471D01*
X65879379Y-77243978D01*
X65883152Y-77239561D01*
X65915062Y-77205582D01*
X65924713Y-77188024D01*
X65935396Y-77171761D01*
X65947673Y-77155936D01*
X65966185Y-77113153D01*
X65968738Y-77107941D01*
X65991197Y-77067092D01*
X65996180Y-77047680D01*
X66002481Y-77029280D01*
X66010437Y-77010896D01*
X66017729Y-76964852D01*
X66018906Y-76959171D01*
X66030500Y-76914019D01*
X66030500Y-76893982D01*
X66032027Y-76874582D01*
X66033614Y-76864562D01*
X66035160Y-76854804D01*
X66031182Y-76812725D01*
X66030775Y-76808415D01*
X66030500Y-76802577D01*
X66030500Y-66350452D01*
X66050185Y-66283413D01*
X66066819Y-66262771D01*
X66474081Y-65855509D01*
X66535404Y-65822024D01*
X66605096Y-65827008D01*
X66661029Y-65868880D01*
X66685446Y-65934344D01*
X66684784Y-65958736D01*
X66684499Y-65960985D01*
X66684499Y-65981019D01*
X66682973Y-66000407D01*
X66679840Y-66020192D01*
X66679839Y-66020198D01*
X66684224Y-66066584D01*
X66684499Y-66072421D01*
X66684500Y-79064546D01*
X66664815Y-79131585D01*
X66648181Y-79152227D01*
X64549821Y-81250586D01*
X64488498Y-81284071D01*
X64430048Y-81282680D01*
X64361697Y-81264366D01*
X64361693Y-81264365D01*
X64361692Y-81264365D01*
X64248345Y-81254448D01*
X64135001Y-81244532D01*
X64134998Y-81244532D01*
X63908313Y-81264364D01*
X63908302Y-81264366D01*
X63688511Y-81323258D01*
X63688502Y-81323261D01*
X63482267Y-81419431D01*
X63482265Y-81419432D01*
X63295858Y-81549954D01*
X63134954Y-81710858D01*
X63004432Y-81897265D01*
X63004431Y-81897267D01*
X62908261Y-82103502D01*
X62908258Y-82103511D01*
X62849366Y-82323302D01*
X62849364Y-82323313D01*
X62829532Y-82549998D01*
X62829532Y-82550001D01*
X62849364Y-82776686D01*
X62849366Y-82776697D01*
X62908258Y-82996488D01*
X62908261Y-82996497D01*
X63004431Y-83202732D01*
X63004432Y-83202734D01*
X63134954Y-83389141D01*
X63295858Y-83550045D01*
X63295861Y-83550047D01*
X63482266Y-83680568D01*
X63688504Y-83776739D01*
X63688509Y-83776740D01*
X63688511Y-83776741D01*
X63741415Y-83790916D01*
X63908308Y-83835635D01*
X64070230Y-83849801D01*
X64134998Y-83855468D01*
X64135000Y-83855468D01*
X64135002Y-83855468D01*
X64191673Y-83850509D01*
X64361692Y-83835635D01*
X64581496Y-83776739D01*
X64787734Y-83680568D01*
X64974139Y-83550047D01*
X65135047Y-83389139D01*
X65265568Y-83202734D01*
X65361739Y-82996496D01*
X65420635Y-82776692D01*
X65440468Y-82550000D01*
X65420635Y-82323308D01*
X65402318Y-82254948D01*
X65403981Y-82185103D01*
X65434410Y-82135179D01*
X67107818Y-80461771D01*
X67169142Y-80428286D01*
X67238834Y-80433270D01*
X67294767Y-80475142D01*
X67319184Y-80540606D01*
X67319500Y-80549452D01*
X67319500Y-82874546D01*
X67299815Y-82941585D01*
X67283181Y-82962227D01*
X64549821Y-85695586D01*
X64488498Y-85729071D01*
X64430048Y-85727680D01*
X64361697Y-85709366D01*
X64361693Y-85709365D01*
X64361692Y-85709365D01*
X64248345Y-85699448D01*
X64135001Y-85689532D01*
X64134998Y-85689532D01*
X63908313Y-85709364D01*
X63908302Y-85709366D01*
X63688511Y-85768258D01*
X63688502Y-85768261D01*
X63482267Y-85864431D01*
X63482265Y-85864432D01*
X63295858Y-85994954D01*
X63134954Y-86155858D01*
X63004432Y-86342265D01*
X63004431Y-86342267D01*
X62908261Y-86548502D01*
X62908258Y-86548511D01*
X62849366Y-86768302D01*
X62849364Y-86768313D01*
X62829532Y-86994998D01*
X62829532Y-86995001D01*
X62849364Y-87221686D01*
X62849366Y-87221697D01*
X62908258Y-87441488D01*
X62908261Y-87441497D01*
X63004431Y-87647732D01*
X63004432Y-87647734D01*
X63134954Y-87834141D01*
X63295858Y-87995045D01*
X63295861Y-87995047D01*
X63482266Y-88125568D01*
X63688504Y-88221739D01*
X63908308Y-88280635D01*
X64067494Y-88294562D01*
X64134998Y-88300468D01*
X64135000Y-88300468D01*
X64135002Y-88300468D01*
X64191672Y-88295509D01*
X64361692Y-88280635D01*
X64581496Y-88221739D01*
X64787734Y-88125568D01*
X64974139Y-87995047D01*
X65135047Y-87834139D01*
X65265568Y-87647734D01*
X65361739Y-87441496D01*
X65420635Y-87221692D01*
X65438904Y-87012881D01*
X65440468Y-86995001D01*
X65440468Y-86994998D01*
X65430572Y-86881888D01*
X65420635Y-86768308D01*
X65402318Y-86699947D01*
X65403981Y-86630101D01*
X65434410Y-86580178D01*
X68328786Y-83685802D01*
X68341040Y-83675987D01*
X68340857Y-83675766D01*
X68345618Y-83671827D01*
X68346945Y-83671256D01*
X68350043Y-83668776D01*
X68353483Y-83666594D01*
X68354408Y-83668052D01*
X68409819Y-83644259D01*
X68478733Y-83655776D01*
X68530480Y-83702723D01*
X68548631Y-83770194D01*
X68548191Y-83778174D01*
X68544532Y-83819997D01*
X68544532Y-83820001D01*
X68564364Y-84046686D01*
X68564366Y-84046697D01*
X68623258Y-84266488D01*
X68623261Y-84266497D01*
X68719431Y-84472732D01*
X68719432Y-84472734D01*
X68849954Y-84659141D01*
X69010858Y-84820045D01*
X69010861Y-84820047D01*
X69197266Y-84950568D01*
X69212889Y-84957853D01*
X69255275Y-84977618D01*
X69307714Y-85023791D01*
X69326866Y-85090984D01*
X69306650Y-85157865D01*
X69255275Y-85202382D01*
X69197267Y-85229431D01*
X69197265Y-85229432D01*
X69010858Y-85359954D01*
X68849954Y-85520858D01*
X68719432Y-85707265D01*
X68719431Y-85707267D01*
X68623261Y-85913502D01*
X68623258Y-85913511D01*
X68564366Y-86133302D01*
X68564364Y-86133313D01*
X68544532Y-86359998D01*
X68544532Y-86360001D01*
X68564364Y-86586686D01*
X68564366Y-86586697D01*
X68623258Y-86806488D01*
X68623261Y-86806497D01*
X68719431Y-87012732D01*
X68719432Y-87012734D01*
X68849954Y-87199141D01*
X69010858Y-87360045D01*
X69010861Y-87360047D01*
X69197266Y-87490568D01*
X69212889Y-87497853D01*
X69255275Y-87517618D01*
X69307714Y-87563791D01*
X69326866Y-87630984D01*
X69306650Y-87697865D01*
X69255275Y-87742382D01*
X69197267Y-87769431D01*
X69197265Y-87769432D01*
X69010858Y-87899954D01*
X68849954Y-88060858D01*
X68719432Y-88247265D01*
X68719431Y-88247267D01*
X68623261Y-88453502D01*
X68623258Y-88453511D01*
X68564366Y-88673302D01*
X68564364Y-88673313D01*
X68544532Y-88899998D01*
X68544532Y-88900001D01*
X68564364Y-89126686D01*
X68564366Y-89126697D01*
X68623258Y-89346488D01*
X68623261Y-89346497D01*
X68719431Y-89552732D01*
X68719432Y-89552734D01*
X68849954Y-89739141D01*
X69010858Y-89900045D01*
X69010861Y-89900047D01*
X69197266Y-90030568D01*
X69255275Y-90057618D01*
X69307714Y-90103791D01*
X69326866Y-90170984D01*
X69306650Y-90237865D01*
X69255275Y-90282382D01*
X69197267Y-90309431D01*
X69197265Y-90309432D01*
X69010858Y-90439954D01*
X68849954Y-90600858D01*
X68719432Y-90787265D01*
X68719431Y-90787267D01*
X68623261Y-90993502D01*
X68623258Y-90993511D01*
X68564366Y-91213302D01*
X68564364Y-91213313D01*
X68544532Y-91439998D01*
X68544532Y-91440001D01*
X68564364Y-91666686D01*
X68564366Y-91666697D01*
X68623258Y-91886488D01*
X68623261Y-91886497D01*
X68719431Y-92092732D01*
X68719432Y-92092734D01*
X68849954Y-92279141D01*
X69010858Y-92440045D01*
X69010861Y-92440047D01*
X69197266Y-92570568D01*
X69255275Y-92597618D01*
X69307714Y-92643791D01*
X69326866Y-92710984D01*
X69306650Y-92777865D01*
X69255275Y-92822382D01*
X69197267Y-92849431D01*
X69197265Y-92849432D01*
X69010858Y-92979954D01*
X68849954Y-93140858D01*
X68719432Y-93327265D01*
X68719431Y-93327267D01*
X68623261Y-93533502D01*
X68623258Y-93533511D01*
X68564366Y-93753302D01*
X68564364Y-93753313D01*
X68544532Y-93979998D01*
X68544532Y-93980001D01*
X68564364Y-94206686D01*
X68564366Y-94206697D01*
X68595638Y-94323407D01*
X68593975Y-94393257D01*
X68554812Y-94451119D01*
X68490583Y-94478623D01*
X68475863Y-94479500D01*
X68110452Y-94479500D01*
X68043413Y-94459815D01*
X68022771Y-94443181D01*
X65434413Y-91854822D01*
X65400928Y-91793499D01*
X65402319Y-91735048D01*
X65420635Y-91666692D01*
X65440468Y-91440000D01*
X65420635Y-91213308D01*
X65361739Y-90993504D01*
X65265568Y-90787266D01*
X65135047Y-90600861D01*
X65135045Y-90600858D01*
X64974141Y-90439954D01*
X64787734Y-90309432D01*
X64787732Y-90309431D01*
X64581497Y-90213261D01*
X64581488Y-90213258D01*
X64361697Y-90154366D01*
X64361693Y-90154365D01*
X64361692Y-90154365D01*
X64361691Y-90154364D01*
X64361686Y-90154364D01*
X64135002Y-90134532D01*
X64134998Y-90134532D01*
X63908313Y-90154364D01*
X63908302Y-90154366D01*
X63688511Y-90213258D01*
X63688502Y-90213261D01*
X63482267Y-90309431D01*
X63482265Y-90309432D01*
X63295858Y-90439954D01*
X63134954Y-90600858D01*
X63004432Y-90787265D01*
X63004431Y-90787267D01*
X62908261Y-90993502D01*
X62908258Y-90993511D01*
X62849366Y-91213302D01*
X62849364Y-91213313D01*
X62829532Y-91439998D01*
X62829532Y-91440001D01*
X62849364Y-91666686D01*
X62849366Y-91666697D01*
X62908258Y-91886488D01*
X62908261Y-91886497D01*
X63004431Y-92092732D01*
X63004432Y-92092734D01*
X63134954Y-92279141D01*
X63295858Y-92440045D01*
X63295861Y-92440047D01*
X63482266Y-92570568D01*
X63688504Y-92666739D01*
X63908308Y-92725635D01*
X64065780Y-92739412D01*
X64134998Y-92745468D01*
X64135000Y-92745468D01*
X64135002Y-92745468D01*
X64204220Y-92739412D01*
X64361692Y-92725635D01*
X64430048Y-92707319D01*
X64499896Y-92708980D01*
X64549822Y-92739412D01*
X67299194Y-95488784D01*
X67309019Y-95501048D01*
X67309240Y-95500866D01*
X67314210Y-95506873D01*
X67314213Y-95506876D01*
X67314214Y-95506877D01*
X67364651Y-95554241D01*
X67385530Y-95575120D01*
X67391004Y-95579366D01*
X67395442Y-95583156D01*
X67429418Y-95615062D01*
X67429422Y-95615064D01*
X67446973Y-95624713D01*
X67463231Y-95635392D01*
X67479064Y-95647674D01*
X67501015Y-95657172D01*
X67521837Y-95666183D01*
X67527081Y-95668752D01*
X67567908Y-95691197D01*
X67587312Y-95696179D01*
X67605710Y-95702478D01*
X67624105Y-95710438D01*
X67670129Y-95717726D01*
X67675832Y-95718907D01*
X67720981Y-95730500D01*
X67741016Y-95730500D01*
X67760413Y-95732026D01*
X67780196Y-95735160D01*
X67826583Y-95730775D01*
X67832422Y-95730500D01*
X68589117Y-95730500D01*
X68656156Y-95750185D01*
X68701911Y-95802989D01*
X68711855Y-95872147D01*
X68701499Y-95906905D01*
X68623734Y-96073673D01*
X68623730Y-96073682D01*
X68571127Y-96269999D01*
X68571128Y-96270000D01*
X69339424Y-96270000D01*
X69406463Y-96289685D01*
X69452218Y-96342489D01*
X69462162Y-96411647D01*
X69461897Y-96413397D01*
X69445014Y-96519996D01*
X69445014Y-96520003D01*
X69461897Y-96626603D01*
X69452942Y-96695896D01*
X69407946Y-96749348D01*
X69341194Y-96769987D01*
X69339424Y-96770000D01*
X68571128Y-96770000D01*
X68623730Y-96966317D01*
X68623734Y-96966326D01*
X68719865Y-97172482D01*
X68850342Y-97358820D01*
X69011179Y-97519657D01*
X69197518Y-97650134D01*
X69197520Y-97650135D01*
X69255865Y-97677342D01*
X69308305Y-97723514D01*
X69327457Y-97790707D01*
X69307242Y-97857589D01*
X69255867Y-97902105D01*
X69206374Y-97925185D01*
X69197264Y-97929433D01*
X69010858Y-98059954D01*
X68849954Y-98220858D01*
X68719432Y-98407265D01*
X68719431Y-98407267D01*
X68623261Y-98613502D01*
X68623258Y-98613511D01*
X68564366Y-98833302D01*
X68564364Y-98833313D01*
X68544532Y-99059998D01*
X68544532Y-99060001D01*
X68564364Y-99286686D01*
X68564366Y-99286697D01*
X68623258Y-99506488D01*
X68623261Y-99506497D01*
X68719431Y-99712732D01*
X68719432Y-99712734D01*
X68849954Y-99899141D01*
X69010858Y-100060045D01*
X69010861Y-100060047D01*
X69197266Y-100190568D01*
X69255278Y-100217619D01*
X69307713Y-100263788D01*
X69326866Y-100330982D01*
X69306651Y-100397863D01*
X69255277Y-100442380D01*
X69197268Y-100469430D01*
X69197265Y-100469432D01*
X69010858Y-100599954D01*
X68849954Y-100760858D01*
X68719432Y-100947265D01*
X68719431Y-100947267D01*
X68623261Y-101153502D01*
X68623258Y-101153511D01*
X68564366Y-101373302D01*
X68564364Y-101373313D01*
X68544532Y-101599998D01*
X68544532Y-101600001D01*
X68564364Y-101826686D01*
X68564366Y-101826697D01*
X68623258Y-102046488D01*
X68623261Y-102046497D01*
X68719431Y-102252732D01*
X68719432Y-102252734D01*
X68849954Y-102439141D01*
X69010858Y-102600045D01*
X69010861Y-102600047D01*
X69197266Y-102730568D01*
X69255278Y-102757619D01*
X69307713Y-102803788D01*
X69326866Y-102870982D01*
X69306651Y-102937863D01*
X69255277Y-102982380D01*
X69197268Y-103009430D01*
X69197265Y-103009432D01*
X69010858Y-103139954D01*
X68849954Y-103300858D01*
X68719432Y-103487265D01*
X68719431Y-103487267D01*
X68623261Y-103693502D01*
X68623258Y-103693511D01*
X68564366Y-103913302D01*
X68564364Y-103913313D01*
X68544532Y-104139998D01*
X68544532Y-104140001D01*
X68564364Y-104366686D01*
X68564366Y-104366697D01*
X68623258Y-104586488D01*
X68623261Y-104586497D01*
X68719431Y-104792732D01*
X68719432Y-104792734D01*
X68849954Y-104979141D01*
X69010858Y-105140045D01*
X69010861Y-105140047D01*
X69197266Y-105270568D01*
X69255278Y-105297619D01*
X69307713Y-105343788D01*
X69326866Y-105410982D01*
X69306651Y-105477863D01*
X69255277Y-105522380D01*
X69197268Y-105549430D01*
X69197265Y-105549432D01*
X69010858Y-105679954D01*
X68849954Y-105840858D01*
X68719432Y-106027265D01*
X68719431Y-106027267D01*
X68623261Y-106233502D01*
X68623258Y-106233511D01*
X68564366Y-106453302D01*
X68564364Y-106453313D01*
X68544532Y-106679998D01*
X68544532Y-106680001D01*
X68564364Y-106906686D01*
X68564366Y-106906697D01*
X68623258Y-107126488D01*
X68623261Y-107126497D01*
X68719431Y-107332732D01*
X68719432Y-107332734D01*
X68849954Y-107519141D01*
X69010858Y-107680045D01*
X69010861Y-107680047D01*
X69197266Y-107810568D01*
X69255278Y-107837619D01*
X69307713Y-107883788D01*
X69326866Y-107950982D01*
X69306651Y-108017863D01*
X69255277Y-108062380D01*
X69197268Y-108089430D01*
X69197265Y-108089432D01*
X69010858Y-108219954D01*
X68849954Y-108380858D01*
X68719432Y-108567265D01*
X68719431Y-108567267D01*
X68623261Y-108773502D01*
X68623258Y-108773511D01*
X68564366Y-108993302D01*
X68564364Y-108993313D01*
X68544532Y-109219998D01*
X68544532Y-109220001D01*
X68564364Y-109446686D01*
X68564366Y-109446697D01*
X68623258Y-109666488D01*
X68623261Y-109666497D01*
X68719431Y-109872732D01*
X68719432Y-109872734D01*
X68849954Y-110059141D01*
X69010858Y-110220045D01*
X69010861Y-110220047D01*
X69197266Y-110350568D01*
X69255275Y-110377618D01*
X69307714Y-110423791D01*
X69326866Y-110490984D01*
X69306650Y-110557865D01*
X69255275Y-110602382D01*
X69197267Y-110629431D01*
X69197265Y-110629432D01*
X69010858Y-110759954D01*
X68849954Y-110920858D01*
X68719432Y-111107265D01*
X68719431Y-111107267D01*
X68623261Y-111313502D01*
X68623258Y-111313511D01*
X68564366Y-111533302D01*
X68564364Y-111533313D01*
X68544532Y-111759998D01*
X68544532Y-111760001D01*
X68564364Y-111986686D01*
X68564366Y-111986697D01*
X68623258Y-112206488D01*
X68623261Y-112206497D01*
X68719431Y-112412732D01*
X68719432Y-112412734D01*
X68849954Y-112599141D01*
X69010858Y-112760045D01*
X69010861Y-112760047D01*
X69197266Y-112890568D01*
X69255275Y-112917618D01*
X69307714Y-112963791D01*
X69326866Y-113030984D01*
X69306650Y-113097865D01*
X69255275Y-113142382D01*
X69197267Y-113169431D01*
X69197265Y-113169432D01*
X69010858Y-113299954D01*
X68849954Y-113460858D01*
X68719432Y-113647265D01*
X68719431Y-113647267D01*
X68623261Y-113853502D01*
X68623258Y-113853511D01*
X68564366Y-114073302D01*
X68564364Y-114073313D01*
X68544532Y-114299998D01*
X68544532Y-114300001D01*
X68564364Y-114526686D01*
X68564366Y-114526697D01*
X68623258Y-114746488D01*
X68623261Y-114746497D01*
X68719431Y-114952732D01*
X68719432Y-114952734D01*
X68849954Y-115139141D01*
X69010858Y-115300045D01*
X69010861Y-115300047D01*
X69197266Y-115430568D01*
X69255275Y-115457618D01*
X69307714Y-115503791D01*
X69326866Y-115570984D01*
X69306650Y-115637865D01*
X69255275Y-115682382D01*
X69197267Y-115709431D01*
X69197265Y-115709432D01*
X69010858Y-115839954D01*
X68849954Y-116000858D01*
X68719432Y-116187265D01*
X68719431Y-116187267D01*
X68623261Y-116393502D01*
X68623258Y-116393511D01*
X68564366Y-116613302D01*
X68564364Y-116613313D01*
X68544532Y-116839998D01*
X68544532Y-116840001D01*
X68564364Y-117066686D01*
X68564366Y-117066697D01*
X68623258Y-117286488D01*
X68623261Y-117286497D01*
X68719431Y-117492732D01*
X68719432Y-117492734D01*
X68849954Y-117679141D01*
X69010858Y-117840045D01*
X69010861Y-117840047D01*
X69197266Y-117970568D01*
X69255275Y-117997618D01*
X69307714Y-118043791D01*
X69326866Y-118110984D01*
X69306650Y-118177865D01*
X69255275Y-118222382D01*
X69197267Y-118249431D01*
X69197265Y-118249432D01*
X69010858Y-118379954D01*
X68849954Y-118540858D01*
X68719432Y-118727265D01*
X68719431Y-118727267D01*
X68623261Y-118933502D01*
X68623258Y-118933511D01*
X68564366Y-119153302D01*
X68564364Y-119153312D01*
X68553777Y-119274327D01*
X68528324Y-119339395D01*
X68471733Y-119380374D01*
X68401971Y-119384252D01*
X68342568Y-119351200D01*
X68096819Y-119105451D01*
X68063334Y-119044128D01*
X68060500Y-119017770D01*
X68060500Y-99123705D01*
X68061809Y-99105735D01*
X68062129Y-99103547D01*
X68065289Y-99081977D01*
X68063366Y-99060001D01*
X68060736Y-99029934D01*
X68060500Y-99024528D01*
X68060500Y-99016297D01*
X68060500Y-99016291D01*
X68056693Y-98983724D01*
X68049999Y-98907203D01*
X68049999Y-98907201D01*
X68048539Y-98900129D01*
X68048597Y-98900116D01*
X68046965Y-98892757D01*
X68046906Y-98892772D01*
X68045242Y-98885753D01*
X68045241Y-98885745D01*
X68018974Y-98813576D01*
X67994814Y-98740666D01*
X67994809Y-98740659D01*
X67991760Y-98734118D01*
X67991815Y-98734091D01*
X67988533Y-98727313D01*
X67988480Y-98727340D01*
X67985235Y-98720880D01*
X67943028Y-98656708D01*
X67902710Y-98591342D01*
X67898234Y-98585682D01*
X67898281Y-98585644D01*
X67893519Y-98579799D01*
X67893474Y-98579838D01*
X67888834Y-98574308D01*
X67832964Y-98521596D01*
X65980729Y-96669361D01*
X65968949Y-96655730D01*
X65961071Y-96645148D01*
X65954612Y-96636472D01*
X65954610Y-96636470D01*
X65914587Y-96602886D01*
X65910612Y-96599244D01*
X65907690Y-96596322D01*
X65904780Y-96593411D01*
X65879040Y-96573059D01*
X65820209Y-96523694D01*
X65814180Y-96519729D01*
X65814212Y-96519680D01*
X65807853Y-96515628D01*
X65807822Y-96515679D01*
X65801680Y-96511891D01*
X65801678Y-96511890D01*
X65801677Y-96511889D01*
X65762474Y-96493608D01*
X65732058Y-96479424D01*
X65697894Y-96462267D01*
X65663433Y-96444960D01*
X65663431Y-96444959D01*
X65663430Y-96444959D01*
X65656645Y-96442489D01*
X65656665Y-96442433D01*
X65649549Y-96439959D01*
X65649531Y-96440015D01*
X65642671Y-96437742D01*
X65614841Y-96431996D01*
X65567434Y-96422207D01*
X65518472Y-96410603D01*
X65492719Y-96404499D01*
X65485547Y-96403661D01*
X65485553Y-96403601D01*
X65478055Y-96402835D01*
X65478050Y-96402895D01*
X65470860Y-96402265D01*
X65394083Y-96404500D01*
X57512230Y-96404500D01*
X57445191Y-96384815D01*
X57424549Y-96368181D01*
X54761819Y-93705451D01*
X54728334Y-93644128D01*
X54725500Y-93617770D01*
X54725500Y-92566662D01*
X54745185Y-92499623D01*
X54778379Y-92465086D01*
X54814140Y-92440046D01*
X54975045Y-92279141D01*
X54975044Y-92279141D01*
X54975047Y-92279139D01*
X55105568Y-92092734D01*
X55201739Y-91886496D01*
X55260635Y-91666692D01*
X55280468Y-91440000D01*
X55260635Y-91213308D01*
X55201739Y-90993504D01*
X55105568Y-90787266D01*
X54975047Y-90600861D01*
X54814139Y-90439953D01*
X54809373Y-90436615D01*
X54778375Y-90414910D01*
X54734751Y-90360332D01*
X54725500Y-90313336D01*
X54725500Y-88121662D01*
X54745185Y-88054623D01*
X54778379Y-88020086D01*
X54814140Y-87995046D01*
X54975045Y-87834141D01*
X54975044Y-87834141D01*
X54975047Y-87834139D01*
X55105568Y-87647734D01*
X55201739Y-87441496D01*
X55260635Y-87221692D01*
X55278904Y-87012881D01*
X55280468Y-86995001D01*
X55280468Y-86994998D01*
X55270572Y-86881888D01*
X55260635Y-86768308D01*
X55201739Y-86548504D01*
X55105568Y-86342266D01*
X54975047Y-86155861D01*
X54814139Y-85994953D01*
X54809373Y-85991615D01*
X54778375Y-85969910D01*
X54734751Y-85915332D01*
X54725500Y-85868336D01*
X54725500Y-83676662D01*
X54745185Y-83609623D01*
X54778379Y-83575086D01*
X54814140Y-83550046D01*
X54975045Y-83389141D01*
X54975045Y-83389140D01*
X54975047Y-83389139D01*
X55105568Y-83202734D01*
X55201739Y-82996496D01*
X55260635Y-82776692D01*
X55280468Y-82550000D01*
X55260635Y-82323308D01*
X55201739Y-82103504D01*
X55105568Y-81897266D01*
X54987906Y-81729226D01*
X54975048Y-81710862D01*
X54927974Y-81663788D01*
X54814139Y-81549953D01*
X54809373Y-81546615D01*
X54778375Y-81524910D01*
X54734751Y-81470332D01*
X54725500Y-81423336D01*
X54725500Y-79231662D01*
X54745185Y-79164623D01*
X54778379Y-79130086D01*
X54814140Y-79105046D01*
X54975045Y-78944141D01*
X54975045Y-78944140D01*
X54975047Y-78944139D01*
X55105568Y-78757734D01*
X55201739Y-78551496D01*
X55260635Y-78331692D01*
X55280468Y-78105000D01*
X55278916Y-78087266D01*
X55269340Y-77977807D01*
X55260635Y-77878308D01*
X55201739Y-77658504D01*
X55105568Y-77452266D01*
X55020354Y-77330567D01*
X54975048Y-77265862D01*
X54897216Y-77188030D01*
X54814139Y-77104953D01*
X54809373Y-77101615D01*
X54778375Y-77079910D01*
X54734751Y-77025332D01*
X54725500Y-76978336D01*
X54725500Y-74786662D01*
X54745185Y-74719623D01*
X54778379Y-74685086D01*
X54814140Y-74660046D01*
X54975045Y-74499141D01*
X54975047Y-74499139D01*
X55105568Y-74312734D01*
X55201739Y-74106496D01*
X55260635Y-73886692D01*
X55280468Y-73660000D01*
X55260635Y-73433308D01*
X55201739Y-73213504D01*
X55105568Y-73007266D01*
X54975047Y-72820861D01*
X54975045Y-72820858D01*
X54814140Y-72659953D01*
X54653377Y-72547386D01*
X54609752Y-72492809D01*
X54600500Y-72445811D01*
X54600500Y-69525451D01*
X54620185Y-69458412D01*
X54636814Y-69437775D01*
X56059353Y-68015235D01*
X56120674Y-67981752D01*
X56179125Y-67983143D01*
X56213780Y-67992428D01*
X56279592Y-68010063D01*
X56450319Y-68025000D01*
X56514999Y-68030659D01*
X56515000Y-68030659D01*
X56515001Y-68030659D01*
X56579681Y-68025000D01*
X56750408Y-68010063D01*
X56978663Y-67948903D01*
X57192830Y-67849035D01*
X57386401Y-67713495D01*
X57553495Y-67546401D01*
X57683426Y-67360840D01*
X57738001Y-67317217D01*
X57807499Y-67310023D01*
X57869854Y-67341546D01*
X57886574Y-67360841D01*
X58016505Y-67546401D01*
X58183599Y-67713495D01*
X58222682Y-67740861D01*
X58377165Y-67849032D01*
X58377167Y-67849033D01*
X58377170Y-67849035D01*
X58591337Y-67948903D01*
X58591343Y-67948904D01*
X58591344Y-67948905D01*
X58622642Y-67957291D01*
X58819592Y-68010063D01*
X58990319Y-68025000D01*
X59054999Y-68030659D01*
X59055000Y-68030659D01*
X59055001Y-68030659D01*
X59119681Y-68025000D01*
X59290408Y-68010063D01*
X59518663Y-67948903D01*
X59732830Y-67849035D01*
X59926401Y-67713495D01*
X60048717Y-67591178D01*
X60110036Y-67557696D01*
X60179728Y-67562680D01*
X60235662Y-67604551D01*
X60252577Y-67635528D01*
X60301646Y-67767088D01*
X60301649Y-67767093D01*
X60387809Y-67882187D01*
X60387812Y-67882190D01*
X60502906Y-67968350D01*
X60502913Y-67968354D01*
X60637620Y-68018596D01*
X60637627Y-68018598D01*
X60697155Y-68024999D01*
X60697172Y-68025000D01*
X61344999Y-68025000D01*
X61345000Y-67287301D01*
X61364685Y-67220262D01*
X61417489Y-67174507D01*
X61486647Y-67164563D01*
X61559237Y-67175000D01*
X61559238Y-67175000D01*
X61630762Y-67175000D01*
X61630763Y-67175000D01*
X61703353Y-67164563D01*
X61772512Y-67174507D01*
X61825315Y-67220262D01*
X61845000Y-67287301D01*
X61845000Y-68025000D01*
X62492828Y-68025000D01*
X62492844Y-68024999D01*
X62552372Y-68018598D01*
X62552379Y-68018596D01*
X62687086Y-67968354D01*
X62687093Y-67968350D01*
X62802187Y-67882190D01*
X62802190Y-67882187D01*
X62888350Y-67767093D01*
X62888354Y-67767086D01*
X62938596Y-67632379D01*
X62938598Y-67632372D01*
X62944999Y-67572844D01*
X62945000Y-67572827D01*
X62945000Y-66925000D01*
X62208347Y-66925000D01*
X62141308Y-66905315D01*
X62095553Y-66852511D01*
X62085609Y-66783353D01*
X62089369Y-66766067D01*
X62095000Y-66746888D01*
X62095000Y-66603111D01*
X62089369Y-66583933D01*
X62089370Y-66514064D01*
X62127145Y-66455286D01*
X62190701Y-66426262D01*
X62208347Y-66425000D01*
X62944999Y-66425000D01*
X62945000Y-65777172D01*
X62944999Y-65777155D01*
X62938598Y-65717627D01*
X62938596Y-65717620D01*
X62888354Y-65582913D01*
X62888350Y-65582906D01*
X62802190Y-65467812D01*
X62802187Y-65467809D01*
X62687093Y-65381649D01*
X62687086Y-65381645D01*
X62552379Y-65331403D01*
X62552372Y-65331401D01*
X62492844Y-65325000D01*
X61845000Y-65325000D01*
X61845000Y-66062698D01*
X61825315Y-66129737D01*
X61772511Y-66175492D01*
X61703355Y-66185436D01*
X61630766Y-66175000D01*
X61630763Y-66175000D01*
X61559237Y-66175000D01*
X61559233Y-66175000D01*
X61486645Y-66185436D01*
X61417487Y-66175492D01*
X61364684Y-66129736D01*
X61345000Y-66062698D01*
X61345000Y-65325000D01*
X60697155Y-65325000D01*
X60637627Y-65331401D01*
X60637620Y-65331403D01*
X60502913Y-65381645D01*
X60502906Y-65381649D01*
X60387812Y-65467809D01*
X60387809Y-65467812D01*
X60301649Y-65582906D01*
X60301645Y-65582913D01*
X60252578Y-65714470D01*
X60210707Y-65770404D01*
X60145242Y-65794821D01*
X60076969Y-65779969D01*
X60048715Y-65758819D01*
X60004366Y-65714470D01*
X59926401Y-65636505D01*
X59926397Y-65636502D01*
X59926396Y-65636501D01*
X59733376Y-65501347D01*
X59689751Y-65446770D01*
X59680499Y-65399776D01*
X59680499Y-62540451D01*
X59700184Y-62473413D01*
X59716818Y-62452771D01*
X59907169Y-62262421D01*
X60310172Y-61859418D01*
X60547772Y-61621819D01*
X60609095Y-61588334D01*
X60635453Y-61585500D01*
X66770547Y-61585500D01*
X66837586Y-61605185D01*
G37*
%TD.AperFunction*%
%TA.AperFunction,Conductor*%
G36*
X128661587Y-90815185D02*
G01*
X128682229Y-90831819D01*
X129674197Y-91823788D01*
X129684022Y-91836051D01*
X129684243Y-91835869D01*
X129689214Y-91841878D01*
X129710043Y-91861437D01*
X129739635Y-91889226D01*
X129760529Y-91910120D01*
X129766011Y-91914373D01*
X129770443Y-91918157D01*
X129804418Y-91950062D01*
X129821976Y-91959714D01*
X129838235Y-91970395D01*
X129854064Y-91982673D01*
X129896838Y-92001182D01*
X129902056Y-92003738D01*
X129942908Y-92026197D01*
X129962316Y-92031180D01*
X129980717Y-92037480D01*
X129999104Y-92045437D01*
X130042488Y-92052308D01*
X130045119Y-92052725D01*
X130050839Y-92053909D01*
X130095981Y-92065500D01*
X130116016Y-92065500D01*
X130135414Y-92067026D01*
X130155194Y-92070159D01*
X130155195Y-92070160D01*
X130155195Y-92070159D01*
X130155196Y-92070160D01*
X130201583Y-92065775D01*
X130207422Y-92065500D01*
X137215812Y-92065500D01*
X137282851Y-92085185D01*
X137317387Y-92118377D01*
X137429954Y-92279141D01*
X137590858Y-92440045D01*
X137590861Y-92440047D01*
X137777266Y-92570568D01*
X137835275Y-92597618D01*
X137887714Y-92643791D01*
X137906866Y-92710984D01*
X137886650Y-92777865D01*
X137835275Y-92822382D01*
X137777267Y-92849431D01*
X137777265Y-92849432D01*
X137590858Y-92979954D01*
X137429954Y-93140858D01*
X137299432Y-93327265D01*
X137299431Y-93327267D01*
X137203261Y-93533502D01*
X137203258Y-93533511D01*
X137144366Y-93753302D01*
X137144364Y-93753313D01*
X137124532Y-93979998D01*
X137124532Y-93980001D01*
X137144364Y-94206686D01*
X137144366Y-94206697D01*
X137203258Y-94426488D01*
X137203261Y-94426497D01*
X137299431Y-94632732D01*
X137299432Y-94632734D01*
X137429954Y-94819141D01*
X137590858Y-94980045D01*
X137590861Y-94980047D01*
X137777266Y-95110568D01*
X137835865Y-95137893D01*
X137888305Y-95184065D01*
X137907457Y-95251258D01*
X137887242Y-95318139D01*
X137835867Y-95362657D01*
X137777515Y-95389867D01*
X137591179Y-95520342D01*
X137430342Y-95681179D01*
X137299865Y-95867517D01*
X137203734Y-96073673D01*
X137203730Y-96073682D01*
X137151127Y-96269999D01*
X137151128Y-96270000D01*
X137919424Y-96270000D01*
X137986463Y-96289685D01*
X138032218Y-96342489D01*
X138042162Y-96411647D01*
X138041897Y-96413397D01*
X138025014Y-96519996D01*
X138025014Y-96520003D01*
X138041897Y-96626603D01*
X138032942Y-96695896D01*
X137987946Y-96749348D01*
X137921194Y-96769987D01*
X137919424Y-96770000D01*
X137151128Y-96770000D01*
X137203730Y-96966317D01*
X137203734Y-96966326D01*
X137299865Y-97172482D01*
X137430342Y-97358820D01*
X137591179Y-97519657D01*
X137777518Y-97650134D01*
X137777520Y-97650135D01*
X137835865Y-97677342D01*
X137888305Y-97723514D01*
X137907457Y-97790707D01*
X137887242Y-97857589D01*
X137835867Y-97902105D01*
X137786374Y-97925185D01*
X137777264Y-97929433D01*
X137590858Y-98059954D01*
X137429954Y-98220858D01*
X137317387Y-98381623D01*
X137262811Y-98425248D01*
X137215812Y-98434500D01*
X127082737Y-98434500D01*
X127067120Y-98432776D01*
X127067093Y-98433062D01*
X127059331Y-98432327D01*
X126990203Y-98434500D01*
X126960650Y-98434500D01*
X126959929Y-98434590D01*
X126953757Y-98435369D01*
X126947945Y-98435826D01*
X126901373Y-98437290D01*
X126901372Y-98437290D01*
X126882129Y-98442881D01*
X126863079Y-98446825D01*
X126843211Y-98449334D01*
X126843209Y-98449335D01*
X126799884Y-98466488D01*
X126794357Y-98468380D01*
X126749610Y-98481381D01*
X126749609Y-98481382D01*
X126732367Y-98491579D01*
X126714899Y-98500137D01*
X126696269Y-98507513D01*
X126696267Y-98507514D01*
X126658576Y-98534898D01*
X126653694Y-98538105D01*
X126613579Y-98561830D01*
X126599408Y-98576000D01*
X126584623Y-98588628D01*
X126568412Y-98600407D01*
X126538709Y-98636310D01*
X126534777Y-98640631D01*
X125507228Y-99668181D01*
X125445905Y-99701666D01*
X125419547Y-99704500D01*
X124519049Y-99704500D01*
X124452010Y-99684815D01*
X124406255Y-99632011D01*
X124396311Y-99562853D01*
X124406667Y-99528095D01*
X124416739Y-99506496D01*
X124475635Y-99286692D01*
X124495468Y-99060000D01*
X124492601Y-99027235D01*
X124480836Y-98892757D01*
X124475635Y-98833308D01*
X124416739Y-98613504D01*
X124320568Y-98407266D01*
X124190047Y-98220861D01*
X124190045Y-98220858D01*
X124029141Y-98059954D01*
X123842734Y-97929432D01*
X123842732Y-97929431D01*
X123831275Y-97924088D01*
X123784132Y-97902105D01*
X123731694Y-97855934D01*
X123712542Y-97788740D01*
X123732758Y-97721859D01*
X123784134Y-97677341D01*
X123842484Y-97650132D01*
X124028820Y-97519657D01*
X124189657Y-97358820D01*
X124320134Y-97172482D01*
X124416265Y-96966326D01*
X124416269Y-96966317D01*
X124468872Y-96770000D01*
X123700576Y-96770000D01*
X123633537Y-96750315D01*
X123587782Y-96697511D01*
X123577838Y-96628353D01*
X123578103Y-96626603D01*
X123594986Y-96520003D01*
X123594986Y-96519996D01*
X123578103Y-96413397D01*
X123587058Y-96344104D01*
X123632054Y-96290652D01*
X123698806Y-96270013D01*
X123700576Y-96270000D01*
X124468872Y-96270000D01*
X124468872Y-96269999D01*
X124416269Y-96073682D01*
X124416265Y-96073673D01*
X124320134Y-95867517D01*
X124189657Y-95681179D01*
X124028820Y-95520342D01*
X123842482Y-95389865D01*
X123784133Y-95362657D01*
X123731694Y-95316484D01*
X123712542Y-95249291D01*
X123732758Y-95182410D01*
X123784129Y-95137895D01*
X123842734Y-95110568D01*
X124029139Y-94980047D01*
X124190047Y-94819139D01*
X124320568Y-94632734D01*
X124416739Y-94426496D01*
X124475635Y-94206692D01*
X124495468Y-93980000D01*
X124493545Y-93958025D01*
X124475635Y-93753313D01*
X124475635Y-93753308D01*
X124416739Y-93533504D01*
X124320568Y-93327266D01*
X124190047Y-93140861D01*
X124190045Y-93140858D01*
X124029141Y-92979954D01*
X123842734Y-92849432D01*
X123842728Y-92849429D01*
X123784725Y-92822382D01*
X123732285Y-92776210D01*
X123713133Y-92709017D01*
X123733348Y-92642135D01*
X123784725Y-92597618D01*
X123842734Y-92570568D01*
X124029139Y-92440047D01*
X124190047Y-92279139D01*
X124320568Y-92092734D01*
X124416739Y-91886496D01*
X124475635Y-91666692D01*
X124495468Y-91440000D01*
X124475635Y-91213308D01*
X124416739Y-90993504D01*
X124406666Y-90971904D01*
X124396175Y-90902827D01*
X124424695Y-90839043D01*
X124483171Y-90800804D01*
X124519049Y-90795500D01*
X128594548Y-90795500D01*
X128661587Y-90815185D01*
G37*
%TD.AperFunction*%
%TA.AperFunction,Conductor*%
G36*
X83942851Y-94625185D02*
G01*
X83977387Y-94658377D01*
X84089954Y-94819141D01*
X84250858Y-94980045D01*
X84250861Y-94980047D01*
X84437266Y-95110568D01*
X84495865Y-95137893D01*
X84548305Y-95184065D01*
X84567457Y-95251258D01*
X84547242Y-95318139D01*
X84495867Y-95362657D01*
X84437515Y-95389867D01*
X84251179Y-95520342D01*
X84090342Y-95681179D01*
X83959865Y-95867517D01*
X83863734Y-96073673D01*
X83863730Y-96073682D01*
X83811127Y-96269999D01*
X83811128Y-96270000D01*
X84579424Y-96270000D01*
X84646463Y-96289685D01*
X84692218Y-96342489D01*
X84702162Y-96411647D01*
X84701897Y-96413397D01*
X84685014Y-96519996D01*
X84685014Y-96520003D01*
X84701897Y-96626603D01*
X84692942Y-96695896D01*
X84647946Y-96749348D01*
X84581194Y-96769987D01*
X84579424Y-96770000D01*
X83811128Y-96770000D01*
X83863730Y-96966317D01*
X83863732Y-96966321D01*
X83873885Y-96988094D01*
X83884377Y-97057172D01*
X83855858Y-97120956D01*
X83797382Y-97159196D01*
X83761503Y-97164500D01*
X76282737Y-97164500D01*
X76267120Y-97162776D01*
X76267093Y-97163062D01*
X76259331Y-97162327D01*
X76190203Y-97164500D01*
X76160650Y-97164500D01*
X76159929Y-97164590D01*
X76153757Y-97165369D01*
X76147945Y-97165826D01*
X76101373Y-97167290D01*
X76101372Y-97167290D01*
X76082129Y-97172881D01*
X76063079Y-97176825D01*
X76043211Y-97179334D01*
X76043209Y-97179335D01*
X75999884Y-97196488D01*
X75994357Y-97198380D01*
X75949610Y-97211381D01*
X75949609Y-97211382D01*
X75932367Y-97221579D01*
X75914899Y-97230137D01*
X75896269Y-97237513D01*
X75896267Y-97237514D01*
X75858576Y-97264898D01*
X75853694Y-97268105D01*
X75813579Y-97291830D01*
X75799408Y-97306000D01*
X75784623Y-97318628D01*
X75768412Y-97330407D01*
X75738709Y-97366310D01*
X75734776Y-97370631D01*
X75217617Y-97887792D01*
X74707228Y-98398181D01*
X74645905Y-98431666D01*
X74619547Y-98434500D01*
X71064188Y-98434500D01*
X70997149Y-98414815D01*
X70962613Y-98381623D01*
X70850045Y-98220858D01*
X70689141Y-98059954D01*
X70502734Y-97929432D01*
X70502732Y-97929431D01*
X70491275Y-97924088D01*
X70444132Y-97902105D01*
X70391694Y-97855934D01*
X70372542Y-97788740D01*
X70392758Y-97721859D01*
X70444134Y-97677341D01*
X70502484Y-97650132D01*
X70688820Y-97519657D01*
X70849657Y-97358820D01*
X70980134Y-97172482D01*
X71076265Y-96966326D01*
X71076269Y-96966317D01*
X71128872Y-96770000D01*
X70360576Y-96770000D01*
X70293537Y-96750315D01*
X70247782Y-96697511D01*
X70237838Y-96628353D01*
X70238103Y-96626603D01*
X70254986Y-96520003D01*
X70254986Y-96519996D01*
X70238103Y-96413397D01*
X70247058Y-96344104D01*
X70292054Y-96290652D01*
X70358806Y-96270013D01*
X70360576Y-96270000D01*
X71128872Y-96270000D01*
X71128872Y-96269999D01*
X71076269Y-96073682D01*
X71076265Y-96073673D01*
X70998501Y-95906905D01*
X70988009Y-95837827D01*
X71016529Y-95774043D01*
X71075006Y-95735804D01*
X71110883Y-95730500D01*
X81342257Y-95730500D01*
X81357877Y-95732224D01*
X81357904Y-95731939D01*
X81365660Y-95732671D01*
X81365667Y-95732673D01*
X81434814Y-95730500D01*
X81464350Y-95730500D01*
X81471228Y-95729630D01*
X81477041Y-95729172D01*
X81523627Y-95727709D01*
X81542869Y-95722117D01*
X81561912Y-95718174D01*
X81581792Y-95715664D01*
X81625122Y-95698507D01*
X81630646Y-95696617D01*
X81634396Y-95695527D01*
X81675390Y-95683618D01*
X81692629Y-95673422D01*
X81710103Y-95664862D01*
X81728727Y-95657488D01*
X81728727Y-95657487D01*
X81728732Y-95657486D01*
X81766449Y-95630082D01*
X81771305Y-95626892D01*
X81811420Y-95603170D01*
X81825589Y-95588999D01*
X81840379Y-95576368D01*
X81856587Y-95564594D01*
X81886299Y-95528676D01*
X81890212Y-95524376D01*
X82772771Y-94641819D01*
X82834095Y-94608334D01*
X82860453Y-94605500D01*
X83875812Y-94605500D01*
X83942851Y-94625185D01*
G37*
%TD.AperFunction*%
%TA.AperFunction,Conductor*%
G36*
X88656587Y-93355185D02*
G01*
X88677229Y-93371819D01*
X89669197Y-94363788D01*
X89679022Y-94376051D01*
X89679243Y-94375869D01*
X89684214Y-94381878D01*
X89705043Y-94401437D01*
X89734635Y-94429226D01*
X89755529Y-94450120D01*
X89761011Y-94454373D01*
X89765443Y-94458157D01*
X89799418Y-94490062D01*
X89816976Y-94499714D01*
X89833235Y-94510395D01*
X89849064Y-94522673D01*
X89891838Y-94541182D01*
X89897056Y-94543738D01*
X89937908Y-94566197D01*
X89957316Y-94571180D01*
X89975717Y-94577480D01*
X89994104Y-94585437D01*
X90037488Y-94592308D01*
X90040119Y-94592725D01*
X90045839Y-94593909D01*
X90090981Y-94605500D01*
X90111016Y-94605500D01*
X90130414Y-94607026D01*
X90150194Y-94610159D01*
X90150195Y-94610160D01*
X90150195Y-94610159D01*
X90150196Y-94610160D01*
X90196583Y-94605775D01*
X90202422Y-94605500D01*
X95305812Y-94605500D01*
X95372851Y-94625185D01*
X95407387Y-94658377D01*
X95519954Y-94819141D01*
X95680858Y-94980045D01*
X95680861Y-94980047D01*
X95867266Y-95110568D01*
X95925865Y-95137893D01*
X95978305Y-95184065D01*
X95997457Y-95251258D01*
X95977242Y-95318139D01*
X95925867Y-95362657D01*
X95867515Y-95389867D01*
X95681179Y-95520342D01*
X95520342Y-95681179D01*
X95389865Y-95867517D01*
X95293734Y-96073673D01*
X95293730Y-96073682D01*
X95241127Y-96269999D01*
X95241128Y-96270000D01*
X96009424Y-96270000D01*
X96076463Y-96289685D01*
X96122218Y-96342489D01*
X96132162Y-96411647D01*
X96131897Y-96413397D01*
X96115014Y-96519996D01*
X96115014Y-96520003D01*
X96131897Y-96626603D01*
X96122942Y-96695896D01*
X96077946Y-96749348D01*
X96011194Y-96769987D01*
X96009424Y-96770000D01*
X95241128Y-96770000D01*
X95293730Y-96966317D01*
X95293734Y-96966326D01*
X95389865Y-97172482D01*
X95520342Y-97358820D01*
X95681179Y-97519657D01*
X95867518Y-97650134D01*
X95867520Y-97650135D01*
X95925865Y-97677342D01*
X95978305Y-97723514D01*
X95997457Y-97790707D01*
X95977242Y-97857589D01*
X95925867Y-97902105D01*
X95876374Y-97925185D01*
X95867264Y-97929433D01*
X95680858Y-98059954D01*
X95519954Y-98220858D01*
X95407387Y-98381623D01*
X95352811Y-98425248D01*
X95305812Y-98434500D01*
X90480453Y-98434500D01*
X90413414Y-98414815D01*
X90392772Y-98398181D01*
X89400803Y-97406212D01*
X89390980Y-97393950D01*
X89390759Y-97394134D01*
X89385786Y-97388123D01*
X89367159Y-97370631D01*
X89335364Y-97340773D01*
X89324919Y-97330328D01*
X89314475Y-97319883D01*
X89308986Y-97315625D01*
X89304561Y-97311847D01*
X89270582Y-97279938D01*
X89270580Y-97279936D01*
X89270577Y-97279935D01*
X89253029Y-97270288D01*
X89236763Y-97259604D01*
X89220933Y-97247325D01*
X89178168Y-97228818D01*
X89172922Y-97226248D01*
X89132093Y-97203803D01*
X89132092Y-97203802D01*
X89112693Y-97198822D01*
X89094281Y-97192518D01*
X89075898Y-97184562D01*
X89075892Y-97184560D01*
X89029874Y-97177272D01*
X89024152Y-97176087D01*
X88979021Y-97164500D01*
X88979019Y-97164500D01*
X88958984Y-97164500D01*
X88939586Y-97162973D01*
X88930872Y-97161593D01*
X88919805Y-97159840D01*
X88919804Y-97159840D01*
X88873416Y-97164225D01*
X88867578Y-97164500D01*
X86418497Y-97164500D01*
X86351458Y-97144815D01*
X86305703Y-97092011D01*
X86295759Y-97022853D01*
X86306115Y-96988094D01*
X86316267Y-96966321D01*
X86316269Y-96966317D01*
X86368872Y-96770000D01*
X85600576Y-96770000D01*
X85533537Y-96750315D01*
X85487782Y-96697511D01*
X85477838Y-96628353D01*
X85478103Y-96626603D01*
X85494986Y-96520003D01*
X85494986Y-96519996D01*
X85478103Y-96413397D01*
X85487058Y-96344104D01*
X85532054Y-96290652D01*
X85598806Y-96270013D01*
X85600576Y-96270000D01*
X86368872Y-96270000D01*
X86368872Y-96269999D01*
X86316269Y-96073682D01*
X86316265Y-96073673D01*
X86220134Y-95867517D01*
X86089657Y-95681179D01*
X85928820Y-95520342D01*
X85742482Y-95389865D01*
X85684133Y-95362657D01*
X85631694Y-95316484D01*
X85612542Y-95249291D01*
X85632758Y-95182410D01*
X85684129Y-95137895D01*
X85742734Y-95110568D01*
X85929139Y-94980047D01*
X86090047Y-94819139D01*
X86220568Y-94632734D01*
X86316739Y-94426496D01*
X86375635Y-94206692D01*
X86395468Y-93980000D01*
X86393545Y-93958025D01*
X86375635Y-93753313D01*
X86375635Y-93753308D01*
X86316739Y-93533504D01*
X86306666Y-93511904D01*
X86296175Y-93442827D01*
X86324695Y-93379043D01*
X86383171Y-93340804D01*
X86419049Y-93335500D01*
X88589548Y-93335500D01*
X88656587Y-93355185D01*
G37*
%TD.AperFunction*%
%TA.AperFunction,Conductor*%
G36*
X122042851Y-92085185D02*
G01*
X122077387Y-92118377D01*
X122189954Y-92279141D01*
X122350858Y-92440045D01*
X122350861Y-92440047D01*
X122537266Y-92570568D01*
X122595275Y-92597618D01*
X122647714Y-92643791D01*
X122666866Y-92710984D01*
X122646650Y-92777865D01*
X122595275Y-92822382D01*
X122537267Y-92849431D01*
X122537265Y-92849432D01*
X122350858Y-92979954D01*
X122189954Y-93140858D01*
X122059432Y-93327265D01*
X122059431Y-93327267D01*
X121963261Y-93533502D01*
X121963258Y-93533511D01*
X121904366Y-93753302D01*
X121904364Y-93753313D01*
X121884532Y-93979998D01*
X121884532Y-93980001D01*
X121904364Y-94206686D01*
X121904366Y-94206697D01*
X121963258Y-94426488D01*
X121963261Y-94426497D01*
X122059431Y-94632732D01*
X122059432Y-94632734D01*
X122189954Y-94819141D01*
X122350858Y-94980045D01*
X122350861Y-94980047D01*
X122537266Y-95110568D01*
X122595865Y-95137893D01*
X122648305Y-95184065D01*
X122667457Y-95251258D01*
X122647242Y-95318139D01*
X122595867Y-95362657D01*
X122537515Y-95389867D01*
X122351179Y-95520342D01*
X122190342Y-95681179D01*
X122059865Y-95867517D01*
X121963734Y-96073673D01*
X121963730Y-96073682D01*
X121911127Y-96269999D01*
X121911128Y-96270000D01*
X122679424Y-96270000D01*
X122746463Y-96289685D01*
X122792218Y-96342489D01*
X122802162Y-96411647D01*
X122801897Y-96413397D01*
X122785014Y-96519996D01*
X122785014Y-96520003D01*
X122801897Y-96626603D01*
X122792942Y-96695896D01*
X122747946Y-96749348D01*
X122681194Y-96769987D01*
X122679424Y-96770000D01*
X121911128Y-96770000D01*
X121963730Y-96966317D01*
X121963734Y-96966326D01*
X122059865Y-97172482D01*
X122190342Y-97358820D01*
X122351179Y-97519657D01*
X122537518Y-97650134D01*
X122537520Y-97650135D01*
X122595865Y-97677342D01*
X122648305Y-97723514D01*
X122667457Y-97790707D01*
X122647242Y-97857589D01*
X122595867Y-97902105D01*
X122546374Y-97925185D01*
X122537264Y-97929433D01*
X122350858Y-98059954D01*
X122189954Y-98220858D01*
X122077387Y-98381623D01*
X122022811Y-98425248D01*
X121975812Y-98434500D01*
X116515453Y-98434500D01*
X116448414Y-98414815D01*
X116427772Y-98398181D01*
X115435803Y-97406212D01*
X115425980Y-97393950D01*
X115425759Y-97394134D01*
X115420786Y-97388123D01*
X115402159Y-97370631D01*
X115370364Y-97340773D01*
X115359919Y-97330328D01*
X115349475Y-97319883D01*
X115343986Y-97315625D01*
X115339561Y-97311847D01*
X115305582Y-97279938D01*
X115305580Y-97279936D01*
X115305577Y-97279935D01*
X115288029Y-97270288D01*
X115271763Y-97259604D01*
X115255933Y-97247325D01*
X115213168Y-97228818D01*
X115207922Y-97226248D01*
X115167093Y-97203803D01*
X115167092Y-97203802D01*
X115147693Y-97198822D01*
X115129281Y-97192518D01*
X115110898Y-97184562D01*
X115110892Y-97184560D01*
X115064874Y-97177272D01*
X115059152Y-97176087D01*
X115014021Y-97164500D01*
X115014019Y-97164500D01*
X114993984Y-97164500D01*
X114974586Y-97162973D01*
X114965872Y-97161593D01*
X114954805Y-97159840D01*
X114954804Y-97159840D01*
X114908416Y-97164225D01*
X114902578Y-97164500D01*
X113088497Y-97164500D01*
X113021458Y-97144815D01*
X112975703Y-97092011D01*
X112965759Y-97022853D01*
X112976115Y-96988094D01*
X112986267Y-96966321D01*
X112986269Y-96966317D01*
X113038872Y-96770000D01*
X112270576Y-96770000D01*
X112203537Y-96750315D01*
X112157782Y-96697511D01*
X112147838Y-96628353D01*
X112148103Y-96626603D01*
X112164986Y-96520003D01*
X112164986Y-96519996D01*
X112148103Y-96413397D01*
X112157058Y-96344104D01*
X112202054Y-96290652D01*
X112268806Y-96270013D01*
X112270576Y-96270000D01*
X113038872Y-96270000D01*
X113038872Y-96269999D01*
X112986269Y-96073682D01*
X112986265Y-96073673D01*
X112890134Y-95867517D01*
X112759657Y-95681179D01*
X112598820Y-95520342D01*
X112412482Y-95389865D01*
X112354133Y-95362657D01*
X112301694Y-95316484D01*
X112282542Y-95249291D01*
X112302758Y-95182410D01*
X112354129Y-95137895D01*
X112412734Y-95110568D01*
X112599139Y-94980047D01*
X112760047Y-94819139D01*
X112890568Y-94632734D01*
X112986739Y-94426496D01*
X113045635Y-94206692D01*
X113065468Y-93980000D01*
X113063545Y-93958025D01*
X113045635Y-93753313D01*
X113045635Y-93753308D01*
X112986739Y-93533504D01*
X112976666Y-93511904D01*
X112966175Y-93442827D01*
X112994695Y-93379043D01*
X113053171Y-93340804D01*
X113089049Y-93335500D01*
X114217257Y-93335500D01*
X114232877Y-93337224D01*
X114232904Y-93336939D01*
X114240660Y-93337671D01*
X114240667Y-93337673D01*
X114309814Y-93335500D01*
X114339350Y-93335500D01*
X114346228Y-93334630D01*
X114352041Y-93334172D01*
X114398627Y-93332709D01*
X114417869Y-93327117D01*
X114436912Y-93323174D01*
X114456792Y-93320664D01*
X114500122Y-93303507D01*
X114505646Y-93301617D01*
X114509396Y-93300527D01*
X114550390Y-93288618D01*
X114567629Y-93278422D01*
X114585103Y-93269862D01*
X114603727Y-93262488D01*
X114603727Y-93262487D01*
X114603732Y-93262486D01*
X114641449Y-93235082D01*
X114646305Y-93231892D01*
X114686420Y-93208170D01*
X114700589Y-93193999D01*
X114715379Y-93181368D01*
X114731587Y-93169594D01*
X114761299Y-93133676D01*
X114765212Y-93129376D01*
X115792771Y-92101819D01*
X115854095Y-92068334D01*
X115880453Y-92065500D01*
X121975812Y-92065500D01*
X122042851Y-92085185D01*
G37*
%TD.AperFunction*%
%TA.AperFunction,Conductor*%
G36*
X110497990Y-93355185D02*
G01*
X110543745Y-93407989D01*
X110553689Y-93477147D01*
X110543333Y-93511905D01*
X110533262Y-93533502D01*
X110533258Y-93533511D01*
X110474366Y-93753302D01*
X110474364Y-93753313D01*
X110454532Y-93979998D01*
X110454532Y-93980001D01*
X110474364Y-94206686D01*
X110474366Y-94206697D01*
X110533258Y-94426488D01*
X110533261Y-94426497D01*
X110629431Y-94632732D01*
X110629432Y-94632734D01*
X110759954Y-94819141D01*
X110920858Y-94980045D01*
X110920861Y-94980047D01*
X111107266Y-95110568D01*
X111165865Y-95137893D01*
X111218305Y-95184065D01*
X111237457Y-95251258D01*
X111217242Y-95318139D01*
X111165867Y-95362657D01*
X111107515Y-95389867D01*
X110921179Y-95520342D01*
X110760342Y-95681179D01*
X110629865Y-95867517D01*
X110533734Y-96073673D01*
X110533730Y-96073682D01*
X110481127Y-96269999D01*
X110481128Y-96270000D01*
X111249424Y-96270000D01*
X111316463Y-96289685D01*
X111362218Y-96342489D01*
X111372162Y-96411647D01*
X111371897Y-96413397D01*
X111355014Y-96519996D01*
X111355014Y-96520003D01*
X111371897Y-96626603D01*
X111362942Y-96695896D01*
X111317946Y-96749348D01*
X111251194Y-96769987D01*
X111249424Y-96770000D01*
X110481128Y-96770000D01*
X110533730Y-96966317D01*
X110533732Y-96966321D01*
X110543885Y-96988094D01*
X110554377Y-97057172D01*
X110525858Y-97120956D01*
X110467382Y-97159196D01*
X110431503Y-97164500D01*
X97872737Y-97164500D01*
X97857120Y-97162776D01*
X97857093Y-97163062D01*
X97841560Y-97161593D01*
X97841788Y-97159173D01*
X97785809Y-97144628D01*
X97738419Y-97093286D01*
X97726310Y-97024474D01*
X97737160Y-96985852D01*
X97746267Y-96966321D01*
X97746269Y-96966317D01*
X97798872Y-96770000D01*
X97030576Y-96770000D01*
X96963537Y-96750315D01*
X96917782Y-96697511D01*
X96907838Y-96628353D01*
X96908103Y-96626603D01*
X96924986Y-96520003D01*
X96924986Y-96519996D01*
X96908103Y-96413397D01*
X96917058Y-96344104D01*
X96962054Y-96290652D01*
X97028806Y-96270013D01*
X97030576Y-96270000D01*
X97798872Y-96270000D01*
X97798872Y-96269999D01*
X97746269Y-96073682D01*
X97746265Y-96073673D01*
X97650134Y-95867517D01*
X97519657Y-95681179D01*
X97358820Y-95520342D01*
X97172482Y-95389865D01*
X97114133Y-95362657D01*
X97061694Y-95316484D01*
X97042542Y-95249291D01*
X97062758Y-95182410D01*
X97114129Y-95137895D01*
X97172734Y-95110568D01*
X97359139Y-94980047D01*
X97520047Y-94819139D01*
X97632612Y-94658377D01*
X97687189Y-94614752D01*
X97734188Y-94605500D01*
X98977257Y-94605500D01*
X98992877Y-94607224D01*
X98992904Y-94606939D01*
X99000660Y-94607671D01*
X99000667Y-94607673D01*
X99069814Y-94605500D01*
X99099350Y-94605500D01*
X99106228Y-94604630D01*
X99112041Y-94604172D01*
X99158627Y-94602709D01*
X99177869Y-94597117D01*
X99196912Y-94593174D01*
X99216792Y-94590664D01*
X99260122Y-94573507D01*
X99265646Y-94571617D01*
X99269396Y-94570527D01*
X99310390Y-94558618D01*
X99327629Y-94548422D01*
X99345103Y-94539862D01*
X99363727Y-94532488D01*
X99363727Y-94532487D01*
X99363732Y-94532486D01*
X99401449Y-94505082D01*
X99406305Y-94501892D01*
X99446420Y-94478170D01*
X99460589Y-94463999D01*
X99475379Y-94451368D01*
X99491587Y-94439594D01*
X99521299Y-94403676D01*
X99525212Y-94399376D01*
X100552771Y-93371819D01*
X100614095Y-93338334D01*
X100640453Y-93335500D01*
X110430951Y-93335500D01*
X110497990Y-93355185D01*
G37*
%TD.AperFunction*%
%TD*%
M02*
