M48
; DRILL file {KiCad 7.0.7} date Sun Dec 17 19:56:52 2023
; FORMAT={-:-/ absolute / metric / decimal}
; #@! TF.CreationDate,2023-12-17T19:56:52+01:00
; #@! TF.GenerationSoftware,Kicad,Pcbnew,7.0.7
; #@! TF.FileFunction,Plated,1,2,PTH
FMAT,2
METRIC
; #@! TA.AperFunction,Plated,PTH,ComponentDrill
T1C0.800
; #@! TA.AperFunction,Plated,PTH,ComponentDrill
T2C1.000
%
G90
G05
T1
X53.975Y-73.66
X53.975Y-78.105
X53.975Y-82.55
X53.975Y-86.995
X53.975Y-91.44
X64.135Y-73.66
X64.135Y-78.105
X64.135Y-82.55
X64.135Y-86.995
X64.135Y-91.44
X69.85Y-60.96
X69.85Y-63.5
X69.85Y-66.04
X69.85Y-68.58
X69.85Y-71.12
X69.85Y-73.66
X69.85Y-76.2
X69.85Y-78.74
X69.85Y-81.28
X69.85Y-83.82
X69.85Y-86.36
X69.85Y-88.9
X69.85Y-91.44
X69.85Y-93.98
X69.85Y-96.52
X69.85Y-99.06
X69.85Y-101.6
X69.85Y-104.14
X69.85Y-106.68
X69.85Y-109.22
X69.85Y-111.76
X69.85Y-114.3
X69.85Y-116.84
X69.85Y-119.38
X85.09Y-60.96
X85.09Y-63.5
X85.09Y-66.04
X85.09Y-68.58
X85.09Y-71.12
X85.09Y-73.66
X85.09Y-76.2
X85.09Y-78.74
X85.09Y-81.28
X85.09Y-83.82
X85.09Y-86.36
X85.09Y-88.9
X85.09Y-91.44
X85.09Y-93.98
X85.09Y-96.52
X85.09Y-99.06
X85.09Y-101.6
X85.09Y-104.14
X85.09Y-106.68
X85.09Y-109.22
X85.09Y-111.76
X85.09Y-114.3
X85.09Y-116.84
X85.09Y-119.38
X96.52Y-68.58
X96.52Y-71.12
X96.52Y-73.66
X96.52Y-76.2
X96.52Y-78.74
X96.52Y-81.28
X96.52Y-83.82
X96.52Y-86.36
X96.52Y-88.9
X96.52Y-91.44
X96.52Y-93.98
X96.52Y-96.52
X96.52Y-99.06
X96.52Y-101.6
X96.52Y-104.14
X96.52Y-106.68
X96.52Y-109.22
X96.52Y-111.76
X96.52Y-114.3
X96.52Y-116.84
X96.52Y-119.38
X111.76Y-68.58
X111.76Y-71.12
X111.76Y-73.66
X111.76Y-76.2
X111.76Y-78.74
X111.76Y-81.28
X111.76Y-83.82
X111.76Y-86.36
X111.76Y-88.9
X111.76Y-91.44
X111.76Y-93.98
X111.76Y-96.52
X111.76Y-99.06
X111.76Y-101.6
X111.76Y-104.14
X111.76Y-106.68
X111.76Y-109.22
X111.76Y-111.76
X111.76Y-114.3
X111.76Y-116.84
X111.76Y-119.38
X123.19Y-68.58
X123.19Y-71.12
X123.19Y-73.66
X123.19Y-76.2
X123.19Y-78.74
X123.19Y-81.28
X123.19Y-83.82
X123.19Y-86.36
X123.19Y-88.9
X123.19Y-91.44
X123.19Y-93.98
X123.19Y-96.52
X123.19Y-99.06
X123.19Y-101.6
X123.19Y-104.14
X123.19Y-106.68
X123.19Y-109.22
X123.19Y-111.76
X123.19Y-114.3
X123.19Y-116.84
X123.19Y-119.38
X138.43Y-68.58
X138.43Y-71.12
X138.43Y-73.66
X138.43Y-76.2
X138.43Y-78.74
X138.43Y-81.28
X138.43Y-83.82
X138.43Y-86.36
X138.43Y-88.9
X138.43Y-91.44
X138.43Y-93.98
X138.43Y-96.52
X138.43Y-99.06
X138.43Y-101.6
X138.43Y-104.14
X138.43Y-106.68
X138.43Y-109.22
X138.43Y-111.76
X138.43Y-114.3
X138.43Y-116.84
X138.43Y-119.38
T2
X56.515Y-66.675
X59.055Y-66.675
X61.595Y-66.675
T0
M30
