%TF.GenerationSoftware,KiCad,Pcbnew,7.0.7*%
%TF.CreationDate,2023-12-17T19:56:50+01:00*%
%TF.ProjectId,everstar,65766572-7374-4617-922e-6b696361645f,rev?*%
%TF.SameCoordinates,Original*%
%TF.FileFunction,Copper,L2,Bot*%
%TF.FilePolarity,Positive*%
%FSLAX46Y46*%
G04 Gerber Fmt 4.6, Leading zero omitted, Abs format (unit mm)*
G04 Created by KiCad (PCBNEW 7.0.7) date 2023-12-17 19:56:50*
%MOMM*%
%LPD*%
G01*
G04 APERTURE LIST*
%TA.AperFunction,ComponentPad*%
%ADD10C,1.600000*%
%TD*%
%TA.AperFunction,ComponentPad*%
%ADD11O,1.600000X1.600000*%
%TD*%
%TA.AperFunction,ComponentPad*%
%ADD12R,1.600000X1.600000*%
%TD*%
%TA.AperFunction,ComponentPad*%
%ADD13R,1.700000X1.700000*%
%TD*%
%TA.AperFunction,ComponentPad*%
%ADD14O,1.700000X1.700000*%
%TD*%
%TA.AperFunction,Conductor*%
%ADD15C,0.250000*%
%TD*%
G04 APERTURE END LIST*
D10*
%TO.P,R2,1*%
%TO.N,WP#{slash}ACC*%
X64135000Y-78105000D03*
D11*
%TO.P,R2,2*%
%TO.N,VCC*%
X53975000Y-78105000D03*
%TD*%
D10*
%TO.P,R1,1*%
%TO.N,RESET#*%
X64135000Y-73660000D03*
D11*
%TO.P,R1,2*%
%TO.N,VCC*%
X53975000Y-73660000D03*
%TD*%
D10*
%TO.P,R3,1*%
%TO.N,WE#*%
X64135000Y-82550000D03*
D11*
%TO.P,R3,2*%
%TO.N,VCC*%
X53975000Y-82550000D03*
%TD*%
D12*
%TO.P,J3,1,Pin_1*%
%TO.N,A18*%
X96520000Y-68580000D03*
D11*
%TO.P,J3,2,Pin_2*%
%TO.N,A17*%
X96520000Y-71120000D03*
%TO.P,J3,3,Pin_3*%
%TO.N,A7*%
X96520000Y-73660000D03*
%TO.P,J3,4,Pin_4*%
%TO.N,A6*%
X96520000Y-76200000D03*
%TO.P,J3,5,Pin_5*%
%TO.N,A5*%
X96520000Y-78740000D03*
%TO.P,J3,6,Pin_6*%
%TO.N,A4*%
X96520000Y-81280000D03*
%TO.P,J3,7,Pin_7*%
%TO.N,A3*%
X96520000Y-83820000D03*
%TO.P,J3,8,Pin_8*%
%TO.N,A2*%
X96520000Y-86360000D03*
%TO.P,J3,9,Pin_9*%
%TO.N,A1*%
X96520000Y-88900000D03*
%TO.P,J3,10,Pin_10*%
%TO.N,A0*%
X96520000Y-91440000D03*
%TO.P,J3,11,Pin_11*%
%TO.N,CE#*%
X96520000Y-93980000D03*
%TO.P,J3,12,Pin_12*%
%TO.N,GND*%
X96520000Y-96520000D03*
%TO.P,J3,13,Pin_13*%
%TO.N,OE#*%
X96520000Y-99060000D03*
%TO.P,J3,14,Pin_14*%
%TO.N,Q0*%
X96520000Y-101600000D03*
%TO.P,J3,15,Pin_15*%
%TO.N,Q8*%
X96520000Y-104140000D03*
%TO.P,J3,16,Pin_16*%
%TO.N,Q1*%
X96520000Y-106680000D03*
%TO.P,J3,17,Pin_17*%
%TO.N,Q9*%
X96520000Y-109220000D03*
%TO.P,J3,18,Pin_18*%
%TO.N,Q2*%
X96520000Y-111760000D03*
%TO.P,J3,19,Pin_19*%
%TO.N,Q10*%
X96520000Y-114300000D03*
%TO.P,J3,20,Pin_20*%
%TO.N,Q3*%
X96520000Y-116840000D03*
%TO.P,J3,21,Pin_21*%
%TO.N,Q11*%
X96520000Y-119380000D03*
%TO.P,J3,22,Pin_22*%
%TO.N,VCC*%
X111760000Y-119380000D03*
%TO.P,J3,23,Pin_23*%
%TO.N,Q4*%
X111760000Y-116840000D03*
%TO.P,J3,24,Pin_24*%
%TO.N,Q12*%
X111760000Y-114300000D03*
%TO.P,J3,25,Pin_25*%
%TO.N,Q5*%
X111760000Y-111760000D03*
%TO.P,J3,26,Pin_26*%
%TO.N,Q13*%
X111760000Y-109220000D03*
%TO.P,J3,27,Pin_27*%
%TO.N,Q6*%
X111760000Y-106680000D03*
%TO.P,J3,28,Pin_28*%
%TO.N,Q14*%
X111760000Y-104140000D03*
%TO.P,J3,29,Pin_29*%
%TO.N,Q7*%
X111760000Y-101600000D03*
%TO.P,J3,30,Pin_30*%
%TO.N,Q15*%
X111760000Y-99060000D03*
%TO.P,J3,31,Pin_31*%
%TO.N,GND*%
X111760000Y-96520000D03*
%TO.P,J3,32,Pin_32*%
%TO.N,A20*%
X111760000Y-93980000D03*
%TO.P,J3,33,Pin_33*%
%TO.N,A16*%
X111760000Y-91440000D03*
%TO.P,J3,34,Pin_34*%
%TO.N,A15*%
X111760000Y-88900000D03*
%TO.P,J3,35,Pin_35*%
%TO.N,A14*%
X111760000Y-86360000D03*
%TO.P,J3,36,Pin_36*%
%TO.N,A13*%
X111760000Y-83820000D03*
%TO.P,J3,37,Pin_37*%
%TO.N,A12*%
X111760000Y-81280000D03*
%TO.P,J3,38,Pin_38*%
%TO.N,A11*%
X111760000Y-78740000D03*
%TO.P,J3,39,Pin_39*%
%TO.N,A10*%
X111760000Y-76200000D03*
%TO.P,J3,40,Pin_40*%
%TO.N,A9*%
X111760000Y-73660000D03*
%TO.P,J3,41,Pin_41*%
%TO.N,A8*%
X111760000Y-71120000D03*
%TO.P,J3,42,Pin_42*%
%TO.N,A19*%
X111760000Y-68580000D03*
%TD*%
D10*
%TO.P,R5,1*%
%TO.N,BYTE#*%
X64135000Y-91440000D03*
D11*
%TO.P,R5,2*%
%TO.N,VCC*%
X53975000Y-91440000D03*
%TD*%
D10*
%TO.P,R4,1*%
%TO.N,RY{slash}BY#*%
X64135000Y-86995000D03*
D11*
%TO.P,R4,2*%
%TO.N,VCC*%
X53975000Y-86995000D03*
%TD*%
D12*
%TO.P,J1,1,Pin_1*%
%TO.N,A21*%
X69850000Y-60960000D03*
D11*
%TO.P,J1,2,Pin_2*%
%TO.N,WP#{slash}ACC*%
X69850000Y-63500000D03*
%TO.P,J1,3,Pin_3*%
%TO.N,RY{slash}BY#*%
X69850000Y-66040000D03*
%TO.P,J1,4,Pin_4*%
%TO.N,A18*%
X69850000Y-68580000D03*
%TO.P,J1,5,Pin_5*%
%TO.N,A17*%
X69850000Y-71120000D03*
%TO.P,J1,6,Pin_6*%
%TO.N,A7*%
X69850000Y-73660000D03*
%TO.P,J1,7,Pin_7*%
%TO.N,A6*%
X69850000Y-76200000D03*
%TO.P,J1,8,Pin_8*%
%TO.N,A5*%
X69850000Y-78740000D03*
%TO.P,J1,9,Pin_9*%
%TO.N,A4*%
X69850000Y-81280000D03*
%TO.P,J1,10,Pin_10*%
%TO.N,A3*%
X69850000Y-83820000D03*
%TO.P,J1,11,Pin_11*%
%TO.N,A2*%
X69850000Y-86360000D03*
%TO.P,J1,12,Pin_12*%
%TO.N,A1*%
X69850000Y-88900000D03*
%TO.P,J1,13,Pin_13*%
%TO.N,A0*%
X69850000Y-91440000D03*
%TO.P,J1,14,Pin_14*%
%TO.N,CE#*%
X69850000Y-93980000D03*
%TO.P,J1,15,Pin_15*%
%TO.N,GND*%
X69850000Y-96520000D03*
%TO.P,J1,16,Pin_16*%
%TO.N,OE#*%
X69850000Y-99060000D03*
%TO.P,J1,17,Pin_17*%
%TO.N,Q0*%
X69850000Y-101600000D03*
%TO.P,J1,18,Pin_18*%
%TO.N,Q8*%
X69850000Y-104140000D03*
%TO.P,J1,19,Pin_19*%
%TO.N,Q1*%
X69850000Y-106680000D03*
%TO.P,J1,20,Pin_20*%
%TO.N,Q9*%
X69850000Y-109220000D03*
%TO.P,J1,21,Pin_21*%
%TO.N,Q2*%
X69850000Y-111760000D03*
%TO.P,J1,22,Pin_22*%
%TO.N,Q10*%
X69850000Y-114300000D03*
%TO.P,J1,23,Pin_23*%
%TO.N,Q3*%
X69850000Y-116840000D03*
%TO.P,J1,24,Pin_24*%
%TO.N,Q11*%
X69850000Y-119380000D03*
%TO.P,J1,25,Pin_25*%
%TO.N,VCC*%
X85090000Y-119380000D03*
%TO.P,J1,26,Pin_26*%
%TO.N,Q4*%
X85090000Y-116840000D03*
%TO.P,J1,27,Pin_27*%
%TO.N,Q12*%
X85090000Y-114300000D03*
%TO.P,J1,28,Pin_28*%
%TO.N,Q5*%
X85090000Y-111760000D03*
%TO.P,J1,29,Pin_29*%
%TO.N,Q13*%
X85090000Y-109220000D03*
%TO.P,J1,30,Pin_30*%
%TO.N,Q6*%
X85090000Y-106680000D03*
%TO.P,J1,31,Pin_31*%
%TO.N,Q14*%
X85090000Y-104140000D03*
%TO.P,J1,32,Pin_32*%
%TO.N,Q7*%
X85090000Y-101600000D03*
%TO.P,J1,33,Pin_33*%
%TO.N,Q15*%
X85090000Y-99060000D03*
%TO.P,J1,34,Pin_34*%
%TO.N,GND*%
X85090000Y-96520000D03*
%TO.P,J1,35,Pin_35*%
%TO.N,BYTE#*%
X85090000Y-93980000D03*
%TO.P,J1,36,Pin_36*%
%TO.N,A16*%
X85090000Y-91440000D03*
%TO.P,J1,37,Pin_37*%
%TO.N,A15*%
X85090000Y-88900000D03*
%TO.P,J1,38,Pin_38*%
%TO.N,A14*%
X85090000Y-86360000D03*
%TO.P,J1,39,Pin_39*%
%TO.N,A13*%
X85090000Y-83820000D03*
%TO.P,J1,40,Pin_40*%
%TO.N,A12*%
X85090000Y-81280000D03*
%TO.P,J1,41,Pin_41*%
%TO.N,A11*%
X85090000Y-78740000D03*
%TO.P,J1,42,Pin_42*%
%TO.N,A10*%
X85090000Y-76200000D03*
%TO.P,J1,43,Pin_43*%
%TO.N,A9*%
X85090000Y-73660000D03*
%TO.P,J1,44,Pin_44*%
%TO.N,A8*%
X85090000Y-71120000D03*
%TO.P,J1,45,Pin_45*%
%TO.N,A19*%
X85090000Y-68580000D03*
%TO.P,J1,46,Pin_46*%
%TO.N,A20*%
X85090000Y-66040000D03*
%TO.P,J1,47,Pin_47*%
%TO.N,WE#*%
X85090000Y-63500000D03*
%TO.P,J1,48,Pin_48*%
%TO.N,RESET#*%
X85090000Y-60960000D03*
%TD*%
D13*
%TO.P,J4,1,Pin_1*%
%TO.N,GND*%
X61595000Y-66675000D03*
D14*
%TO.P,J4,2,Pin_2*%
%TO.N,A21*%
X59055000Y-66675000D03*
%TO.P,J4,3,Pin_3*%
%TO.N,VCC*%
X56515000Y-66675000D03*
%TD*%
D12*
%TO.P,J2,1,Pin_1*%
%TO.N,A18*%
X123190000Y-68580000D03*
D11*
%TO.P,J2,2,Pin_2*%
%TO.N,A17*%
X123190000Y-71120000D03*
%TO.P,J2,3,Pin_3*%
%TO.N,A7*%
X123190000Y-73660000D03*
%TO.P,J2,4,Pin_4*%
%TO.N,A6*%
X123190000Y-76200000D03*
%TO.P,J2,5,Pin_5*%
%TO.N,A5*%
X123190000Y-78740000D03*
%TO.P,J2,6,Pin_6*%
%TO.N,A4*%
X123190000Y-81280000D03*
%TO.P,J2,7,Pin_7*%
%TO.N,A3*%
X123190000Y-83820000D03*
%TO.P,J2,8,Pin_8*%
%TO.N,A2*%
X123190000Y-86360000D03*
%TO.P,J2,9,Pin_9*%
%TO.N,A1*%
X123190000Y-88900000D03*
%TO.P,J2,10,Pin_10*%
%TO.N,CE#*%
X123190000Y-91440000D03*
%TO.P,J2,11,Pin_11*%
%TO.N,A0*%
X123190000Y-93980000D03*
%TO.P,J2,12,Pin_12*%
%TO.N,GND*%
X123190000Y-96520000D03*
%TO.P,J2,13,Pin_13*%
%TO.N,OE#*%
X123190000Y-99060000D03*
%TO.P,J2,14,Pin_14*%
%TO.N,Q0*%
X123190000Y-101600000D03*
%TO.P,J2,15,Pin_15*%
%TO.N,Q8*%
X123190000Y-104140000D03*
%TO.P,J2,16,Pin_16*%
%TO.N,Q1*%
X123190000Y-106680000D03*
%TO.P,J2,17,Pin_17*%
%TO.N,Q9*%
X123190000Y-109220000D03*
%TO.P,J2,18,Pin_18*%
%TO.N,Q2*%
X123190000Y-111760000D03*
%TO.P,J2,19,Pin_19*%
%TO.N,Q10*%
X123190000Y-114300000D03*
%TO.P,J2,20,Pin_20*%
%TO.N,Q3*%
X123190000Y-116840000D03*
%TO.P,J2,21,Pin_21*%
%TO.N,Q11*%
X123190000Y-119380000D03*
%TO.P,J2,22,Pin_22*%
%TO.N,VCC*%
X138430000Y-119380000D03*
%TO.P,J2,23,Pin_23*%
%TO.N,Q4*%
X138430000Y-116840000D03*
%TO.P,J2,24,Pin_24*%
%TO.N,Q12*%
X138430000Y-114300000D03*
%TO.P,J2,25,Pin_25*%
%TO.N,Q5*%
X138430000Y-111760000D03*
%TO.P,J2,26,Pin_26*%
%TO.N,Q13*%
X138430000Y-109220000D03*
%TO.P,J2,27,Pin_27*%
%TO.N,Q6*%
X138430000Y-106680000D03*
%TO.P,J2,28,Pin_28*%
%TO.N,Q14*%
X138430000Y-104140000D03*
%TO.P,J2,29,Pin_29*%
%TO.N,Q7*%
X138430000Y-101600000D03*
%TO.P,J2,30,Pin_30*%
%TO.N,Q15*%
X138430000Y-99060000D03*
%TO.P,J2,31,Pin_31*%
%TO.N,GND*%
X138430000Y-96520000D03*
%TO.P,J2,32,Pin_32*%
%TO.N,A16*%
X138430000Y-93980000D03*
%TO.P,J2,33,Pin_33*%
%TO.N,A15*%
X138430000Y-91440000D03*
%TO.P,J2,34,Pin_34*%
%TO.N,A14*%
X138430000Y-88900000D03*
%TO.P,J2,35,Pin_35*%
%TO.N,A13*%
X138430000Y-86360000D03*
%TO.P,J2,36,Pin_36*%
%TO.N,A12*%
X138430000Y-83820000D03*
%TO.P,J2,37,Pin_37*%
%TO.N,A11*%
X138430000Y-81280000D03*
%TO.P,J2,38,Pin_38*%
%TO.N,A10*%
X138430000Y-78740000D03*
%TO.P,J2,39,Pin_39*%
%TO.N,A9*%
X138430000Y-76200000D03*
%TO.P,J2,40,Pin_40*%
%TO.N,A8*%
X138430000Y-73660000D03*
%TO.P,J2,41,Pin_41*%
%TO.N,A19*%
X138430000Y-71120000D03*
%TO.P,J2,42,Pin_42*%
%TO.N,WE#*%
X138430000Y-68580000D03*
%TD*%
D15*
%TO.N,A0*%
X117475000Y-93980000D02*
X116205000Y-92710000D01*
X99695000Y-92710000D02*
X98425000Y-91440000D01*
X123190000Y-93980000D02*
X117475000Y-93980000D01*
X116205000Y-92710000D02*
X99695000Y-92710000D01*
X98425000Y-91440000D02*
X96520000Y-91440000D01*
%TO.N,A16*%
X127635000Y-93980000D02*
X126365000Y-92710000D01*
X118745000Y-92710000D02*
X117475000Y-91440000D01*
X138430000Y-93980000D02*
X127635000Y-93980000D01*
X117475000Y-91440000D02*
X111760000Y-91440000D01*
X126365000Y-92710000D02*
X118745000Y-92710000D01*
%TO.N,A20*%
X86995000Y-93980000D02*
X86995000Y-67945000D01*
X86995000Y-67945000D02*
X85090000Y-66040000D01*
X111760000Y-93980000D02*
X100965000Y-93980000D01*
X88265000Y-95250000D02*
X86995000Y-93980000D01*
X99695000Y-95250000D02*
X88265000Y-95250000D01*
X100965000Y-93980000D02*
X99695000Y-95250000D01*
%TO.N,WE#*%
X86360000Y-66040000D02*
X86360000Y-64135000D01*
X87630000Y-67310000D02*
X86360000Y-66040000D01*
X127635000Y-68580000D02*
X126365000Y-67310000D01*
X85725000Y-64135000D02*
X85090000Y-63500000D01*
X86360000Y-64135000D02*
X85725000Y-64135000D01*
X138430000Y-68580000D02*
X127635000Y-68580000D01*
X126365000Y-67310000D02*
X87630000Y-67310000D01*
%TD*%
%TA.AperFunction,Conductor*%
%TO.N,GND*%
G36*
X86937539Y-59075185D02*
G01*
X86983294Y-59127989D01*
X86994500Y-59179500D01*
X86994499Y-63584593D01*
X86974814Y-63651632D01*
X86922010Y-63697387D01*
X86852852Y-63707331D01*
X86791461Y-63680139D01*
X86788886Y-63678009D01*
X86775341Y-63666803D01*
X86772448Y-63664253D01*
X86730582Y-63624938D01*
X86730581Y-63624937D01*
X86730577Y-63624934D01*
X86723415Y-63620997D01*
X86704114Y-63607880D01*
X86697824Y-63602676D01*
X86645878Y-63578232D01*
X86642417Y-63576469D01*
X86592092Y-63548803D01*
X86592089Y-63548802D01*
X86592085Y-63548800D01*
X86584174Y-63546769D01*
X86562222Y-63538866D01*
X86554825Y-63535385D01*
X86554821Y-63535384D01*
X86498445Y-63524630D01*
X86494647Y-63523781D01*
X86480363Y-63520114D01*
X86420322Y-63484379D01*
X86389133Y-63421858D01*
X86387665Y-63410815D01*
X86375635Y-63273308D01*
X86316739Y-63053504D01*
X86220568Y-62847266D01*
X86090047Y-62660861D01*
X86090045Y-62660858D01*
X85929141Y-62499954D01*
X85742734Y-62369432D01*
X85742728Y-62369429D01*
X85684725Y-62342382D01*
X85632285Y-62296210D01*
X85613133Y-62229017D01*
X85633348Y-62162135D01*
X85684725Y-62117618D01*
X85742734Y-62090568D01*
X85929139Y-61960047D01*
X86090047Y-61799139D01*
X86220568Y-61612734D01*
X86316739Y-61406496D01*
X86375635Y-61186692D01*
X86395468Y-60960000D01*
X86375635Y-60733308D01*
X86316739Y-60513504D01*
X86220568Y-60307266D01*
X86090047Y-60120861D01*
X86090045Y-60120858D01*
X85929141Y-59959954D01*
X85742734Y-59829432D01*
X85742732Y-59829431D01*
X85536497Y-59733261D01*
X85536488Y-59733258D01*
X85316697Y-59674366D01*
X85316693Y-59674365D01*
X85316692Y-59674365D01*
X85316691Y-59674364D01*
X85316686Y-59674364D01*
X85090002Y-59654532D01*
X85089998Y-59654532D01*
X84863313Y-59674364D01*
X84863302Y-59674366D01*
X84643511Y-59733258D01*
X84643502Y-59733261D01*
X84437267Y-59829431D01*
X84437265Y-59829432D01*
X84250858Y-59959954D01*
X84089954Y-60120858D01*
X83959432Y-60307265D01*
X83959431Y-60307267D01*
X83863261Y-60513502D01*
X83863258Y-60513511D01*
X83804366Y-60733302D01*
X83804364Y-60733313D01*
X83784532Y-60959998D01*
X83784532Y-60960001D01*
X83804364Y-61186686D01*
X83804366Y-61186697D01*
X83863258Y-61406488D01*
X83863261Y-61406497D01*
X83959431Y-61612732D01*
X83959432Y-61612734D01*
X84089954Y-61799141D01*
X84250858Y-61960045D01*
X84250861Y-61960047D01*
X84437266Y-62090568D01*
X84495275Y-62117618D01*
X84547714Y-62163791D01*
X84566866Y-62230984D01*
X84546650Y-62297865D01*
X84495275Y-62342382D01*
X84437267Y-62369431D01*
X84437265Y-62369432D01*
X84250858Y-62499954D01*
X84089954Y-62660858D01*
X83959432Y-62847265D01*
X83959431Y-62847267D01*
X83863261Y-63053502D01*
X83863258Y-63053511D01*
X83804366Y-63273302D01*
X83804364Y-63273313D01*
X83784532Y-63499998D01*
X83784532Y-63500001D01*
X83804364Y-63726686D01*
X83804366Y-63726697D01*
X83863258Y-63946488D01*
X83863261Y-63946497D01*
X83959431Y-64152732D01*
X83959432Y-64152734D01*
X84089954Y-64339141D01*
X84250858Y-64500045D01*
X84250861Y-64500047D01*
X84437266Y-64630568D01*
X84495275Y-64657618D01*
X84547714Y-64703791D01*
X84566866Y-64770984D01*
X84546650Y-64837865D01*
X84495275Y-64882382D01*
X84437267Y-64909431D01*
X84437265Y-64909432D01*
X84250858Y-65039954D01*
X84089954Y-65200858D01*
X83959432Y-65387265D01*
X83959431Y-65387267D01*
X83863261Y-65593502D01*
X83863258Y-65593511D01*
X83804366Y-65813302D01*
X83804364Y-65813313D01*
X83784532Y-66039998D01*
X83784532Y-66040001D01*
X83804364Y-66266686D01*
X83804366Y-66266697D01*
X83863258Y-66486488D01*
X83863261Y-66486497D01*
X83959431Y-66692732D01*
X83959432Y-66692734D01*
X84089954Y-66879141D01*
X84250858Y-67040045D01*
X84250861Y-67040047D01*
X84437266Y-67170568D01*
X84495275Y-67197618D01*
X84547714Y-67243791D01*
X84566866Y-67310984D01*
X84546650Y-67377865D01*
X84495275Y-67422382D01*
X84437267Y-67449431D01*
X84437265Y-67449432D01*
X84250858Y-67579954D01*
X84089954Y-67740858D01*
X83959432Y-67927265D01*
X83959431Y-67927267D01*
X83863261Y-68133502D01*
X83863258Y-68133511D01*
X83804366Y-68353302D01*
X83804364Y-68353313D01*
X83784532Y-68579998D01*
X83784532Y-68580001D01*
X83804364Y-68806686D01*
X83804366Y-68806697D01*
X83863258Y-69026488D01*
X83863261Y-69026497D01*
X83959431Y-69232732D01*
X83959432Y-69232734D01*
X84089954Y-69419141D01*
X84250858Y-69580045D01*
X84250861Y-69580047D01*
X84437266Y-69710568D01*
X84495275Y-69737618D01*
X84547714Y-69783791D01*
X84566866Y-69850984D01*
X84546650Y-69917865D01*
X84495275Y-69962382D01*
X84437267Y-69989431D01*
X84437265Y-69989432D01*
X84250858Y-70119954D01*
X84089954Y-70280858D01*
X83959432Y-70467265D01*
X83959431Y-70467267D01*
X83863261Y-70673502D01*
X83863258Y-70673511D01*
X83804366Y-70893302D01*
X83804364Y-70893313D01*
X83784532Y-71119998D01*
X83784532Y-71120001D01*
X83804364Y-71346686D01*
X83804366Y-71346697D01*
X83863258Y-71566488D01*
X83863261Y-71566497D01*
X83959431Y-71772732D01*
X83959432Y-71772734D01*
X84089954Y-71959141D01*
X84250858Y-72120045D01*
X84250861Y-72120047D01*
X84437266Y-72250568D01*
X84495275Y-72277618D01*
X84547714Y-72323791D01*
X84566866Y-72390984D01*
X84546650Y-72457865D01*
X84495275Y-72502382D01*
X84437267Y-72529431D01*
X84437265Y-72529432D01*
X84250858Y-72659954D01*
X84089954Y-72820858D01*
X83959432Y-73007265D01*
X83959431Y-73007267D01*
X83863261Y-73213502D01*
X83863258Y-73213511D01*
X83804366Y-73433302D01*
X83804364Y-73433313D01*
X83784532Y-73659998D01*
X83784532Y-73660001D01*
X83804364Y-73886686D01*
X83804366Y-73886697D01*
X83863258Y-74106488D01*
X83863261Y-74106497D01*
X83959431Y-74312732D01*
X83959432Y-74312734D01*
X84089954Y-74499141D01*
X84250858Y-74660045D01*
X84250861Y-74660047D01*
X84437266Y-74790568D01*
X84495275Y-74817618D01*
X84547714Y-74863791D01*
X84566866Y-74930984D01*
X84546650Y-74997865D01*
X84495275Y-75042382D01*
X84437267Y-75069431D01*
X84437265Y-75069432D01*
X84250858Y-75199954D01*
X84089954Y-75360858D01*
X83959432Y-75547265D01*
X83959431Y-75547267D01*
X83863261Y-75753502D01*
X83863258Y-75753511D01*
X83804366Y-75973302D01*
X83804364Y-75973313D01*
X83784532Y-76199998D01*
X83784532Y-76200001D01*
X83804364Y-76426686D01*
X83804366Y-76426697D01*
X83863258Y-76646488D01*
X83863261Y-76646497D01*
X83959431Y-76852732D01*
X83959432Y-76852734D01*
X84089954Y-77039141D01*
X84250858Y-77200045D01*
X84250861Y-77200047D01*
X84437266Y-77330568D01*
X84495275Y-77357618D01*
X84547714Y-77403791D01*
X84566866Y-77470984D01*
X84546650Y-77537865D01*
X84495275Y-77582382D01*
X84437267Y-77609431D01*
X84437265Y-77609432D01*
X84250858Y-77739954D01*
X84089954Y-77900858D01*
X83959432Y-78087265D01*
X83959431Y-78087267D01*
X83863261Y-78293502D01*
X83863258Y-78293511D01*
X83804366Y-78513302D01*
X83804364Y-78513313D01*
X83784532Y-78739998D01*
X83784532Y-78740001D01*
X83804364Y-78966686D01*
X83804366Y-78966697D01*
X83863258Y-79186488D01*
X83863261Y-79186497D01*
X83959431Y-79392732D01*
X83959432Y-79392734D01*
X84089954Y-79579141D01*
X84250858Y-79740045D01*
X84250861Y-79740047D01*
X84437266Y-79870568D01*
X84495275Y-79897618D01*
X84547714Y-79943791D01*
X84566866Y-80010984D01*
X84546650Y-80077865D01*
X84495275Y-80122382D01*
X84437267Y-80149431D01*
X84437265Y-80149432D01*
X84250858Y-80279954D01*
X84089954Y-80440858D01*
X83959432Y-80627265D01*
X83959431Y-80627267D01*
X83863261Y-80833502D01*
X83863258Y-80833511D01*
X83804366Y-81053302D01*
X83804364Y-81053313D01*
X83784532Y-81279998D01*
X83784532Y-81280001D01*
X83804364Y-81506686D01*
X83804366Y-81506697D01*
X83863258Y-81726488D01*
X83863261Y-81726497D01*
X83959431Y-81932732D01*
X83959432Y-81932734D01*
X84089954Y-82119141D01*
X84250858Y-82280045D01*
X84250861Y-82280047D01*
X84437266Y-82410568D01*
X84495275Y-82437618D01*
X84547714Y-82483791D01*
X84566866Y-82550984D01*
X84546650Y-82617865D01*
X84495275Y-82662382D01*
X84437267Y-82689431D01*
X84437265Y-82689432D01*
X84250858Y-82819954D01*
X84089954Y-82980858D01*
X83959432Y-83167265D01*
X83959431Y-83167267D01*
X83863261Y-83373502D01*
X83863258Y-83373511D01*
X83804366Y-83593302D01*
X83804364Y-83593313D01*
X83784532Y-83819998D01*
X83784532Y-83820001D01*
X83804364Y-84046686D01*
X83804366Y-84046697D01*
X83863258Y-84266488D01*
X83863261Y-84266497D01*
X83959431Y-84472732D01*
X83959432Y-84472734D01*
X84089954Y-84659141D01*
X84250858Y-84820045D01*
X84250861Y-84820047D01*
X84437266Y-84950568D01*
X84495278Y-84977619D01*
X84547713Y-85023788D01*
X84566866Y-85090982D01*
X84546651Y-85157863D01*
X84495277Y-85202380D01*
X84437268Y-85229430D01*
X84437265Y-85229432D01*
X84250858Y-85359954D01*
X84089954Y-85520858D01*
X83959432Y-85707265D01*
X83959431Y-85707267D01*
X83863261Y-85913502D01*
X83863258Y-85913511D01*
X83804366Y-86133302D01*
X83804364Y-86133313D01*
X83784532Y-86359998D01*
X83784532Y-86360001D01*
X83804364Y-86586686D01*
X83804366Y-86586697D01*
X83863258Y-86806488D01*
X83863261Y-86806497D01*
X83959431Y-87012732D01*
X83959432Y-87012734D01*
X84089954Y-87199141D01*
X84250858Y-87360045D01*
X84250861Y-87360047D01*
X84437266Y-87490568D01*
X84495278Y-87517619D01*
X84547713Y-87563788D01*
X84566866Y-87630982D01*
X84546651Y-87697863D01*
X84495277Y-87742380D01*
X84437268Y-87769430D01*
X84437265Y-87769432D01*
X84250858Y-87899954D01*
X84089954Y-88060858D01*
X83959432Y-88247265D01*
X83959431Y-88247267D01*
X83863261Y-88453502D01*
X83863258Y-88453511D01*
X83804366Y-88673302D01*
X83804364Y-88673313D01*
X83784532Y-88899998D01*
X83784532Y-88900001D01*
X83804364Y-89126686D01*
X83804366Y-89126697D01*
X83863258Y-89346488D01*
X83863261Y-89346497D01*
X83959431Y-89552732D01*
X83959432Y-89552734D01*
X84089954Y-89739141D01*
X84250858Y-89900045D01*
X84250861Y-89900047D01*
X84437266Y-90030568D01*
X84495275Y-90057618D01*
X84547714Y-90103791D01*
X84566866Y-90170984D01*
X84546650Y-90237865D01*
X84495275Y-90282382D01*
X84437267Y-90309431D01*
X84437265Y-90309432D01*
X84250858Y-90439954D01*
X84089954Y-90600858D01*
X83959432Y-90787265D01*
X83959431Y-90787267D01*
X83863261Y-90993502D01*
X83863258Y-90993511D01*
X83804366Y-91213302D01*
X83804364Y-91213313D01*
X83784532Y-91439998D01*
X83784532Y-91440001D01*
X83804364Y-91666686D01*
X83804366Y-91666697D01*
X83863258Y-91886488D01*
X83863261Y-91886497D01*
X83959431Y-92092732D01*
X83959432Y-92092734D01*
X84089954Y-92279141D01*
X84250858Y-92440045D01*
X84250861Y-92440047D01*
X84437266Y-92570568D01*
X84495275Y-92597618D01*
X84547714Y-92643791D01*
X84566866Y-92710984D01*
X84546650Y-92777865D01*
X84495275Y-92822382D01*
X84437267Y-92849431D01*
X84437265Y-92849432D01*
X84250858Y-92979954D01*
X84089954Y-93140858D01*
X83959432Y-93327265D01*
X83959431Y-93327267D01*
X83863261Y-93533502D01*
X83863258Y-93533511D01*
X83804366Y-93753302D01*
X83804364Y-93753313D01*
X83784532Y-93979998D01*
X83784532Y-93980001D01*
X83804364Y-94206686D01*
X83804366Y-94206697D01*
X83863258Y-94426488D01*
X83863261Y-94426497D01*
X83959431Y-94632732D01*
X83959432Y-94632734D01*
X84089954Y-94819141D01*
X84250858Y-94980045D01*
X84250861Y-94980047D01*
X84437266Y-95110568D01*
X84495865Y-95137893D01*
X84548305Y-95184065D01*
X84567457Y-95251258D01*
X84547242Y-95318139D01*
X84495867Y-95362657D01*
X84437515Y-95389867D01*
X84251179Y-95520342D01*
X84090342Y-95681179D01*
X83959865Y-95867517D01*
X83863734Y-96073673D01*
X83863730Y-96073682D01*
X83811127Y-96269999D01*
X83811128Y-96270000D01*
X84579424Y-96270000D01*
X84646463Y-96289685D01*
X84692218Y-96342489D01*
X84702162Y-96411647D01*
X84701897Y-96413397D01*
X84685014Y-96519996D01*
X84685014Y-96520003D01*
X84701897Y-96626603D01*
X84692942Y-96695896D01*
X84647946Y-96749348D01*
X84581194Y-96769987D01*
X84579424Y-96770000D01*
X83811128Y-96770000D01*
X83863730Y-96966317D01*
X83863734Y-96966326D01*
X83959865Y-97172482D01*
X84090342Y-97358820D01*
X84251179Y-97519657D01*
X84437518Y-97650134D01*
X84437520Y-97650135D01*
X84495865Y-97677342D01*
X84548305Y-97723514D01*
X84567457Y-97790707D01*
X84547242Y-97857589D01*
X84495867Y-97902105D01*
X84437268Y-97929431D01*
X84437264Y-97929433D01*
X84250858Y-98059954D01*
X84089954Y-98220858D01*
X83959432Y-98407265D01*
X83959431Y-98407267D01*
X83863261Y-98613502D01*
X83863258Y-98613511D01*
X83804366Y-98833302D01*
X83804364Y-98833313D01*
X83784532Y-99059998D01*
X83784532Y-99060001D01*
X83804364Y-99286686D01*
X83804366Y-99286697D01*
X83863258Y-99506488D01*
X83863261Y-99506497D01*
X83959431Y-99712732D01*
X83959432Y-99712734D01*
X84089954Y-99899141D01*
X84250858Y-100060045D01*
X84250861Y-100060047D01*
X84437266Y-100190568D01*
X84495275Y-100217618D01*
X84547714Y-100263791D01*
X84566866Y-100330984D01*
X84546650Y-100397865D01*
X84495275Y-100442382D01*
X84437267Y-100469431D01*
X84437265Y-100469432D01*
X84250858Y-100599954D01*
X84089954Y-100760858D01*
X83959432Y-100947265D01*
X83959431Y-100947267D01*
X83863261Y-101153502D01*
X83863258Y-101153511D01*
X83804366Y-101373302D01*
X83804364Y-101373313D01*
X83784532Y-101599998D01*
X83784532Y-101600001D01*
X83804364Y-101826686D01*
X83804366Y-101826697D01*
X83863258Y-102046488D01*
X83863261Y-102046497D01*
X83959431Y-102252732D01*
X83959432Y-102252734D01*
X84089954Y-102439141D01*
X84250858Y-102600045D01*
X84250861Y-102600047D01*
X84437266Y-102730568D01*
X84495275Y-102757618D01*
X84547714Y-102803791D01*
X84566866Y-102870984D01*
X84546650Y-102937865D01*
X84495275Y-102982382D01*
X84437267Y-103009431D01*
X84437265Y-103009432D01*
X84250858Y-103139954D01*
X84089954Y-103300858D01*
X83959432Y-103487265D01*
X83959431Y-103487267D01*
X83863261Y-103693502D01*
X83863258Y-103693511D01*
X83804366Y-103913302D01*
X83804364Y-103913313D01*
X83784532Y-104139998D01*
X83784532Y-104140001D01*
X83804364Y-104366686D01*
X83804366Y-104366697D01*
X83863258Y-104586488D01*
X83863261Y-104586497D01*
X83959431Y-104792732D01*
X83959432Y-104792734D01*
X84089954Y-104979141D01*
X84250858Y-105140045D01*
X84250861Y-105140047D01*
X84437266Y-105270568D01*
X84495275Y-105297618D01*
X84547714Y-105343791D01*
X84566866Y-105410984D01*
X84546650Y-105477865D01*
X84495275Y-105522382D01*
X84437267Y-105549431D01*
X84437265Y-105549432D01*
X84250858Y-105679954D01*
X84089954Y-105840858D01*
X83959432Y-106027265D01*
X83959431Y-106027267D01*
X83863261Y-106233502D01*
X83863258Y-106233511D01*
X83804366Y-106453302D01*
X83804364Y-106453313D01*
X83784532Y-106679998D01*
X83784532Y-106680001D01*
X83804364Y-106906686D01*
X83804366Y-106906697D01*
X83863258Y-107126488D01*
X83863261Y-107126497D01*
X83959431Y-107332732D01*
X83959432Y-107332734D01*
X84089954Y-107519141D01*
X84250858Y-107680045D01*
X84250861Y-107680047D01*
X84437266Y-107810568D01*
X84495278Y-107837619D01*
X84547713Y-107883788D01*
X84566866Y-107950982D01*
X84546651Y-108017863D01*
X84495277Y-108062380D01*
X84437268Y-108089430D01*
X84437265Y-108089432D01*
X84250858Y-108219954D01*
X84089954Y-108380858D01*
X83959432Y-108567265D01*
X83959431Y-108567267D01*
X83863261Y-108773502D01*
X83863258Y-108773511D01*
X83804366Y-108993302D01*
X83804364Y-108993313D01*
X83784532Y-109219998D01*
X83784532Y-109220001D01*
X83804364Y-109446686D01*
X83804366Y-109446697D01*
X83863258Y-109666488D01*
X83863261Y-109666497D01*
X83959431Y-109872732D01*
X83959432Y-109872734D01*
X84089954Y-110059141D01*
X84250858Y-110220045D01*
X84250861Y-110220047D01*
X84437266Y-110350568D01*
X84495275Y-110377618D01*
X84547714Y-110423791D01*
X84566866Y-110490984D01*
X84546650Y-110557865D01*
X84495275Y-110602382D01*
X84437267Y-110629431D01*
X84437265Y-110629432D01*
X84250858Y-110759954D01*
X84089954Y-110920858D01*
X83959432Y-111107265D01*
X83959431Y-111107267D01*
X83863261Y-111313502D01*
X83863258Y-111313511D01*
X83804366Y-111533302D01*
X83804364Y-111533313D01*
X83784532Y-111759998D01*
X83784532Y-111760001D01*
X83804364Y-111986686D01*
X83804366Y-111986697D01*
X83863258Y-112206488D01*
X83863261Y-112206497D01*
X83959431Y-112412732D01*
X83959432Y-112412734D01*
X84089954Y-112599141D01*
X84250858Y-112760045D01*
X84250861Y-112760047D01*
X84437266Y-112890568D01*
X84495275Y-112917618D01*
X84547714Y-112963791D01*
X84566866Y-113030984D01*
X84546650Y-113097865D01*
X84495275Y-113142382D01*
X84437267Y-113169431D01*
X84437265Y-113169432D01*
X84250858Y-113299954D01*
X84089954Y-113460858D01*
X83959432Y-113647265D01*
X83959431Y-113647267D01*
X83863261Y-113853502D01*
X83863258Y-113853511D01*
X83804366Y-114073302D01*
X83804364Y-114073313D01*
X83784532Y-114299998D01*
X83784532Y-114300001D01*
X83804364Y-114526686D01*
X83804366Y-114526697D01*
X83863258Y-114746488D01*
X83863261Y-114746497D01*
X83959431Y-114952732D01*
X83959432Y-114952734D01*
X84089954Y-115139141D01*
X84250858Y-115300045D01*
X84250861Y-115300047D01*
X84437266Y-115430568D01*
X84495275Y-115457618D01*
X84547714Y-115503791D01*
X84566866Y-115570984D01*
X84546650Y-115637865D01*
X84495275Y-115682382D01*
X84437267Y-115709431D01*
X84437265Y-115709432D01*
X84250858Y-115839954D01*
X84089954Y-116000858D01*
X83959432Y-116187265D01*
X83959431Y-116187267D01*
X83863261Y-116393502D01*
X83863258Y-116393511D01*
X83804366Y-116613302D01*
X83804364Y-116613313D01*
X83784532Y-116839998D01*
X83784532Y-116840001D01*
X83804364Y-117066686D01*
X83804366Y-117066697D01*
X83863258Y-117286488D01*
X83863261Y-117286497D01*
X83959431Y-117492732D01*
X83959432Y-117492734D01*
X84089954Y-117679141D01*
X84250858Y-117840045D01*
X84250861Y-117840047D01*
X84437266Y-117970568D01*
X84495275Y-117997618D01*
X84547714Y-118043791D01*
X84566866Y-118110984D01*
X84546650Y-118177865D01*
X84495275Y-118222382D01*
X84437267Y-118249431D01*
X84437265Y-118249432D01*
X84250858Y-118379954D01*
X84089954Y-118540858D01*
X83959432Y-118727265D01*
X83959431Y-118727267D01*
X83863261Y-118933502D01*
X83863258Y-118933511D01*
X83804366Y-119153302D01*
X83804364Y-119153313D01*
X83784532Y-119379998D01*
X83784532Y-119380001D01*
X83804364Y-119606686D01*
X83804366Y-119606697D01*
X83863258Y-119826488D01*
X83863261Y-119826497D01*
X83959431Y-120032732D01*
X83959432Y-120032734D01*
X84089954Y-120219141D01*
X84250858Y-120380045D01*
X84250861Y-120380047D01*
X84437266Y-120510568D01*
X84643504Y-120606739D01*
X84863308Y-120665635D01*
X85025230Y-120679801D01*
X85089998Y-120685468D01*
X85090000Y-120685468D01*
X85090002Y-120685468D01*
X85146673Y-120680509D01*
X85316692Y-120665635D01*
X85536496Y-120606739D01*
X85742734Y-120510568D01*
X85929139Y-120380047D01*
X86090047Y-120219139D01*
X86220568Y-120032734D01*
X86316739Y-119826496D01*
X86375635Y-119606692D01*
X86395468Y-119380000D01*
X86375635Y-119153308D01*
X86316739Y-118933504D01*
X86220568Y-118727266D01*
X86090047Y-118540861D01*
X86090045Y-118540858D01*
X85929141Y-118379954D01*
X85742734Y-118249432D01*
X85742728Y-118249429D01*
X85684725Y-118222382D01*
X85632285Y-118176210D01*
X85613133Y-118109017D01*
X85633348Y-118042135D01*
X85684725Y-117997618D01*
X85742734Y-117970568D01*
X85929139Y-117840047D01*
X86090047Y-117679139D01*
X86220568Y-117492734D01*
X86316739Y-117286496D01*
X86375635Y-117066692D01*
X86395468Y-116840000D01*
X86375635Y-116613308D01*
X86316739Y-116393504D01*
X86220568Y-116187266D01*
X86090047Y-116000861D01*
X86090045Y-116000858D01*
X85929141Y-115839954D01*
X85742734Y-115709432D01*
X85742728Y-115709429D01*
X85684725Y-115682382D01*
X85632285Y-115636210D01*
X85613133Y-115569017D01*
X85633348Y-115502135D01*
X85684725Y-115457618D01*
X85742734Y-115430568D01*
X85929139Y-115300047D01*
X86090047Y-115139139D01*
X86220568Y-114952734D01*
X86316739Y-114746496D01*
X86375635Y-114526692D01*
X86395468Y-114300000D01*
X86375635Y-114073308D01*
X86316739Y-113853504D01*
X86220568Y-113647266D01*
X86090047Y-113460861D01*
X86090045Y-113460858D01*
X85929141Y-113299954D01*
X85742734Y-113169432D01*
X85742728Y-113169429D01*
X85684725Y-113142382D01*
X85632285Y-113096210D01*
X85613133Y-113029017D01*
X85633348Y-112962135D01*
X85684725Y-112917618D01*
X85742734Y-112890568D01*
X85929139Y-112760047D01*
X86090047Y-112599139D01*
X86220568Y-112412734D01*
X86316739Y-112206496D01*
X86375635Y-111986692D01*
X86395468Y-111760000D01*
X86375635Y-111533308D01*
X86316739Y-111313504D01*
X86220568Y-111107266D01*
X86090047Y-110920861D01*
X86090045Y-110920858D01*
X85929141Y-110759954D01*
X85742734Y-110629432D01*
X85742728Y-110629429D01*
X85684725Y-110602382D01*
X85632285Y-110556210D01*
X85613133Y-110489017D01*
X85633348Y-110422135D01*
X85684725Y-110377618D01*
X85742734Y-110350568D01*
X85929139Y-110220047D01*
X86090047Y-110059139D01*
X86220568Y-109872734D01*
X86316739Y-109666496D01*
X86375635Y-109446692D01*
X86395468Y-109220000D01*
X86375635Y-108993308D01*
X86316739Y-108773504D01*
X86220568Y-108567266D01*
X86090047Y-108380861D01*
X86090045Y-108380858D01*
X85929141Y-108219954D01*
X85742735Y-108089433D01*
X85742736Y-108089433D01*
X85742734Y-108089432D01*
X85684722Y-108062380D01*
X85632284Y-108016208D01*
X85613133Y-107949014D01*
X85633349Y-107882133D01*
X85684721Y-107837619D01*
X85742734Y-107810568D01*
X85929139Y-107680047D01*
X86090047Y-107519139D01*
X86220568Y-107332734D01*
X86316739Y-107126496D01*
X86375635Y-106906692D01*
X86395468Y-106680000D01*
X86375635Y-106453308D01*
X86316739Y-106233504D01*
X86220568Y-106027266D01*
X86090047Y-105840861D01*
X86090045Y-105840858D01*
X85929141Y-105679954D01*
X85742735Y-105549433D01*
X85742736Y-105549433D01*
X85742734Y-105549432D01*
X85684722Y-105522380D01*
X85632284Y-105476208D01*
X85613133Y-105409014D01*
X85633349Y-105342133D01*
X85684721Y-105297619D01*
X85742734Y-105270568D01*
X85929139Y-105140047D01*
X86090047Y-104979139D01*
X86220568Y-104792734D01*
X86316739Y-104586496D01*
X86375635Y-104366692D01*
X86395468Y-104140000D01*
X86375635Y-103913308D01*
X86316739Y-103693504D01*
X86220568Y-103487266D01*
X86090047Y-103300861D01*
X86090045Y-103300858D01*
X85929141Y-103139954D01*
X85742735Y-103009433D01*
X85742736Y-103009433D01*
X85742734Y-103009432D01*
X85684722Y-102982380D01*
X85632284Y-102936208D01*
X85613133Y-102869014D01*
X85633349Y-102802133D01*
X85684721Y-102757619D01*
X85742734Y-102730568D01*
X85929139Y-102600047D01*
X86090047Y-102439139D01*
X86220568Y-102252734D01*
X86316739Y-102046496D01*
X86375635Y-101826692D01*
X86395468Y-101600000D01*
X86375635Y-101373308D01*
X86316739Y-101153504D01*
X86220568Y-100947266D01*
X86090047Y-100760861D01*
X86090045Y-100760858D01*
X85929141Y-100599954D01*
X85742734Y-100469432D01*
X85742728Y-100469429D01*
X85684725Y-100442382D01*
X85632285Y-100396210D01*
X85613133Y-100329017D01*
X85633348Y-100262135D01*
X85684725Y-100217618D01*
X85742734Y-100190568D01*
X85929139Y-100060047D01*
X86090047Y-99899139D01*
X86220568Y-99712734D01*
X86316739Y-99506496D01*
X86375635Y-99286692D01*
X86395468Y-99060000D01*
X86375635Y-98833308D01*
X86316739Y-98613504D01*
X86220568Y-98407266D01*
X86090047Y-98220861D01*
X86090045Y-98220858D01*
X85929141Y-98059954D01*
X85742734Y-97929432D01*
X85742732Y-97929431D01*
X85731275Y-97924088D01*
X85684132Y-97902105D01*
X85631694Y-97855934D01*
X85612542Y-97788740D01*
X85632758Y-97721859D01*
X85684134Y-97677341D01*
X85742484Y-97650132D01*
X85928820Y-97519657D01*
X86089657Y-97358820D01*
X86220134Y-97172482D01*
X86316265Y-96966326D01*
X86316269Y-96966317D01*
X86368872Y-96770000D01*
X85600576Y-96770000D01*
X85533537Y-96750315D01*
X85487782Y-96697511D01*
X85477838Y-96628353D01*
X85478103Y-96626603D01*
X85494986Y-96520003D01*
X85494986Y-96519996D01*
X85478103Y-96413397D01*
X85487058Y-96344104D01*
X85532054Y-96290652D01*
X85598806Y-96270013D01*
X85600576Y-96270000D01*
X86368872Y-96270000D01*
X86368872Y-96269999D01*
X86316269Y-96073682D01*
X86316265Y-96073673D01*
X86220134Y-95867517D01*
X86089657Y-95681179D01*
X85928820Y-95520342D01*
X85742482Y-95389865D01*
X85684133Y-95362657D01*
X85631694Y-95316484D01*
X85612542Y-95249291D01*
X85632758Y-95182410D01*
X85684129Y-95137895D01*
X85742734Y-95110568D01*
X85929139Y-94980047D01*
X86090047Y-94819139D01*
X86220568Y-94632734D01*
X86316739Y-94426496D01*
X86316739Y-94426494D01*
X86317489Y-94424887D01*
X86363661Y-94372448D01*
X86430855Y-94353296D01*
X86497736Y-94373512D01*
X86530187Y-94404404D01*
X86535406Y-94411587D01*
X86553418Y-94426488D01*
X86571309Y-94441288D01*
X86575620Y-94445210D01*
X87493066Y-95362657D01*
X87764197Y-95633788D01*
X87774022Y-95646051D01*
X87774243Y-95645869D01*
X87779214Y-95651878D01*
X87800043Y-95671437D01*
X87829635Y-95699226D01*
X87850529Y-95720120D01*
X87856011Y-95724373D01*
X87860443Y-95728157D01*
X87894418Y-95760062D01*
X87911976Y-95769714D01*
X87928235Y-95780395D01*
X87944064Y-95792673D01*
X87986838Y-95811182D01*
X87992056Y-95813738D01*
X88032908Y-95836197D01*
X88052316Y-95841180D01*
X88070717Y-95847480D01*
X88089104Y-95855437D01*
X88132488Y-95862308D01*
X88135119Y-95862725D01*
X88140839Y-95863909D01*
X88185981Y-95875500D01*
X88206016Y-95875500D01*
X88225414Y-95877026D01*
X88245194Y-95880159D01*
X88245195Y-95880160D01*
X88245195Y-95880159D01*
X88245196Y-95880160D01*
X88291583Y-95875775D01*
X88297422Y-95875500D01*
X95191503Y-95875500D01*
X95258542Y-95895185D01*
X95304297Y-95947989D01*
X95314241Y-96017147D01*
X95303885Y-96051906D01*
X95293732Y-96073678D01*
X95293730Y-96073682D01*
X95241127Y-96269999D01*
X95241128Y-96270000D01*
X96009424Y-96270000D01*
X96076463Y-96289685D01*
X96122218Y-96342489D01*
X96132162Y-96411647D01*
X96131897Y-96413397D01*
X96115014Y-96519996D01*
X96115014Y-96520003D01*
X96131897Y-96626603D01*
X96122942Y-96695896D01*
X96077946Y-96749348D01*
X96011194Y-96769987D01*
X96009424Y-96770000D01*
X95241128Y-96770000D01*
X95293730Y-96966317D01*
X95293734Y-96966326D01*
X95389865Y-97172482D01*
X95520342Y-97358820D01*
X95681179Y-97519657D01*
X95867518Y-97650134D01*
X95867520Y-97650135D01*
X95925865Y-97677342D01*
X95978305Y-97723514D01*
X95997457Y-97790707D01*
X95977242Y-97857589D01*
X95925867Y-97902105D01*
X95867268Y-97929431D01*
X95867264Y-97929433D01*
X95680858Y-98059954D01*
X95519954Y-98220858D01*
X95389432Y-98407265D01*
X95389431Y-98407267D01*
X95293261Y-98613502D01*
X95293258Y-98613511D01*
X95234366Y-98833302D01*
X95234364Y-98833313D01*
X95214532Y-99059998D01*
X95214532Y-99060001D01*
X95234364Y-99286686D01*
X95234366Y-99286697D01*
X95293258Y-99506488D01*
X95293261Y-99506497D01*
X95389431Y-99712732D01*
X95389432Y-99712734D01*
X95519954Y-99899141D01*
X95680858Y-100060045D01*
X95680861Y-100060047D01*
X95867266Y-100190568D01*
X95925275Y-100217618D01*
X95977714Y-100263791D01*
X95996866Y-100330984D01*
X95976650Y-100397865D01*
X95925275Y-100442382D01*
X95867267Y-100469431D01*
X95867265Y-100469432D01*
X95680858Y-100599954D01*
X95519954Y-100760858D01*
X95389432Y-100947265D01*
X95389431Y-100947267D01*
X95293261Y-101153502D01*
X95293258Y-101153511D01*
X95234366Y-101373302D01*
X95234364Y-101373313D01*
X95214532Y-101599998D01*
X95214532Y-101600001D01*
X95234364Y-101826686D01*
X95234366Y-101826697D01*
X95293258Y-102046488D01*
X95293261Y-102046497D01*
X95389431Y-102252732D01*
X95389432Y-102252734D01*
X95519954Y-102439141D01*
X95680858Y-102600045D01*
X95680861Y-102600047D01*
X95867266Y-102730568D01*
X95925278Y-102757619D01*
X95977713Y-102803788D01*
X95996866Y-102870982D01*
X95976651Y-102937863D01*
X95925277Y-102982380D01*
X95867268Y-103009430D01*
X95867265Y-103009432D01*
X95680858Y-103139954D01*
X95519954Y-103300858D01*
X95389432Y-103487265D01*
X95389431Y-103487267D01*
X95293261Y-103693502D01*
X95293258Y-103693511D01*
X95234366Y-103913302D01*
X95234364Y-103913313D01*
X95214532Y-104139998D01*
X95214532Y-104140001D01*
X95234364Y-104366686D01*
X95234366Y-104366697D01*
X95293258Y-104586488D01*
X95293261Y-104586497D01*
X95389431Y-104792732D01*
X95389432Y-104792734D01*
X95519954Y-104979141D01*
X95680858Y-105140045D01*
X95680861Y-105140047D01*
X95867266Y-105270568D01*
X95925278Y-105297619D01*
X95977713Y-105343788D01*
X95996866Y-105410982D01*
X95976651Y-105477863D01*
X95925277Y-105522380D01*
X95867268Y-105549430D01*
X95867265Y-105549432D01*
X95680858Y-105679954D01*
X95519954Y-105840858D01*
X95389432Y-106027265D01*
X95389431Y-106027267D01*
X95293261Y-106233502D01*
X95293258Y-106233511D01*
X95234366Y-106453302D01*
X95234364Y-106453313D01*
X95214532Y-106679998D01*
X95214532Y-106680001D01*
X95234364Y-106906686D01*
X95234366Y-106906697D01*
X95293258Y-107126488D01*
X95293261Y-107126497D01*
X95389431Y-107332732D01*
X95389432Y-107332734D01*
X95519954Y-107519141D01*
X95680858Y-107680045D01*
X95680861Y-107680047D01*
X95867266Y-107810568D01*
X95925278Y-107837619D01*
X95977713Y-107883788D01*
X95996866Y-107950982D01*
X95976651Y-108017863D01*
X95925277Y-108062380D01*
X95867268Y-108089430D01*
X95867265Y-108089432D01*
X95680858Y-108219954D01*
X95519954Y-108380858D01*
X95389432Y-108567265D01*
X95389431Y-108567267D01*
X95293261Y-108773502D01*
X95293258Y-108773511D01*
X95234366Y-108993302D01*
X95234364Y-108993313D01*
X95214532Y-109219998D01*
X95214532Y-109220001D01*
X95234364Y-109446686D01*
X95234366Y-109446697D01*
X95293258Y-109666488D01*
X95293261Y-109666497D01*
X95389431Y-109872732D01*
X95389432Y-109872734D01*
X95519954Y-110059141D01*
X95680858Y-110220045D01*
X95680861Y-110220047D01*
X95867266Y-110350568D01*
X95925275Y-110377618D01*
X95977714Y-110423791D01*
X95996866Y-110490984D01*
X95976650Y-110557865D01*
X95925275Y-110602382D01*
X95867267Y-110629431D01*
X95867265Y-110629432D01*
X95680858Y-110759954D01*
X95519954Y-110920858D01*
X95389432Y-111107265D01*
X95389431Y-111107267D01*
X95293261Y-111313502D01*
X95293258Y-111313511D01*
X95234366Y-111533302D01*
X95234364Y-111533313D01*
X95214532Y-111759998D01*
X95214532Y-111760001D01*
X95234364Y-111986686D01*
X95234366Y-111986697D01*
X95293258Y-112206488D01*
X95293261Y-112206497D01*
X95389431Y-112412732D01*
X95389432Y-112412734D01*
X95519954Y-112599141D01*
X95680858Y-112760045D01*
X95680861Y-112760047D01*
X95867266Y-112890568D01*
X95925275Y-112917618D01*
X95977714Y-112963791D01*
X95996866Y-113030984D01*
X95976650Y-113097865D01*
X95925275Y-113142382D01*
X95867267Y-113169431D01*
X95867265Y-113169432D01*
X95680858Y-113299954D01*
X95519954Y-113460858D01*
X95389432Y-113647265D01*
X95389431Y-113647267D01*
X95293261Y-113853502D01*
X95293258Y-113853511D01*
X95234366Y-114073302D01*
X95234364Y-114073313D01*
X95214532Y-114299998D01*
X95214532Y-114300001D01*
X95234364Y-114526686D01*
X95234366Y-114526697D01*
X95293258Y-114746488D01*
X95293261Y-114746497D01*
X95389431Y-114952732D01*
X95389432Y-114952734D01*
X95519954Y-115139141D01*
X95680858Y-115300045D01*
X95680861Y-115300047D01*
X95867266Y-115430568D01*
X95925275Y-115457618D01*
X95977714Y-115503791D01*
X95996866Y-115570984D01*
X95976650Y-115637865D01*
X95925275Y-115682382D01*
X95867267Y-115709431D01*
X95867265Y-115709432D01*
X95680858Y-115839954D01*
X95519954Y-116000858D01*
X95389432Y-116187265D01*
X95389431Y-116187267D01*
X95293261Y-116393502D01*
X95293258Y-116393511D01*
X95234366Y-116613302D01*
X95234364Y-116613313D01*
X95214532Y-116839998D01*
X95214532Y-116840001D01*
X95234364Y-117066686D01*
X95234366Y-117066697D01*
X95293258Y-117286488D01*
X95293261Y-117286497D01*
X95389431Y-117492732D01*
X95389432Y-117492734D01*
X95519954Y-117679141D01*
X95680858Y-117840045D01*
X95680861Y-117840047D01*
X95867266Y-117970568D01*
X95925275Y-117997618D01*
X95977714Y-118043791D01*
X95996866Y-118110984D01*
X95976650Y-118177865D01*
X95925275Y-118222382D01*
X95867267Y-118249431D01*
X95867265Y-118249432D01*
X95680858Y-118379954D01*
X95519954Y-118540858D01*
X95389432Y-118727265D01*
X95389431Y-118727267D01*
X95293261Y-118933502D01*
X95293258Y-118933511D01*
X95234366Y-119153302D01*
X95234364Y-119153313D01*
X95214532Y-119379998D01*
X95214532Y-119380001D01*
X95234364Y-119606686D01*
X95234366Y-119606697D01*
X95293258Y-119826488D01*
X95293261Y-119826497D01*
X95389431Y-120032732D01*
X95389432Y-120032734D01*
X95519954Y-120219141D01*
X95680858Y-120380045D01*
X95680861Y-120380047D01*
X95867266Y-120510568D01*
X96073504Y-120606739D01*
X96293308Y-120665635D01*
X96455230Y-120679801D01*
X96519998Y-120685468D01*
X96520000Y-120685468D01*
X96520002Y-120685468D01*
X96576673Y-120680509D01*
X96746692Y-120665635D01*
X96966496Y-120606739D01*
X97172734Y-120510568D01*
X97359139Y-120380047D01*
X97520047Y-120219139D01*
X97650568Y-120032734D01*
X97746739Y-119826496D01*
X97805635Y-119606692D01*
X97825468Y-119380000D01*
X97805635Y-119153308D01*
X97746739Y-118933504D01*
X97650568Y-118727266D01*
X97520047Y-118540861D01*
X97520045Y-118540858D01*
X97359141Y-118379954D01*
X97172734Y-118249432D01*
X97172728Y-118249429D01*
X97114725Y-118222382D01*
X97062285Y-118176210D01*
X97043133Y-118109017D01*
X97063348Y-118042135D01*
X97114725Y-117997618D01*
X97172734Y-117970568D01*
X97359139Y-117840047D01*
X97520047Y-117679139D01*
X97650568Y-117492734D01*
X97746739Y-117286496D01*
X97805635Y-117066692D01*
X97825468Y-116840000D01*
X97805635Y-116613308D01*
X97746739Y-116393504D01*
X97650568Y-116187266D01*
X97520047Y-116000861D01*
X97520045Y-116000858D01*
X97359141Y-115839954D01*
X97172734Y-115709432D01*
X97172728Y-115709429D01*
X97114725Y-115682382D01*
X97062285Y-115636210D01*
X97043133Y-115569017D01*
X97063348Y-115502135D01*
X97114725Y-115457618D01*
X97172734Y-115430568D01*
X97359139Y-115300047D01*
X97520047Y-115139139D01*
X97650568Y-114952734D01*
X97746739Y-114746496D01*
X97805635Y-114526692D01*
X97825468Y-114300000D01*
X97805635Y-114073308D01*
X97746739Y-113853504D01*
X97650568Y-113647266D01*
X97520047Y-113460861D01*
X97520045Y-113460858D01*
X97359141Y-113299954D01*
X97172734Y-113169432D01*
X97172728Y-113169429D01*
X97114725Y-113142382D01*
X97062285Y-113096210D01*
X97043133Y-113029017D01*
X97063348Y-112962135D01*
X97114725Y-112917618D01*
X97172734Y-112890568D01*
X97359139Y-112760047D01*
X97520047Y-112599139D01*
X97650568Y-112412734D01*
X97746739Y-112206496D01*
X97805635Y-111986692D01*
X97825468Y-111760000D01*
X97805635Y-111533308D01*
X97746739Y-111313504D01*
X97650568Y-111107266D01*
X97520047Y-110920861D01*
X97520045Y-110920858D01*
X97359141Y-110759954D01*
X97172734Y-110629432D01*
X97172728Y-110629429D01*
X97114725Y-110602382D01*
X97062285Y-110556210D01*
X97043133Y-110489017D01*
X97063348Y-110422135D01*
X97114725Y-110377618D01*
X97172734Y-110350568D01*
X97359139Y-110220047D01*
X97520047Y-110059139D01*
X97650568Y-109872734D01*
X97746739Y-109666496D01*
X97805635Y-109446692D01*
X97825468Y-109220000D01*
X97805635Y-108993308D01*
X97746739Y-108773504D01*
X97650568Y-108567266D01*
X97520047Y-108380861D01*
X97520045Y-108380858D01*
X97359141Y-108219954D01*
X97172735Y-108089433D01*
X97172736Y-108089433D01*
X97172734Y-108089432D01*
X97114722Y-108062380D01*
X97062284Y-108016208D01*
X97043133Y-107949014D01*
X97063349Y-107882133D01*
X97114721Y-107837619D01*
X97172734Y-107810568D01*
X97359139Y-107680047D01*
X97520047Y-107519139D01*
X97650568Y-107332734D01*
X97746739Y-107126496D01*
X97805635Y-106906692D01*
X97825468Y-106680000D01*
X97805635Y-106453308D01*
X97746739Y-106233504D01*
X97650568Y-106027266D01*
X97520047Y-105840861D01*
X97520045Y-105840858D01*
X97359141Y-105679954D01*
X97172734Y-105549432D01*
X97172728Y-105549429D01*
X97114725Y-105522382D01*
X97062285Y-105476210D01*
X97043133Y-105409017D01*
X97063348Y-105342135D01*
X97114725Y-105297618D01*
X97172734Y-105270568D01*
X97359139Y-105140047D01*
X97520047Y-104979139D01*
X97650568Y-104792734D01*
X97746739Y-104586496D01*
X97805635Y-104366692D01*
X97825468Y-104140000D01*
X97805635Y-103913308D01*
X97746739Y-103693504D01*
X97650568Y-103487266D01*
X97520047Y-103300861D01*
X97520045Y-103300858D01*
X97359141Y-103139954D01*
X97172734Y-103009432D01*
X97172728Y-103009429D01*
X97114725Y-102982382D01*
X97062285Y-102936210D01*
X97043133Y-102869017D01*
X97063348Y-102802135D01*
X97114725Y-102757618D01*
X97172734Y-102730568D01*
X97359139Y-102600047D01*
X97520047Y-102439139D01*
X97650568Y-102252734D01*
X97746739Y-102046496D01*
X97805635Y-101826692D01*
X97825468Y-101600000D01*
X97805635Y-101373308D01*
X97746739Y-101153504D01*
X97650568Y-100947266D01*
X97520047Y-100760861D01*
X97520045Y-100760858D01*
X97359141Y-100599954D01*
X97172734Y-100469432D01*
X97172728Y-100469429D01*
X97114725Y-100442382D01*
X97062285Y-100396210D01*
X97043133Y-100329017D01*
X97063348Y-100262135D01*
X97114725Y-100217618D01*
X97172734Y-100190568D01*
X97359139Y-100060047D01*
X97520047Y-99899139D01*
X97650568Y-99712734D01*
X97746739Y-99506496D01*
X97805635Y-99286692D01*
X97825468Y-99060000D01*
X97805635Y-98833308D01*
X97746739Y-98613504D01*
X97650568Y-98407266D01*
X97520047Y-98220861D01*
X97520045Y-98220858D01*
X97359141Y-98059954D01*
X97172734Y-97929432D01*
X97172732Y-97929431D01*
X97161275Y-97924088D01*
X97114132Y-97902105D01*
X97061694Y-97855934D01*
X97042542Y-97788740D01*
X97062758Y-97721859D01*
X97114134Y-97677341D01*
X97172484Y-97650132D01*
X97358820Y-97519657D01*
X97519657Y-97358820D01*
X97650134Y-97172482D01*
X97746265Y-96966326D01*
X97746269Y-96966317D01*
X97798872Y-96770000D01*
X97030576Y-96770000D01*
X96963537Y-96750315D01*
X96917782Y-96697511D01*
X96907838Y-96628353D01*
X96908103Y-96626603D01*
X96924986Y-96520003D01*
X96924986Y-96519996D01*
X96908103Y-96413397D01*
X96917058Y-96344104D01*
X96962054Y-96290652D01*
X97028806Y-96270013D01*
X97030576Y-96270000D01*
X97798872Y-96270000D01*
X97798872Y-96269999D01*
X97746269Y-96073682D01*
X97746267Y-96073678D01*
X97736115Y-96051906D01*
X97725623Y-95982828D01*
X97754142Y-95919044D01*
X97812618Y-95880804D01*
X97848497Y-95875500D01*
X99612257Y-95875500D01*
X99627877Y-95877224D01*
X99627904Y-95876939D01*
X99635660Y-95877671D01*
X99635667Y-95877673D01*
X99704814Y-95875500D01*
X99734350Y-95875500D01*
X99741228Y-95874630D01*
X99747041Y-95874172D01*
X99793627Y-95872709D01*
X99812869Y-95867117D01*
X99831912Y-95863174D01*
X99851792Y-95860664D01*
X99895122Y-95843507D01*
X99900646Y-95841617D01*
X99904396Y-95840527D01*
X99945390Y-95828618D01*
X99962629Y-95818422D01*
X99980103Y-95809862D01*
X99998727Y-95802488D01*
X99998727Y-95802487D01*
X99998732Y-95802486D01*
X100036449Y-95775082D01*
X100041305Y-95771892D01*
X100081420Y-95748170D01*
X100095589Y-95733999D01*
X100110379Y-95721368D01*
X100126587Y-95709594D01*
X100156299Y-95673676D01*
X100160212Y-95669376D01*
X101187771Y-94641819D01*
X101249095Y-94608334D01*
X101275453Y-94605500D01*
X110545812Y-94605500D01*
X110612851Y-94625185D01*
X110647387Y-94658377D01*
X110759954Y-94819141D01*
X110920858Y-94980045D01*
X110920861Y-94980047D01*
X111107266Y-95110568D01*
X111165865Y-95137893D01*
X111218305Y-95184065D01*
X111237457Y-95251258D01*
X111217242Y-95318139D01*
X111165867Y-95362657D01*
X111107515Y-95389867D01*
X110921179Y-95520342D01*
X110760342Y-95681179D01*
X110629865Y-95867517D01*
X110533734Y-96073673D01*
X110533730Y-96073682D01*
X110481127Y-96269999D01*
X110481128Y-96270000D01*
X111249424Y-96270000D01*
X111316463Y-96289685D01*
X111362218Y-96342489D01*
X111372162Y-96411647D01*
X111371897Y-96413397D01*
X111355014Y-96519996D01*
X111355014Y-96520003D01*
X111371897Y-96626603D01*
X111362942Y-96695896D01*
X111317946Y-96749348D01*
X111251194Y-96769987D01*
X111249424Y-96770000D01*
X110481128Y-96770000D01*
X110533730Y-96966317D01*
X110533734Y-96966326D01*
X110629865Y-97172482D01*
X110760342Y-97358820D01*
X110921179Y-97519657D01*
X111107518Y-97650134D01*
X111107520Y-97650135D01*
X111165865Y-97677342D01*
X111218305Y-97723514D01*
X111237457Y-97790707D01*
X111217242Y-97857589D01*
X111165867Y-97902105D01*
X111107268Y-97929431D01*
X111107264Y-97929433D01*
X110920858Y-98059954D01*
X110759954Y-98220858D01*
X110629432Y-98407265D01*
X110629431Y-98407267D01*
X110533261Y-98613502D01*
X110533258Y-98613511D01*
X110474366Y-98833302D01*
X110474364Y-98833313D01*
X110454532Y-99059998D01*
X110454532Y-99060001D01*
X110474364Y-99286686D01*
X110474366Y-99286697D01*
X110533258Y-99506488D01*
X110533261Y-99506497D01*
X110629431Y-99712732D01*
X110629432Y-99712734D01*
X110759954Y-99899141D01*
X110920858Y-100060045D01*
X110920861Y-100060047D01*
X111107266Y-100190568D01*
X111165275Y-100217618D01*
X111217714Y-100263791D01*
X111236866Y-100330984D01*
X111216650Y-100397865D01*
X111165275Y-100442382D01*
X111107267Y-100469431D01*
X111107265Y-100469432D01*
X110920858Y-100599954D01*
X110759954Y-100760858D01*
X110629432Y-100947265D01*
X110629431Y-100947267D01*
X110533261Y-101153502D01*
X110533258Y-101153511D01*
X110474366Y-101373302D01*
X110474364Y-101373313D01*
X110454532Y-101599998D01*
X110454532Y-101600001D01*
X110474364Y-101826686D01*
X110474366Y-101826697D01*
X110533258Y-102046488D01*
X110533261Y-102046497D01*
X110629431Y-102252732D01*
X110629432Y-102252734D01*
X110759954Y-102439141D01*
X110920858Y-102600045D01*
X110920861Y-102600047D01*
X111107266Y-102730568D01*
X111165275Y-102757618D01*
X111217714Y-102803791D01*
X111236866Y-102870984D01*
X111216650Y-102937865D01*
X111165275Y-102982382D01*
X111107267Y-103009431D01*
X111107265Y-103009432D01*
X110920858Y-103139954D01*
X110759954Y-103300858D01*
X110629432Y-103487265D01*
X110629431Y-103487267D01*
X110533261Y-103693502D01*
X110533258Y-103693511D01*
X110474366Y-103913302D01*
X110474364Y-103913313D01*
X110454532Y-104139998D01*
X110454532Y-104140001D01*
X110474364Y-104366686D01*
X110474366Y-104366697D01*
X110533258Y-104586488D01*
X110533261Y-104586497D01*
X110629431Y-104792732D01*
X110629432Y-104792734D01*
X110759954Y-104979141D01*
X110920858Y-105140045D01*
X110920861Y-105140047D01*
X111107266Y-105270568D01*
X111165275Y-105297618D01*
X111217714Y-105343791D01*
X111236866Y-105410984D01*
X111216650Y-105477865D01*
X111165275Y-105522382D01*
X111107267Y-105549431D01*
X111107265Y-105549432D01*
X110920858Y-105679954D01*
X110759954Y-105840858D01*
X110629432Y-106027265D01*
X110629431Y-106027267D01*
X110533261Y-106233502D01*
X110533258Y-106233511D01*
X110474366Y-106453302D01*
X110474364Y-106453313D01*
X110454532Y-106679998D01*
X110454532Y-106680001D01*
X110474364Y-106906686D01*
X110474366Y-106906697D01*
X110533258Y-107126488D01*
X110533261Y-107126497D01*
X110629431Y-107332732D01*
X110629432Y-107332734D01*
X110759954Y-107519141D01*
X110920858Y-107680045D01*
X110920861Y-107680047D01*
X111107266Y-107810568D01*
X111165278Y-107837619D01*
X111217713Y-107883788D01*
X111236866Y-107950982D01*
X111216651Y-108017863D01*
X111165277Y-108062380D01*
X111107268Y-108089430D01*
X111107265Y-108089432D01*
X110920858Y-108219954D01*
X110759954Y-108380858D01*
X110629432Y-108567265D01*
X110629431Y-108567267D01*
X110533261Y-108773502D01*
X110533258Y-108773511D01*
X110474366Y-108993302D01*
X110474364Y-108993313D01*
X110454532Y-109219998D01*
X110454532Y-109220001D01*
X110474364Y-109446686D01*
X110474366Y-109446697D01*
X110533258Y-109666488D01*
X110533261Y-109666497D01*
X110629431Y-109872732D01*
X110629432Y-109872734D01*
X110759954Y-110059141D01*
X110920858Y-110220045D01*
X110920861Y-110220047D01*
X111107266Y-110350568D01*
X111165275Y-110377618D01*
X111217714Y-110423791D01*
X111236866Y-110490984D01*
X111216650Y-110557865D01*
X111165275Y-110602382D01*
X111107267Y-110629431D01*
X111107265Y-110629432D01*
X110920858Y-110759954D01*
X110759954Y-110920858D01*
X110629432Y-111107265D01*
X110629431Y-111107267D01*
X110533261Y-111313502D01*
X110533258Y-111313511D01*
X110474366Y-111533302D01*
X110474364Y-111533313D01*
X110454532Y-111759998D01*
X110454532Y-111760001D01*
X110474364Y-111986686D01*
X110474366Y-111986697D01*
X110533258Y-112206488D01*
X110533261Y-112206497D01*
X110629431Y-112412732D01*
X110629432Y-112412734D01*
X110759954Y-112599141D01*
X110920858Y-112760045D01*
X110920861Y-112760047D01*
X111107266Y-112890568D01*
X111165275Y-112917618D01*
X111217714Y-112963791D01*
X111236866Y-113030984D01*
X111216650Y-113097865D01*
X111165275Y-113142382D01*
X111107267Y-113169431D01*
X111107265Y-113169432D01*
X110920858Y-113299954D01*
X110759954Y-113460858D01*
X110629432Y-113647265D01*
X110629431Y-113647267D01*
X110533261Y-113853502D01*
X110533258Y-113853511D01*
X110474366Y-114073302D01*
X110474364Y-114073313D01*
X110454532Y-114299998D01*
X110454532Y-114300001D01*
X110474364Y-114526686D01*
X110474366Y-114526697D01*
X110533258Y-114746488D01*
X110533261Y-114746497D01*
X110629431Y-114952732D01*
X110629432Y-114952734D01*
X110759954Y-115139141D01*
X110920858Y-115300045D01*
X110920861Y-115300047D01*
X111107266Y-115430568D01*
X111165275Y-115457618D01*
X111217714Y-115503791D01*
X111236866Y-115570984D01*
X111216650Y-115637865D01*
X111165275Y-115682382D01*
X111107267Y-115709431D01*
X111107265Y-115709432D01*
X110920858Y-115839954D01*
X110759954Y-116000858D01*
X110629432Y-116187265D01*
X110629431Y-116187267D01*
X110533261Y-116393502D01*
X110533258Y-116393511D01*
X110474366Y-116613302D01*
X110474364Y-116613313D01*
X110454532Y-116839998D01*
X110454532Y-116840001D01*
X110474364Y-117066686D01*
X110474366Y-117066697D01*
X110533258Y-117286488D01*
X110533261Y-117286497D01*
X110629431Y-117492732D01*
X110629432Y-117492734D01*
X110759954Y-117679141D01*
X110920858Y-117840045D01*
X110920861Y-117840047D01*
X111107266Y-117970568D01*
X111165275Y-117997618D01*
X111217714Y-118043791D01*
X111236866Y-118110984D01*
X111216650Y-118177865D01*
X111165275Y-118222382D01*
X111107267Y-118249431D01*
X111107265Y-118249432D01*
X110920858Y-118379954D01*
X110759954Y-118540858D01*
X110629432Y-118727265D01*
X110629431Y-118727267D01*
X110533261Y-118933502D01*
X110533258Y-118933511D01*
X110474366Y-119153302D01*
X110474364Y-119153313D01*
X110454532Y-119379998D01*
X110454532Y-119380001D01*
X110474364Y-119606686D01*
X110474366Y-119606697D01*
X110533258Y-119826488D01*
X110533261Y-119826497D01*
X110629431Y-120032732D01*
X110629432Y-120032734D01*
X110759954Y-120219141D01*
X110920858Y-120380045D01*
X110920861Y-120380047D01*
X111107266Y-120510568D01*
X111313504Y-120606739D01*
X111533308Y-120665635D01*
X111695230Y-120679801D01*
X111759998Y-120685468D01*
X111760000Y-120685468D01*
X111760002Y-120685468D01*
X111816673Y-120680509D01*
X111986692Y-120665635D01*
X112206496Y-120606739D01*
X112412734Y-120510568D01*
X112599139Y-120380047D01*
X112760047Y-120219139D01*
X112890568Y-120032734D01*
X112986739Y-119826496D01*
X113045635Y-119606692D01*
X113065468Y-119380000D01*
X113045635Y-119153308D01*
X112986739Y-118933504D01*
X112890568Y-118727266D01*
X112760047Y-118540861D01*
X112760045Y-118540858D01*
X112599141Y-118379954D01*
X112412734Y-118249432D01*
X112412728Y-118249429D01*
X112354725Y-118222382D01*
X112302285Y-118176210D01*
X112283133Y-118109017D01*
X112303348Y-118042135D01*
X112354725Y-117997618D01*
X112412734Y-117970568D01*
X112599139Y-117840047D01*
X112760047Y-117679139D01*
X112890568Y-117492734D01*
X112986739Y-117286496D01*
X113045635Y-117066692D01*
X113065468Y-116840000D01*
X113045635Y-116613308D01*
X112986739Y-116393504D01*
X112890568Y-116187266D01*
X112760047Y-116000861D01*
X112760045Y-116000858D01*
X112599141Y-115839954D01*
X112412734Y-115709432D01*
X112412728Y-115709429D01*
X112354725Y-115682382D01*
X112302285Y-115636210D01*
X112283133Y-115569017D01*
X112303348Y-115502135D01*
X112354725Y-115457618D01*
X112412734Y-115430568D01*
X112599139Y-115300047D01*
X112760047Y-115139139D01*
X112890568Y-114952734D01*
X112986739Y-114746496D01*
X113045635Y-114526692D01*
X113065468Y-114300000D01*
X113045635Y-114073308D01*
X112986739Y-113853504D01*
X112890568Y-113647266D01*
X112760047Y-113460861D01*
X112760045Y-113460858D01*
X112599141Y-113299954D01*
X112412734Y-113169432D01*
X112412728Y-113169429D01*
X112354725Y-113142382D01*
X112302285Y-113096210D01*
X112283133Y-113029017D01*
X112303348Y-112962135D01*
X112354725Y-112917618D01*
X112412734Y-112890568D01*
X112599139Y-112760047D01*
X112760047Y-112599139D01*
X112890568Y-112412734D01*
X112986739Y-112206496D01*
X113045635Y-111986692D01*
X113065468Y-111760000D01*
X113045635Y-111533308D01*
X112986739Y-111313504D01*
X112890568Y-111107266D01*
X112760047Y-110920861D01*
X112760045Y-110920858D01*
X112599141Y-110759954D01*
X112412734Y-110629432D01*
X112412728Y-110629429D01*
X112354725Y-110602382D01*
X112302285Y-110556210D01*
X112283133Y-110489017D01*
X112303348Y-110422135D01*
X112354725Y-110377618D01*
X112412734Y-110350568D01*
X112599139Y-110220047D01*
X112760047Y-110059139D01*
X112890568Y-109872734D01*
X112986739Y-109666496D01*
X113045635Y-109446692D01*
X113065468Y-109220000D01*
X113045635Y-108993308D01*
X112986739Y-108773504D01*
X112890568Y-108567266D01*
X112760047Y-108380861D01*
X112760045Y-108380858D01*
X112599141Y-108219954D01*
X112412735Y-108089433D01*
X112412736Y-108089433D01*
X112412734Y-108089432D01*
X112354722Y-108062380D01*
X112302284Y-108016208D01*
X112283133Y-107949014D01*
X112303349Y-107882133D01*
X112354721Y-107837619D01*
X112412734Y-107810568D01*
X112599139Y-107680047D01*
X112760047Y-107519139D01*
X112890568Y-107332734D01*
X112986739Y-107126496D01*
X113045635Y-106906692D01*
X113065468Y-106680000D01*
X113045635Y-106453308D01*
X112986739Y-106233504D01*
X112890568Y-106027266D01*
X112760047Y-105840861D01*
X112760045Y-105840858D01*
X112599141Y-105679954D01*
X112412735Y-105549433D01*
X112412736Y-105549433D01*
X112412734Y-105549432D01*
X112354722Y-105522380D01*
X112302284Y-105476208D01*
X112283133Y-105409014D01*
X112303349Y-105342133D01*
X112354721Y-105297619D01*
X112412734Y-105270568D01*
X112599139Y-105140047D01*
X112760047Y-104979139D01*
X112890568Y-104792734D01*
X112986739Y-104586496D01*
X113045635Y-104366692D01*
X113065468Y-104140000D01*
X113045635Y-103913308D01*
X112986739Y-103693504D01*
X112890568Y-103487266D01*
X112760047Y-103300861D01*
X112760045Y-103300858D01*
X112599141Y-103139954D01*
X112412735Y-103009433D01*
X112412736Y-103009433D01*
X112412734Y-103009432D01*
X112354722Y-102982380D01*
X112302284Y-102936208D01*
X112283133Y-102869014D01*
X112303349Y-102802133D01*
X112354721Y-102757619D01*
X112412734Y-102730568D01*
X112599139Y-102600047D01*
X112760047Y-102439139D01*
X112890568Y-102252734D01*
X112986739Y-102046496D01*
X113045635Y-101826692D01*
X113065468Y-101600000D01*
X113045635Y-101373308D01*
X112986739Y-101153504D01*
X112890568Y-100947266D01*
X112760047Y-100760861D01*
X112760045Y-100760858D01*
X112599141Y-100599954D01*
X112412734Y-100469432D01*
X112412728Y-100469429D01*
X112354725Y-100442382D01*
X112302285Y-100396210D01*
X112283133Y-100329017D01*
X112303348Y-100262135D01*
X112354725Y-100217618D01*
X112412734Y-100190568D01*
X112599139Y-100060047D01*
X112760047Y-99899139D01*
X112890568Y-99712734D01*
X112986739Y-99506496D01*
X113045635Y-99286692D01*
X113065468Y-99060000D01*
X113045635Y-98833308D01*
X112986739Y-98613504D01*
X112890568Y-98407266D01*
X112760047Y-98220861D01*
X112760045Y-98220858D01*
X112599141Y-98059954D01*
X112412734Y-97929432D01*
X112412732Y-97929431D01*
X112401275Y-97924088D01*
X112354132Y-97902105D01*
X112301694Y-97855934D01*
X112282542Y-97788740D01*
X112302758Y-97721859D01*
X112354134Y-97677341D01*
X112412484Y-97650132D01*
X112598820Y-97519657D01*
X112759657Y-97358820D01*
X112890134Y-97172482D01*
X112986265Y-96966326D01*
X112986269Y-96966317D01*
X113038872Y-96770000D01*
X112270576Y-96770000D01*
X112203537Y-96750315D01*
X112157782Y-96697511D01*
X112147838Y-96628353D01*
X112148103Y-96626603D01*
X112164986Y-96520003D01*
X112164986Y-96519996D01*
X112148103Y-96413397D01*
X112157058Y-96344104D01*
X112202054Y-96290652D01*
X112268806Y-96270013D01*
X112270576Y-96270000D01*
X113038872Y-96270000D01*
X113038872Y-96269999D01*
X112986269Y-96073682D01*
X112986265Y-96073673D01*
X112890134Y-95867517D01*
X112759657Y-95681179D01*
X112598820Y-95520342D01*
X112412482Y-95389865D01*
X112354133Y-95362657D01*
X112301694Y-95316484D01*
X112282542Y-95249291D01*
X112302758Y-95182410D01*
X112354129Y-95137895D01*
X112412734Y-95110568D01*
X112599139Y-94980047D01*
X112760047Y-94819139D01*
X112890568Y-94632734D01*
X112986739Y-94426496D01*
X113045635Y-94206692D01*
X113065468Y-93980000D01*
X113045635Y-93753308D01*
X112986739Y-93533504D01*
X112976666Y-93511904D01*
X112966175Y-93442827D01*
X112994695Y-93379043D01*
X113053171Y-93340804D01*
X113089049Y-93335500D01*
X115894548Y-93335500D01*
X115961587Y-93355185D01*
X115982229Y-93371819D01*
X116974197Y-94363788D01*
X116984022Y-94376051D01*
X116984243Y-94375869D01*
X116989214Y-94381878D01*
X117015217Y-94406295D01*
X117039635Y-94429226D01*
X117060529Y-94450120D01*
X117066011Y-94454373D01*
X117070443Y-94458157D01*
X117104418Y-94490062D01*
X117121976Y-94499714D01*
X117138235Y-94510395D01*
X117154064Y-94522673D01*
X117196838Y-94541182D01*
X117202056Y-94543738D01*
X117242908Y-94566197D01*
X117262316Y-94571180D01*
X117280717Y-94577480D01*
X117299104Y-94585437D01*
X117342488Y-94592308D01*
X117345119Y-94592725D01*
X117350839Y-94593909D01*
X117395981Y-94605500D01*
X117416016Y-94605500D01*
X117435414Y-94607026D01*
X117455194Y-94610159D01*
X117455195Y-94610160D01*
X117455195Y-94610159D01*
X117455196Y-94610160D01*
X117501583Y-94605775D01*
X117507422Y-94605500D01*
X121975812Y-94605500D01*
X122042851Y-94625185D01*
X122077387Y-94658377D01*
X122189954Y-94819141D01*
X122350858Y-94980045D01*
X122350861Y-94980047D01*
X122537266Y-95110568D01*
X122595865Y-95137893D01*
X122648305Y-95184065D01*
X122667457Y-95251258D01*
X122647242Y-95318139D01*
X122595867Y-95362657D01*
X122537515Y-95389867D01*
X122351179Y-95520342D01*
X122190342Y-95681179D01*
X122059865Y-95867517D01*
X121963734Y-96073673D01*
X121963730Y-96073682D01*
X121911127Y-96269999D01*
X121911128Y-96270000D01*
X122679424Y-96270000D01*
X122746463Y-96289685D01*
X122792218Y-96342489D01*
X122802162Y-96411647D01*
X122801897Y-96413397D01*
X122785014Y-96519996D01*
X122785014Y-96520003D01*
X122801897Y-96626603D01*
X122792942Y-96695896D01*
X122747946Y-96749348D01*
X122681194Y-96769987D01*
X122679424Y-96770000D01*
X121911128Y-96770000D01*
X121963730Y-96966317D01*
X121963734Y-96966326D01*
X122059865Y-97172482D01*
X122190342Y-97358820D01*
X122351179Y-97519657D01*
X122537518Y-97650134D01*
X122537520Y-97650135D01*
X122595865Y-97677342D01*
X122648305Y-97723514D01*
X122667457Y-97790707D01*
X122647242Y-97857589D01*
X122595867Y-97902105D01*
X122537268Y-97929431D01*
X122537264Y-97929433D01*
X122350858Y-98059954D01*
X122189954Y-98220858D01*
X122059432Y-98407265D01*
X122059431Y-98407267D01*
X121963261Y-98613502D01*
X121963258Y-98613511D01*
X121904366Y-98833302D01*
X121904364Y-98833313D01*
X121884532Y-99059998D01*
X121884532Y-99060001D01*
X121904364Y-99286686D01*
X121904366Y-99286697D01*
X121963258Y-99506488D01*
X121963261Y-99506497D01*
X122059431Y-99712732D01*
X122059432Y-99712734D01*
X122189954Y-99899141D01*
X122350858Y-100060045D01*
X122350861Y-100060047D01*
X122537266Y-100190568D01*
X122595275Y-100217618D01*
X122647714Y-100263791D01*
X122666866Y-100330984D01*
X122646650Y-100397865D01*
X122595275Y-100442382D01*
X122537267Y-100469431D01*
X122537265Y-100469432D01*
X122350858Y-100599954D01*
X122189954Y-100760858D01*
X122059432Y-100947265D01*
X122059431Y-100947267D01*
X121963261Y-101153502D01*
X121963258Y-101153511D01*
X121904366Y-101373302D01*
X121904364Y-101373313D01*
X121884532Y-101599998D01*
X121884532Y-101600001D01*
X121904364Y-101826686D01*
X121904366Y-101826697D01*
X121963258Y-102046488D01*
X121963261Y-102046497D01*
X122059431Y-102252732D01*
X122059432Y-102252734D01*
X122189954Y-102439141D01*
X122350858Y-102600045D01*
X122350861Y-102600047D01*
X122537266Y-102730568D01*
X122595275Y-102757618D01*
X122647714Y-102803791D01*
X122666866Y-102870984D01*
X122646650Y-102937865D01*
X122595275Y-102982382D01*
X122537267Y-103009431D01*
X122537265Y-103009432D01*
X122350858Y-103139954D01*
X122189954Y-103300858D01*
X122059432Y-103487265D01*
X122059431Y-103487267D01*
X121963261Y-103693502D01*
X121963258Y-103693511D01*
X121904366Y-103913302D01*
X121904364Y-103913313D01*
X121884532Y-104139998D01*
X121884532Y-104140001D01*
X121904364Y-104366686D01*
X121904366Y-104366697D01*
X121963258Y-104586488D01*
X121963261Y-104586497D01*
X122059431Y-104792732D01*
X122059432Y-104792734D01*
X122189954Y-104979141D01*
X122350858Y-105140045D01*
X122350861Y-105140047D01*
X122537266Y-105270568D01*
X122595275Y-105297618D01*
X122647714Y-105343791D01*
X122666866Y-105410984D01*
X122646650Y-105477865D01*
X122595275Y-105522382D01*
X122537267Y-105549431D01*
X122537265Y-105549432D01*
X122350858Y-105679954D01*
X122189954Y-105840858D01*
X122059432Y-106027265D01*
X122059431Y-106027267D01*
X121963261Y-106233502D01*
X121963258Y-106233511D01*
X121904366Y-106453302D01*
X121904364Y-106453313D01*
X121884532Y-106679998D01*
X121884532Y-106680001D01*
X121904364Y-106906686D01*
X121904366Y-106906697D01*
X121963258Y-107126488D01*
X121963261Y-107126497D01*
X122059431Y-107332732D01*
X122059432Y-107332734D01*
X122189954Y-107519141D01*
X122350858Y-107680045D01*
X122350861Y-107680047D01*
X122537266Y-107810568D01*
X122595278Y-107837619D01*
X122647713Y-107883788D01*
X122666866Y-107950982D01*
X122646651Y-108017863D01*
X122595277Y-108062380D01*
X122537268Y-108089430D01*
X122537265Y-108089432D01*
X122350858Y-108219954D01*
X122189954Y-108380858D01*
X122059432Y-108567265D01*
X122059431Y-108567267D01*
X121963261Y-108773502D01*
X121963258Y-108773511D01*
X121904366Y-108993302D01*
X121904364Y-108993313D01*
X121884532Y-109219998D01*
X121884532Y-109220001D01*
X121904364Y-109446686D01*
X121904366Y-109446697D01*
X121963258Y-109666488D01*
X121963261Y-109666497D01*
X122059431Y-109872732D01*
X122059432Y-109872734D01*
X122189954Y-110059141D01*
X122350858Y-110220045D01*
X122350861Y-110220047D01*
X122537266Y-110350568D01*
X122595275Y-110377618D01*
X122647714Y-110423791D01*
X122666866Y-110490984D01*
X122646650Y-110557865D01*
X122595275Y-110602382D01*
X122537267Y-110629431D01*
X122537265Y-110629432D01*
X122350858Y-110759954D01*
X122189954Y-110920858D01*
X122059432Y-111107265D01*
X122059431Y-111107267D01*
X121963261Y-111313502D01*
X121963258Y-111313511D01*
X121904366Y-111533302D01*
X121904364Y-111533313D01*
X121884532Y-111759998D01*
X121884532Y-111760001D01*
X121904364Y-111986686D01*
X121904366Y-111986697D01*
X121963258Y-112206488D01*
X121963261Y-112206497D01*
X122059431Y-112412732D01*
X122059432Y-112412734D01*
X122189954Y-112599141D01*
X122350858Y-112760045D01*
X122350861Y-112760047D01*
X122537266Y-112890568D01*
X122595275Y-112917618D01*
X122647714Y-112963791D01*
X122666866Y-113030984D01*
X122646650Y-113097865D01*
X122595275Y-113142382D01*
X122537267Y-113169431D01*
X122537265Y-113169432D01*
X122350858Y-113299954D01*
X122189954Y-113460858D01*
X122059432Y-113647265D01*
X122059431Y-113647267D01*
X121963261Y-113853502D01*
X121963258Y-113853511D01*
X121904366Y-114073302D01*
X121904364Y-114073313D01*
X121884532Y-114299998D01*
X121884532Y-114300001D01*
X121904364Y-114526686D01*
X121904366Y-114526697D01*
X121963258Y-114746488D01*
X121963261Y-114746497D01*
X122059431Y-114952732D01*
X122059432Y-114952734D01*
X122189954Y-115139141D01*
X122350858Y-115300045D01*
X122350861Y-115300047D01*
X122537266Y-115430568D01*
X122595275Y-115457618D01*
X122647714Y-115503791D01*
X122666866Y-115570984D01*
X122646650Y-115637865D01*
X122595275Y-115682382D01*
X122537267Y-115709431D01*
X122537265Y-115709432D01*
X122350858Y-115839954D01*
X122189954Y-116000858D01*
X122059432Y-116187265D01*
X122059431Y-116187267D01*
X121963261Y-116393502D01*
X121963258Y-116393511D01*
X121904366Y-116613302D01*
X121904364Y-116613313D01*
X121884532Y-116839998D01*
X121884532Y-116840001D01*
X121904364Y-117066686D01*
X121904366Y-117066697D01*
X121963258Y-117286488D01*
X121963261Y-117286497D01*
X122059431Y-117492732D01*
X122059432Y-117492734D01*
X122189954Y-117679141D01*
X122350858Y-117840045D01*
X122350861Y-117840047D01*
X122537266Y-117970568D01*
X122595275Y-117997618D01*
X122647714Y-118043791D01*
X122666866Y-118110984D01*
X122646650Y-118177865D01*
X122595275Y-118222382D01*
X122537267Y-118249431D01*
X122537265Y-118249432D01*
X122350858Y-118379954D01*
X122189954Y-118540858D01*
X122059432Y-118727265D01*
X122059431Y-118727267D01*
X121963261Y-118933502D01*
X121963258Y-118933511D01*
X121904366Y-119153302D01*
X121904364Y-119153313D01*
X121884532Y-119379998D01*
X121884532Y-119380001D01*
X121904364Y-119606686D01*
X121904366Y-119606697D01*
X121963258Y-119826488D01*
X121963261Y-119826497D01*
X122059431Y-120032732D01*
X122059432Y-120032734D01*
X122189954Y-120219141D01*
X122350858Y-120380045D01*
X122350861Y-120380047D01*
X122537266Y-120510568D01*
X122743504Y-120606739D01*
X122963308Y-120665635D01*
X123125230Y-120679801D01*
X123189998Y-120685468D01*
X123190000Y-120685468D01*
X123190002Y-120685468D01*
X123246673Y-120680509D01*
X123416692Y-120665635D01*
X123636496Y-120606739D01*
X123842734Y-120510568D01*
X124029139Y-120380047D01*
X124190047Y-120219139D01*
X124320568Y-120032734D01*
X124416739Y-119826496D01*
X124475635Y-119606692D01*
X124495468Y-119380000D01*
X124475635Y-119153308D01*
X124416739Y-118933504D01*
X124320568Y-118727266D01*
X124190047Y-118540861D01*
X124190045Y-118540858D01*
X124029141Y-118379954D01*
X123842734Y-118249432D01*
X123842728Y-118249429D01*
X123784725Y-118222382D01*
X123732285Y-118176210D01*
X123713133Y-118109017D01*
X123733348Y-118042135D01*
X123784725Y-117997618D01*
X123842734Y-117970568D01*
X124029139Y-117840047D01*
X124190047Y-117679139D01*
X124320568Y-117492734D01*
X124416739Y-117286496D01*
X124475635Y-117066692D01*
X124495468Y-116840000D01*
X124475635Y-116613308D01*
X124416739Y-116393504D01*
X124320568Y-116187266D01*
X124190047Y-116000861D01*
X124190045Y-116000858D01*
X124029141Y-115839954D01*
X123842734Y-115709432D01*
X123842728Y-115709429D01*
X123784725Y-115682382D01*
X123732285Y-115636210D01*
X123713133Y-115569017D01*
X123733348Y-115502135D01*
X123784725Y-115457618D01*
X123842734Y-115430568D01*
X124029139Y-115300047D01*
X124190047Y-115139139D01*
X124320568Y-114952734D01*
X124416739Y-114746496D01*
X124475635Y-114526692D01*
X124495468Y-114300000D01*
X124475635Y-114073308D01*
X124416739Y-113853504D01*
X124320568Y-113647266D01*
X124190047Y-113460861D01*
X124190045Y-113460858D01*
X124029141Y-113299954D01*
X123842734Y-113169432D01*
X123842728Y-113169429D01*
X123784725Y-113142382D01*
X123732285Y-113096210D01*
X123713133Y-113029017D01*
X123733348Y-112962135D01*
X123784725Y-112917618D01*
X123842734Y-112890568D01*
X124029139Y-112760047D01*
X124190047Y-112599139D01*
X124320568Y-112412734D01*
X124416739Y-112206496D01*
X124475635Y-111986692D01*
X124495468Y-111760000D01*
X124475635Y-111533308D01*
X124416739Y-111313504D01*
X124320568Y-111107266D01*
X124190047Y-110920861D01*
X124190045Y-110920858D01*
X124029141Y-110759954D01*
X123842734Y-110629432D01*
X123842728Y-110629429D01*
X123784725Y-110602382D01*
X123732285Y-110556210D01*
X123713133Y-110489017D01*
X123733348Y-110422135D01*
X123784725Y-110377618D01*
X123842734Y-110350568D01*
X124029139Y-110220047D01*
X124190047Y-110059139D01*
X124320568Y-109872734D01*
X124416739Y-109666496D01*
X124475635Y-109446692D01*
X124495468Y-109220000D01*
X124475635Y-108993308D01*
X124416739Y-108773504D01*
X124320568Y-108567266D01*
X124190047Y-108380861D01*
X124190045Y-108380858D01*
X124029141Y-108219954D01*
X123842735Y-108089433D01*
X123842736Y-108089433D01*
X123842734Y-108089432D01*
X123784722Y-108062380D01*
X123732284Y-108016208D01*
X123713133Y-107949014D01*
X123733349Y-107882133D01*
X123784721Y-107837619D01*
X123842734Y-107810568D01*
X124029139Y-107680047D01*
X124190047Y-107519139D01*
X124320568Y-107332734D01*
X124416739Y-107126496D01*
X124475635Y-106906692D01*
X124495468Y-106680000D01*
X124475635Y-106453308D01*
X124416739Y-106233504D01*
X124320568Y-106027266D01*
X124190047Y-105840861D01*
X124190045Y-105840858D01*
X124029141Y-105679954D01*
X123842734Y-105549432D01*
X123842728Y-105549429D01*
X123784725Y-105522382D01*
X123732285Y-105476210D01*
X123713133Y-105409017D01*
X123733348Y-105342135D01*
X123784725Y-105297618D01*
X123842734Y-105270568D01*
X124029139Y-105140047D01*
X124190047Y-104979139D01*
X124320568Y-104792734D01*
X124416739Y-104586496D01*
X124475635Y-104366692D01*
X124495468Y-104140000D01*
X124475635Y-103913308D01*
X124416739Y-103693504D01*
X124320568Y-103487266D01*
X124190047Y-103300861D01*
X124190045Y-103300858D01*
X124029141Y-103139954D01*
X123842734Y-103009432D01*
X123842728Y-103009429D01*
X123784725Y-102982382D01*
X123732285Y-102936210D01*
X123713133Y-102869017D01*
X123733348Y-102802135D01*
X123784725Y-102757618D01*
X123842734Y-102730568D01*
X124029139Y-102600047D01*
X124190047Y-102439139D01*
X124320568Y-102252734D01*
X124416739Y-102046496D01*
X124475635Y-101826692D01*
X124495468Y-101600000D01*
X124475635Y-101373308D01*
X124416739Y-101153504D01*
X124320568Y-100947266D01*
X124190047Y-100760861D01*
X124190045Y-100760858D01*
X124029141Y-100599954D01*
X123842734Y-100469432D01*
X123842728Y-100469429D01*
X123784725Y-100442382D01*
X123732285Y-100396210D01*
X123713133Y-100329017D01*
X123733348Y-100262135D01*
X123784725Y-100217618D01*
X123842734Y-100190568D01*
X124029139Y-100060047D01*
X124190047Y-99899139D01*
X124320568Y-99712734D01*
X124416739Y-99506496D01*
X124475635Y-99286692D01*
X124495468Y-99060000D01*
X124475635Y-98833308D01*
X124416739Y-98613504D01*
X124320568Y-98407266D01*
X124190047Y-98220861D01*
X124190045Y-98220858D01*
X124029141Y-98059954D01*
X123842734Y-97929432D01*
X123842732Y-97929431D01*
X123831275Y-97924088D01*
X123784132Y-97902105D01*
X123731694Y-97855934D01*
X123712542Y-97788740D01*
X123732758Y-97721859D01*
X123784134Y-97677341D01*
X123842484Y-97650132D01*
X124028820Y-97519657D01*
X124189657Y-97358820D01*
X124320134Y-97172482D01*
X124416265Y-96966326D01*
X124416269Y-96966317D01*
X124468872Y-96770000D01*
X123700576Y-96770000D01*
X123633537Y-96750315D01*
X123587782Y-96697511D01*
X123577838Y-96628353D01*
X123578103Y-96626603D01*
X123594986Y-96520003D01*
X123594986Y-96519996D01*
X123578103Y-96413397D01*
X123587058Y-96344104D01*
X123632054Y-96290652D01*
X123698806Y-96270013D01*
X123700576Y-96270000D01*
X124468872Y-96270000D01*
X124468872Y-96269999D01*
X124416269Y-96073682D01*
X124416265Y-96073673D01*
X124320134Y-95867517D01*
X124189657Y-95681179D01*
X124028820Y-95520342D01*
X123842482Y-95389865D01*
X123784133Y-95362657D01*
X123731694Y-95316484D01*
X123712542Y-95249291D01*
X123732758Y-95182410D01*
X123784129Y-95137895D01*
X123842734Y-95110568D01*
X124029139Y-94980047D01*
X124190047Y-94819139D01*
X124320568Y-94632734D01*
X124416739Y-94426496D01*
X124475635Y-94206692D01*
X124495468Y-93980000D01*
X124475635Y-93753308D01*
X124416739Y-93533504D01*
X124406666Y-93511904D01*
X124396175Y-93442827D01*
X124424695Y-93379043D01*
X124483171Y-93340804D01*
X124519049Y-93335500D01*
X126054548Y-93335500D01*
X126121587Y-93355185D01*
X126142229Y-93371819D01*
X127134197Y-94363788D01*
X127144022Y-94376051D01*
X127144243Y-94375869D01*
X127149214Y-94381878D01*
X127175217Y-94406295D01*
X127199635Y-94429226D01*
X127220529Y-94450120D01*
X127226011Y-94454373D01*
X127230443Y-94458157D01*
X127264418Y-94490062D01*
X127281976Y-94499714D01*
X127298235Y-94510395D01*
X127314064Y-94522673D01*
X127356838Y-94541182D01*
X127362056Y-94543738D01*
X127402908Y-94566197D01*
X127422316Y-94571180D01*
X127440717Y-94577480D01*
X127459104Y-94585437D01*
X127502488Y-94592308D01*
X127505119Y-94592725D01*
X127510839Y-94593909D01*
X127555981Y-94605500D01*
X127576016Y-94605500D01*
X127595414Y-94607026D01*
X127615194Y-94610159D01*
X127615195Y-94610160D01*
X127615195Y-94610159D01*
X127615196Y-94610160D01*
X127661583Y-94605775D01*
X127667422Y-94605500D01*
X137215812Y-94605500D01*
X137282851Y-94625185D01*
X137317387Y-94658377D01*
X137429954Y-94819141D01*
X137590858Y-94980045D01*
X137590861Y-94980047D01*
X137777266Y-95110568D01*
X137835865Y-95137893D01*
X137888305Y-95184065D01*
X137907457Y-95251258D01*
X137887242Y-95318139D01*
X137835867Y-95362657D01*
X137777515Y-95389867D01*
X137591179Y-95520342D01*
X137430342Y-95681179D01*
X137299865Y-95867517D01*
X137203734Y-96073673D01*
X137203730Y-96073682D01*
X137151127Y-96269999D01*
X137151128Y-96270000D01*
X137919424Y-96270000D01*
X137986463Y-96289685D01*
X138032218Y-96342489D01*
X138042162Y-96411647D01*
X138041897Y-96413397D01*
X138025014Y-96519996D01*
X138025014Y-96520003D01*
X138041897Y-96626603D01*
X138032942Y-96695896D01*
X137987946Y-96749348D01*
X137921194Y-96769987D01*
X137919424Y-96770000D01*
X137151128Y-96770000D01*
X137203730Y-96966317D01*
X137203734Y-96966326D01*
X137299865Y-97172482D01*
X137430342Y-97358820D01*
X137591179Y-97519657D01*
X137777518Y-97650134D01*
X137777520Y-97650135D01*
X137835865Y-97677342D01*
X137888305Y-97723514D01*
X137907457Y-97790707D01*
X137887242Y-97857589D01*
X137835867Y-97902105D01*
X137777268Y-97929431D01*
X137777264Y-97929433D01*
X137590858Y-98059954D01*
X137429954Y-98220858D01*
X137299432Y-98407265D01*
X137299431Y-98407267D01*
X137203261Y-98613502D01*
X137203258Y-98613511D01*
X137144366Y-98833302D01*
X137144364Y-98833313D01*
X137124532Y-99059998D01*
X137124532Y-99060001D01*
X137144364Y-99286686D01*
X137144366Y-99286697D01*
X137203258Y-99506488D01*
X137203261Y-99506497D01*
X137299431Y-99712732D01*
X137299432Y-99712734D01*
X137429954Y-99899141D01*
X137590858Y-100060045D01*
X137590861Y-100060047D01*
X137777266Y-100190568D01*
X137835275Y-100217618D01*
X137887714Y-100263791D01*
X137906866Y-100330984D01*
X137886650Y-100397865D01*
X137835275Y-100442382D01*
X137777267Y-100469431D01*
X137777265Y-100469432D01*
X137590858Y-100599954D01*
X137429954Y-100760858D01*
X137299432Y-100947265D01*
X137299431Y-100947267D01*
X137203261Y-101153502D01*
X137203258Y-101153511D01*
X137144366Y-101373302D01*
X137144364Y-101373313D01*
X137124532Y-101599998D01*
X137124532Y-101600001D01*
X137144364Y-101826686D01*
X137144366Y-101826697D01*
X137203258Y-102046488D01*
X137203261Y-102046497D01*
X137299431Y-102252732D01*
X137299432Y-102252734D01*
X137429954Y-102439141D01*
X137590858Y-102600045D01*
X137590861Y-102600047D01*
X137777266Y-102730568D01*
X137835275Y-102757618D01*
X137887714Y-102803791D01*
X137906866Y-102870984D01*
X137886650Y-102937865D01*
X137835275Y-102982382D01*
X137777267Y-103009431D01*
X137777265Y-103009432D01*
X137590858Y-103139954D01*
X137429954Y-103300858D01*
X137299432Y-103487265D01*
X137299431Y-103487267D01*
X137203261Y-103693502D01*
X137203258Y-103693511D01*
X137144366Y-103913302D01*
X137144364Y-103913313D01*
X137124532Y-104139998D01*
X137124532Y-104140001D01*
X137144364Y-104366686D01*
X137144366Y-104366697D01*
X137203258Y-104586488D01*
X137203261Y-104586497D01*
X137299431Y-104792732D01*
X137299432Y-104792734D01*
X137429954Y-104979141D01*
X137590858Y-105140045D01*
X137590861Y-105140047D01*
X137777266Y-105270568D01*
X137835275Y-105297618D01*
X137887714Y-105343791D01*
X137906866Y-105410984D01*
X137886650Y-105477865D01*
X137835275Y-105522382D01*
X137777267Y-105549431D01*
X137777265Y-105549432D01*
X137590858Y-105679954D01*
X137429954Y-105840858D01*
X137299432Y-106027265D01*
X137299431Y-106027267D01*
X137203261Y-106233502D01*
X137203258Y-106233511D01*
X137144366Y-106453302D01*
X137144364Y-106453313D01*
X137124532Y-106679998D01*
X137124532Y-106680001D01*
X137144364Y-106906686D01*
X137144366Y-106906697D01*
X137203258Y-107126488D01*
X137203261Y-107126497D01*
X137299431Y-107332732D01*
X137299432Y-107332734D01*
X137429954Y-107519141D01*
X137590858Y-107680045D01*
X137590861Y-107680047D01*
X137777266Y-107810568D01*
X137835278Y-107837619D01*
X137887713Y-107883788D01*
X137906866Y-107950982D01*
X137886651Y-108017863D01*
X137835277Y-108062380D01*
X137777268Y-108089430D01*
X137777265Y-108089432D01*
X137590858Y-108219954D01*
X137429954Y-108380858D01*
X137299432Y-108567265D01*
X137299431Y-108567267D01*
X137203261Y-108773502D01*
X137203258Y-108773511D01*
X137144366Y-108993302D01*
X137144364Y-108993313D01*
X137124532Y-109219998D01*
X137124532Y-109220001D01*
X137144364Y-109446686D01*
X137144366Y-109446697D01*
X137203258Y-109666488D01*
X137203261Y-109666497D01*
X137299431Y-109872732D01*
X137299432Y-109872734D01*
X137429954Y-110059141D01*
X137590858Y-110220045D01*
X137590861Y-110220047D01*
X137777266Y-110350568D01*
X137835275Y-110377618D01*
X137887714Y-110423791D01*
X137906866Y-110490984D01*
X137886650Y-110557865D01*
X137835275Y-110602382D01*
X137777267Y-110629431D01*
X137777265Y-110629432D01*
X137590858Y-110759954D01*
X137429954Y-110920858D01*
X137299432Y-111107265D01*
X137299431Y-111107267D01*
X137203261Y-111313502D01*
X137203258Y-111313511D01*
X137144366Y-111533302D01*
X137144364Y-111533313D01*
X137124532Y-111759998D01*
X137124532Y-111760001D01*
X137144364Y-111986686D01*
X137144366Y-111986697D01*
X137203258Y-112206488D01*
X137203261Y-112206497D01*
X137299431Y-112412732D01*
X137299432Y-112412734D01*
X137429954Y-112599141D01*
X137590858Y-112760045D01*
X137590861Y-112760047D01*
X137777266Y-112890568D01*
X137835275Y-112917618D01*
X137887714Y-112963791D01*
X137906866Y-113030984D01*
X137886650Y-113097865D01*
X137835275Y-113142382D01*
X137777267Y-113169431D01*
X137777265Y-113169432D01*
X137590858Y-113299954D01*
X137429954Y-113460858D01*
X137299432Y-113647265D01*
X137299431Y-113647267D01*
X137203261Y-113853502D01*
X137203258Y-113853511D01*
X137144366Y-114073302D01*
X137144364Y-114073313D01*
X137124532Y-114299998D01*
X137124532Y-114300001D01*
X137144364Y-114526686D01*
X137144366Y-114526697D01*
X137203258Y-114746488D01*
X137203261Y-114746497D01*
X137299431Y-114952732D01*
X137299432Y-114952734D01*
X137429954Y-115139141D01*
X137590858Y-115300045D01*
X137590861Y-115300047D01*
X137777266Y-115430568D01*
X137835275Y-115457618D01*
X137887714Y-115503791D01*
X137906866Y-115570984D01*
X137886650Y-115637865D01*
X137835275Y-115682382D01*
X137777267Y-115709431D01*
X137777265Y-115709432D01*
X137590858Y-115839954D01*
X137429954Y-116000858D01*
X137299432Y-116187265D01*
X137299431Y-116187267D01*
X137203261Y-116393502D01*
X137203258Y-116393511D01*
X137144366Y-116613302D01*
X137144364Y-116613313D01*
X137124532Y-116839998D01*
X137124532Y-116840001D01*
X137144364Y-117066686D01*
X137144366Y-117066697D01*
X137203258Y-117286488D01*
X137203261Y-117286497D01*
X137299431Y-117492732D01*
X137299432Y-117492734D01*
X137429954Y-117679141D01*
X137590858Y-117840045D01*
X137590861Y-117840047D01*
X137777266Y-117970568D01*
X137835275Y-117997618D01*
X137887714Y-118043791D01*
X137906866Y-118110984D01*
X137886650Y-118177865D01*
X137835275Y-118222382D01*
X137777267Y-118249431D01*
X137777265Y-118249432D01*
X137590858Y-118379954D01*
X137429954Y-118540858D01*
X137299432Y-118727265D01*
X137299431Y-118727267D01*
X137203261Y-118933502D01*
X137203258Y-118933511D01*
X137144366Y-119153302D01*
X137144364Y-119153313D01*
X137124532Y-119379998D01*
X137124532Y-119380001D01*
X137144364Y-119606686D01*
X137144366Y-119606697D01*
X137203258Y-119826488D01*
X137203261Y-119826497D01*
X137299431Y-120032732D01*
X137299432Y-120032734D01*
X137429954Y-120219141D01*
X137590858Y-120380045D01*
X137590861Y-120380047D01*
X137777266Y-120510568D01*
X137983504Y-120606739D01*
X138203308Y-120665635D01*
X138365230Y-120679801D01*
X138429998Y-120685468D01*
X138430000Y-120685468D01*
X138430002Y-120685468D01*
X138486672Y-120680509D01*
X138656692Y-120665635D01*
X138876496Y-120606739D01*
X139082734Y-120510568D01*
X139269139Y-120380047D01*
X139430047Y-120219139D01*
X139560568Y-120032734D01*
X139656739Y-119826496D01*
X139715635Y-119606692D01*
X139735468Y-119380000D01*
X139715635Y-119153308D01*
X139656739Y-118933504D01*
X139560568Y-118727266D01*
X139430047Y-118540861D01*
X139430045Y-118540858D01*
X139269141Y-118379954D01*
X139082734Y-118249432D01*
X139082728Y-118249429D01*
X139024725Y-118222382D01*
X138972285Y-118176210D01*
X138953133Y-118109017D01*
X138973348Y-118042135D01*
X139024725Y-117997618D01*
X139082734Y-117970568D01*
X139269139Y-117840047D01*
X139430047Y-117679139D01*
X139560568Y-117492734D01*
X139656739Y-117286496D01*
X139715635Y-117066692D01*
X139735468Y-116840000D01*
X139715635Y-116613308D01*
X139656739Y-116393504D01*
X139560568Y-116187266D01*
X139430047Y-116000861D01*
X139430045Y-116000858D01*
X139269141Y-115839954D01*
X139082734Y-115709432D01*
X139082728Y-115709429D01*
X139024725Y-115682382D01*
X138972285Y-115636210D01*
X138953133Y-115569017D01*
X138973348Y-115502135D01*
X139024725Y-115457618D01*
X139082734Y-115430568D01*
X139269139Y-115300047D01*
X139430047Y-115139139D01*
X139560568Y-114952734D01*
X139656739Y-114746496D01*
X139715635Y-114526692D01*
X139735468Y-114300000D01*
X139715635Y-114073308D01*
X139656739Y-113853504D01*
X139560568Y-113647266D01*
X139430047Y-113460861D01*
X139430045Y-113460858D01*
X139269141Y-113299954D01*
X139082734Y-113169432D01*
X139082728Y-113169429D01*
X139024725Y-113142382D01*
X138972285Y-113096210D01*
X138953133Y-113029017D01*
X138973348Y-112962135D01*
X139024725Y-112917618D01*
X139082734Y-112890568D01*
X139269139Y-112760047D01*
X139430047Y-112599139D01*
X139560568Y-112412734D01*
X139656739Y-112206496D01*
X139715635Y-111986692D01*
X139735468Y-111760000D01*
X139715635Y-111533308D01*
X139656739Y-111313504D01*
X139560568Y-111107266D01*
X139430047Y-110920861D01*
X139430045Y-110920858D01*
X139269141Y-110759954D01*
X139082734Y-110629432D01*
X139082728Y-110629429D01*
X139024725Y-110602382D01*
X138972285Y-110556210D01*
X138953133Y-110489017D01*
X138973348Y-110422135D01*
X139024725Y-110377618D01*
X139082734Y-110350568D01*
X139269139Y-110220047D01*
X139430047Y-110059139D01*
X139560568Y-109872734D01*
X139656739Y-109666496D01*
X139715635Y-109446692D01*
X139735468Y-109220000D01*
X139715635Y-108993308D01*
X139656739Y-108773504D01*
X139560568Y-108567266D01*
X139430047Y-108380861D01*
X139430045Y-108380858D01*
X139269141Y-108219954D01*
X139082735Y-108089433D01*
X139082736Y-108089433D01*
X139082734Y-108089432D01*
X139024722Y-108062380D01*
X138972284Y-108016208D01*
X138953133Y-107949014D01*
X138973349Y-107882133D01*
X139024721Y-107837619D01*
X139082734Y-107810568D01*
X139269139Y-107680047D01*
X139430047Y-107519139D01*
X139560568Y-107332734D01*
X139656739Y-107126496D01*
X139715635Y-106906692D01*
X139735468Y-106680000D01*
X139715635Y-106453308D01*
X139656739Y-106233504D01*
X139560568Y-106027266D01*
X139430047Y-105840861D01*
X139430045Y-105840858D01*
X139269141Y-105679954D01*
X139082735Y-105549433D01*
X139082736Y-105549433D01*
X139082734Y-105549432D01*
X139024722Y-105522380D01*
X138972284Y-105476208D01*
X138953133Y-105409014D01*
X138973349Y-105342133D01*
X139024721Y-105297619D01*
X139082734Y-105270568D01*
X139269139Y-105140047D01*
X139430047Y-104979139D01*
X139560568Y-104792734D01*
X139656739Y-104586496D01*
X139715635Y-104366692D01*
X139735468Y-104140000D01*
X139715635Y-103913308D01*
X139656739Y-103693504D01*
X139560568Y-103487266D01*
X139430047Y-103300861D01*
X139430045Y-103300858D01*
X139269141Y-103139954D01*
X139082735Y-103009433D01*
X139082736Y-103009433D01*
X139082734Y-103009432D01*
X139024722Y-102982380D01*
X138972284Y-102936208D01*
X138953133Y-102869014D01*
X138973349Y-102802133D01*
X139024721Y-102757619D01*
X139082734Y-102730568D01*
X139269139Y-102600047D01*
X139430047Y-102439139D01*
X139560568Y-102252734D01*
X139656739Y-102046496D01*
X139715635Y-101826692D01*
X139735468Y-101600000D01*
X139715635Y-101373308D01*
X139656739Y-101153504D01*
X139560568Y-100947266D01*
X139430047Y-100760861D01*
X139430045Y-100760858D01*
X139269141Y-100599954D01*
X139082735Y-100469433D01*
X139082736Y-100469433D01*
X139082734Y-100469432D01*
X139024722Y-100442380D01*
X138972284Y-100396208D01*
X138953133Y-100329014D01*
X138973349Y-100262133D01*
X139024721Y-100217619D01*
X139082734Y-100190568D01*
X139269139Y-100060047D01*
X139430047Y-99899139D01*
X139560568Y-99712734D01*
X139656739Y-99506496D01*
X139715635Y-99286692D01*
X139735468Y-99060000D01*
X139715635Y-98833308D01*
X139656739Y-98613504D01*
X139560568Y-98407266D01*
X139430047Y-98220861D01*
X139430045Y-98220858D01*
X139269141Y-98059954D01*
X139082734Y-97929432D01*
X139082732Y-97929431D01*
X139071275Y-97924088D01*
X139024132Y-97902105D01*
X138971694Y-97855934D01*
X138952542Y-97788740D01*
X138972758Y-97721859D01*
X139024134Y-97677341D01*
X139082484Y-97650132D01*
X139268820Y-97519657D01*
X139429657Y-97358820D01*
X139560134Y-97172482D01*
X139656265Y-96966326D01*
X139656269Y-96966317D01*
X139708872Y-96770000D01*
X138940576Y-96770000D01*
X138873537Y-96750315D01*
X138827782Y-96697511D01*
X138817838Y-96628353D01*
X138818103Y-96626603D01*
X138834986Y-96520003D01*
X138834986Y-96519996D01*
X138818103Y-96413397D01*
X138827058Y-96344104D01*
X138872054Y-96290652D01*
X138938806Y-96270013D01*
X138940576Y-96270000D01*
X139708872Y-96270000D01*
X139708872Y-96269999D01*
X139656269Y-96073682D01*
X139656265Y-96073673D01*
X139560134Y-95867517D01*
X139429657Y-95681179D01*
X139268820Y-95520342D01*
X139082482Y-95389865D01*
X139024133Y-95362657D01*
X138971694Y-95316484D01*
X138952542Y-95249291D01*
X138972758Y-95182410D01*
X139024129Y-95137895D01*
X139082734Y-95110568D01*
X139269139Y-94980047D01*
X139430047Y-94819139D01*
X139560568Y-94632734D01*
X139656739Y-94426496D01*
X139715635Y-94206692D01*
X139735468Y-93980000D01*
X139715635Y-93753308D01*
X139656739Y-93533504D01*
X139560568Y-93327266D01*
X139430047Y-93140861D01*
X139430045Y-93140858D01*
X139269141Y-92979954D01*
X139082734Y-92849432D01*
X139082728Y-92849429D01*
X139024725Y-92822382D01*
X138972285Y-92776210D01*
X138953133Y-92709017D01*
X138973348Y-92642135D01*
X139024725Y-92597618D01*
X139082734Y-92570568D01*
X139269139Y-92440047D01*
X139430047Y-92279139D01*
X139560568Y-92092734D01*
X139656739Y-91886496D01*
X139715635Y-91666692D01*
X139735468Y-91440000D01*
X139715635Y-91213308D01*
X139656739Y-90993504D01*
X139560568Y-90787266D01*
X139430047Y-90600861D01*
X139430045Y-90600858D01*
X139269141Y-90439954D01*
X139082734Y-90309432D01*
X139082728Y-90309429D01*
X139024725Y-90282382D01*
X138972285Y-90236210D01*
X138953133Y-90169017D01*
X138973348Y-90102135D01*
X139024725Y-90057618D01*
X139082734Y-90030568D01*
X139269139Y-89900047D01*
X139430047Y-89739139D01*
X139560568Y-89552734D01*
X139656739Y-89346496D01*
X139715635Y-89126692D01*
X139735468Y-88900000D01*
X139715635Y-88673308D01*
X139656739Y-88453504D01*
X139560568Y-88247266D01*
X139430047Y-88060861D01*
X139430045Y-88060858D01*
X139269141Y-87899954D01*
X139082734Y-87769432D01*
X139082728Y-87769429D01*
X139024725Y-87742382D01*
X138972285Y-87696210D01*
X138953133Y-87629017D01*
X138973348Y-87562135D01*
X139024725Y-87517618D01*
X139082734Y-87490568D01*
X139269139Y-87360047D01*
X139430047Y-87199139D01*
X139560568Y-87012734D01*
X139656739Y-86806496D01*
X139715635Y-86586692D01*
X139735468Y-86360000D01*
X139733916Y-86342266D01*
X139717608Y-86155861D01*
X139715635Y-86133308D01*
X139656739Y-85913504D01*
X139560568Y-85707266D01*
X139430047Y-85520861D01*
X139430045Y-85520858D01*
X139269141Y-85359954D01*
X139082734Y-85229432D01*
X139082728Y-85229429D01*
X139024725Y-85202382D01*
X138972285Y-85156210D01*
X138953133Y-85089017D01*
X138973348Y-85022135D01*
X139024725Y-84977618D01*
X139082734Y-84950568D01*
X139269139Y-84820047D01*
X139430047Y-84659139D01*
X139560568Y-84472734D01*
X139656739Y-84266496D01*
X139715635Y-84046692D01*
X139735468Y-83820000D01*
X139715635Y-83593308D01*
X139656739Y-83373504D01*
X139560568Y-83167266D01*
X139430047Y-82980861D01*
X139430045Y-82980858D01*
X139269141Y-82819954D01*
X139082734Y-82689432D01*
X139082728Y-82689429D01*
X139024725Y-82662382D01*
X138972285Y-82616210D01*
X138953133Y-82549017D01*
X138973348Y-82482135D01*
X139024725Y-82437618D01*
X139082734Y-82410568D01*
X139269139Y-82280047D01*
X139430047Y-82119139D01*
X139560568Y-81932734D01*
X139656739Y-81726496D01*
X139715635Y-81506692D01*
X139735468Y-81280000D01*
X139715635Y-81053308D01*
X139656739Y-80833504D01*
X139560568Y-80627266D01*
X139430047Y-80440861D01*
X139430045Y-80440858D01*
X139269141Y-80279954D01*
X139082734Y-80149432D01*
X139082728Y-80149429D01*
X139024725Y-80122382D01*
X138972285Y-80076210D01*
X138953133Y-80009017D01*
X138973348Y-79942135D01*
X139024725Y-79897618D01*
X139082734Y-79870568D01*
X139269139Y-79740047D01*
X139430047Y-79579139D01*
X139560568Y-79392734D01*
X139656739Y-79186496D01*
X139715635Y-78966692D01*
X139732634Y-78772384D01*
X139735468Y-78740001D01*
X139735468Y-78739998D01*
X139715635Y-78513313D01*
X139715635Y-78513308D01*
X139656739Y-78293504D01*
X139560568Y-78087266D01*
X139430047Y-77900861D01*
X139430045Y-77900858D01*
X139269141Y-77739954D01*
X139082734Y-77609432D01*
X139082728Y-77609429D01*
X139024725Y-77582382D01*
X138972285Y-77536210D01*
X138953133Y-77469017D01*
X138973348Y-77402135D01*
X139024725Y-77357618D01*
X139082734Y-77330568D01*
X139269139Y-77200047D01*
X139430047Y-77039139D01*
X139560568Y-76852734D01*
X139656739Y-76646496D01*
X139715635Y-76426692D01*
X139735468Y-76200000D01*
X139715635Y-75973308D01*
X139656739Y-75753504D01*
X139560568Y-75547266D01*
X139430047Y-75360861D01*
X139430045Y-75360858D01*
X139269141Y-75199954D01*
X139082734Y-75069432D01*
X139082728Y-75069429D01*
X139024725Y-75042382D01*
X138972285Y-74996210D01*
X138953133Y-74929017D01*
X138973348Y-74862135D01*
X139024725Y-74817618D01*
X139082734Y-74790568D01*
X139269139Y-74660047D01*
X139430047Y-74499139D01*
X139560568Y-74312734D01*
X139656739Y-74106496D01*
X139715635Y-73886692D01*
X139735468Y-73660000D01*
X139715635Y-73433308D01*
X139656739Y-73213504D01*
X139560568Y-73007266D01*
X139430047Y-72820861D01*
X139430045Y-72820858D01*
X139269141Y-72659954D01*
X139082734Y-72529432D01*
X139082728Y-72529429D01*
X139024725Y-72502382D01*
X138972285Y-72456210D01*
X138953133Y-72389017D01*
X138973348Y-72322135D01*
X139024725Y-72277618D01*
X139082734Y-72250568D01*
X139269139Y-72120047D01*
X139430047Y-71959139D01*
X139560568Y-71772734D01*
X139656739Y-71566496D01*
X139715635Y-71346692D01*
X139735468Y-71120000D01*
X139715635Y-70893308D01*
X139656739Y-70673504D01*
X139560568Y-70467266D01*
X139430047Y-70280861D01*
X139430045Y-70280858D01*
X139269141Y-70119954D01*
X139082734Y-69989432D01*
X139082728Y-69989429D01*
X139024725Y-69962382D01*
X138972285Y-69916210D01*
X138953133Y-69849017D01*
X138973348Y-69782135D01*
X139024725Y-69737618D01*
X139082734Y-69710568D01*
X139269139Y-69580047D01*
X139430047Y-69419139D01*
X139560568Y-69232734D01*
X139656739Y-69026496D01*
X139715635Y-68806692D01*
X139735468Y-68580000D01*
X139715635Y-68353308D01*
X139656739Y-68133504D01*
X139560568Y-67927266D01*
X139430047Y-67740861D01*
X139430045Y-67740858D01*
X139269141Y-67579954D01*
X139082734Y-67449432D01*
X139082732Y-67449431D01*
X138876497Y-67353261D01*
X138876488Y-67353258D01*
X138656697Y-67294366D01*
X138656693Y-67294365D01*
X138656692Y-67294365D01*
X138656691Y-67294364D01*
X138656686Y-67294364D01*
X138430002Y-67274532D01*
X138429998Y-67274532D01*
X138203313Y-67294364D01*
X138203302Y-67294366D01*
X137983511Y-67353258D01*
X137983502Y-67353261D01*
X137777267Y-67449431D01*
X137777265Y-67449432D01*
X137590858Y-67579954D01*
X137429954Y-67740858D01*
X137317387Y-67901623D01*
X137262811Y-67945248D01*
X137215812Y-67954500D01*
X127945453Y-67954500D01*
X127878414Y-67934815D01*
X127857772Y-67918181D01*
X126865803Y-66926212D01*
X126855980Y-66913950D01*
X126855759Y-66914134D01*
X126850786Y-66908123D01*
X126831373Y-66889893D01*
X126795978Y-66829652D01*
X126798770Y-66759838D01*
X126838863Y-66702617D01*
X126903528Y-66676155D01*
X126916256Y-66675500D01*
X140210500Y-66675500D01*
X140277539Y-66695185D01*
X140323294Y-66747989D01*
X140334500Y-66799500D01*
X140334500Y-121160500D01*
X140314815Y-121227539D01*
X140262011Y-121273294D01*
X140210500Y-121284500D01*
X55880000Y-121284500D01*
X55638547Y-121275013D01*
X55428457Y-121266323D01*
X55423730Y-121265946D01*
X55187518Y-121237989D01*
X55171237Y-121235960D01*
X54971207Y-121211025D01*
X54966780Y-121210310D01*
X54734810Y-121164169D01*
X54519946Y-121119117D01*
X54515839Y-121118108D01*
X54288678Y-121054042D01*
X54077579Y-120991194D01*
X54073810Y-120989939D01*
X53852605Y-120908333D01*
X53646967Y-120828093D01*
X53643547Y-120826639D01*
X53429530Y-120727977D01*
X53302004Y-120665633D01*
X53230885Y-120630865D01*
X53227831Y-120629264D01*
X53022235Y-120514125D01*
X52832076Y-120400815D01*
X52829367Y-120399104D01*
X52633411Y-120268171D01*
X52564740Y-120219141D01*
X52453080Y-120139417D01*
X52450755Y-120137672D01*
X52265601Y-119991707D01*
X52095389Y-119847545D01*
X51921210Y-119686536D01*
X51763463Y-119528789D01*
X51625925Y-119380001D01*
X68544532Y-119380001D01*
X68564364Y-119606686D01*
X68564366Y-119606697D01*
X68623258Y-119826488D01*
X68623261Y-119826497D01*
X68719431Y-120032732D01*
X68719432Y-120032734D01*
X68849954Y-120219141D01*
X69010858Y-120380045D01*
X69010861Y-120380047D01*
X69197266Y-120510568D01*
X69403504Y-120606739D01*
X69623308Y-120665635D01*
X69785230Y-120679801D01*
X69849998Y-120685468D01*
X69850000Y-120685468D01*
X69850002Y-120685468D01*
X69906673Y-120680509D01*
X70076692Y-120665635D01*
X70296496Y-120606739D01*
X70502734Y-120510568D01*
X70689139Y-120380047D01*
X70850047Y-120219139D01*
X70980568Y-120032734D01*
X71076739Y-119826496D01*
X71135635Y-119606692D01*
X71155468Y-119380000D01*
X71135635Y-119153308D01*
X71076739Y-118933504D01*
X70980568Y-118727266D01*
X70850047Y-118540861D01*
X70850045Y-118540858D01*
X70689141Y-118379954D01*
X70502734Y-118249432D01*
X70502728Y-118249429D01*
X70444725Y-118222382D01*
X70392285Y-118176210D01*
X70373133Y-118109017D01*
X70393348Y-118042135D01*
X70444725Y-117997618D01*
X70502734Y-117970568D01*
X70689139Y-117840047D01*
X70850047Y-117679139D01*
X70980568Y-117492734D01*
X71076739Y-117286496D01*
X71135635Y-117066692D01*
X71155468Y-116840000D01*
X71135635Y-116613308D01*
X71076739Y-116393504D01*
X70980568Y-116187266D01*
X70850047Y-116000861D01*
X70850045Y-116000858D01*
X70689141Y-115839954D01*
X70502734Y-115709432D01*
X70502728Y-115709429D01*
X70444725Y-115682382D01*
X70392285Y-115636210D01*
X70373133Y-115569017D01*
X70393348Y-115502135D01*
X70444725Y-115457618D01*
X70502734Y-115430568D01*
X70689139Y-115300047D01*
X70850047Y-115139139D01*
X70980568Y-114952734D01*
X71076739Y-114746496D01*
X71135635Y-114526692D01*
X71155468Y-114300000D01*
X71135635Y-114073308D01*
X71076739Y-113853504D01*
X70980568Y-113647266D01*
X70850047Y-113460861D01*
X70850045Y-113460858D01*
X70689141Y-113299954D01*
X70502734Y-113169432D01*
X70502728Y-113169429D01*
X70444725Y-113142382D01*
X70392285Y-113096210D01*
X70373133Y-113029017D01*
X70393348Y-112962135D01*
X70444725Y-112917618D01*
X70502734Y-112890568D01*
X70689139Y-112760047D01*
X70850047Y-112599139D01*
X70980568Y-112412734D01*
X71076739Y-112206496D01*
X71135635Y-111986692D01*
X71155468Y-111760000D01*
X71135635Y-111533308D01*
X71076739Y-111313504D01*
X70980568Y-111107266D01*
X70850047Y-110920861D01*
X70850045Y-110920858D01*
X70689141Y-110759954D01*
X70502734Y-110629432D01*
X70502728Y-110629429D01*
X70444725Y-110602382D01*
X70392285Y-110556210D01*
X70373133Y-110489017D01*
X70393348Y-110422135D01*
X70444725Y-110377618D01*
X70502734Y-110350568D01*
X70689139Y-110220047D01*
X70850047Y-110059139D01*
X70980568Y-109872734D01*
X71076739Y-109666496D01*
X71135635Y-109446692D01*
X71155468Y-109220000D01*
X71135635Y-108993308D01*
X71076739Y-108773504D01*
X70980568Y-108567266D01*
X70850047Y-108380861D01*
X70850045Y-108380858D01*
X70689141Y-108219954D01*
X70502735Y-108089433D01*
X70502736Y-108089433D01*
X70502734Y-108089432D01*
X70444722Y-108062380D01*
X70392284Y-108016208D01*
X70373133Y-107949014D01*
X70393349Y-107882133D01*
X70444721Y-107837619D01*
X70502734Y-107810568D01*
X70689139Y-107680047D01*
X70850047Y-107519139D01*
X70980568Y-107332734D01*
X71076739Y-107126496D01*
X71135635Y-106906692D01*
X71155468Y-106680000D01*
X71135635Y-106453308D01*
X71076739Y-106233504D01*
X70980568Y-106027266D01*
X70850047Y-105840861D01*
X70850045Y-105840858D01*
X70689141Y-105679954D01*
X70502734Y-105549432D01*
X70502728Y-105549429D01*
X70444725Y-105522382D01*
X70392285Y-105476210D01*
X70373133Y-105409017D01*
X70393348Y-105342135D01*
X70444725Y-105297618D01*
X70502734Y-105270568D01*
X70689139Y-105140047D01*
X70850047Y-104979139D01*
X70980568Y-104792734D01*
X71076739Y-104586496D01*
X71135635Y-104366692D01*
X71155468Y-104140000D01*
X71135635Y-103913308D01*
X71076739Y-103693504D01*
X70980568Y-103487266D01*
X70850047Y-103300861D01*
X70850045Y-103300858D01*
X70689141Y-103139954D01*
X70502734Y-103009432D01*
X70502728Y-103009429D01*
X70444725Y-102982382D01*
X70392285Y-102936210D01*
X70373133Y-102869017D01*
X70393348Y-102802135D01*
X70444725Y-102757618D01*
X70502734Y-102730568D01*
X70689139Y-102600047D01*
X70850047Y-102439139D01*
X70980568Y-102252734D01*
X71076739Y-102046496D01*
X71135635Y-101826692D01*
X71155468Y-101600000D01*
X71135635Y-101373308D01*
X71076739Y-101153504D01*
X70980568Y-100947266D01*
X70850047Y-100760861D01*
X70850045Y-100760858D01*
X70689141Y-100599954D01*
X70502734Y-100469432D01*
X70502728Y-100469429D01*
X70444725Y-100442382D01*
X70392285Y-100396210D01*
X70373133Y-100329017D01*
X70393348Y-100262135D01*
X70444725Y-100217618D01*
X70502734Y-100190568D01*
X70689139Y-100060047D01*
X70850047Y-99899139D01*
X70980568Y-99712734D01*
X71076739Y-99506496D01*
X71135635Y-99286692D01*
X71155468Y-99060000D01*
X71135635Y-98833308D01*
X71076739Y-98613504D01*
X70980568Y-98407266D01*
X70850047Y-98220861D01*
X70850045Y-98220858D01*
X70689141Y-98059954D01*
X70502734Y-97929432D01*
X70502732Y-97929431D01*
X70491275Y-97924088D01*
X70444132Y-97902105D01*
X70391694Y-97855934D01*
X70372542Y-97788740D01*
X70392758Y-97721859D01*
X70444134Y-97677341D01*
X70502484Y-97650132D01*
X70688820Y-97519657D01*
X70849657Y-97358820D01*
X70980134Y-97172482D01*
X71076265Y-96966326D01*
X71076269Y-96966317D01*
X71128872Y-96770000D01*
X70360576Y-96770000D01*
X70293537Y-96750315D01*
X70247782Y-96697511D01*
X70237838Y-96628353D01*
X70238103Y-96626603D01*
X70254986Y-96520003D01*
X70254986Y-96519996D01*
X70238103Y-96413397D01*
X70247058Y-96344104D01*
X70292054Y-96290652D01*
X70358806Y-96270013D01*
X70360576Y-96270000D01*
X71128872Y-96270000D01*
X71128872Y-96269999D01*
X71076269Y-96073682D01*
X71076265Y-96073673D01*
X70980134Y-95867517D01*
X70849657Y-95681179D01*
X70688820Y-95520342D01*
X70502482Y-95389865D01*
X70444133Y-95362657D01*
X70391694Y-95316484D01*
X70372542Y-95249291D01*
X70392758Y-95182410D01*
X70444129Y-95137895D01*
X70502734Y-95110568D01*
X70689139Y-94980047D01*
X70850047Y-94819139D01*
X70980568Y-94632734D01*
X71076739Y-94426496D01*
X71135635Y-94206692D01*
X71155468Y-93980000D01*
X71135635Y-93753308D01*
X71076739Y-93533504D01*
X70980568Y-93327266D01*
X70850047Y-93140861D01*
X70850045Y-93140858D01*
X70689141Y-92979954D01*
X70502734Y-92849432D01*
X70502728Y-92849429D01*
X70444725Y-92822382D01*
X70392285Y-92776210D01*
X70373133Y-92709017D01*
X70393348Y-92642135D01*
X70444725Y-92597618D01*
X70502734Y-92570568D01*
X70689139Y-92440047D01*
X70850047Y-92279139D01*
X70980568Y-92092734D01*
X71076739Y-91886496D01*
X71135635Y-91666692D01*
X71155468Y-91440000D01*
X71135635Y-91213308D01*
X71076739Y-90993504D01*
X70980568Y-90787266D01*
X70850047Y-90600861D01*
X70850045Y-90600858D01*
X70689141Y-90439954D01*
X70502734Y-90309432D01*
X70502728Y-90309429D01*
X70444725Y-90282382D01*
X70392285Y-90236210D01*
X70373133Y-90169017D01*
X70393348Y-90102135D01*
X70444725Y-90057618D01*
X70502734Y-90030568D01*
X70689139Y-89900047D01*
X70850047Y-89739139D01*
X70980568Y-89552734D01*
X71076739Y-89346496D01*
X71135635Y-89126692D01*
X71155468Y-88900000D01*
X71135635Y-88673308D01*
X71076739Y-88453504D01*
X70980568Y-88247266D01*
X70850047Y-88060861D01*
X70850045Y-88060858D01*
X70689141Y-87899954D01*
X70502734Y-87769432D01*
X70502728Y-87769429D01*
X70444725Y-87742382D01*
X70392285Y-87696210D01*
X70373133Y-87629017D01*
X70393348Y-87562135D01*
X70444725Y-87517618D01*
X70502734Y-87490568D01*
X70689139Y-87360047D01*
X70850047Y-87199139D01*
X70980568Y-87012734D01*
X71076739Y-86806496D01*
X71135635Y-86586692D01*
X71155468Y-86360000D01*
X71153916Y-86342266D01*
X71137608Y-86155861D01*
X71135635Y-86133308D01*
X71076739Y-85913504D01*
X70980568Y-85707266D01*
X70850047Y-85520861D01*
X70850045Y-85520858D01*
X70689141Y-85359954D01*
X70502734Y-85229432D01*
X70502728Y-85229429D01*
X70444725Y-85202382D01*
X70392285Y-85156210D01*
X70373133Y-85089017D01*
X70393348Y-85022135D01*
X70444725Y-84977618D01*
X70502734Y-84950568D01*
X70689139Y-84820047D01*
X70850047Y-84659139D01*
X70980568Y-84472734D01*
X71076739Y-84266496D01*
X71135635Y-84046692D01*
X71155468Y-83820000D01*
X71135635Y-83593308D01*
X71076739Y-83373504D01*
X70980568Y-83167266D01*
X70850047Y-82980861D01*
X70850045Y-82980858D01*
X70689141Y-82819954D01*
X70502734Y-82689432D01*
X70502728Y-82689429D01*
X70444725Y-82662382D01*
X70392285Y-82616210D01*
X70373133Y-82549017D01*
X70393348Y-82482135D01*
X70444725Y-82437618D01*
X70502734Y-82410568D01*
X70689139Y-82280047D01*
X70850047Y-82119139D01*
X70980568Y-81932734D01*
X71076739Y-81726496D01*
X71135635Y-81506692D01*
X71155468Y-81280000D01*
X71135635Y-81053308D01*
X71076739Y-80833504D01*
X70980568Y-80627266D01*
X70850047Y-80440861D01*
X70850045Y-80440858D01*
X70689141Y-80279954D01*
X70502734Y-80149432D01*
X70502728Y-80149429D01*
X70444725Y-80122382D01*
X70392285Y-80076210D01*
X70373133Y-80009017D01*
X70393348Y-79942135D01*
X70444725Y-79897618D01*
X70502734Y-79870568D01*
X70689139Y-79740047D01*
X70850047Y-79579139D01*
X70980568Y-79392734D01*
X71076739Y-79186496D01*
X71135635Y-78966692D01*
X71152634Y-78772384D01*
X71155468Y-78740001D01*
X71155468Y-78739998D01*
X71135635Y-78513313D01*
X71135635Y-78513308D01*
X71076739Y-78293504D01*
X70980568Y-78087266D01*
X70850047Y-77900861D01*
X70850045Y-77900858D01*
X70689141Y-77739954D01*
X70502734Y-77609432D01*
X70502728Y-77609429D01*
X70444725Y-77582382D01*
X70392285Y-77536210D01*
X70373133Y-77469017D01*
X70393348Y-77402135D01*
X70444725Y-77357618D01*
X70502734Y-77330568D01*
X70689139Y-77200047D01*
X70850047Y-77039139D01*
X70980568Y-76852734D01*
X71076739Y-76646496D01*
X71135635Y-76426692D01*
X71155468Y-76200000D01*
X71135635Y-75973308D01*
X71076739Y-75753504D01*
X70980568Y-75547266D01*
X70850047Y-75360861D01*
X70850045Y-75360858D01*
X70689141Y-75199954D01*
X70502734Y-75069432D01*
X70502728Y-75069429D01*
X70444725Y-75042382D01*
X70392285Y-74996210D01*
X70373133Y-74929017D01*
X70393348Y-74862135D01*
X70444725Y-74817618D01*
X70502734Y-74790568D01*
X70689139Y-74660047D01*
X70850047Y-74499139D01*
X70980568Y-74312734D01*
X71076739Y-74106496D01*
X71135635Y-73886692D01*
X71155468Y-73660000D01*
X71135635Y-73433308D01*
X71076739Y-73213504D01*
X70980568Y-73007266D01*
X70850047Y-72820861D01*
X70850045Y-72820858D01*
X70689141Y-72659954D01*
X70502734Y-72529432D01*
X70502728Y-72529429D01*
X70444725Y-72502382D01*
X70392285Y-72456210D01*
X70373133Y-72389017D01*
X70393348Y-72322135D01*
X70444725Y-72277618D01*
X70502734Y-72250568D01*
X70689139Y-72120047D01*
X70850047Y-71959139D01*
X70980568Y-71772734D01*
X71076739Y-71566496D01*
X71135635Y-71346692D01*
X71155468Y-71120000D01*
X71135635Y-70893308D01*
X71076739Y-70673504D01*
X70980568Y-70467266D01*
X70850047Y-70280861D01*
X70850045Y-70280858D01*
X70689141Y-70119954D01*
X70502734Y-69989432D01*
X70502728Y-69989429D01*
X70444725Y-69962382D01*
X70392285Y-69916210D01*
X70373133Y-69849017D01*
X70393348Y-69782135D01*
X70444725Y-69737618D01*
X70502734Y-69710568D01*
X70689139Y-69580047D01*
X70850047Y-69419139D01*
X70980568Y-69232734D01*
X71076739Y-69026496D01*
X71135635Y-68806692D01*
X71155468Y-68580000D01*
X71135635Y-68353308D01*
X71076739Y-68133504D01*
X70980568Y-67927266D01*
X70850047Y-67740861D01*
X70850045Y-67740858D01*
X70689141Y-67579954D01*
X70502734Y-67449432D01*
X70502728Y-67449429D01*
X70444725Y-67422382D01*
X70392285Y-67376210D01*
X70373133Y-67309017D01*
X70393348Y-67242135D01*
X70444725Y-67197618D01*
X70502734Y-67170568D01*
X70689139Y-67040047D01*
X70850047Y-66879139D01*
X70980568Y-66692734D01*
X71076739Y-66486496D01*
X71135635Y-66266692D01*
X71155468Y-66040000D01*
X71135635Y-65813308D01*
X71076739Y-65593504D01*
X70980568Y-65387266D01*
X70850047Y-65200861D01*
X70850045Y-65200858D01*
X70689141Y-65039954D01*
X70502734Y-64909432D01*
X70502728Y-64909429D01*
X70444725Y-64882382D01*
X70392285Y-64836210D01*
X70373133Y-64769017D01*
X70393348Y-64702135D01*
X70444725Y-64657618D01*
X70502734Y-64630568D01*
X70689139Y-64500047D01*
X70850047Y-64339139D01*
X70980568Y-64152734D01*
X71076739Y-63946496D01*
X71135635Y-63726692D01*
X71155468Y-63500000D01*
X71135635Y-63273308D01*
X71076739Y-63053504D01*
X70980568Y-62847266D01*
X70850047Y-62660861D01*
X70850045Y-62660858D01*
X70689143Y-62499956D01*
X70664536Y-62482726D01*
X70620912Y-62428149D01*
X70613719Y-62358650D01*
X70645241Y-62296296D01*
X70705471Y-62260882D01*
X70722404Y-62257861D01*
X70757483Y-62254091D01*
X70892331Y-62203796D01*
X71007546Y-62117546D01*
X71093796Y-62002331D01*
X71144091Y-61867483D01*
X71150500Y-61807873D01*
X71150499Y-60112128D01*
X71144091Y-60052517D01*
X71109567Y-59959954D01*
X71093797Y-59917671D01*
X71093793Y-59917664D01*
X71007547Y-59802455D01*
X71007544Y-59802452D01*
X70892335Y-59716206D01*
X70892328Y-59716202D01*
X70757482Y-59665908D01*
X70757483Y-59665908D01*
X70697883Y-59659501D01*
X70697881Y-59659500D01*
X70697873Y-59659500D01*
X70697864Y-59659500D01*
X69002129Y-59659500D01*
X69002123Y-59659501D01*
X68942516Y-59665908D01*
X68807671Y-59716202D01*
X68807664Y-59716206D01*
X68692455Y-59802452D01*
X68692452Y-59802455D01*
X68606206Y-59917664D01*
X68606202Y-59917671D01*
X68555908Y-60052517D01*
X68549501Y-60112116D01*
X68549501Y-60112123D01*
X68549500Y-60112135D01*
X68549500Y-61807870D01*
X68549501Y-61807876D01*
X68555908Y-61867483D01*
X68606202Y-62002328D01*
X68606206Y-62002335D01*
X68692452Y-62117544D01*
X68692455Y-62117547D01*
X68807664Y-62203793D01*
X68807671Y-62203797D01*
X68852618Y-62220561D01*
X68942517Y-62254091D01*
X68977596Y-62257862D01*
X69042144Y-62284599D01*
X69081993Y-62341991D01*
X69084488Y-62411816D01*
X69048836Y-62471905D01*
X69035464Y-62482725D01*
X69010858Y-62499954D01*
X68849954Y-62660858D01*
X68719432Y-62847265D01*
X68719431Y-62847267D01*
X68623261Y-63053502D01*
X68623258Y-63053511D01*
X68564366Y-63273302D01*
X68564364Y-63273313D01*
X68544532Y-63499998D01*
X68544532Y-63500001D01*
X68564364Y-63726686D01*
X68564366Y-63726697D01*
X68623258Y-63946488D01*
X68623261Y-63946497D01*
X68719431Y-64152732D01*
X68719432Y-64152734D01*
X68849954Y-64339141D01*
X69010858Y-64500045D01*
X69010861Y-64500047D01*
X69197266Y-64630568D01*
X69255275Y-64657618D01*
X69307714Y-64703791D01*
X69326866Y-64770984D01*
X69306650Y-64837865D01*
X69255275Y-64882382D01*
X69197267Y-64909431D01*
X69197265Y-64909432D01*
X69010858Y-65039954D01*
X68849954Y-65200858D01*
X68719432Y-65387265D01*
X68719431Y-65387267D01*
X68623261Y-65593502D01*
X68623258Y-65593511D01*
X68564366Y-65813302D01*
X68564364Y-65813313D01*
X68544532Y-66039998D01*
X68544532Y-66040001D01*
X68564364Y-66266686D01*
X68564366Y-66266697D01*
X68623258Y-66486488D01*
X68623261Y-66486497D01*
X68719431Y-66692732D01*
X68719432Y-66692734D01*
X68849954Y-66879141D01*
X69010858Y-67040045D01*
X69010861Y-67040047D01*
X69197266Y-67170568D01*
X69255275Y-67197618D01*
X69307714Y-67243791D01*
X69326866Y-67310984D01*
X69306650Y-67377865D01*
X69255275Y-67422382D01*
X69197267Y-67449431D01*
X69197265Y-67449432D01*
X69010858Y-67579954D01*
X68849954Y-67740858D01*
X68719432Y-67927265D01*
X68719431Y-67927267D01*
X68623261Y-68133502D01*
X68623258Y-68133511D01*
X68564366Y-68353302D01*
X68564364Y-68353313D01*
X68544532Y-68579998D01*
X68544532Y-68580001D01*
X68564364Y-68806686D01*
X68564366Y-68806697D01*
X68623258Y-69026488D01*
X68623261Y-69026497D01*
X68719431Y-69232732D01*
X68719432Y-69232734D01*
X68849954Y-69419141D01*
X69010858Y-69580045D01*
X69010861Y-69580047D01*
X69197266Y-69710568D01*
X69255275Y-69737618D01*
X69307714Y-69783791D01*
X69326866Y-69850984D01*
X69306650Y-69917865D01*
X69255275Y-69962382D01*
X69197267Y-69989431D01*
X69197265Y-69989432D01*
X69010858Y-70119954D01*
X68849954Y-70280858D01*
X68719432Y-70467265D01*
X68719431Y-70467267D01*
X68623261Y-70673502D01*
X68623258Y-70673511D01*
X68564366Y-70893302D01*
X68564364Y-70893313D01*
X68544532Y-71119998D01*
X68544532Y-71120001D01*
X68564364Y-71346686D01*
X68564366Y-71346697D01*
X68623258Y-71566488D01*
X68623261Y-71566497D01*
X68719431Y-71772732D01*
X68719432Y-71772734D01*
X68849954Y-71959141D01*
X69010858Y-72120045D01*
X69010861Y-72120047D01*
X69197266Y-72250568D01*
X69255275Y-72277618D01*
X69307714Y-72323791D01*
X69326866Y-72390984D01*
X69306650Y-72457865D01*
X69255275Y-72502382D01*
X69197267Y-72529431D01*
X69197265Y-72529432D01*
X69010858Y-72659954D01*
X68849954Y-72820858D01*
X68719432Y-73007265D01*
X68719431Y-73007267D01*
X68623261Y-73213502D01*
X68623258Y-73213511D01*
X68564366Y-73433302D01*
X68564364Y-73433313D01*
X68544532Y-73659998D01*
X68544532Y-73660001D01*
X68564364Y-73886686D01*
X68564366Y-73886697D01*
X68623258Y-74106488D01*
X68623261Y-74106497D01*
X68719431Y-74312732D01*
X68719432Y-74312734D01*
X68849954Y-74499141D01*
X69010858Y-74660045D01*
X69010861Y-74660047D01*
X69197266Y-74790568D01*
X69255275Y-74817618D01*
X69307714Y-74863791D01*
X69326866Y-74930984D01*
X69306650Y-74997865D01*
X69255275Y-75042382D01*
X69197267Y-75069431D01*
X69197265Y-75069432D01*
X69010858Y-75199954D01*
X68849954Y-75360858D01*
X68719432Y-75547265D01*
X68719431Y-75547267D01*
X68623261Y-75753502D01*
X68623258Y-75753511D01*
X68564366Y-75973302D01*
X68564364Y-75973313D01*
X68544532Y-76199998D01*
X68544532Y-76200001D01*
X68564364Y-76426686D01*
X68564366Y-76426697D01*
X68623258Y-76646488D01*
X68623261Y-76646497D01*
X68719431Y-76852732D01*
X68719432Y-76852734D01*
X68849954Y-77039141D01*
X69010858Y-77200045D01*
X69010861Y-77200047D01*
X69197266Y-77330568D01*
X69255275Y-77357618D01*
X69307714Y-77403791D01*
X69326866Y-77470984D01*
X69306650Y-77537865D01*
X69255275Y-77582382D01*
X69197267Y-77609431D01*
X69197265Y-77609432D01*
X69010858Y-77739954D01*
X68849954Y-77900858D01*
X68719432Y-78087265D01*
X68719431Y-78087267D01*
X68623261Y-78293502D01*
X68623258Y-78293511D01*
X68564366Y-78513302D01*
X68564364Y-78513313D01*
X68544532Y-78739998D01*
X68544532Y-78740001D01*
X68564364Y-78966686D01*
X68564366Y-78966697D01*
X68623258Y-79186488D01*
X68623261Y-79186497D01*
X68719431Y-79392732D01*
X68719432Y-79392734D01*
X68849954Y-79579141D01*
X69010858Y-79740045D01*
X69010861Y-79740047D01*
X69197266Y-79870568D01*
X69255275Y-79897618D01*
X69307714Y-79943791D01*
X69326866Y-80010984D01*
X69306650Y-80077865D01*
X69255275Y-80122382D01*
X69197267Y-80149431D01*
X69197265Y-80149432D01*
X69010858Y-80279954D01*
X68849954Y-80440858D01*
X68719432Y-80627265D01*
X68719431Y-80627267D01*
X68623261Y-80833502D01*
X68623258Y-80833511D01*
X68564366Y-81053302D01*
X68564364Y-81053313D01*
X68544532Y-81279998D01*
X68544532Y-81280001D01*
X68564364Y-81506686D01*
X68564366Y-81506697D01*
X68623258Y-81726488D01*
X68623261Y-81726497D01*
X68719431Y-81932732D01*
X68719432Y-81932734D01*
X68849954Y-82119141D01*
X69010858Y-82280045D01*
X69010861Y-82280047D01*
X69197266Y-82410568D01*
X69255275Y-82437618D01*
X69307714Y-82483791D01*
X69326866Y-82550984D01*
X69306650Y-82617865D01*
X69255275Y-82662382D01*
X69197267Y-82689431D01*
X69197265Y-82689432D01*
X69010858Y-82819954D01*
X68849954Y-82980858D01*
X68719432Y-83167265D01*
X68719431Y-83167267D01*
X68623261Y-83373502D01*
X68623258Y-83373511D01*
X68564366Y-83593302D01*
X68564364Y-83593313D01*
X68544532Y-83819998D01*
X68544532Y-83820001D01*
X68564364Y-84046686D01*
X68564366Y-84046697D01*
X68623258Y-84266488D01*
X68623261Y-84266497D01*
X68719431Y-84472732D01*
X68719432Y-84472734D01*
X68849954Y-84659141D01*
X69010858Y-84820045D01*
X69010861Y-84820047D01*
X69197266Y-84950568D01*
X69255275Y-84977618D01*
X69307714Y-85023791D01*
X69326866Y-85090984D01*
X69306650Y-85157865D01*
X69255275Y-85202382D01*
X69197267Y-85229431D01*
X69197265Y-85229432D01*
X69010858Y-85359954D01*
X68849954Y-85520858D01*
X68719432Y-85707265D01*
X68719431Y-85707267D01*
X68623261Y-85913502D01*
X68623258Y-85913511D01*
X68564366Y-86133302D01*
X68564364Y-86133313D01*
X68544532Y-86359998D01*
X68544532Y-86360001D01*
X68564364Y-86586686D01*
X68564366Y-86586697D01*
X68623258Y-86806488D01*
X68623261Y-86806497D01*
X68719431Y-87012732D01*
X68719432Y-87012734D01*
X68849954Y-87199141D01*
X69010858Y-87360045D01*
X69010861Y-87360047D01*
X69197266Y-87490568D01*
X69255275Y-87517618D01*
X69307714Y-87563791D01*
X69326866Y-87630984D01*
X69306650Y-87697865D01*
X69255275Y-87742382D01*
X69197267Y-87769431D01*
X69197265Y-87769432D01*
X69010858Y-87899954D01*
X68849954Y-88060858D01*
X68719432Y-88247265D01*
X68719431Y-88247267D01*
X68623261Y-88453502D01*
X68623258Y-88453511D01*
X68564366Y-88673302D01*
X68564364Y-88673313D01*
X68544532Y-88899998D01*
X68544532Y-88900001D01*
X68564364Y-89126686D01*
X68564366Y-89126697D01*
X68623258Y-89346488D01*
X68623261Y-89346497D01*
X68719431Y-89552732D01*
X68719432Y-89552734D01*
X68849954Y-89739141D01*
X69010858Y-89900045D01*
X69010861Y-89900047D01*
X69197266Y-90030568D01*
X69255275Y-90057618D01*
X69307714Y-90103791D01*
X69326866Y-90170984D01*
X69306650Y-90237865D01*
X69255275Y-90282382D01*
X69197267Y-90309431D01*
X69197265Y-90309432D01*
X69010858Y-90439954D01*
X68849954Y-90600858D01*
X68719432Y-90787265D01*
X68719431Y-90787267D01*
X68623261Y-90993502D01*
X68623258Y-90993511D01*
X68564366Y-91213302D01*
X68564364Y-91213313D01*
X68544532Y-91439998D01*
X68544532Y-91440001D01*
X68564364Y-91666686D01*
X68564366Y-91666697D01*
X68623258Y-91886488D01*
X68623261Y-91886497D01*
X68719431Y-92092732D01*
X68719432Y-92092734D01*
X68849954Y-92279141D01*
X69010858Y-92440045D01*
X69010861Y-92440047D01*
X69197266Y-92570568D01*
X69255275Y-92597618D01*
X69307714Y-92643791D01*
X69326866Y-92710984D01*
X69306650Y-92777865D01*
X69255275Y-92822382D01*
X69197267Y-92849431D01*
X69197265Y-92849432D01*
X69010858Y-92979954D01*
X68849954Y-93140858D01*
X68719432Y-93327265D01*
X68719431Y-93327267D01*
X68623261Y-93533502D01*
X68623258Y-93533511D01*
X68564366Y-93753302D01*
X68564364Y-93753313D01*
X68544532Y-93979998D01*
X68544532Y-93980001D01*
X68564364Y-94206686D01*
X68564366Y-94206697D01*
X68623258Y-94426488D01*
X68623261Y-94426497D01*
X68719431Y-94632732D01*
X68719432Y-94632734D01*
X68849954Y-94819141D01*
X69010858Y-94980045D01*
X69010861Y-94980047D01*
X69197266Y-95110568D01*
X69255865Y-95137893D01*
X69308305Y-95184065D01*
X69327457Y-95251258D01*
X69307242Y-95318139D01*
X69255867Y-95362657D01*
X69197515Y-95389867D01*
X69011179Y-95520342D01*
X68850342Y-95681179D01*
X68719865Y-95867517D01*
X68623734Y-96073673D01*
X68623730Y-96073682D01*
X68571127Y-96269999D01*
X68571128Y-96270000D01*
X69339424Y-96270000D01*
X69406463Y-96289685D01*
X69452218Y-96342489D01*
X69462162Y-96411647D01*
X69461897Y-96413397D01*
X69445014Y-96519996D01*
X69445014Y-96520003D01*
X69461897Y-96626603D01*
X69452942Y-96695896D01*
X69407946Y-96749348D01*
X69341194Y-96769987D01*
X69339424Y-96770000D01*
X68571128Y-96770000D01*
X68623730Y-96966317D01*
X68623734Y-96966326D01*
X68719865Y-97172482D01*
X68850342Y-97358820D01*
X69011179Y-97519657D01*
X69197518Y-97650134D01*
X69197520Y-97650135D01*
X69255865Y-97677342D01*
X69308305Y-97723514D01*
X69327457Y-97790707D01*
X69307242Y-97857589D01*
X69255867Y-97902105D01*
X69197268Y-97929431D01*
X69197264Y-97929433D01*
X69010858Y-98059954D01*
X68849954Y-98220858D01*
X68719432Y-98407265D01*
X68719431Y-98407267D01*
X68623261Y-98613502D01*
X68623258Y-98613511D01*
X68564366Y-98833302D01*
X68564364Y-98833313D01*
X68544532Y-99059998D01*
X68544532Y-99060001D01*
X68564364Y-99286686D01*
X68564366Y-99286697D01*
X68623258Y-99506488D01*
X68623261Y-99506497D01*
X68719431Y-99712732D01*
X68719432Y-99712734D01*
X68849954Y-99899141D01*
X69010858Y-100060045D01*
X69010861Y-100060047D01*
X69197266Y-100190568D01*
X69255278Y-100217619D01*
X69307713Y-100263788D01*
X69326866Y-100330982D01*
X69306651Y-100397863D01*
X69255277Y-100442380D01*
X69197268Y-100469430D01*
X69197265Y-100469432D01*
X69010858Y-100599954D01*
X68849954Y-100760858D01*
X68719432Y-100947265D01*
X68719431Y-100947267D01*
X68623261Y-101153502D01*
X68623258Y-101153511D01*
X68564366Y-101373302D01*
X68564364Y-101373313D01*
X68544532Y-101599998D01*
X68544532Y-101600001D01*
X68564364Y-101826686D01*
X68564366Y-101826697D01*
X68623258Y-102046488D01*
X68623261Y-102046497D01*
X68719431Y-102252732D01*
X68719432Y-102252734D01*
X68849954Y-102439141D01*
X69010858Y-102600045D01*
X69010861Y-102600047D01*
X69197266Y-102730568D01*
X69255278Y-102757619D01*
X69307713Y-102803788D01*
X69326866Y-102870982D01*
X69306651Y-102937863D01*
X69255277Y-102982380D01*
X69197268Y-103009430D01*
X69197265Y-103009432D01*
X69010858Y-103139954D01*
X68849954Y-103300858D01*
X68719432Y-103487265D01*
X68719431Y-103487267D01*
X68623261Y-103693502D01*
X68623258Y-103693511D01*
X68564366Y-103913302D01*
X68564364Y-103913313D01*
X68544532Y-104139998D01*
X68544532Y-104140001D01*
X68564364Y-104366686D01*
X68564366Y-104366697D01*
X68623258Y-104586488D01*
X68623261Y-104586497D01*
X68719431Y-104792732D01*
X68719432Y-104792734D01*
X68849954Y-104979141D01*
X69010858Y-105140045D01*
X69010861Y-105140047D01*
X69197266Y-105270568D01*
X69255278Y-105297619D01*
X69307713Y-105343788D01*
X69326866Y-105410982D01*
X69306651Y-105477863D01*
X69255277Y-105522380D01*
X69197268Y-105549430D01*
X69197265Y-105549432D01*
X69010858Y-105679954D01*
X68849954Y-105840858D01*
X68719432Y-106027265D01*
X68719431Y-106027267D01*
X68623261Y-106233502D01*
X68623258Y-106233511D01*
X68564366Y-106453302D01*
X68564364Y-106453313D01*
X68544532Y-106679998D01*
X68544532Y-106680001D01*
X68564364Y-106906686D01*
X68564366Y-106906697D01*
X68623258Y-107126488D01*
X68623261Y-107126497D01*
X68719431Y-107332732D01*
X68719432Y-107332734D01*
X68849954Y-107519141D01*
X69010858Y-107680045D01*
X69010861Y-107680047D01*
X69197266Y-107810568D01*
X69255278Y-107837619D01*
X69307713Y-107883788D01*
X69326866Y-107950982D01*
X69306651Y-108017863D01*
X69255277Y-108062380D01*
X69197268Y-108089430D01*
X69197265Y-108089432D01*
X69010858Y-108219954D01*
X68849954Y-108380858D01*
X68719432Y-108567265D01*
X68719431Y-108567267D01*
X68623261Y-108773502D01*
X68623258Y-108773511D01*
X68564366Y-108993302D01*
X68564364Y-108993313D01*
X68544532Y-109219998D01*
X68544532Y-109220001D01*
X68564364Y-109446686D01*
X68564366Y-109446697D01*
X68623258Y-109666488D01*
X68623261Y-109666497D01*
X68719431Y-109872732D01*
X68719432Y-109872734D01*
X68849954Y-110059141D01*
X69010858Y-110220045D01*
X69010861Y-110220047D01*
X69197266Y-110350568D01*
X69255275Y-110377618D01*
X69307714Y-110423791D01*
X69326866Y-110490984D01*
X69306650Y-110557865D01*
X69255275Y-110602382D01*
X69197267Y-110629431D01*
X69197265Y-110629432D01*
X69010858Y-110759954D01*
X68849954Y-110920858D01*
X68719432Y-111107265D01*
X68719431Y-111107267D01*
X68623261Y-111313502D01*
X68623258Y-111313511D01*
X68564366Y-111533302D01*
X68564364Y-111533313D01*
X68544532Y-111759998D01*
X68544532Y-111760001D01*
X68564364Y-111986686D01*
X68564366Y-111986697D01*
X68623258Y-112206488D01*
X68623261Y-112206497D01*
X68719431Y-112412732D01*
X68719432Y-112412734D01*
X68849954Y-112599141D01*
X69010858Y-112760045D01*
X69010861Y-112760047D01*
X69197266Y-112890568D01*
X69255275Y-112917618D01*
X69307714Y-112963791D01*
X69326866Y-113030984D01*
X69306650Y-113097865D01*
X69255275Y-113142382D01*
X69197267Y-113169431D01*
X69197265Y-113169432D01*
X69010858Y-113299954D01*
X68849954Y-113460858D01*
X68719432Y-113647265D01*
X68719431Y-113647267D01*
X68623261Y-113853502D01*
X68623258Y-113853511D01*
X68564366Y-114073302D01*
X68564364Y-114073313D01*
X68544532Y-114299998D01*
X68544532Y-114300001D01*
X68564364Y-114526686D01*
X68564366Y-114526697D01*
X68623258Y-114746488D01*
X68623261Y-114746497D01*
X68719431Y-114952732D01*
X68719432Y-114952734D01*
X68849954Y-115139141D01*
X69010858Y-115300045D01*
X69010861Y-115300047D01*
X69197266Y-115430568D01*
X69255275Y-115457618D01*
X69307714Y-115503791D01*
X69326866Y-115570984D01*
X69306650Y-115637865D01*
X69255275Y-115682382D01*
X69197267Y-115709431D01*
X69197265Y-115709432D01*
X69010858Y-115839954D01*
X68849954Y-116000858D01*
X68719432Y-116187265D01*
X68719431Y-116187267D01*
X68623261Y-116393502D01*
X68623258Y-116393511D01*
X68564366Y-116613302D01*
X68564364Y-116613313D01*
X68544532Y-116839998D01*
X68544532Y-116840001D01*
X68564364Y-117066686D01*
X68564366Y-117066697D01*
X68623258Y-117286488D01*
X68623261Y-117286497D01*
X68719431Y-117492732D01*
X68719432Y-117492734D01*
X68849954Y-117679141D01*
X69010858Y-117840045D01*
X69010861Y-117840047D01*
X69197266Y-117970568D01*
X69255275Y-117997618D01*
X69307714Y-118043791D01*
X69326866Y-118110984D01*
X69306650Y-118177865D01*
X69255275Y-118222382D01*
X69197267Y-118249431D01*
X69197265Y-118249432D01*
X69010858Y-118379954D01*
X68849954Y-118540858D01*
X68719432Y-118727265D01*
X68719431Y-118727267D01*
X68623261Y-118933502D01*
X68623258Y-118933511D01*
X68564366Y-119153302D01*
X68564364Y-119153313D01*
X68544532Y-119379998D01*
X68544532Y-119380001D01*
X51625925Y-119380001D01*
X51602454Y-119354610D01*
X51458292Y-119184398D01*
X51395669Y-119104962D01*
X51312310Y-118999221D01*
X51310592Y-118996933D01*
X51181822Y-118816579D01*
X51050884Y-118620616D01*
X51049191Y-118617936D01*
X50935885Y-118427784D01*
X50820726Y-118222154D01*
X50819148Y-118219141D01*
X50722030Y-118020485D01*
X50623357Y-117806447D01*
X50621914Y-117803053D01*
X50541666Y-117597394D01*
X50460059Y-117376188D01*
X50458804Y-117372419D01*
X50433224Y-117286497D01*
X50395962Y-117161339D01*
X50331883Y-116934131D01*
X50330888Y-116930080D01*
X50285842Y-116715248D01*
X50239684Y-116483196D01*
X50238973Y-116478791D01*
X50234922Y-116446299D01*
X50212021Y-116262578D01*
X50184050Y-116026253D01*
X50183677Y-116021573D01*
X50174988Y-115811506D01*
X50165500Y-115570000D01*
X50165500Y-115569500D01*
X50165500Y-91440001D01*
X52669532Y-91440001D01*
X52689364Y-91666686D01*
X52689366Y-91666697D01*
X52748258Y-91886488D01*
X52748261Y-91886497D01*
X52844431Y-92092732D01*
X52844432Y-92092734D01*
X52974954Y-92279141D01*
X53135858Y-92440045D01*
X53135861Y-92440047D01*
X53322266Y-92570568D01*
X53528504Y-92666739D01*
X53748308Y-92725635D01*
X53910230Y-92739801D01*
X53974998Y-92745468D01*
X53975000Y-92745468D01*
X53975002Y-92745468D01*
X54031673Y-92740509D01*
X54201692Y-92725635D01*
X54421496Y-92666739D01*
X54627734Y-92570568D01*
X54814139Y-92440047D01*
X54975047Y-92279139D01*
X55105568Y-92092734D01*
X55201739Y-91886496D01*
X55260635Y-91666692D01*
X55280468Y-91440001D01*
X62829532Y-91440001D01*
X62849364Y-91666686D01*
X62849366Y-91666697D01*
X62908258Y-91886488D01*
X62908261Y-91886497D01*
X63004431Y-92092732D01*
X63004432Y-92092734D01*
X63134954Y-92279141D01*
X63295858Y-92440045D01*
X63295861Y-92440047D01*
X63482266Y-92570568D01*
X63688504Y-92666739D01*
X63908308Y-92725635D01*
X64070230Y-92739801D01*
X64134998Y-92745468D01*
X64135000Y-92745468D01*
X64135002Y-92745468D01*
X64191673Y-92740509D01*
X64361692Y-92725635D01*
X64581496Y-92666739D01*
X64787734Y-92570568D01*
X64974139Y-92440047D01*
X65135047Y-92279139D01*
X65265568Y-92092734D01*
X65361739Y-91886496D01*
X65420635Y-91666692D01*
X65440468Y-91440000D01*
X65420635Y-91213308D01*
X65361739Y-90993504D01*
X65265568Y-90787266D01*
X65135047Y-90600861D01*
X65135045Y-90600858D01*
X64974141Y-90439954D01*
X64787734Y-90309432D01*
X64787732Y-90309431D01*
X64581497Y-90213261D01*
X64581488Y-90213258D01*
X64361697Y-90154366D01*
X64361693Y-90154365D01*
X64361692Y-90154365D01*
X64361691Y-90154364D01*
X64361686Y-90154364D01*
X64135002Y-90134532D01*
X64134998Y-90134532D01*
X63908313Y-90154364D01*
X63908302Y-90154366D01*
X63688511Y-90213258D01*
X63688502Y-90213261D01*
X63482267Y-90309431D01*
X63482265Y-90309432D01*
X63295858Y-90439954D01*
X63134954Y-90600858D01*
X63004432Y-90787265D01*
X63004431Y-90787267D01*
X62908261Y-90993502D01*
X62908258Y-90993511D01*
X62849366Y-91213302D01*
X62849364Y-91213313D01*
X62829532Y-91439998D01*
X62829532Y-91440001D01*
X55280468Y-91440001D01*
X55280468Y-91440000D01*
X55260635Y-91213308D01*
X55201739Y-90993504D01*
X55105568Y-90787266D01*
X54975047Y-90600861D01*
X54975045Y-90600858D01*
X54814141Y-90439954D01*
X54627734Y-90309432D01*
X54627732Y-90309431D01*
X54421497Y-90213261D01*
X54421488Y-90213258D01*
X54201697Y-90154366D01*
X54201693Y-90154365D01*
X54201692Y-90154365D01*
X54201691Y-90154364D01*
X54201686Y-90154364D01*
X53975002Y-90134532D01*
X53974998Y-90134532D01*
X53748313Y-90154364D01*
X53748302Y-90154366D01*
X53528511Y-90213258D01*
X53528502Y-90213261D01*
X53322267Y-90309431D01*
X53322265Y-90309432D01*
X53135858Y-90439954D01*
X52974954Y-90600858D01*
X52844432Y-90787265D01*
X52844431Y-90787267D01*
X52748261Y-90993502D01*
X52748258Y-90993511D01*
X52689366Y-91213302D01*
X52689364Y-91213313D01*
X52669532Y-91439998D01*
X52669532Y-91440001D01*
X50165500Y-91440001D01*
X50165500Y-86995001D01*
X52669532Y-86995001D01*
X52689364Y-87221686D01*
X52689366Y-87221697D01*
X52748258Y-87441488D01*
X52748261Y-87441497D01*
X52844431Y-87647732D01*
X52844432Y-87647734D01*
X52974954Y-87834141D01*
X53135858Y-87995045D01*
X53135861Y-87995047D01*
X53322266Y-88125568D01*
X53528504Y-88221739D01*
X53748308Y-88280635D01*
X53910230Y-88294801D01*
X53974998Y-88300468D01*
X53975000Y-88300468D01*
X53975002Y-88300468D01*
X54031673Y-88295509D01*
X54201692Y-88280635D01*
X54421496Y-88221739D01*
X54627734Y-88125568D01*
X54814139Y-87995047D01*
X54975047Y-87834139D01*
X55105568Y-87647734D01*
X55201739Y-87441496D01*
X55260635Y-87221692D01*
X55277634Y-87027384D01*
X55280468Y-86995001D01*
X62829532Y-86995001D01*
X62849364Y-87221686D01*
X62849366Y-87221697D01*
X62908258Y-87441488D01*
X62908261Y-87441497D01*
X63004431Y-87647732D01*
X63004432Y-87647734D01*
X63134954Y-87834141D01*
X63295858Y-87995045D01*
X63295861Y-87995047D01*
X63482266Y-88125568D01*
X63688504Y-88221739D01*
X63908308Y-88280635D01*
X64070230Y-88294801D01*
X64134998Y-88300468D01*
X64135000Y-88300468D01*
X64135002Y-88300468D01*
X64191672Y-88295509D01*
X64361692Y-88280635D01*
X64581496Y-88221739D01*
X64787734Y-88125568D01*
X64974139Y-87995047D01*
X65135047Y-87834139D01*
X65265568Y-87647734D01*
X65361739Y-87441496D01*
X65420635Y-87221692D01*
X65437634Y-87027384D01*
X65440468Y-86995001D01*
X65440468Y-86994998D01*
X65420635Y-86768313D01*
X65420635Y-86768308D01*
X65361739Y-86548504D01*
X65265568Y-86342266D01*
X65135047Y-86155861D01*
X65135045Y-86155858D01*
X64974141Y-85994954D01*
X64787734Y-85864432D01*
X64787732Y-85864431D01*
X64581497Y-85768261D01*
X64581488Y-85768258D01*
X64361697Y-85709366D01*
X64361693Y-85709365D01*
X64361692Y-85709365D01*
X64361691Y-85709364D01*
X64361686Y-85709364D01*
X64135002Y-85689532D01*
X64134998Y-85689532D01*
X63908313Y-85709364D01*
X63908302Y-85709366D01*
X63688511Y-85768258D01*
X63688502Y-85768261D01*
X63482267Y-85864431D01*
X63482265Y-85864432D01*
X63295858Y-85994954D01*
X63134954Y-86155858D01*
X63004432Y-86342265D01*
X63004431Y-86342267D01*
X62908261Y-86548502D01*
X62908258Y-86548511D01*
X62849366Y-86768302D01*
X62849364Y-86768313D01*
X62829532Y-86994998D01*
X62829532Y-86995001D01*
X55280468Y-86995001D01*
X55280468Y-86994998D01*
X55260635Y-86768313D01*
X55260635Y-86768308D01*
X55201739Y-86548504D01*
X55105568Y-86342266D01*
X54975047Y-86155861D01*
X54975045Y-86155858D01*
X54814141Y-85994954D01*
X54627734Y-85864432D01*
X54627732Y-85864431D01*
X54421497Y-85768261D01*
X54421488Y-85768258D01*
X54201697Y-85709366D01*
X54201693Y-85709365D01*
X54201692Y-85709365D01*
X54201691Y-85709364D01*
X54201686Y-85709364D01*
X53975002Y-85689532D01*
X53974998Y-85689532D01*
X53748313Y-85709364D01*
X53748302Y-85709366D01*
X53528511Y-85768258D01*
X53528502Y-85768261D01*
X53322267Y-85864431D01*
X53322265Y-85864432D01*
X53135858Y-85994954D01*
X52974954Y-86155858D01*
X52844432Y-86342265D01*
X52844431Y-86342267D01*
X52748261Y-86548502D01*
X52748258Y-86548511D01*
X52689366Y-86768302D01*
X52689364Y-86768313D01*
X52669532Y-86994998D01*
X52669532Y-86995001D01*
X50165500Y-86995001D01*
X50165500Y-82550001D01*
X52669532Y-82550001D01*
X52689364Y-82776686D01*
X52689366Y-82776697D01*
X52748258Y-82996488D01*
X52748261Y-82996497D01*
X52844431Y-83202732D01*
X52844432Y-83202734D01*
X52974954Y-83389141D01*
X53135858Y-83550045D01*
X53135861Y-83550047D01*
X53322266Y-83680568D01*
X53528504Y-83776739D01*
X53748308Y-83835635D01*
X53910230Y-83849801D01*
X53974998Y-83855468D01*
X53975000Y-83855468D01*
X53975002Y-83855468D01*
X54031673Y-83850509D01*
X54201692Y-83835635D01*
X54421496Y-83776739D01*
X54627734Y-83680568D01*
X54814139Y-83550047D01*
X54975047Y-83389139D01*
X55105568Y-83202734D01*
X55201739Y-82996496D01*
X55260635Y-82776692D01*
X55280468Y-82550001D01*
X62829532Y-82550001D01*
X62849364Y-82776686D01*
X62849366Y-82776697D01*
X62908258Y-82996488D01*
X62908261Y-82996497D01*
X63004431Y-83202732D01*
X63004432Y-83202734D01*
X63134954Y-83389141D01*
X63295858Y-83550045D01*
X63295861Y-83550047D01*
X63482266Y-83680568D01*
X63688504Y-83776739D01*
X63908308Y-83835635D01*
X64070230Y-83849801D01*
X64134998Y-83855468D01*
X64135000Y-83855468D01*
X64135002Y-83855468D01*
X64191673Y-83850509D01*
X64361692Y-83835635D01*
X64581496Y-83776739D01*
X64787734Y-83680568D01*
X64974139Y-83550047D01*
X65135047Y-83389139D01*
X65265568Y-83202734D01*
X65361739Y-82996496D01*
X65420635Y-82776692D01*
X65440468Y-82550000D01*
X65420635Y-82323308D01*
X65361739Y-82103504D01*
X65265568Y-81897266D01*
X65135047Y-81710861D01*
X65135045Y-81710858D01*
X64974141Y-81549954D01*
X64787734Y-81419432D01*
X64787732Y-81419431D01*
X64581497Y-81323261D01*
X64581488Y-81323258D01*
X64361697Y-81264366D01*
X64361693Y-81264365D01*
X64361692Y-81264365D01*
X64361691Y-81264364D01*
X64361686Y-81264364D01*
X64135002Y-81244532D01*
X64134998Y-81244532D01*
X63908313Y-81264364D01*
X63908302Y-81264366D01*
X63688511Y-81323258D01*
X63688502Y-81323261D01*
X63482267Y-81419431D01*
X63482265Y-81419432D01*
X63295858Y-81549954D01*
X63134954Y-81710858D01*
X63004432Y-81897265D01*
X63004431Y-81897267D01*
X62908261Y-82103502D01*
X62908258Y-82103511D01*
X62849366Y-82323302D01*
X62849364Y-82323313D01*
X62829532Y-82549998D01*
X62829532Y-82550001D01*
X55280468Y-82550001D01*
X55280468Y-82550000D01*
X55260635Y-82323308D01*
X55201739Y-82103504D01*
X55105568Y-81897266D01*
X54975047Y-81710861D01*
X54975045Y-81710858D01*
X54814141Y-81549954D01*
X54627734Y-81419432D01*
X54627732Y-81419431D01*
X54421497Y-81323261D01*
X54421488Y-81323258D01*
X54201697Y-81264366D01*
X54201693Y-81264365D01*
X54201692Y-81264365D01*
X54201691Y-81264364D01*
X54201686Y-81264364D01*
X53975002Y-81244532D01*
X53974998Y-81244532D01*
X53748313Y-81264364D01*
X53748302Y-81264366D01*
X53528511Y-81323258D01*
X53528502Y-81323261D01*
X53322267Y-81419431D01*
X53322265Y-81419432D01*
X53135858Y-81549954D01*
X52974954Y-81710858D01*
X52844432Y-81897265D01*
X52844431Y-81897267D01*
X52748261Y-82103502D01*
X52748258Y-82103511D01*
X52689366Y-82323302D01*
X52689364Y-82323313D01*
X52669532Y-82549998D01*
X52669532Y-82550001D01*
X50165500Y-82550001D01*
X50165500Y-78105001D01*
X52669532Y-78105001D01*
X52689364Y-78331686D01*
X52689366Y-78331697D01*
X52748258Y-78551488D01*
X52748261Y-78551497D01*
X52844431Y-78757732D01*
X52844432Y-78757734D01*
X52974954Y-78944141D01*
X53135858Y-79105045D01*
X53135861Y-79105047D01*
X53322266Y-79235568D01*
X53528504Y-79331739D01*
X53748308Y-79390635D01*
X53910230Y-79404801D01*
X53974998Y-79410468D01*
X53975000Y-79410468D01*
X53975002Y-79410468D01*
X54031672Y-79405509D01*
X54201692Y-79390635D01*
X54421496Y-79331739D01*
X54627734Y-79235568D01*
X54814139Y-79105047D01*
X54975047Y-78944139D01*
X55105568Y-78757734D01*
X55201739Y-78551496D01*
X55260635Y-78331692D01*
X55280468Y-78105001D01*
X62829532Y-78105001D01*
X62849364Y-78331686D01*
X62849366Y-78331697D01*
X62908258Y-78551488D01*
X62908261Y-78551497D01*
X63004431Y-78757732D01*
X63004432Y-78757734D01*
X63134954Y-78944141D01*
X63295858Y-79105045D01*
X63295861Y-79105047D01*
X63482266Y-79235568D01*
X63688504Y-79331739D01*
X63908308Y-79390635D01*
X64070230Y-79404801D01*
X64134998Y-79410468D01*
X64135000Y-79410468D01*
X64135002Y-79410468D01*
X64191672Y-79405509D01*
X64361692Y-79390635D01*
X64581496Y-79331739D01*
X64787734Y-79235568D01*
X64974139Y-79105047D01*
X65135047Y-78944139D01*
X65265568Y-78757734D01*
X65361739Y-78551496D01*
X65420635Y-78331692D01*
X65440468Y-78105000D01*
X65438916Y-78087266D01*
X65428983Y-77973723D01*
X65420635Y-77878308D01*
X65361739Y-77658504D01*
X65265568Y-77452266D01*
X65135047Y-77265861D01*
X65135045Y-77265858D01*
X64974141Y-77104954D01*
X64787734Y-76974432D01*
X64787732Y-76974431D01*
X64581497Y-76878261D01*
X64581488Y-76878258D01*
X64361697Y-76819366D01*
X64361693Y-76819365D01*
X64361692Y-76819365D01*
X64361691Y-76819364D01*
X64361686Y-76819364D01*
X64135002Y-76799532D01*
X64134998Y-76799532D01*
X63908313Y-76819364D01*
X63908302Y-76819366D01*
X63688511Y-76878258D01*
X63688502Y-76878261D01*
X63482267Y-76974431D01*
X63482265Y-76974432D01*
X63295858Y-77104954D01*
X63134954Y-77265858D01*
X63004432Y-77452265D01*
X63004431Y-77452267D01*
X62908261Y-77658502D01*
X62908258Y-77658511D01*
X62849366Y-77878302D01*
X62849364Y-77878313D01*
X62829532Y-78104998D01*
X62829532Y-78105001D01*
X55280468Y-78105001D01*
X55280468Y-78105000D01*
X55278916Y-78087266D01*
X55268983Y-77973723D01*
X55260635Y-77878308D01*
X55201739Y-77658504D01*
X55105568Y-77452266D01*
X54975047Y-77265861D01*
X54975045Y-77265858D01*
X54814141Y-77104954D01*
X54627734Y-76974432D01*
X54627732Y-76974431D01*
X54421497Y-76878261D01*
X54421488Y-76878258D01*
X54201697Y-76819366D01*
X54201693Y-76819365D01*
X54201692Y-76819365D01*
X54201691Y-76819364D01*
X54201686Y-76819364D01*
X53975002Y-76799532D01*
X53974998Y-76799532D01*
X53748313Y-76819364D01*
X53748302Y-76819366D01*
X53528511Y-76878258D01*
X53528502Y-76878261D01*
X53322267Y-76974431D01*
X53322265Y-76974432D01*
X53135858Y-77104954D01*
X52974954Y-77265858D01*
X52844432Y-77452265D01*
X52844431Y-77452267D01*
X52748261Y-77658502D01*
X52748258Y-77658511D01*
X52689366Y-77878302D01*
X52689364Y-77878313D01*
X52669532Y-78104998D01*
X52669532Y-78105001D01*
X50165500Y-78105001D01*
X50165500Y-73660001D01*
X52669532Y-73660001D01*
X52689364Y-73886686D01*
X52689366Y-73886697D01*
X52748258Y-74106488D01*
X52748261Y-74106497D01*
X52844431Y-74312732D01*
X52844432Y-74312734D01*
X52974954Y-74499141D01*
X53135858Y-74660045D01*
X53135861Y-74660047D01*
X53322266Y-74790568D01*
X53528504Y-74886739D01*
X53748308Y-74945635D01*
X53910230Y-74959801D01*
X53974998Y-74965468D01*
X53975000Y-74965468D01*
X53975002Y-74965468D01*
X54031673Y-74960509D01*
X54201692Y-74945635D01*
X54421496Y-74886739D01*
X54627734Y-74790568D01*
X54814139Y-74660047D01*
X54975047Y-74499139D01*
X55105568Y-74312734D01*
X55201739Y-74106496D01*
X55260635Y-73886692D01*
X55280468Y-73660001D01*
X62829532Y-73660001D01*
X62849364Y-73886686D01*
X62849366Y-73886697D01*
X62908258Y-74106488D01*
X62908261Y-74106497D01*
X63004431Y-74312732D01*
X63004432Y-74312734D01*
X63134954Y-74499141D01*
X63295858Y-74660045D01*
X63295861Y-74660047D01*
X63482266Y-74790568D01*
X63688504Y-74886739D01*
X63908308Y-74945635D01*
X64070230Y-74959801D01*
X64134998Y-74965468D01*
X64135000Y-74965468D01*
X64135002Y-74965468D01*
X64191673Y-74960509D01*
X64361692Y-74945635D01*
X64581496Y-74886739D01*
X64787734Y-74790568D01*
X64974139Y-74660047D01*
X65135047Y-74499139D01*
X65265568Y-74312734D01*
X65361739Y-74106496D01*
X65420635Y-73886692D01*
X65440468Y-73660000D01*
X65420635Y-73433308D01*
X65361739Y-73213504D01*
X65265568Y-73007266D01*
X65135047Y-72820861D01*
X65135045Y-72820858D01*
X64974141Y-72659954D01*
X64787734Y-72529432D01*
X64787732Y-72529431D01*
X64581497Y-72433261D01*
X64581488Y-72433258D01*
X64361697Y-72374366D01*
X64361693Y-72374365D01*
X64361692Y-72374365D01*
X64361691Y-72374364D01*
X64361686Y-72374364D01*
X64135002Y-72354532D01*
X64134998Y-72354532D01*
X63908313Y-72374364D01*
X63908302Y-72374366D01*
X63688511Y-72433258D01*
X63688502Y-72433261D01*
X63482267Y-72529431D01*
X63482265Y-72529432D01*
X63295858Y-72659954D01*
X63134954Y-72820858D01*
X63004432Y-73007265D01*
X63004431Y-73007267D01*
X62908261Y-73213502D01*
X62908258Y-73213511D01*
X62849366Y-73433302D01*
X62849364Y-73433313D01*
X62829532Y-73659998D01*
X62829532Y-73660001D01*
X55280468Y-73660001D01*
X55280468Y-73660000D01*
X55260635Y-73433308D01*
X55201739Y-73213504D01*
X55105568Y-73007266D01*
X54975047Y-72820861D01*
X54975045Y-72820858D01*
X54814141Y-72659954D01*
X54627734Y-72529432D01*
X54627732Y-72529431D01*
X54421497Y-72433261D01*
X54421488Y-72433258D01*
X54201697Y-72374366D01*
X54201693Y-72374365D01*
X54201692Y-72374365D01*
X54201691Y-72374364D01*
X54201686Y-72374364D01*
X53975002Y-72354532D01*
X53974998Y-72354532D01*
X53748313Y-72374364D01*
X53748302Y-72374366D01*
X53528511Y-72433258D01*
X53528502Y-72433261D01*
X53322267Y-72529431D01*
X53322265Y-72529432D01*
X53135858Y-72659954D01*
X52974954Y-72820858D01*
X52844432Y-73007265D01*
X52844431Y-73007267D01*
X52748261Y-73213502D01*
X52748258Y-73213511D01*
X52689366Y-73433302D01*
X52689364Y-73433313D01*
X52669532Y-73659998D01*
X52669532Y-73660001D01*
X50165500Y-73660001D01*
X50165500Y-66675000D01*
X55159341Y-66675000D01*
X55179936Y-66910403D01*
X55179938Y-66910413D01*
X55241094Y-67138655D01*
X55241096Y-67138659D01*
X55241097Y-67138663D01*
X55289347Y-67242135D01*
X55340965Y-67352830D01*
X55340967Y-67352834D01*
X55449281Y-67507521D01*
X55476505Y-67546401D01*
X55643599Y-67713495D01*
X55682682Y-67740861D01*
X55837165Y-67849032D01*
X55837167Y-67849033D01*
X55837170Y-67849035D01*
X56051337Y-67948903D01*
X56051343Y-67948904D01*
X56051344Y-67948905D01*
X56074782Y-67955185D01*
X56279592Y-68010063D01*
X56450319Y-68025000D01*
X56514999Y-68030659D01*
X56515000Y-68030659D01*
X56515001Y-68030659D01*
X56579681Y-68025000D01*
X56750408Y-68010063D01*
X56978663Y-67948903D01*
X57192830Y-67849035D01*
X57386401Y-67713495D01*
X57553495Y-67546401D01*
X57683426Y-67360840D01*
X57738001Y-67317217D01*
X57807499Y-67310023D01*
X57869854Y-67341546D01*
X57886574Y-67360841D01*
X57929666Y-67422382D01*
X58016505Y-67546401D01*
X58183599Y-67713495D01*
X58222682Y-67740861D01*
X58377165Y-67849032D01*
X58377167Y-67849033D01*
X58377170Y-67849035D01*
X58591337Y-67948903D01*
X58591343Y-67948904D01*
X58591344Y-67948905D01*
X58614782Y-67955185D01*
X58819592Y-68010063D01*
X58990319Y-68025000D01*
X59054999Y-68030659D01*
X59055000Y-68030659D01*
X59055001Y-68030659D01*
X59119681Y-68025000D01*
X59290408Y-68010063D01*
X59518663Y-67948903D01*
X59732830Y-67849035D01*
X59926401Y-67713495D01*
X60048717Y-67591178D01*
X60110036Y-67557696D01*
X60179728Y-67562680D01*
X60235662Y-67604551D01*
X60252577Y-67635528D01*
X60301646Y-67767088D01*
X60301649Y-67767093D01*
X60387809Y-67882187D01*
X60387812Y-67882190D01*
X60502906Y-67968350D01*
X60502913Y-67968354D01*
X60637620Y-68018596D01*
X60637627Y-68018598D01*
X60697155Y-68024999D01*
X60697172Y-68025000D01*
X61344999Y-68025000D01*
X61345000Y-67287301D01*
X61364685Y-67220262D01*
X61417489Y-67174507D01*
X61486647Y-67164563D01*
X61559237Y-67175000D01*
X61559238Y-67175000D01*
X61630762Y-67175000D01*
X61630763Y-67175000D01*
X61703353Y-67164563D01*
X61772512Y-67174507D01*
X61825315Y-67220262D01*
X61845000Y-67287301D01*
X61845000Y-68025000D01*
X62492828Y-68025000D01*
X62492844Y-68024999D01*
X62552372Y-68018598D01*
X62552379Y-68018596D01*
X62687086Y-67968354D01*
X62687093Y-67968350D01*
X62802187Y-67882190D01*
X62802190Y-67882187D01*
X62888350Y-67767093D01*
X62888354Y-67767086D01*
X62938596Y-67632379D01*
X62938598Y-67632372D01*
X62944999Y-67572844D01*
X62945000Y-67572827D01*
X62945000Y-66925000D01*
X62208347Y-66925000D01*
X62141308Y-66905315D01*
X62095553Y-66852511D01*
X62085609Y-66783353D01*
X62089369Y-66766067D01*
X62095000Y-66746888D01*
X62095000Y-66603111D01*
X62089369Y-66583933D01*
X62089370Y-66514064D01*
X62127145Y-66455286D01*
X62190701Y-66426262D01*
X62208347Y-66425000D01*
X62944999Y-66425000D01*
X62945000Y-65777172D01*
X62944999Y-65777155D01*
X62938598Y-65717627D01*
X62938596Y-65717620D01*
X62888354Y-65582913D01*
X62888350Y-65582906D01*
X62802190Y-65467812D01*
X62802187Y-65467809D01*
X62687093Y-65381649D01*
X62687086Y-65381645D01*
X62552379Y-65331403D01*
X62552372Y-65331401D01*
X62492844Y-65325000D01*
X61845000Y-65325000D01*
X61845000Y-66062698D01*
X61825315Y-66129737D01*
X61772511Y-66175492D01*
X61703355Y-66185436D01*
X61630766Y-66175000D01*
X61630763Y-66175000D01*
X61559237Y-66175000D01*
X61559233Y-66175000D01*
X61486645Y-66185436D01*
X61417487Y-66175492D01*
X61364684Y-66129736D01*
X61345000Y-66062698D01*
X61345000Y-65325000D01*
X60697155Y-65325000D01*
X60637627Y-65331401D01*
X60637620Y-65331403D01*
X60502913Y-65381645D01*
X60502906Y-65381649D01*
X60387812Y-65467809D01*
X60387809Y-65467812D01*
X60301649Y-65582906D01*
X60301645Y-65582913D01*
X60252578Y-65714470D01*
X60210707Y-65770404D01*
X60145242Y-65794821D01*
X60076969Y-65779969D01*
X60048715Y-65758819D01*
X60004366Y-65714470D01*
X59926401Y-65636505D01*
X59926397Y-65636502D01*
X59926396Y-65636501D01*
X59732834Y-65500967D01*
X59732830Y-65500965D01*
X59661727Y-65467809D01*
X59518663Y-65401097D01*
X59518659Y-65401096D01*
X59518655Y-65401094D01*
X59290413Y-65339938D01*
X59290403Y-65339936D01*
X59055001Y-65319341D01*
X59054999Y-65319341D01*
X58819596Y-65339936D01*
X58819586Y-65339938D01*
X58591344Y-65401094D01*
X58591335Y-65401098D01*
X58377171Y-65500964D01*
X58377169Y-65500965D01*
X58183597Y-65636505D01*
X58016505Y-65803597D01*
X57886575Y-65989158D01*
X57831998Y-66032783D01*
X57762500Y-66039977D01*
X57700145Y-66008454D01*
X57683425Y-65989158D01*
X57553494Y-65803597D01*
X57386402Y-65636506D01*
X57386395Y-65636501D01*
X57375011Y-65628530D01*
X57324989Y-65593504D01*
X57192834Y-65500967D01*
X57192830Y-65500965D01*
X57121727Y-65467809D01*
X56978663Y-65401097D01*
X56978659Y-65401096D01*
X56978655Y-65401094D01*
X56750413Y-65339938D01*
X56750403Y-65339936D01*
X56515001Y-65319341D01*
X56514999Y-65319341D01*
X56279596Y-65339936D01*
X56279586Y-65339938D01*
X56051344Y-65401094D01*
X56051335Y-65401098D01*
X55837171Y-65500964D01*
X55837169Y-65500965D01*
X55643597Y-65636505D01*
X55476505Y-65803597D01*
X55340965Y-65997169D01*
X55340964Y-65997171D01*
X55241098Y-66211335D01*
X55241094Y-66211344D01*
X55179938Y-66439586D01*
X55179936Y-66439596D01*
X55159341Y-66674999D01*
X55159341Y-66675000D01*
X50165500Y-66675000D01*
X50165500Y-64769999D01*
X50174992Y-64528388D01*
X50183677Y-64318422D01*
X50184050Y-64313750D01*
X50212019Y-64077440D01*
X50238973Y-63861205D01*
X50239682Y-63856811D01*
X50285850Y-63624710D01*
X50330891Y-63409905D01*
X50331879Y-63405881D01*
X50395979Y-63178600D01*
X50458812Y-62967552D01*
X50460051Y-62963833D01*
X50541672Y-62742587D01*
X50621923Y-62536922D01*
X50623346Y-62533576D01*
X50722041Y-62319490D01*
X50819155Y-62120843D01*
X50820710Y-62117874D01*
X50935886Y-61912214D01*
X51049213Y-61722028D01*
X51050861Y-61719418D01*
X51181842Y-61523390D01*
X51310621Y-61343025D01*
X51312278Y-61340818D01*
X51458294Y-61155597D01*
X51602450Y-60985393D01*
X51763475Y-60811197D01*
X51921197Y-60653475D01*
X52095393Y-60492450D01*
X52265589Y-60348300D01*
X52450818Y-60202278D01*
X52453025Y-60200621D01*
X52633390Y-60071842D01*
X52829418Y-59940861D01*
X52832028Y-59939213D01*
X53022214Y-59825886D01*
X53227874Y-59710710D01*
X53230843Y-59709155D01*
X53429490Y-59612041D01*
X53643576Y-59513346D01*
X53646922Y-59511923D01*
X53852570Y-59431679D01*
X54073833Y-59350051D01*
X54077552Y-59348812D01*
X54288600Y-59285979D01*
X54515881Y-59221879D01*
X54519905Y-59220891D01*
X54734710Y-59175850D01*
X54966811Y-59129682D01*
X54971205Y-59128973D01*
X55187440Y-59102019D01*
X55423750Y-59074050D01*
X55428422Y-59073677D01*
X55638369Y-59064993D01*
X55880000Y-59055500D01*
X55880500Y-59055500D01*
X86870500Y-59055500D01*
X86937539Y-59075185D01*
G37*
%TD.AperFunction*%
%TD*%
M02*
